<svg width="21" height="24" viewBox="0 0 21 24" fill="none" xmlns="http://www.w3.org/2000/svg">
<path fill="black" d="M20.5929 17.4878C20.0409 18.7099 19.7769 19.2564 19.0679 20.3364C18.0775 21.8447 16.679 23.7268 14.9501 23.7398C13.4123 23.7527 13.0153 22.7364 10.9283 22.753C8.84118 22.7631 8.40641 23.7582 6.86672 23.7425C5.1378 23.7268 3.8141 22.0311 2.82272 20.5256C0.0507192 16.3025 -0.241896 11.353 1.47133 8.71944C2.68333 6.85206 4.60149 5.75545 6.40241 5.75545C8.23656 5.75545 9.38949 6.76344 10.9061 6.76344C12.3775 6.76344 13.2738 5.75268 15.395 5.75268C16.9993 5.75268 18.6959 6.62683 19.9079 8.13514C15.9424 10.3081 16.5867 15.9721 20.5929 17.4878ZM13.7852 4.06714C14.5569 3.07668 15.1421 1.67914 14.9298 0.253906C13.6707 0.339752 12.1984 1.14375 11.3381 2.18498C10.559 3.13298 9.91287 4.5416 10.1649 5.90406C11.5384 5.94837 12.9599 5.1296 13.7852 4.06714Z" />
</svg>
