<svg width="24" height="24" viewBox="0 0 24 24" fill="none" xmlns="http://www.w3.org/2000/svg">
<circle cx="12" cy="12" r="12" fill="white"/>
<g clip-path="url(#clip0_137_947)">
<path d="M23.9784 12.705C23.9065 13.5459 23.7411 14.3728 23.4822 15.1787C23.1369 16.2649 22.6335 17.281 21.979 18.2271C21.641 18.7106 21.2742 19.1731 20.8642 19.6006C20.7348 19.7337 20.6197 19.8739 20.4615 20.007C20.4111 19.8318 20.368 19.6636 20.3176 19.5025C20.0659 18.6475 19.7207 17.8346 19.2748 17.0568C18.9008 16.398 18.4549 15.7954 17.9443 15.2278C17.5631 14.8003 17.1316 14.4149 16.6785 14.0575C16.175 13.665 15.6356 13.3287 15.053 13.0484C14.6071 12.8311 14.1396 12.6559 13.665 12.5158C13.0752 12.3476 12.7228 11.7589 12.8595 11.1913C12.9098 10.9811 13.0321 10.8129 13.1975 10.6727C13.7872 10.1752 14.3914 9.71268 15.0315 9.27821C16.1031 8.56342 17.2394 7.95375 18.4477 7.46321C19.1885 7.16188 19.9437 6.89559 20.7204 6.69236C20.742 6.68535 20.7564 6.68535 20.7779 6.67134C20.8427 6.64331 20.8786 6.60827 20.8714 6.53118C20.8642 6.46111 20.8067 6.43308 20.7492 6.42607C20.332 6.41205 19.9149 6.37701 19.4978 6.41205C19.3108 6.42607 19.1238 6.42607 18.9368 6.44008C18.3614 6.47512 17.7932 6.55221 17.2251 6.65732C16.513 6.78346 15.8226 6.97267 15.1393 7.20392C14.7006 7.35109 14.2763 7.52628 13.852 7.71549C13.3557 7.93973 12.8882 8.19201 12.4135 8.4583C11.7806 8.8157 11.1549 8.75263 10.558 8.37421C9.83878 7.91871 9.06922 7.61037 8.22056 7.49825C7.15613 7.35809 6.12766 7.49825 5.14234 7.94674C4.11387 8.41626 3.30117 9.12404 2.71142 10.0631C2.33024 10.6727 2.08571 11.3455 1.98502 12.0533C1.84837 12.9993 1.94906 13.9243 2.30866 14.8143C2.55319 15.41 2.89122 15.9566 3.33713 16.4331C3.67516 16.7905 3.87654 17.2109 3.86934 17.7085C3.86934 17.8697 3.82619 18.0308 3.77585 18.185C3.61043 18.6826 3.48816 19.1871 3.40186 19.6987C3.39467 19.7337 3.39467 19.7758 3.35871 19.7828C3.32994 19.7898 3.31555 19.7617 3.29398 19.7407C2.94156 19.3693 2.60354 18.9839 2.30147 18.5774C1.6326 17.6804 1.10758 16.7204 0.712017 15.6833C0.453102 15.0035 0.273299 14.2957 0.151034 13.5809C0.100689 13.2796 0.0647288 12.9713 0.0215763 12.6699C0.0431525 12.4597 0.0287684 12.2565 0 12.0533C0 11.808 0 11.5627 0 11.3245C0.0287684 11.0932 0.0359604 10.869 0.0431525 10.6377C0.0431525 10.6097 0.0431525 10.5746 0.0431525 10.5466C0.0719209 10.5186 0.0647288 10.4835 0.0575367 10.4555C0.0575367 10.4275 0.0647288 10.3994 0.0647288 10.3644C0.100689 10.3224 0.0863051 10.2733 0.0863051 10.2242C0.0863051 10.1962 0.0934971 10.1682 0.0934971 10.1331C0.115073 10.1121 0.115073 10.0911 0.107881 10.0631C0.107881 10.042 0.107881 10.021 0.107881 9.99299C0.13665 9.96496 0.129458 9.93693 0.129458 9.90189C0.129458 9.88087 0.129458 9.85985 0.13665 9.83181C0.165418 9.76875 0.186994 9.69867 0.179802 9.62158C0.179802 9.60757 0.179802 9.59355 0.186994 9.57954C0.208571 9.56552 0.208571 9.55151 0.201378 9.53048C0.208571 9.50245 0.208571 9.47442 0.215763 9.44639C0.244531 9.41836 0.237339 9.39033 0.237339 9.35529C0.352412 8.83672 0.489062 8.33216 0.668864 7.83462C1.02847 6.8185 1.53191 5.87246 2.15763 4.9965C2.71142 4.22565 3.35151 3.52488 4.07791 2.9082C4.78993 2.30554 5.55948 1.77996 6.39377 1.35249C7.22805 0.91801 8.10548 0.588647 9.02607 0.364401C9.03326 0.357393 9.04765 0.357393 9.05484 0.350385C9.07642 0.350385 9.09799 0.343378 9.11957 0.343378C9.12676 0.33637 9.14114 0.33637 9.14834 0.329362C9.16991 0.329362 9.19149 0.322355 9.21307 0.322355C9.25622 0.329362 9.29937 0.315347 9.33533 0.287316C9.35691 0.287316 9.37848 0.280308 9.40006 0.280308C9.40725 0.273301 9.42164 0.273301 9.42883 0.266293C9.4576 0.259285 9.48637 0.259285 9.51513 0.252277C9.57986 0.24527 9.64459 0.24527 9.70213 0.210231C9.7309 0.203224 9.75966 0.203224 9.78843 0.196216C9.84597 0.196216 9.90351 0.196216 9.95385 0.161177C9.97543 0.161177 9.997 0.15417 10.0258 0.15417C10.0617 0.161177 10.0905 0.168185 10.1193 0.133146C10.1337 0.133146 10.148 0.133146 10.1624 0.133146C10.1984 0.140154 10.2272 0.140154 10.2559 0.112123C10.2775 0.112123 10.2991 0.112123 10.3278 0.105116C10.335 0.0981079 10.3494 0.0981079 10.3566 0.0911002C10.3998 0.0911002 10.4429 0.0840925 10.4933 0.0840925C10.5436 0.0840925 10.5939 0.0981079 10.6371 0.0630694C10.6587 0.0630694 10.6803 0.0630694 10.709 0.0630694C10.7162 0.0630694 10.7234 0.0630694 10.7378 0.0630694C10.7522 0.0630694 10.7666 0.0630694 10.7809 0.0560617C10.8097 0.0700771 10.8313 0.0700771 10.8529 0.0420463C10.8816 0.0420463 10.9176 0.0420463 10.9464 0.0420463C11.1405 0.0350385 11.3419 0.0280308 11.5361 0.0210231C11.5649 0.0210231 11.6008 0.0280308 11.6224 0C11.8741 0 12.1259 0 12.3704 0C12.6221 0.0280308 12.8738 0.0420463 13.1184 0.0420463C13.1328 0.0420463 13.1471 0.0420463 13.1615 0.0420463C13.1903 0.0700771 13.2263 0.0630694 13.255 0.0560617C13.291 0.0560617 13.3341 0.0630694 13.3701 0.0630694C13.3845 0.0770848 13.3989 0.0840925 13.4204 0.0770848C13.4348 0.0770848 13.4492 0.0840925 13.4636 0.0840925C13.4708 0.0840925 13.478 0.0840925 13.4924 0.0840925C13.5139 0.0840925 13.5355 0.0840925 13.5643 0.0911002C13.593 0.119131 13.6218 0.112123 13.6578 0.112123C13.6937 0.112123 13.7297 0.119131 13.7729 0.119131C13.7872 0.133146 13.8016 0.140154 13.8232 0.133146C13.852 0.133146 13.8879 0.140154 13.9167 0.140154C13.9311 0.161177 13.9455 0.161177 13.967 0.15417C13.9886 0.15417 14.0102 0.161177 14.0318 0.161177C14.0461 0.175193 14.0605 0.1822 14.0821 0.175193C14.1037 0.175193 14.1253 0.1822 14.1468 0.1822C14.1612 0.203224 14.1756 0.203224 14.1972 0.196216C14.226 0.203224 14.2547 0.203224 14.2835 0.210231C14.2979 0.231254 14.3123 0.231254 14.3338 0.224247C14.3698 0.231254 14.4058 0.231254 14.4417 0.238262C14.4489 0.24527 14.4633 0.24527 14.4705 0.252277C14.528 0.266293 14.5927 0.273301 14.6503 0.287316C14.6575 0.294324 14.6719 0.294324 14.6791 0.301331C15.125 0.392432 15.5205 0.504555 15.9161 0.637702C16.7504 0.911002 17.5343 1.2754 18.2823 1.7239C19.2245 2.29152 20.0731 2.96426 20.8211 3.75613C21.2814 4.24667 21.6985 4.76524 22.0725 5.31885C22.727 6.28591 23.2161 7.33006 23.5469 8.44429C23.7627 9.1801 23.9065 9.93693 23.9712 10.7008C23.9712 10.7078 23.9712 10.7148 23.9712 10.7288C23.9712 10.7498 23.9712 10.7708 23.9784 10.7919C23.9856 10.904 23.9856 11.0231 23.9928 11.1352C24 11.2053 23.9784 11.2754 24.0144 11.3455C24.0144 11.5908 24.0144 11.836 24.0144 12.0743C23.9712 12.2635 24 12.4597 23.9784 12.6489C23.9784 12.6629 23.9784 12.6769 23.9784 12.691C23.9784 12.684 23.9784 12.698 23.9784 12.705Z" fill="#4BBFD9"/>
<path d="M13.1471 0.0078125C13.1471 0.0218279 13.1471 0.0358433 13.1471 0.0498587C12.8954 0.0498587 12.6437 0.0358433 12.3992 0.0078125C12.6437 0.0078125 12.8954 0.0078125 13.1471 0.0078125Z" fill="#C0E6EF"/>
<path d="M0.0214844 10.6447C0.0358686 10.6447 0.0502527 10.6447 0.0646369 10.6447C0.0574448 10.876 0.0502527 11.1002 0.0214844 11.3315C0.0214844 11.1072 0.0214844 10.876 0.0214844 10.6447Z" fill="#C0E6EF"/>
<path d="M10.9607 0.0498587C10.9607 0.0358433 10.9607 0.0218279 10.9607 0.0078125C11.1836 0.0078125 11.4138 0.0078125 11.6367 0.0078125C11.608 0.0288356 11.5792 0.0288356 11.5504 0.0288356C11.3563 0.0358433 11.1621 0.042851 10.9607 0.0498587Z" fill="#C0E6EF"/>
<path d="M0.0214844 12.0586C0.0502527 12.2618 0.0646369 12.472 0.0430606 12.6753C0.0358686 12.6753 0.0286765 12.6753 0.0214844 12.6753C0.0214844 12.472 0.0214844 12.2688 0.0214844 12.0586Z" fill="#C0E6EF"/>
<path d="M23.9785 12.6332C24.0073 12.444 23.9785 12.2478 24.0145 12.0586C24.0145 12.2408 24.0145 12.423 24.0145 12.6052C24.0073 12.6192 23.9929 12.6262 23.9785 12.6332Z" fill="#C0E6EF"/>
<path d="M23.9856 10.7773C24 10.7773 24.0072 10.7773 24.0216 10.7844C24.0216 10.9666 24.0216 11.1488 24.0216 11.331C23.9856 11.2679 24.0072 11.1908 24 11.1207C23.9928 11.0086 23.9856 10.8965 23.9856 10.7773Z" fill="#C0E6EF"/>
<path d="M9.29944 11.0736C9.29944 11.431 9.00456 11.7253 8.63776 11.7183C8.25658 11.7113 7.96171 11.403 7.97609 11.0526C7.99047 10.7022 8.27816 10.4219 8.63776 10.4219C9.01894 10.4219 9.30663 10.7092 9.29944 11.0736Z" fill="#4BBFD9"/>
<path d="M23.9785 12.7038C23.9785 12.6968 23.9785 12.6898 23.9785 12.6758C23.9785 12.6828 23.9848 12.6898 23.9848 12.6968C23.9848 12.6968 23.9785 12.6968 23.9785 12.7038Z" fill="#C0E6EF"/>
<path d="M0.158193 9.84695C0.11504 9.76987 0.136616 9.69979 0.201345 9.63672C0.208537 9.7138 0.194153 9.78388 0.158193 9.84695Z" fill="#C0E6EF"/>
<path d="M9.53662 0.250614C9.59416 0.20156 9.6445 0.152506 9.72361 0.208568C9.66608 0.243607 9.60135 0.243607 9.53662 0.250614Z" fill="#C0E6EF"/>
<path d="M9.81006 0.194644C9.8604 0.152598 9.91075 0.117559 9.97548 0.159605C9.93232 0.201652 9.8676 0.194644 9.81006 0.194644Z" fill="#C0E6EF"/>
<path d="M13.1902 0.056058C13.2261 0.0210195 13.2621 0.0210195 13.2837 0.0700734C13.2549 0.0770812 13.219 0.0840889 13.1902 0.056058Z" fill="#C0E6EF"/>
<path d="M10.522 0.100044C10.5651 0.0790206 10.6083 0.0579974 10.6658 0.0790206C10.6155 0.114059 10.5651 0.100044 10.522 0.100044Z" fill="#C0E6EF"/>
<path d="M0.230056 9.46219C0.201288 9.42015 0.194096 9.39212 0.251632 9.37109C0.258825 9.39912 0.266017 9.43416 0.230056 9.46219Z" fill="#C0E6EF"/>
<path d="M0.0647048 10.552C0.0287443 10.517 0.0287443 10.482 0.0790889 10.4609C0.0934731 10.496 0.100665 10.524 0.0647048 10.552Z" fill="#C0E6EF"/>
<path d="M13.593 0.0992324C13.6362 0.0571862 13.6649 0.085217 13.6865 0.120256C13.6506 0.120256 13.6146 0.127263 13.593 0.0992324Z" fill="#C0E6EF"/>
<path d="M10.0474 0.162374C10.0761 0.134344 10.1049 0.106313 10.1409 0.141351C10.1193 0.169382 10.0833 0.169382 10.0474 0.162374Z" fill="#C0E6EF"/>
<path d="M9.22754 0.321244C9.25631 0.27219 9.30665 0.279197 9.3498 0.286205C9.31384 0.314236 9.27788 0.328251 9.22754 0.321244Z" fill="#C0E6EF"/>
<path d="M10.7954 0.0625617C10.817 0.0275232 10.8386 0.0205154 10.8673 0.0485463C10.8529 0.0765771 10.8242 0.0765771 10.7954 0.0625617Z" fill="#C0E6EF"/>
<path d="M0.136619 10.0052C0.100659 9.96312 0.136619 9.94209 0.158196 9.91406C0.165388 9.9491 0.165388 9.98414 0.136619 10.0052Z" fill="#C0E6EF"/>
<path d="M10.1912 0.141382C10.2199 0.120358 10.2415 0.0853199 10.2847 0.120358C10.2559 0.148389 10.2271 0.148389 10.1912 0.141382Z" fill="#C0E6EF"/>
<path d="M0.0934175 10.3706C0.0934175 10.3216 0.0790333 10.2725 0.114994 10.2305C0.114994 10.2795 0.129378 10.3286 0.0934175 10.3706Z" fill="#C0E6EF"/>
<path d="M14.0605 0.16976C14.0893 0.141729 14.1037 0.162753 14.1109 0.183776C14.0893 0.190783 14.0749 0.183776 14.0605 0.16976Z" fill="#C0E6EF"/>
<path d="M14.1755 0.19106C14.1971 0.16303 14.2115 0.177045 14.2259 0.205076C14.2043 0.212084 14.1899 0.205076 14.1755 0.19106Z" fill="#C0E6EF"/>
<path d="M14.3193 0.211935C14.3481 0.176896 14.3625 0.204927 14.3697 0.22595C14.3481 0.232958 14.3265 0.232958 14.3193 0.211935Z" fill="#C0E6EF"/>
<path d="M0.208552 9.59202C0.179784 9.571 0.194168 9.55698 0.222936 9.54297C0.230129 9.56399 0.222936 9.58501 0.208552 9.59202Z" fill="#C0E6EF"/>
<path d="M13.406 0.0777792C13.4276 0.0497484 13.442 0.0637638 13.4564 0.0917946C13.4348 0.0988023 13.4132 0.0917946 13.406 0.0777792Z" fill="#C0E6EF"/>
<path d="M13.9382 0.147139C13.967 0.1121 13.9814 0.133123 13.9886 0.161154C13.9742 0.168162 13.9526 0.161154 13.9382 0.147139Z" fill="#C0E6EF"/>
<path d="M0.115164 10.1482C0.115164 10.1202 0.107972 10.0991 0.129549 10.0781C0.143933 10.1062 0.143933 10.1272 0.115164 10.1482Z" fill="#C0E6EF"/>
<path d="M13.7944 0.127887C13.816 0.120529 13.8304 0.127887 13.8448 0.142603C13.8304 0.149961 13.8088 0.142603 13.7944 0.127887Z" fill="#C0E6EF"/>
<path d="M10.7305 0.0696309C10.7377 0.0549147 10.7449 0.0549147 10.7592 0.0696309C10.7449 0.0696309 10.7377 0.0696309 10.7305 0.0696309Z" fill="#C0E6EF"/>
<path d="M9.41455 0.280341C9.42174 0.272983 9.43613 0.272983 9.44332 0.265625C9.43613 0.265625 9.42893 0.272983 9.41455 0.280341Z" fill="#C0E6EF"/>
<path d="M9.13403 0.342841C9.14123 0.335483 9.15561 0.335483 9.1628 0.328125C9.15561 0.335483 9.14842 0.335483 9.13403 0.342841Z" fill="#C0E6EF"/>
<path d="M23.9785 10.6953C23.9785 10.7023 23.9848 10.7093 23.9848 10.7093L23.9785 10.7163C23.9785 10.7093 23.9785 10.7023 23.9785 10.6953Z" fill="#C0E6EF"/>
<path d="M9.04053 0.366279C9.04772 0.358921 9.0621 0.358921 9.0693 0.351562C9.0621 0.358921 9.05491 0.366279 9.04053 0.366279Z" fill="#C0E6EF"/>
<path d="M10.3567 0.120185C10.3639 0.112827 10.3783 0.112827 10.3855 0.105469C10.3783 0.105469 10.3639 0.112827 10.3567 0.120185Z" fill="#C0E6EF"/>
<path d="M14.4778 0.238281C14.485 0.245639 14.4994 0.245639 14.5066 0.252997C14.4922 0.252997 14.485 0.245639 14.4778 0.238281Z" fill="#C0E6EF"/>
<path d="M13.4924 0.0908084C13.4996 0.0841511 13.514 0.0841511 13.5212 0.0908084C13.514 0.0908084 13.5068 0.0908084 13.4924 0.0908084Z" fill="#C0E6EF"/>
</g>
<defs>
<clipPath id="clip0_137_947">
<rect width="24" height="20" fill="white"/>
</clipPath>
</defs>
</svg>
