<svg width="25" height="24" viewBox="0 0 25 24" fill="none" xmlns="http://www.w3.org/2000/svg">
<path d="M11.3298 5.58888C11.4098 5.55888 11.5198 5.54888 11.5898 5.58888C11.6098 5.59888 11.6298 5.61888 11.6198 5.63888V5.65888H11.6298C11.6098 5.71888 11.5098 5.70888 11.4598 5.72888C11.4098 5.74888 11.3698 5.79888 11.3198 5.79888C11.2698 5.79888 11.1898 5.77888 11.1798 5.72888C11.1698 5.65888 11.2698 5.58888 11.3298 5.58888ZM12.3498 5.72888C12.2998 5.70888 12.1998 5.71888 12.1898 5.65888V5.63888C12.1798 5.61888 12.1998 5.59888 12.2098 5.58888C12.2964 5.55385 12.3932 5.55385 12.4798 5.58888C12.5398 5.58888 12.6398 5.65888 12.6298 5.72888C12.6198 5.77888 12.5398 5.78888 12.4898 5.78888C12.4398 5.78888 12.3998 5.74888 12.3498 5.72888ZM10.5898 7.17888C10.8898 7.37888 11.2798 7.64888 11.7698 7.64888C12.2598 7.64888 12.8398 7.37888 13.1898 7.17888C13.3798 7.04888 13.6398 6.84888 13.8398 6.70888C13.9998 6.57888 13.9898 6.44888 14.1298 6.44888C14.2598 6.45888 14.1598 6.57888 13.9798 6.77888C13.7898 6.90888 13.5098 7.10888 13.2798 7.24888C12.8398 7.44888 12.3198 7.77888 11.7698 7.77888C11.2298 7.77888 10.7898 7.50888 10.4798 7.30888C10.3198 7.17888 10.1998 7.04888 10.0998 6.97888C9.93983 6.84888 9.95983 6.64888 10.0298 6.64888C10.1398 6.65888 10.1598 6.77888 10.2298 6.84888C10.3298 6.90888 10.4498 7.04888 10.5898 7.17888Z" fill="#F9C105"/>
<path d="M12.6302 5.72877C12.6202 5.77877 12.5402 5.78877 12.4902 5.78877C12.4402 5.78877 12.4002 5.74877 12.3502 5.72877C12.3002 5.70877 12.2002 5.71877 12.1902 5.65877V5.63877C12.1802 5.61877 12.2002 5.59877 12.2102 5.58877C12.2968 5.55374 12.3936 5.55374 12.4802 5.58877C12.5402 5.58877 12.6402 5.65877 12.6302 5.72877Z" fill="black"/>
<path d="M17.1298 10.98V11.9H16.581H16.5798C17.0792 12.8104 17.4366 13.7917 17.6398 14.81C17.7898 14.8 17.9698 14.83 18.1598 14.87C18.2398 14.66 18.2898 14.45 18.3198 14.24C18.5098 12.85 17.6298 11.49 17.1298 10.98ZM17.1298 10.98V11.9H16.581H16.5798C17.0792 12.8104 17.4366 13.7917 17.6398 14.81C17.7898 14.8 17.9698 14.83 18.1598 14.87C18.2398 14.66 18.2898 14.45 18.3198 14.24C18.5098 12.85 17.6298 11.49 17.1298 10.98ZM21.7798 18.95V18.86L21.7698 18.85C21.5998 18.65 21.5198 18.32 21.4298 17.93C21.3498 17.53 21.2498 17.14 20.9298 16.88C20.8698 16.83 20.8098 16.82 20.7398 16.75C20.6828 16.7121 20.6178 16.6882 20.5498 16.68C20.8298 15.86 20.8598 15.03 20.7198 14.24C20.6498 13.81 20.5298 13.39 20.3698 12.99C19.8298 11.58 18.8898 10.35 18.1698 9.51C17.7998 9.04 17.4198 8.57 17.1298 8.07C16.7998 7.5 16.5798 6.89 16.5898 6.14C16.6098 4.75 16.6998 2.58 15.7198 1.23C15.1998 0.5 14.3498 0 13.0098 0C12.8498 0 12.6898 0.01 12.5198 0.02C11.2498 0.12 10.4598 0.58 9.96982 1.23C8.81982 2.75 9.35982 5.27 9.31982 6.32C9.23982 7.41 9.01982 8.27 8.25982 9.34C7.94982 9.7 7.58982 10.14 7.23982 10.64C6.56982 11.58 5.89982 12.7 5.50982 13.86C5.25982 14.61 5.11982 15.38 5.18982 16.12L5.21982 16.35C5.17982 16.38 5.13982 16.42 5.10982 16.48C4.83982 16.75 4.64982 17.08 4.43982 17.32C4.22982 17.52 3.94982 17.59 3.62982 17.72C3.30982 17.86 2.95982 17.99 2.75982 18.4C2.65982 18.59 2.61982 18.8 2.61982 19C2.61982 19.2 2.64982 19.41 2.67982 19.54C2.73982 19.94 2.79982 20.27 2.71982 20.51C2.46982 21.19 2.43982 21.66 2.60982 22C2.78982 22.33 3.14982 22.46 3.55982 22.6C4.37982 22.8 5.48982 22.73 6.36982 23.2C7.29982 23.66 8.25982 23.87 9.00982 23.67C9.54982 23.55 9.99982 23.2 10.2398 22.72C10.2898 22.72 10.3298 22.72 10.3798 22.71C10.9398 22.68 11.5598 22.45 12.5198 22.39C12.7898 22.37 13.0798 22.4 13.3998 22.44C13.9098 22.52 14.4898 22.63 15.1298 22.59C15.1498 22.72 15.1898 22.78 15.2398 22.92H15.2498C15.6398 23.7 16.3698 24.05 17.1498 23.99C17.9298 23.93 18.7598 23.46 19.4398 22.69C20.0698 21.92 21.1398 21.6 21.8398 21.18C22.1898 20.99 22.4798 20.72 22.4998 20.33C22.5198 19.93 22.2998 19.52 21.7798 18.95ZM13.9998 4.64C13.9598 4.51 13.8998 4.44 13.8198 4.31C13.7298 4.24 13.6498 4.17 13.5498 4.17H13.5298C13.4398 4.17 13.3498 4.2 13.2698 4.31C13.1698 4.4 13.0998 4.51 13.0598 4.64C13.0098 4.77 12.9798 4.9 12.9698 5.04V5.06C12.9698 5.15 12.9798 5.24 12.9898 5.33C12.7898 5.26 12.5498 5.19 12.3798 5.12C12.3698 5.06 12.3598 4.99 12.3598 4.93V4.91C12.3498 4.64 12.3998 4.38 12.5098 4.14C12.5898 3.92 12.7398 3.73 12.9398 3.6C13.1198 3.47 13.3298 3.4 13.5398 3.4H13.5598C13.7698 3.4 13.9598 3.47 14.1498 3.6C14.3398 3.74 14.4798 3.93 14.5898 4.14C14.6998 4.39 14.7498 4.59 14.7598 4.86C14.7598 4.84 14.7698 4.82 14.7698 4.8V4.9C14.7598 4.9 14.7598 4.89 14.7598 4.88C14.7598 5.11 14.6998 5.35 14.6098 5.57C14.5598 5.69 14.4898 5.81 14.3898 5.9C14.3598 5.88 14.3298 5.87 14.2998 5.86C14.1998 5.81 14.0998 5.79 14.0098 5.73C13.9402 5.69626 13.8661 5.67268 13.7898 5.66C13.8398 5.6 13.9398 5.53 13.9798 5.46C14.0298 5.33 14.0598 5.2 14.0698 5.06V5.04C14.0698 4.91 14.0498 4.77 13.9998 4.64ZM9.83982 4.2C9.88982 4 9.98982 3.82 10.1298 3.66C10.2598 3.53 10.3898 3.46 10.5498 3.46H10.5798C10.7278 3.46214 10.8714 3.51115 10.9898 3.6C11.1398 3.73 11.2598 3.89 11.3398 4.06C11.4298 4.26 11.4798 4.46 11.4898 4.73C11.4998 4.8 11.4998 4.85 11.4998 4.9C11.4998 4.94 11.4998 4.97 11.4898 5V5.08C11.4642 5.0902 11.4373 5.09693 11.4098 5.1C11.2498 5.16 11.1298 5.24 11.0098 5.3C11.0198 5.22 11.0198 5.13 11.0098 5.04V5.02C10.9998 4.89 10.9698 4.82 10.9298 4.69C10.8965 4.58727 10.838 4.49448 10.7598 4.42C10.7338 4.39781 10.7035 4.38106 10.6709 4.37076C10.6383 4.36045 10.6039 4.35679 10.5698 4.36H10.5498C10.4798 4.36 10.4198 4.4 10.3698 4.49C10.2998 4.57 10.2598 4.66 10.2398 4.76C10.2198 4.87 10.2098 4.98 10.2198 5.09V5.11C10.2298 5.24 10.2598 5.31 10.2998 5.44C10.3498 5.57 10.3998 5.64 10.4698 5.71C10.4798 5.72 10.4898 5.73 10.4998 5.73C10.4298 5.79 10.3898 5.8 10.3298 5.87C10.2887 5.90305 10.2409 5.92692 10.1898 5.94C10.0898 5.81 9.99982 5.68 9.91982 5.53C9.81982 5.32 9.76982 5.1 9.75982 4.87C9.73982 4.64 9.76982 4.41 9.83982 4.2ZM9.94982 6.31C10.1698 6.17 10.3298 6.03 10.4398 5.97C10.5398 5.9 10.5798 5.87 10.6098 5.84H10.6198C10.7898 5.63 11.0598 5.37 11.4598 5.23C11.5998 5.2 11.7598 5.17 11.9398 5.17C12.2698 5.17 12.6798 5.23 13.1598 5.57C13.4598 5.77 13.6898 5.84 14.2298 6.04C14.4898 6.17 14.6398 6.3 14.7198 6.44V6.3C14.7898 6.45 14.7898 6.62 14.7298 6.77C14.6098 7.09 14.2098 7.42 13.6598 7.62C13.3798 7.75 13.1498 7.95 12.8698 8.08C12.5898 8.22 12.2798 8.38 11.8498 8.35C11.6964 8.36271 11.5421 8.33871 11.3998 8.28C11.2798 8.22 11.1698 8.16 11.0698 8.09C10.8698 7.95 10.6998 7.75 10.4498 7.62C10.0398 7.37 9.81982 7.1 9.74982 6.91C9.67982 6.64 9.74982 6.44 9.94982 6.31ZM10.1098 21.97C10.0498 22.71 9.61982 23.11 8.96982 23.26C8.30982 23.39 7.42982 23.26 6.53982 22.8C5.56982 22.26 4.39982 22.33 3.65982 22.19C3.27982 22.13 3.03982 21.99 2.91982 21.79C2.80982 21.59 2.80982 21.19 3.04982 20.56C3.16982 20.22 3.07982 19.8 3.01982 19.44C2.96982 19.04 2.93982 18.73 3.06982 18.5C3.22982 18.16 3.46982 18.1 3.75982 17.96C4.05982 17.83 4.40982 17.76 4.68982 17.5V17.49C4.94982 17.22 5.13982 16.89 5.36982 16.65C5.55982 16.45 5.74982 16.32 6.03982 16.32H6.04982C6.09982 16.32 6.14982 16.32 6.20982 16.33C6.58982 16.39 6.91982 16.67 7.23982 17.08L8.15982 18.75H8.16982C8.40982 19.28 8.92982 19.82 9.36982 20.39C9.80982 20.99 10.1498 21.52 10.1098 21.96V21.97ZM13.3998 21.33C12.4098 21.56 11.3598 21.49 10.3798 20.95C10.2598 20.89 10.1398 20.82 10.0298 20.74C9.91982 20.55 9.77982 20.37 9.61982 20.21C9.54622 20.0847 9.45149 19.973 9.33982 19.88C9.52982 19.88 9.68982 19.85 9.81982 19.81C9.95982 19.74 10.0798 19.62 10.1298 19.48C10.2398 19.21 10.1298 18.78 9.77982 18.31C9.42982 17.85 8.83982 17.32 7.97982 16.79C7.64982 16.58 7.39982 16.36 7.20982 16.12C7.01982 15.89 6.88982 15.65 6.80982 15.4C6.64982 14.86 6.66982 14.31 6.79982 13.75C6.94982 13.09 7.24982 12.45 7.53982 11.9C7.73982 11.55 7.92982 11.24 8.08982 10.99C8.18982 10.92 8.11982 11.11 7.69982 11.9L7.66982 11.96C7.26982 12.71 6.51982 14.46 7.54982 15.82C7.58982 14.83 7.80982 13.85 8.19982 12.94C8.32982 12.64 8.49982 12.29 8.67982 11.9C9.26982 10.65 9.98982 9.03 10.0598 7.67C10.1098 7.71 10.2798 7.81 10.3498 7.87C10.5698 8.01 10.7398 8.21 10.9498 8.34C11.1598 8.54 11.4298 8.67 11.8398 8.67C11.8798 8.68 11.9098 8.68 11.9498 8.68C12.3598 8.68 12.6898 8.55 12.9598 8.41C13.2498 8.28 13.4798 8.08 13.6998 8.01H13.7098C14.1798 7.88 14.5498 7.61 14.7698 7.31C15.1298 8.73 15.9798 10.79 16.5198 11.79C16.5404 11.8265 16.5608 11.8632 16.581 11.9C17.0798 12.8103 17.4369 13.7915 17.6398 14.81C17.7898 14.8 17.9698 14.83 18.1598 14.87C18.2398 14.66 18.2898 14.45 18.3198 14.24C18.5098 12.85 17.6298 11.49 17.1298 10.98C17.0998 10.96 17.0698 10.93 17.0498 10.91C16.8298 10.71 16.8198 10.57 16.9298 10.57C16.9998 10.63 17.0598 10.69 17.1298 10.76C17.6898 11.34 18.3398 12.27 18.5898 13.33C18.6698 13.62 18.7098 13.93 18.7098 14.24C18.7098 14.49 18.6798 14.75 18.6198 15C18.6798 15.03 18.7498 15.06 18.8198 15.07C19.8698 15.6 20.2498 16 20.0698 16.6V16.56H19.8698C20.0198 16.09 19.6898 15.73 18.7898 15.34C17.8698 14.94 17.1298 15 16.9998 15.8C16.9898 15.84 16.9898 15.87 16.9798 15.94C16.9098 15.96 16.8398 15.99 16.7698 16C16.3398 16.27 16.0998 16.67 15.9698 17.19C15.8398 17.72 15.7998 18.34 15.7598 19.06C15.7398 19.39 15.5898 19.9 15.4398 20.41C14.8298 20.84 14.1398 21.17 13.3998 21.33ZM21.6998 20.82C21.0698 21.22 19.9398 21.53 19.2198 22.39C18.5898 23.13 17.8298 23.53 17.1598 23.58C16.4898 23.63 15.9098 23.38 15.5698 22.68H15.5598C15.3498 22.28 15.4398 21.65 15.6198 20.99C15.7998 20.32 16.0498 19.64 16.0898 19.09C16.1198 18.38 16.1598 17.76 16.2798 17.28C16.4098 16.81 16.5998 16.48 16.9298 16.29L16.9798 16.27C17.0098 16.87 17.3198 17.51 17.8698 17.65C18.4598 17.78 19.3198 17.31 19.6798 16.88L19.8898 16.87C20.2098 16.86 20.4798 16.88 20.7498 17.14C20.9598 17.34 21.0598 17.67 21.1498 18.02C21.2398 18.42 21.3098 18.8 21.5598 19.08C22.0598 19.61 22.2198 19.99 22.2098 20.22C22.1898 20.49 22.0198 20.62 21.6998 20.82ZM17.1298 10.98V11.9H16.581H16.5798C17.0792 12.8104 17.4366 13.7917 17.6398 14.81C17.7898 14.8 17.9698 14.83 18.1598 14.87C18.2398 14.66 18.2898 14.45 18.3198 14.24C18.5098 12.85 17.6298 11.49 17.1298 10.98Z" fill="black"/>
<path d="M16.5798 11.9H16.581C16.5608 11.8632 16.5404 11.8265 16.5198 11.79C15.9798 10.79 15.1298 8.73 14.7698 7.31C14.5498 7.61 14.1798 7.88 13.7098 8.01H13.6998C13.4798 8.08 13.2498 8.28 12.9598 8.41C12.6898 8.55 12.3598 8.68 11.9498 8.68C11.9098 8.68 11.8798 8.68 11.8398 8.67C11.4298 8.67 11.1598 8.54 10.9498 8.34C10.7398 8.21 10.5698 8.01 10.3498 7.87C10.2798 7.81 10.1098 7.71 10.0598 7.67C9.98982 9.03 9.26982 10.65 8.67982 11.9C8.49982 12.29 8.32982 12.64 8.19982 12.94C7.80982 13.85 7.58982 14.83 7.54982 15.82C6.51982 14.46 7.26982 12.71 7.66982 11.96L7.69982 11.9C8.11982 11.11 8.18982 10.92 8.08982 10.99C7.92982 11.24 7.73982 11.55 7.53982 11.9C7.24982 12.45 6.94982 13.09 6.79982 13.75C6.66982 14.31 6.64982 14.86 6.80982 15.4C6.88982 15.65 7.01982 15.89 7.20982 16.12C7.39982 16.36 7.64982 16.58 7.97982 16.79C8.83982 17.32 9.42982 17.85 9.77982 18.31C10.1298 18.78 10.2398 19.21 10.1298 19.48C10.0798 19.62 9.95982 19.74 9.81982 19.81C9.68982 19.85 9.52982 19.88 9.33982 19.88C9.45149 19.973 9.54622 20.0847 9.61982 20.21C9.77982 20.37 9.91982 20.55 10.0298 20.74C10.1398 20.82 10.2598 20.89 10.3798 20.95C11.3598 21.49 12.4098 21.56 13.3998 21.33C14.1398 21.17 14.8298 20.84 15.4398 20.41C15.5898 19.9 15.7398 19.39 15.7598 19.06C15.7998 18.34 15.8398 17.72 15.9698 17.19C16.0998 16.67 16.3398 16.27 16.7698 16C16.8398 15.99 16.9098 15.96 16.9798 15.94C16.9898 15.87 16.9898 15.84 16.9998 15.8C17.1298 15 17.8698 14.94 18.7898 15.34C19.6898 15.73 20.0198 16.09 19.8698 16.56H20.0698V16.6C20.2498 16 19.8698 15.6 18.8198 15.07C18.7498 15.06 18.6798 15.03 18.6198 15C18.6798 14.75 18.7098 14.49 18.7098 14.24C18.7098 13.93 18.6698 13.62 18.5898 13.33C18.3398 12.27 17.6898 11.34 17.1298 10.76C17.0598 10.69 16.9998 10.63 16.9298 10.57C16.8198 10.57 16.8298 10.71 17.0498 10.91C17.0698 10.93 17.0998 10.96 17.1298 10.98C17.6298 11.49 18.5098 12.85 18.3198 14.24C18.2898 14.45 18.2398 14.66 18.1598 14.87C17.9698 14.83 17.7898 14.8 17.6398 14.81C17.4366 13.7917 17.0792 12.8104 16.5798 11.9Z" fill="white"/>
<path d="M13.9998 4.64C13.9598 4.51 13.8998 4.44 13.8198 4.31C13.7298 4.24 13.6498 4.17 13.5498 4.17H13.5298C13.4398 4.17 13.3498 4.2 13.2698 4.31C13.1698 4.4 13.0998 4.51 13.0598 4.64C13.0098 4.77 12.9798 4.9 12.9698 5.04V5.06C12.9698 5.15 12.9798 5.24 12.9898 5.33C12.7898 5.26 12.5498 5.19 12.3798 5.12C12.3698 5.06 12.3598 4.99 12.3598 4.93V4.91C12.3498 4.64 12.3998 4.38 12.5098 4.14C12.5898 3.92 12.7398 3.73 12.9398 3.6C13.1198 3.47 13.3298 3.4 13.5398 3.4H13.5598C13.7698 3.4 13.9598 3.47 14.1498 3.6C14.3398 3.74 14.4798 3.93 14.5898 4.14C14.6998 4.39 14.7498 4.59 14.7598 4.86C14.7598 4.84 14.7698 4.82 14.7698 4.8V4.9C14.7598 4.9 14.7598 4.89 14.7598 4.88C14.7598 5.11 14.6998 5.35 14.6098 5.57C14.5598 5.69 14.4898 5.81 14.3898 5.9C14.3598 5.88 14.3298 5.87 14.2998 5.86C14.1998 5.81 14.0998 5.79 14.0098 5.73C13.9402 5.69626 13.8661 5.67268 13.7898 5.66C13.8398 5.6 13.9398 5.53 13.9798 5.46C14.0298 5.33 14.0598 5.2 14.0698 5.06V5.04C14.0698 4.91 14.0498 4.77 13.9998 4.64Z" fill="white"/>
<path d="M9.83982 4.2C9.88982 4 9.98982 3.82 10.1298 3.66C10.2598 3.53 10.3898 3.46 10.5498 3.46H10.5798C10.7278 3.46214 10.8714 3.51115 10.9898 3.6C11.1398 3.73 11.2598 3.89 11.3398 4.06C11.4298 4.26 11.4798 4.46 11.4898 4.73C11.4998 4.8 11.4998 4.85 11.4998 4.9C11.4998 4.94 11.4998 4.97 11.4898 5V5.08C11.4642 5.0902 11.4373 5.09693 11.4098 5.1C11.2498 5.16 11.1298 5.24 11.0098 5.3C11.0198 5.22 11.0198 5.13 11.0098 5.04V5.02C10.9998 4.89 10.9698 4.82 10.9298 4.69C10.8965 4.58727 10.838 4.49448 10.7598 4.42C10.7338 4.39781 10.7035 4.38106 10.6709 4.37076C10.6383 4.36045 10.6039 4.35679 10.5698 4.36H10.5498C10.4798 4.36 10.4198 4.4 10.3698 4.49C10.2998 4.57 10.2598 4.66 10.2398 4.76C10.2198 4.87 10.2098 4.98 10.2198 5.09V5.11C10.2298 5.24 10.2598 5.31 10.2998 5.44C10.3498 5.57 10.3998 5.64 10.4698 5.71C10.4798 5.72 10.4898 5.73 10.4998 5.73C10.4298 5.79 10.3898 5.8 10.3298 5.87C10.2887 5.90305 10.2409 5.92692 10.1898 5.94C10.0898 5.81 9.99982 5.68 9.91982 5.53C9.81982 5.32 9.76982 5.1 9.75982 4.87C9.73982 4.64 9.76982 4.41 9.83982 4.2Z" fill="white"/>
<path d="M14.72 6.30188V6.44187C14.64 6.30187 14.49 6.17187 14.23 6.04187C13.69 5.84187 13.46 5.77188 13.16 5.57188C12.68 5.23188 12.27 5.17188 11.94 5.17188C11.76 5.17188 11.6 5.20187 11.46 5.23187C11.06 5.37187 10.79 5.63188 10.62 5.84188H10.61C10.58 5.87188 10.54 5.90187 10.44 5.97187C10.33 6.03187 10.17 6.17187 9.95001 6.31187C9.75001 6.44187 9.68001 6.64187 9.75001 6.91187C9.82001 7.10187 10.04 7.37187 10.45 7.62187C10.7 7.75187 10.87 7.95187 11.07 8.09188C11.17 8.16188 11.28 8.22187 11.4 8.28187C11.54 8.34187 11.69 8.36188 11.85 8.35188C12.28 8.38188 12.59 8.22187 12.87 8.08187C13.15 7.95187 13.38 7.75187 13.66 7.62187C14.21 7.42187 14.61 7.09187 14.73 6.77187C14.79 6.62187 14.79 6.45188 14.72 6.30188ZM12.19 5.64187C12.18 5.62187 12.2 5.60188 12.21 5.59188C12.2966 5.55685 12.3934 5.55685 12.48 5.59188C12.54 5.59188 12.64 5.66187 12.63 5.73187C12.62 5.78187 12.54 5.79187 12.49 5.79187C12.44 5.79187 12.4 5.75187 12.35 5.73187C12.3 5.71187 12.2 5.72187 12.19 5.66187V5.64187ZM11.33 5.59188C11.41 5.56188 11.52 5.55188 11.59 5.59188C11.61 5.60188 11.63 5.62187 11.62 5.64187V5.66187H11.63C11.61 5.72187 11.51 5.71187 11.46 5.73187C11.41 5.75187 11.37 5.80188 11.32 5.80188C11.27 5.80188 11.19 5.78187 11.18 5.73187C11.17 5.66187 11.27 5.59188 11.33 5.59188ZM13.98 6.78188C13.79 6.91188 13.51 7.11187 13.28 7.25187C12.84 7.45187 12.32 7.78188 11.77 7.78188C11.23 7.78188 10.79 7.51187 10.48 7.31187C10.32 7.18187 10.2 7.05187 10.1 6.98187C9.94001 6.85187 9.96001 6.65188 10.03 6.65188C10.14 6.66188 10.16 6.78187 10.23 6.85187C10.33 6.91187 10.45 7.05187 10.59 7.18187C10.89 7.38187 11.28 7.65188 11.77 7.65188C12.26 7.65188 12.84 7.38187 13.19 7.18187C13.38 7.05187 13.64 6.85187 13.84 6.71187C14 6.58187 13.99 6.45187 14.13 6.45187C14.26 6.46187 14.16 6.58188 13.98 6.78188ZM22.21 20.2219C22.19 20.4919 22.02 20.6219 21.7 20.8219C21.07 21.2219 19.94 21.5319 19.22 22.3919C18.59 23.1319 17.83 23.5319 17.16 23.5819C16.49 23.6319 15.91 23.3819 15.57 22.6819H15.56C15.35 22.2819 15.44 21.6519 15.62 20.9919C15.8 20.3219 16.05 19.6419 16.09 19.0919C16.12 18.3819 16.16 17.7619 16.28 17.2819C16.41 16.8119 16.6 16.4819 16.93 16.2919L16.98 16.2719C17.01 16.8719 17.32 17.5119 17.87 17.6519C18.46 17.7819 19.32 17.3119 19.68 16.8819L19.89 16.8719C20.21 16.8619 20.48 16.8819 20.75 17.1419C20.96 17.3419 21.06 17.6719 21.15 18.0219C21.24 18.4219 21.31 18.8019 21.56 19.0819C22.06 19.6119 22.22 19.9919 22.21 20.2219ZM10.11 21.9619V21.9719C10.05 22.7119 9.62001 23.1119 8.97001 23.2619C8.31001 23.3919 7.43001 23.2619 6.54001 22.8019C5.57001 22.2619 4.40001 22.3319 3.66001 22.1919C3.28001 22.1319 3.04001 21.9919 2.92001 21.7919C2.81001 21.5919 2.81001 21.1919 3.05001 20.5619C3.17001 20.2219 3.08001 19.8019 3.02001 19.4419C2.97001 19.0419 2.94001 18.7319 3.07001 18.5019C3.23001 18.1619 3.47001 18.1019 3.76001 17.9619C4.06001 17.8319 4.41001 17.7619 4.69001 17.5019V17.4919C4.95001 17.2219 5.14001 16.8919 5.37001 16.6519C5.56001 16.4519 5.75001 16.3219 6.04001 16.3219H6.05001C6.10001 16.3219 6.15001 16.3219 6.21001 16.3319C6.59001 16.3919 6.92001 16.6719 7.24001 17.0819L8.16001 18.7519H8.17001C8.41001 19.2819 8.93001 19.8219 9.37001 20.3919C9.81001 20.9919 10.15 21.5219 10.11 21.9619Z" fill="#F9C105"/>
<path d="M11.6298 5.65888C11.6098 5.71888 11.5098 5.70888 11.4598 5.72888C11.4098 5.74888 11.3698 5.79888 11.3198 5.79888C11.2698 5.79888 11.1898 5.77888 11.1798 5.72888C11.1698 5.65888 11.2698 5.58888 11.3298 5.58888C11.4098 5.55888 11.5198 5.54888 11.5898 5.58888C11.6098 5.59888 11.6298 5.61888 11.6198 5.63888V5.65888H11.6298ZM13.9798 6.77888C13.7898 6.90888 13.5098 7.10888 13.2798 7.24888C12.8398 7.44888 12.3198 7.77888 11.7698 7.77888C11.2298 7.77888 10.7898 7.50888 10.4798 7.30888C10.3198 7.17888 10.1998 7.04888 10.0998 6.97888C9.93983 6.84888 9.95983 6.64888 10.0298 6.64888C10.1398 6.65888 10.1598 6.77888 10.2298 6.84888C10.3298 6.90888 10.4498 7.04888 10.5898 7.17888C10.8898 7.37888 11.2798 7.64888 11.7698 7.64888C12.2598 7.64888 12.8398 7.37888 13.1898 7.17888C13.3798 7.04888 13.6398 6.84888 13.8398 6.70888C13.9998 6.57888 13.9898 6.44888 14.1298 6.44888C14.2598 6.45888 14.1598 6.57888 13.9798 6.77888Z" fill="black"/>
</svg>
