<svg width="53" height="53" viewBox="0 0 53 53" fill="none" xmlns="http://www.w3.org/2000/svg">
<path d="M30.3931 15.1784C33.7141 16.3338 36.3429 18.9314 37.5159 22.2097C37.8435 23.1225 38.6969 23.7458 39.6797 23.7458H42.8607C42.3481 20.1624 40.6625 16.9571 38.1896 14.5134C35.7141 12.0696 32.467 10.4057 28.8369 9.90234V13.045C28.8369 14.0126 29.4684 14.8576 30.3931 15.1784Z" fill="#E97545"/>
<path d="M23.9471 4.11209V1.00591C23.9471 0.395626 23.4003 -0.0738244 22.7899 0.00963304C10.6737 1.68139 1.17305 11.3964 0 23.5159H3.40291C3.8996 23.5159 4.32761 23.1638 4.40423 22.6788C5.14135 17.9295 7.40819 13.6706 10.6922 10.4314C14.1664 6.99658 18.7979 4.69108 23.9471 4.11209Z" fill="#A9A7A7"/>
<path d="M15.5035 22.2097C16.6739 18.9314 19.3053 16.3338 22.6263 15.1784C23.551 14.8576 24.1825 14.0126 24.1825 13.045V9.90234C20.5523 10.4083 17.3053 12.0722 14.8298 14.5134C12.3568 16.9571 10.6686 20.1624 10.1587 23.7458H13.3423C14.3198 23.7458 15.1759 23.1225 15.5035 22.2097Z" fill="#E97545"/>
<path d="M22.6263 36.9092C19.3053 35.7539 16.6765 33.1562 15.5035 29.8779C15.1785 28.9651 14.3225 28.3418 13.3397 28.3418H10.1587C10.6712 31.9252 12.3568 35.1305 14.8298 37.5743C17.3053 40.018 20.5523 41.6819 24.1825 42.1853V39.0426C24.1825 38.0776 23.551 37.2326 22.6263 36.9092Z" fill="#E97545"/>
<path d="M42.3277 41.6578C39.0463 44.8996 34.7319 47.1373 29.9208 47.8649C29.4294 47.938 29.0728 48.3631 29.0728 48.8534V52.2126C41.3475 51.0546 51.1916 41.6761 52.8852 29.7156C52.9697 29.1131 52.4941 28.5732 51.8759 28.5732H48.7293C48.1401 33.6563 45.8046 38.2282 42.3277 41.6578Z" fill="#A9A7A7"/>
<path d="M39.6797 28.3418C38.6995 28.3418 37.8435 28.9651 37.5159 29.8779C36.3455 33.1562 33.7141 35.7539 30.3931 36.9092C29.4684 37.23 28.8369 38.075 28.8369 39.0452V42.1853C32.467 41.6819 35.7141 40.0154 38.1896 37.5743C40.6625 35.1305 42.3508 31.9252 42.8607 28.3418H39.6797Z" fill="#E97545"/>
<path d="M26.5097 30.5918C29.0559 30.5918 31.12 28.5543 31.12 26.0408C31.12 23.5273 29.0559 21.4897 26.5097 21.4897C23.9635 21.4897 21.8994 23.5273 21.8994 26.0408C21.8994 28.5543 23.9635 30.5918 26.5097 30.5918Z" fill="#E97545"/>
<path d="M13.1309 48.1838L10.37 44.6603C10.2327 44.4856 10.1587 44.2691 10.1587 44.0474V28.3418L-nan -nanL10.1587 28.3418C12.8041 28.3418 14.9487 30.4588 14.9487 33.0702V47.5709C14.9487 48.5281 13.7228 48.9401 13.1309 48.1838Z" fill="#E97545"/>
</svg>
