<svg width="2032" height="601" viewBox="0 0 2032 601" fill="none" xmlns="http://www.w3.org/2000/svg">
<path d="M348.213 174.638C385.934 187.932 415.792 217.82 429.115 255.54C432.836 266.043 442.529 273.215 453.692 273.215H489.822C484 231.984 464.855 195.104 436.768 166.986C408.65 138.868 371.77 119.723 330.539 113.932V150.092C330.539 161.225 337.711 170.947 348.213 174.638Z" fill="#E97545"/>
<path d="M274.994 47.3137V11.574C274.994 4.55207 268.782 -0.849424 261.851 0.110838C124.233 19.3461 16.3236 131.127 3 270.575H41.6505C47.2921 270.575 52.1534 266.523 53.0237 260.942C61.3959 206.297 87.1429 157.294 124.443 120.023C163.904 80.5027 216.508 53.9755 274.994 47.3137Z" fill="white"/>
<path d="M179.088 255.54C192.382 217.82 222.27 187.932 259.99 174.638C270.493 170.947 277.665 161.225 277.665 150.092V113.932C236.434 119.753 199.554 138.898 171.436 166.986C143.349 195.104 124.173 231.984 118.382 273.215H154.542C165.645 273.215 175.367 266.043 179.088 255.54Z" fill="#E97545"/>
<path d="M259.99 424.671C222.27 411.377 192.412 381.489 179.088 343.769C175.397 333.266 165.675 326.094 154.512 326.094H118.382C124.203 367.325 143.349 404.205 171.436 432.323C199.554 460.44 236.434 479.586 277.665 485.377V449.217C277.665 438.114 270.493 428.392 259.99 424.671Z" fill="#E97545"/>
<path d="M483.761 479.311C446.491 516.611 397.487 542.358 342.843 550.73C337.261 551.57 333.21 556.462 333.21 562.103V600.754C472.628 587.43 584.438 479.521 603.674 341.903C604.634 334.971 599.232 328.76 592.211 328.76H556.471C549.779 387.246 523.252 439.85 483.761 479.311Z" fill="white"/>
<path d="M453.692 326.094C442.559 326.094 432.836 333.266 429.115 343.769C415.822 381.489 385.934 411.377 348.213 424.671C337.711 428.362 330.539 438.084 330.539 449.247V485.377C371.77 479.586 408.65 460.41 436.768 432.323C464.855 404.205 484.03 367.325 489.822 326.094H453.692Z" fill="#E97545"/>
<path d="M304.102 352.016C333.022 352.016 356.467 328.571 356.467 299.651C356.467 270.731 333.022 247.287 304.102 247.287C275.183 247.287 251.738 270.731 251.738 299.651C251.738 328.571 275.183 352.016 304.102 352.016Z" fill="#E97545"/>
<path d="M152.141 554.396L120.782 513.855C119.222 511.845 118.382 509.354 118.382 506.803V326.094C148.429 326.094 172.787 324.454 172.787 354.5V547.344C172.787 558.357 158.863 563.099 152.141 554.396Z" fill="#E97545"/>
<path d="M1551.71 496.238H1520.24V448.201H1551.71V453.531H1526.21V469.015H1551.2V474.344H1526.21V490.909H1551.71V496.238Z" fill="white"/>
<path d="M1474.87 497.102C1466.51 497.102 1460.39 493.933 1456.43 489.468L1459.96 484.931C1463.13 488.46 1468.31 491.773 1475.08 491.773C1483.65 491.773 1486.39 487.163 1486.39 483.49C1486.39 471.103 1457.94 477.945 1457.94 460.804C1457.94 452.882 1465 447.48 1474.43 447.48C1481.78 447.48 1487.47 449.929 1491.5 454.178L1487.9 458.571C1484.3 454.61 1479.26 452.81 1474 452.81C1468.24 452.81 1464.14 455.907 1464.14 460.444C1464.14 471.247 1492.58 465.053 1492.58 482.986C1492.58 489.972 1487.83 497.102 1474.87 497.102Z" fill="white"/>
<path d="M1429.33 496.238H1423.36V448.201H1429.33V496.238Z" fill="white"/>
<path d="M1371.45 497.104C1357.19 497.104 1347.62 486.445 1347.62 472.257C1347.62 458.069 1357.19 447.41 1371.45 447.41C1385.64 447.41 1395.29 458.069 1395.29 472.257C1395.29 486.445 1385.64 497.104 1371.45 497.104ZM1371.45 491.774C1382.18 491.774 1389.1 483.42 1389.1 472.257C1389.1 461.022 1382.18 452.74 1371.45 452.74C1360.65 452.74 1353.81 461.022 1353.81 472.257C1353.81 483.42 1360.65 491.774 1371.45 491.774Z" fill="white"/>
<path d="M1319.6 496.238H1313.84L1285.82 457.924V496.238H1279.84V448.201H1285.97L1313.62 485.723V448.201H1319.6V496.238Z" fill="white"/>
<path d="M1214.29 496.238H1182.82V448.201H1214.29V453.531H1188.8V469.015H1213.79V474.344H1188.8V490.909H1214.29V496.238Z" fill="white"/>
<path d="M1152.87 496.238H1146.89V474.2H1118.8V496.238H1112.83V448.201H1118.8V468.871H1146.89V448.201H1152.87V496.238Z" fill="white"/>
<path d="M1070.89 496.238H1064.91V453.531H1049.71V448.201H1086.16V453.531H1070.89V496.238Z" fill="white"/>
<path d="M960.717 496.238H954.74V448.201H974.041C983.692 448.201 989.093 454.827 989.093 462.677C989.093 470.527 983.548 477.153 974.041 477.153H960.717V496.238ZM973.321 471.824C979.01 471.824 982.899 468.079 982.899 462.677C982.899 457.276 979.01 453.531 973.321 453.531H960.717V471.824H973.321Z" fill="white"/>
<path d="M924.762 496.238H918.784V448.201H924.762V496.238Z" fill="white"/>
<path d="M893.248 496.238H885.83L867.609 474.632L862.783 480.106V496.238H856.806V448.201H862.783V473.048L884.029 448.201H891.519L871.498 471.031L893.248 496.238Z" fill="white"/>
<path d="M811.437 497.102C803.083 497.102 796.961 493.933 793 489.468L796.529 484.931C799.698 488.46 804.883 491.773 811.653 491.773C820.223 491.773 822.96 487.163 822.96 483.49C822.96 471.103 794.512 477.945 794.512 460.804C794.512 452.882 801.57 447.48 811.005 447.48C818.351 447.48 824.04 449.929 828.074 454.178L824.473 458.571C820.872 454.61 815.83 452.81 810.573 452.81C804.811 452.81 800.706 455.907 800.706 460.444C800.706 471.247 829.154 465.053 829.154 482.986C829.154 489.972 824.401 497.102 811.437 497.102Z" fill="white"/>
<path d="M1950.04 368.919C1918.2 368.919 1890.29 359.091 1871.03 339.436L1887.93 313.49C1900.9 327.642 1926.06 340.615 1951.62 340.615C1978.35 340.615 1992.5 328.429 1992.5 311.525C1992.5 293.442 1970.88 288.332 1946.51 282.828C1914.27 275.359 1876.53 266.711 1876.53 225.828C1876.53 195.558 1902.48 169.613 1948.86 169.613C1981.49 169.613 2005.08 181.406 2021.2 196.738L2005.47 221.503C1994.46 208.138 1973.24 198.31 1949.26 198.31C1925.28 198.31 1910.34 209.317 1910.34 224.648C1910.34 240.766 1930.78 245.09 1954.37 250.593C1987.39 258.062 2026.7 267.104 2026.7 310.739C2026.7 343.367 1999.97 368.919 1950.04 368.919Z" fill="white"/>
<path d="M1793.43 149.17C1781.24 149.17 1770.63 138.949 1770.63 126.37C1770.63 113.791 1781.24 103.963 1793.43 103.963C1806.01 103.963 1816.23 113.791 1816.23 126.37C1816.23 138.949 1806.01 149.17 1793.43 149.17ZM1811.51 364.2H1776.13V174.329H1811.51V364.2Z" fill="white"/>
<path d="M1688.6 368.922C1658.73 368.922 1643.39 352.018 1643.39 322.142V205.389H1611.95V174.333H1643.39V122.443H1678.77V174.333H1717.3V205.389H1678.77V314.28C1678.77 327.645 1685.06 337.473 1697.25 337.473C1705.51 337.473 1712.97 333.935 1716.51 330.004L1725.55 356.735C1718.08 363.811 1707.08 368.922 1688.6 368.922Z" fill="white"/>
<path d="M1560.61 364.201H1525.23V242.731C1525.23 211.283 1509.11 201.062 1484.74 201.062C1462.72 201.062 1442.68 214.428 1432.45 228.579V364.201H1397.08V174.331H1432.45V201.062C1445.03 185.731 1470.19 169.613 1499.68 169.613C1539.77 169.613 1560.61 190.841 1560.61 230.938V364.201Z" fill="white"/>
<path d="M1302.97 149.17C1290.78 149.17 1280.17 138.949 1280.17 126.37C1280.17 113.791 1290.78 103.963 1302.97 103.963C1315.55 103.963 1325.77 113.791 1325.77 126.37C1325.77 138.949 1315.55 149.17 1302.97 149.17ZM1321.05 364.2H1285.67V174.329H1321.05V364.2Z" fill="white"/>
<path d="M1125.18 368.919C1066.21 368.919 1029.26 324.104 1029.26 269.069C1029.26 214.427 1066.21 169.613 1125.18 169.613C1184.54 169.613 1221.1 214.427 1221.1 269.069C1221.1 324.104 1184.54 368.919 1125.18 368.919ZM1125.18 337.47C1163.31 337.47 1184.14 305.235 1184.14 269.069C1184.14 233.297 1163.31 201.062 1125.18 201.062C1087.44 201.062 1066.21 233.297 1066.21 269.069C1066.21 305.235 1087.44 337.47 1125.18 337.47Z" fill="white"/>
<path d="M832.311 364.202H793V102H903.463C957.319 102 987.195 138.952 987.195 182.587C987.195 226.222 956.926 263.174 903.463 263.174H832.311V364.202ZM898.353 228.58C926.656 228.58 946.705 210.104 946.705 182.587C946.705 155.069 926.656 136.593 898.353 136.593H832.311V228.58H898.353Z" fill="white"/>
</svg>
