<?xml version="1.0" encoding="utf-8"?>
<!-- Generator: Adobe Illustrator 26.0.1, SVG Export Plug-In . SVG Version: 6.00 Build 0)  -->
<svg version="1.1" id="Layer_1" xmlns="http://www.w3.org/2000/svg" xmlns:xlink="http://www.w3.org/1999/xlink" x="0px" y="0px"
	 viewBox="400 190 400 400" style="enable-background:new 0 0 1200 769;" xml:space="preserve">
<style type="text/css">
	.st0{display:none;}
	.st1{display:inline;fill:none;stroke:#38383A;stroke-width:12;stroke-miterlimit:10;}
	.st2{display:inline;}
	.st3{fill:#B4D5FF;}
	.st4{fill:#1F8FFF;}
	.st5{fill:#FFFFFF;}
	.st6{display:inline;fill:#FFFFFF;}
	.st7{display:none;fill:none;stroke:#FF6D24;stroke-width:13;stroke-miterlimit:10;}
	.st8{display:none;fill:#FF6D24;}
	.st9{display:inline;fill:#FF6D24;}
	.st10{fill:#FF6D24;}
	.st11{display:inline;fill:#FEFFF5;}
	.st12{fill:#0A0178;}
	.st13{fill:none;stroke:#0A0178;stroke-width:8;stroke-miterlimit:10;}
	.st14{display:inline;fill:#0A0178;}
	.st15{fill:none;stroke:#FEFFF5;stroke-width:9;stroke-miterlimit:10;}
	.st16{display:none;fill:url(#SVGID_1_);}
	.st17{display:inline;fill:url(#SVGID_00000168111670243184930990000016037405365374538422_);}
	.st18{display:inline;fill:url(#SVGID_00000116933902526669346320000006172510213326208697_);}
	.st19{display:inline;fill:url(#SVGID_00000166670035028237310750000007197376374212758701_);}
	.st20{display:inline;fill:url(#SVGID_00000078038459275406409280000005581839166640721312_);}
	.st21{display:inline;fill:url(#SVGID_00000047765744194022606260000003073910640736782516_);}
	.st22{display:inline;fill:url(#SVGID_00000008831830395885795520000002406988695452632231_);}
	.st23{fill:url(#SVGID_00000181081371566421078280000009564776178934150276_);}
	.st24{fill:url(#SVGID_00000147215757808555044270000007540638320887344275_);}
	.st25{fill:url(#SVGID_00000018239483626661928260000006281984685743388823_);}
	.st26{fill:url(#SVGID_00000128448804874416999810000016182629028464679866_);}
	.st27{display:none;fill:url(#SVGID_00000051355468222010422300000005553448264003343512_);}
	.st28{display:none;fill:#F7A000;}
	.st29{display:none;fill:#1B3148;}
	.st30{display:none;fill:none;stroke:#1B3148;stroke-width:11;stroke-miterlimit:10;}
	.st31{display:inline;fill:#F7A000;}
	.st32{display:none;fill:none;stroke:#1B3148;stroke-width:9;stroke-miterlimit:10;}
	.st33{fill:#262626;}
	.st34{fill:#E45217;}
	.st35{display:none;fill:#606060;}
</style>
<!--<rect y="0" class="st33" width="1200" height="769"/>-->
<g>
	<path class="st34" d="M627.91,306.21c23.48,8.29,42.09,26.89,50.37,50.37c2.31,6.54,8.36,11.01,15.29,11.01h22.5
		c-3.62-25.68-15.54-48.63-33.04-66.14c-17.51-17.5-40.46-29.42-66.14-33.04v22.51C616.91,297.86,621.37,303.91,627.91,306.21z"/>
	<path class="st5" d="M582.33,226.93v-22.25c0-4.36-3.87-7.73-8.19-7.13c-85.68,11.97-152.88,81.58-161.17,168.39h24.07
		c3.51,0,6.54-2.53,7.07-6c5.21-34.02,21.24-64.53,44.47-87.74C513.16,247.61,545.91,231.09,582.33,226.93z"/>
	<path class="st34" d="M522.61,356.59c8.28-23.48,26.89-42.09,50.37-50.37c6.54-2.31,11.01-8.36,11.01-15.29v-22.51
		c-25.68,3.62-48.63,15.54-66.14,33.04c-17.5,17.51-29.42,40.46-33.04,66.14h22.51C514.25,367.59,520.3,363.12,522.61,356.59z"/>
	<path class="st34" d="M572.98,461.89c-23.48-8.29-42.09-26.89-50.37-50.37c-2.31-6.54-8.36-11.01-15.29-11.01h-22.51
		c3.62,25.68,15.54,48.63,33.04,66.14c17.51,17.5,40.46,29.42,66.14,33.04v-22.51C583.99,470.25,579.52,464.2,572.98,461.89z"/>
	<path class="st5" d="M712.3,495.91c-23.21,23.23-53.72,39.26-87.74,44.47c-3.47,0.53-6,3.57-6,7.07v24.07
		c86.81-8.29,156.42-75.48,168.39-161.17c0.6-4.32-2.77-8.19-7.13-8.19h-22.25C753.41,438.59,736.89,471.34,712.3,495.91z"/>
	<path class="st34" d="M693.58,400.51c-6.94,0-12.99,4.47-15.29,11.01c-8.28,23.48-26.89,42.09-50.37,50.37
		c-6.54,2.31-11.01,8.36-11.01,15.29v22.5c25.68-3.62,48.63-15.54,66.14-33.04c17.5-17.51,29.42-40.46,33.04-66.14H693.58z"/>
	<circle class="st34" cx="600.45" cy="384.05" r="32.6"/>
	<path class="st34" d="M505.82,542.66l-19.52-25.24c-0.97-1.26-1.5-2.8-1.5-4.39V400.51h33.88v137.76
		C518.68,545.12,510.01,548.08,505.82,542.66z"/>
</g>
</svg>
