<svg width="222" height="66" viewBox="0 0 222 66" fill="none" xmlns="http://www.w3.org/2000/svg">
<path d="M37.5947 19.0194C41.7027 20.4672 44.9543 23.7221 46.4053 27.83C46.8106 28.9739 47.8662 29.7549 49.0819 29.7549H53.0166C52.3826 25.2646 50.2976 21.2482 47.2387 18.1861C44.1766 15.1239 40.1601 13.0389 35.6699 12.4082V16.3462C35.6699 17.5586 36.4509 18.6175 37.5947 19.0194Z" fill="#E97545"/>
<path d="M29.6215 5.15269V1.26046C29.6215 0.495742 28.945 -0.0925063 28.1901 0.0120708C13.2029 2.10688 1.45101 14.2803 0 29.4668H4.20923C4.82362 29.4668 5.35304 29.0257 5.44781 28.4178C6.3596 22.4667 9.16356 17.13 13.2257 13.0711C17.5232 8.76713 23.2521 5.87819 29.6215 5.15269Z" fill="white"/>
<path d="M19.177 27.83C20.6248 23.7221 23.8797 20.4672 27.9876 19.0194C29.1315 18.6175 29.9125 17.5586 29.9125 16.3462V12.4082C25.4222 13.0422 21.4058 15.1272 18.3437 18.1861C15.2848 21.2482 13.1965 25.2646 12.5658 29.7549H16.5038C17.7129 29.7549 18.7718 28.9739 19.177 27.83Z" fill="#E97545"/>
<path d="M27.9876 46.2494C23.8797 44.8017 20.628 41.5467 19.177 37.4388C18.7751 36.295 17.7162 35.5139 16.5005 35.5139H12.5658C13.1998 40.0042 15.2848 44.0206 18.3437 47.0827C21.4058 50.1449 25.4222 52.2299 29.9125 52.8606V48.9227C29.9125 47.7135 29.1315 46.6546 27.9876 46.2494Z" fill="#E97545"/>
<path d="M52.3573 52.1997C48.2984 56.2618 42.9617 59.0658 37.0106 59.9776C36.4027 60.0691 35.9615 60.6018 35.9615 61.2162V65.4254C51.1448 63.9744 63.3215 52.2226 65.4163 37.2354C65.5209 36.4804 64.9327 35.804 64.1679 35.804H60.2757C59.5469 42.1734 56.658 47.9022 52.3573 52.1997Z" fill="white"/>
<path d="M49.0819 35.5139C47.8694 35.5139 46.8106 36.295 46.4053 37.4388C44.9576 41.5467 41.7027 44.8017 37.5947 46.2494C36.4509 46.6514 35.6699 47.7102 35.6699 48.9259V52.8606C40.1601 52.2299 44.1766 50.1416 47.2387 47.0827C50.2976 44.0206 52.3859 40.0042 53.0166 35.5139H49.0819Z" fill="#E97545"/>
<path d="M32.7912 38.3332C35.9407 38.3332 38.4939 35.78 38.4939 32.6305C38.4939 29.4809 35.9407 26.9277 32.7912 26.9277C29.6417 26.9277 27.0885 29.4809 27.0885 32.6305C27.0885 35.78 29.6417 38.3332 32.7912 38.3332Z" fill="#E97545"/>
<path d="M16.2423 60.3771L12.8272 55.962C12.6573 55.743 12.5658 55.4718 12.5658 55.194V35.5139Lnan nanL12.5658 35.5139C15.8381 35.5139 18.4907 38.1666 18.4907 41.4389V59.6091C18.4907 60.8085 16.9744 61.3248 16.2423 60.3771Z" fill="#E97545"/>
<path d="M168.548 56.5388H165.12V51.3074H168.548V51.8878H165.771V53.5741H168.493V54.1545H165.771V55.9584H168.548V56.5388Z" fill="white"/>
<path d="M160.18 56.6342C159.27 56.6342 158.603 56.2891 158.172 55.8029L158.556 55.3087C158.902 55.6931 159.466 56.0538 160.204 56.0538C161.137 56.0538 161.435 55.5519 161.435 55.1519C161.435 53.8028 158.337 54.5479 158.337 52.6812C158.337 51.8185 159.105 51.2302 160.133 51.2302C160.933 51.2302 161.553 51.4969 161.992 51.9596L161.6 52.4381C161.207 52.0067 160.658 51.8106 160.086 51.8106C159.458 51.8106 159.011 52.1479 159.011 52.642C159.011 53.8185 162.109 53.144 162.109 55.097C162.109 55.8578 161.592 56.6342 160.18 56.6342Z" fill="white"/>
<path d="M155.221 56.5388H154.57V51.3074H155.221V56.5388Z" fill="white"/>
<path d="M148.918 56.6323C147.365 56.6323 146.321 55.4715 146.321 53.9264C146.321 52.3813 147.365 51.2205 148.918 51.2205C150.463 51.2205 151.514 52.3813 151.514 53.9264C151.514 55.4715 150.463 56.6323 148.918 56.6323ZM148.918 56.0519C150.086 56.0519 150.839 55.1421 150.839 53.9264C150.839 52.7028 150.086 51.8009 148.918 51.8009C147.741 51.8009 146.996 52.7028 146.996 53.9264C146.996 55.1421 147.741 56.0519 148.918 56.0519Z" fill="white"/>
<path d="M143.27 56.5388H142.643L139.591 52.3662V56.5388H138.94V51.3074H139.607L142.619 55.3937V51.3074H143.27V56.5388Z" fill="white"/>
<path d="M131.802 56.5388H128.374V51.3074H131.802V51.8878H129.025V53.5741H131.747V54.1545H129.025V55.9584H131.802V56.5388Z" fill="white"/>
<path d="M125.113 56.5388H124.462V54.1388H121.403V56.5388H120.752V51.3074H121.403V53.5584H124.462V51.3074H125.113V56.5388Z" fill="white"/>
<path d="M116.184 56.5388H115.533V51.8878H113.878V51.3074H117.847V51.8878H116.184V56.5388Z" fill="white"/>
<path d="M104.187 56.5388H103.536V51.3074H105.638C106.689 51.3074 107.277 52.029 107.277 52.8839C107.277 53.7388 106.673 54.4604 105.638 54.4604H104.187V56.5388ZM105.559 53.88C106.179 53.88 106.602 53.4721 106.602 52.8839C106.602 52.2956 106.179 51.8878 105.559 51.8878H104.187V53.88H105.559Z" fill="white"/>
<path d="M100.271 56.5388H99.6196V51.3074H100.271V56.5388Z" fill="white"/>
<path d="M96.8388 56.5388H96.031L94.0466 54.1859L93.5211 54.7819V56.5388H92.8701V51.3074H93.5211V54.0133L95.8349 51.3074H96.6506L94.4701 53.7937L96.8388 56.5388Z" fill="white"/>
<path d="M87.9289 56.6342C87.0191 56.6342 86.3524 56.2891 85.921 55.8029L86.3053 55.3087C86.6504 55.6931 87.2152 56.0538 87.9524 56.0538C88.8858 56.0538 89.1838 55.5519 89.1838 55.1519C89.1838 53.8028 86.0857 54.5479 86.0857 52.6812C86.0857 51.8185 86.8544 51.2302 87.8818 51.2302C88.6819 51.2302 89.3015 51.4969 89.7407 51.9596L89.3485 52.4381C88.9564 52.0067 88.4073 51.8106 87.8348 51.8106C87.2073 51.8106 86.7603 52.1479 86.7603 52.642C86.7603 53.8185 89.8583 53.144 89.8583 55.097C89.8583 55.8578 89.3407 56.6342 87.9289 56.6342Z" fill="white"/>
<path d="M212.837 42.6635C209.369 42.6635 206.33 41.5933 204.232 39.4527L206.073 36.6272C207.486 38.1684 210.226 39.5811 213.008 39.5811C215.919 39.5811 217.461 38.254 217.461 36.4131C217.461 34.4438 215.106 33.8872 212.452 33.2879C208.941 32.4745 204.831 31.5326 204.831 27.0803C204.831 23.7838 207.657 20.9583 212.709 20.9583C216.262 20.9583 218.831 22.2426 220.586 23.9122L218.873 26.6093C217.675 25.1538 215.363 24.0835 212.751 24.0835C210.14 24.0835 208.513 25.2822 208.513 26.9518C208.513 28.7071 210.739 29.178 213.308 29.7774C216.904 30.5908 221.185 31.5754 221.185 36.3275C221.185 39.8808 218.274 42.6635 212.837 42.6635Z" fill="white"/>
<path d="M195.782 18.7304C194.455 18.7304 193.299 17.6173 193.299 16.2474C193.299 14.8774 194.455 13.8071 195.782 13.8071C197.152 13.8071 198.265 14.8774 198.265 16.2474C198.265 17.6173 197.152 18.7304 195.782 18.7304ZM197.751 42.1482H193.898V21.4703H197.751V42.1482Z" fill="white"/>
<path d="M184.365 42.6598C181.112 42.6598 179.442 40.8189 179.442 37.5652V24.8503H176.017V21.4682H179.442V15.8171H183.295V21.4682H187.49V24.8503H183.295V36.709C183.295 38.1646 183.98 39.2349 185.307 39.2349C186.206 39.2349 187.02 38.8496 187.405 38.4215L188.39 41.3326C187.576 42.1032 186.377 42.6598 184.365 42.6598Z" fill="white"/>
<path d="M170.426 42.1498H166.573V28.9211C166.573 25.4962 164.818 24.3832 162.164 24.3832C159.766 24.3832 157.583 25.8387 156.47 27.3799V42.1498H152.617V21.472H156.47V24.3832C157.84 22.7135 160.58 20.9583 163.791 20.9583C168.157 20.9583 170.426 23.2701 170.426 27.6368V42.1498Z" fill="white"/>
<path d="M142.368 18.7304C141.04 18.7304 139.885 17.6173 139.885 16.2474C139.885 14.8774 141.04 13.8071 142.368 13.8071C143.738 13.8071 144.851 14.8774 144.851 16.2474C144.851 17.6173 143.738 18.7304 142.368 18.7304ZM144.337 42.1482H140.484V21.4703H144.337V42.1482Z" fill="white"/>
<path d="M123.006 42.6635C116.584 42.6635 112.56 37.7831 112.56 31.7895C112.56 25.8387 116.584 20.9583 123.006 20.9583C129.47 20.9583 133.452 25.8387 133.452 31.7895C133.452 37.7831 129.47 42.6635 123.006 42.6635ZM123.006 39.2386C127.158 39.2386 129.427 35.7281 129.427 31.7895C129.427 27.8937 127.158 24.3832 123.006 24.3832C118.896 24.3832 116.584 27.8937 116.584 31.7895C116.584 35.7281 118.896 39.2386 123.006 39.2386Z" fill="white"/>
<path d="M91.1112 42.1496H86.8301V13.5945H98.86C104.725 13.5945 107.979 17.6187 107.979 22.3708C107.979 27.1228 104.682 31.1471 98.86 31.1471H91.1112V42.1496ZM98.3035 27.3797C101.386 27.3797 103.569 25.3676 103.569 22.3708C103.569 19.374 101.386 17.3619 98.3035 17.3619H91.1112V27.3797H98.3035Z" fill="white"/>
</svg>
