<svg width="884" height="640" viewBox="0 0 884 640" fill="none" xmlns="http://www.w3.org/2000/svg">
<g filter="url(#filter0_d_87_2346)">
<g clip-path="url(#clip0_87_2346)">
<rect x="252.719" y="103" width="530.297" height="438.853" rx="24" fill="white"/>
<rect x="213.016" y="95" width="696" height="449" fill="#262626"/>
<path d="M693.366 266.26C698.888 315.84 706.865 322.572 739.383 360.523C761.783 386.665 745.76 430.717 730.56 457.432C726.618 464.36 719.07 468.253 711.088 468.253H501.356C483.59 468.253 418.248 417.053 405.605 404.594C355.293 355.014 384.13 255.241 419.717 235.654C455.304 216.067 495.799 253.405 559.61 195.868C623.419 138.331 688.253 220.352 693.366 266.26Z" fill="#2D2D2D"/>
<path d="M485.603 213.942C503.218 214.268 515.654 203.756 519.67 198.46C520.778 195.879 522.08 190.148 518.424 187.866C513.854 185.014 500.975 194.793 485.603 190.718C470.232 186.644 466.492 194.385 454.444 206.608C442.396 218.832 463.584 213.535 485.603 213.942Z" fill="#F2F6F9"/>
<path d="M493.891 468.252H556.913C574.455 461.811 597.845 454.082 591.998 439.269C586.15 424.456 556.913 444.422 549.116 430.252C541.32 416.082 604.343 414.151 597.845 396.118C591.348 378.084 551.715 401.269 556.913 383.88C562.111 366.49 606.292 372.931 604.343 354.897C602.393 336.864 569.258 366.49 565.36 345.881C561.461 325.271 597.196 288.559 569.258 282.12C541.32 275.679 549.116 342.66 539.37 345.881C529.624 349.101 520.529 314.322 506.885 329.78C493.241 345.237 516.631 380.015 506.885 396.118C497.139 412.219 483.495 352.322 467.902 380.015C455.427 402.171 480.03 448.071 493.891 468.252Z" fill="white"/>
<path d="M678.121 355.788C675.936 409.095 692.719 449.068 702.95 464.906C703.882 466.349 705.497 467.157 707.22 467.157H710.547C713.49 467.157 715.876 464.739 715.829 461.811C714.681 390.367 696.744 360.819 684.08 352.194C681.375 350.351 678.254 352.53 678.121 355.788Z" fill="white"/>
<path fill-rule="evenodd" clip-rule="evenodd" d="M680.731 353.004C679.92 353.519 679.277 354.538 679.224 355.832C677.048 408.906 693.765 448.658 703.879 464.314C704.59 465.416 705.842 466.059 707.221 466.059H710.547C712.873 466.059 714.763 464.145 714.725 461.829C714.154 426.191 709.394 401.067 703.233 383.813C697.067 366.542 689.527 357.235 683.456 353.1C682.484 352.436 681.507 352.51 680.731 353.004ZM679.542 351.153C681.035 350.203 682.971 350.108 684.703 351.289C691.296 355.778 699.058 365.558 705.313 383.079C711.575 400.617 716.357 425.991 716.932 461.794C716.99 465.333 714.109 468.255 710.547 468.255H707.221C705.153 468.255 703.173 467.283 702.023 465.501C691.673 449.479 674.824 409.284 677.019 355.744C677.099 353.78 678.083 352.081 679.542 351.153Z" fill="#262626"/>
<path d="M754.503 383.996C725.846 403.359 712.402 440.159 708.198 461.674C707.585 464.81 710.064 467.611 713.276 467.611H717.554C718.831 467.611 720.071 467.156 721.018 466.305C745.624 444.165 757.31 409.728 761.418 388.637C762.217 384.529 757.982 381.646 754.503 383.996Z" fill="#262626"/>
<path fill-rule="evenodd" clip-rule="evenodd" d="M687.268 363.75C690.244 372.77 692.934 381.615 695.355 390.126C697.314 397.018 699.096 403.692 700.707 410.059L703.91 402.268L705.953 403.099L701.609 413.665C704.441 425.106 706.704 435.474 708.439 444.242C710.449 454.391 711.753 462.406 712.414 467.468L710.226 467.751C709.584 462.833 708.321 455.05 706.375 445.175L696.651 439.973L697.695 438.039L705.818 442.384C704.136 434.059 702.001 424.407 699.381 413.843C697.601 406.665 695.597 399.066 693.359 391.176L683.422 385.948L684.454 384.007L692.523 388.253C690.297 380.532 687.849 372.553 685.171 364.434L687.268 363.75Z" fill="#262626"/>
<path fill-rule="evenodd" clip-rule="evenodd" d="M746.176 407.634C749.164 402.831 752.031 398.564 754.638 395.178L752.886 393.844C749.778 397.88 746.338 403.097 742.795 408.925C739.47 414.396 736.044 420.421 732.702 426.544L732.044 417.585L729.844 417.746L730.753 430.141C726.85 437.406 723.114 444.687 719.852 451.229C716.775 457.399 714.121 462.915 712.145 467.145L714.145 468.071C716.074 463.945 718.654 458.582 721.643 452.578L731.359 448.648L730.528 446.614L723.131 449.606C726.105 443.692 729.415 437.284 732.851 430.897C736.665 423.805 740.632 416.746 744.462 410.426L751.793 408.276L751.168 406.171L746.176 407.634Z" fill="white"/>
<path d="M459.468 310.165L456.923 323.523L459.468 337.517C466.041 338.366 479.442 340.062 480.46 340.062C481.477 340.062 488.941 333.701 492.546 330.52L488.729 310.165C499.416 306.603 502.935 290.869 503.359 283.447C505.904 252.914 485.548 249.098 481.732 249.098C477.915 249.098 453.743 249.098 450.562 274.542C448.018 294.897 455.439 306.771 459.468 310.165Z" fill="#EFCB96"/>
<path d="M397.763 467.921H497.633L624.219 467.284C632.053 462.176 634.245 453.935 634.265 446.944C634.283 441.216 630.154 436.608 624.996 434.121C604.496 424.239 573.384 408.946 567.605 404.946C559.336 399.22 551.703 368.051 536.437 343.879C524.222 324.541 501.238 320.131 491.908 320.343C491.06 324.159 487.455 331.793 474.733 331.793C462.011 331.793 456.71 324.159 455.014 320.343C448.44 320.343 430.205 323.905 414.938 338.154C395.868 355.953 387.597 396.62 379.968 434.129L379.952 434.206C373.846 464.231 389.282 468.769 397.763 467.921Z" fill="#E97545"/>
<path d="M440.383 418.94L449.925 380.137L448.016 418.94L491.465 429.537C497.044 430.899 502.261 434.367 503.317 440.012C505.2 450.08 501.444 460.787 496.997 464.74C500.814 459.279 500.814 438.66 496.361 435.479C492.799 432.935 448.652 424.664 427.024 420.848L440.383 418.94Z" fill="#262626"/>
<path d="M535.164 369.957L558.7 467.918H568.878L535.164 369.957Z" fill="#262626"/>
<path d="M466.462 297.442C463.917 312.201 460.313 313.769 458.829 312.709C441.017 301.26 441.447 264.677 452.467 252.278C462.645 240.828 470.279 245.281 491.27 240.192C512.263 235.103 519.26 244.009 515.442 255.459C509.948 271.942 492.543 263.093 488.09 265.001C483.637 266.909 477.912 271.998 475.368 282.176C472.823 292.353 471.551 290.445 469.642 284.721C467.734 278.995 462.645 270.726 458.829 280.903C455.775 289.045 462.645 295.322 466.462 297.442Z" fill="#262626"/>
<path d="M541.525 467.919C541.525 450.617 515.868 445.444 503.358 445.019C503.358 453.67 498.057 463.891 495.089 467.919H541.525Z" fill="#EFCB96"/>
<path d="M665.163 466.752C665.163 451.371 644.831 448.103 633.864 447.727C633.864 455.416 627.054 463.169 624.451 466.752H665.163Z" fill="#EFCB96"/>
<path fill-rule="evenodd" clip-rule="evenodd" d="M378.592 444.957C378.291 457.238 382.597 467.918 395.736 467.918H407.308C404.255 447.563 388.104 435.266 380.47 431.66C380.303 432.483 380.136 433.306 379.969 434.126L379.953 434.203C379.139 438.204 378.708 441.774 378.592 444.957Z" fill="#262626"/>
<path d="M476.52 309.969C482.444 311.943 486.549 310.792 488.606 309.969L490.514 318.874C482.615 317.887 478.165 312.23 476.52 309.969Z" fill="#262626"/>
<path d="M604.225 374.813L569.961 452.62C568.241 456.526 571.101 460.912 575.368 460.912H679.923C682.324 460.912 684.487 459.459 685.394 457.236L717.159 379.429C718.747 375.541 715.886 371.285 711.688 371.285H609.632C607.29 371.285 605.169 372.668 604.225 374.813Z" fill="white"/>
<path d="M646.984 430.887C655.101 430.887 661.681 424.313 661.681 416.203C661.681 408.094 655.101 401.52 646.984 401.52C638.867 401.52 632.286 408.094 632.286 416.203C632.286 424.313 638.867 430.887 646.984 430.887Z" fill="white"/>
<path d="M648.595 425.851C648.595 426.835 647.757 427.35 646.929 427.35C646.1 427.35 645.262 426.835 645.262 425.851C645.262 425.813 645.269 425.776 645.284 425.741C645.298 425.706 645.32 425.674 645.346 425.647C645.373 425.62 645.405 425.599 645.44 425.584C645.475 425.57 645.513 425.562 645.551 425.563H648.306C648.344 425.562 648.382 425.57 648.417 425.584C648.452 425.599 648.484 425.62 648.511 425.647C648.537 425.674 648.559 425.706 648.573 425.741C648.588 425.776 648.595 425.813 648.595 425.851Z" fill="#92B1EF"/>
<path d="M649.957 422.481V424.529C649.957 424.943 649.792 425.34 649.499 425.633C649.206 425.926 648.808 426.091 648.393 426.091H645.462C645.048 426.091 644.65 425.926 644.357 425.633C644.064 425.34 643.899 424.943 643.898 424.529V422.481C643.898 422.437 643.907 422.394 643.924 422.354C643.94 422.313 643.965 422.277 643.996 422.246C644.027 422.215 644.063 422.19 644.104 422.174C644.144 422.157 644.187 422.148 644.231 422.148H649.625C649.668 422.148 649.712 422.157 649.752 422.174C649.792 422.19 649.829 422.215 649.86 422.246C649.891 422.277 649.915 422.313 649.932 422.354C649.949 422.394 649.957 422.437 649.957 422.481Z" fill="#4D76B8"/>
<path d="M652.909 415.181C652.914 416.742 652.302 418.242 651.207 419.356C650.849 419.895 650.643 420.522 650.612 421.169C650.612 422.489 649.766 422.783 649.73 422.795C649.696 422.806 649.661 422.812 649.626 422.812H644.321C644.273 422.812 644.227 422.801 644.184 422.782C643.99 422.693 643.361 422.32 643.361 421.18V421.106C643.361 420.442 643.361 420.132 642.944 419.638C642.199 418.974 641.633 418.134 641.296 417.196C640.959 416.257 640.863 415.249 641.016 414.263C641.169 413.278 641.566 412.347 642.172 411.554C642.777 410.761 643.572 410.132 644.483 409.725C645.394 409.317 646.392 409.144 647.388 409.221C648.383 409.298 649.343 409.622 650.181 410.164C651.018 410.707 651.707 411.45 652.183 412.326C652.66 413.202 652.909 414.184 652.909 415.181Z" fill="#E97545"/>
<path d="M656.659 415.448H654.089C654.001 415.448 653.917 415.413 653.854 415.351C653.792 415.288 653.757 415.204 653.757 415.116C653.757 415.028 653.792 414.943 653.854 414.881C653.917 414.818 654.001 414.783 654.089 414.783H656.659C656.747 414.783 656.832 414.818 656.894 414.881C656.956 414.943 656.992 415.028 656.992 415.116C656.992 415.204 656.956 415.288 656.894 415.351C656.832 415.413 656.747 415.448 656.659 415.448ZM651.807 410.283C651.741 410.283 651.677 410.263 651.622 410.227C651.568 410.19 651.525 410.138 651.5 410.078C651.475 410.017 651.468 409.95 651.481 409.886C651.494 409.821 651.525 409.762 651.572 409.716L653.421 407.868C653.452 407.837 653.489 407.812 653.529 407.796C653.57 407.779 653.613 407.77 653.657 407.77C653.7 407.77 653.744 407.779 653.784 407.795C653.825 407.812 653.861 407.837 653.892 407.867C653.923 407.898 653.948 407.935 653.965 407.975C653.981 408.016 653.99 408.059 653.99 408.103C653.99 408.147 653.981 408.19 653.964 408.23C653.947 408.271 653.923 408.307 653.892 408.338L652.041 410.185C651.979 410.247 651.895 410.283 651.807 410.283ZM639.879 415.448H637.309C637.221 415.448 637.136 415.413 637.074 415.351C637.012 415.288 636.977 415.204 636.977 415.116C636.977 415.028 637.012 414.943 637.074 414.881C637.136 414.818 637.221 414.783 637.309 414.783H639.879C639.967 414.783 640.052 414.818 640.114 414.881C640.176 414.943 640.211 415.028 640.211 415.116C640.211 415.204 640.176 415.288 640.114 415.351C640.052 415.413 639.967 415.448 639.879 415.448ZM642.161 410.283C642.118 410.283 642.074 410.274 642.034 410.258C641.994 410.241 641.957 410.216 641.926 410.185L640.077 408.338C640.046 408.307 640.021 408.27 640.004 408.23C639.987 408.189 639.979 408.146 639.979 408.102C639.979 408.059 639.987 408.015 640.004 407.975C640.021 407.935 640.045 407.898 640.076 407.867C640.107 407.836 640.144 407.811 640.184 407.795C640.225 407.778 640.268 407.769 640.312 407.77C640.355 407.77 640.399 407.778 640.439 407.795C640.48 407.812 640.516 407.836 640.547 407.867L642.397 409.715C642.443 409.762 642.475 409.821 642.488 409.885C642.501 409.95 642.494 410.017 642.469 410.077C642.444 410.138 642.401 410.19 642.346 410.226C642.292 410.263 642.228 410.282 642.162 410.282L642.161 410.283Z" fill="#92B1EF"/>
<path d="M647.041 408.294C646.952 408.294 646.868 408.259 646.805 408.197C646.743 408.135 646.708 408.05 646.708 407.962V405.395C646.708 405.351 646.717 405.308 646.733 405.268C646.75 405.227 646.775 405.191 646.805 405.16C646.836 405.129 646.873 405.105 646.913 405.088C646.954 405.071 646.997 405.062 647.041 405.062C647.084 405.062 647.128 405.071 647.168 405.088C647.208 405.105 647.245 405.129 647.276 405.16C647.307 405.191 647.331 405.227 647.348 405.268C647.365 405.308 647.373 405.351 647.373 405.395V407.962C647.373 408.006 647.365 408.049 647.348 408.089C647.331 408.129 647.307 408.166 647.276 408.197C647.245 408.228 647.208 408.252 647.168 408.269C647.128 408.286 647.084 408.294 647.041 408.294Z" fill="#92B1EF"/>
<path d="M651.609 415.425C651.58 415.425 651.551 415.419 651.524 415.408C651.497 415.397 651.473 415.381 651.452 415.36C651.431 415.34 651.415 415.315 651.404 415.288C651.393 415.262 651.387 415.233 651.387 415.204C651.386 414.042 650.923 412.928 650.101 412.107C649.279 411.286 648.164 410.823 647.001 410.822C646.943 410.822 646.886 410.798 646.845 410.757C646.804 410.715 646.78 410.659 646.78 410.6C646.78 410.542 646.804 410.486 646.845 410.444C646.886 410.403 646.943 410.379 647.001 410.379C648.282 410.38 649.509 410.889 650.414 411.794C651.32 412.698 651.829 413.924 651.831 415.204C651.831 415.233 651.825 415.262 651.814 415.288C651.803 415.315 651.786 415.34 651.766 415.36C651.745 415.381 651.721 415.397 651.694 415.408C651.667 415.419 651.638 415.425 651.609 415.425Z" fill="#D9EBFF"/>
<path d="M646.984 431.407C643.974 431.407 641.032 430.515 638.529 428.845C636.026 427.174 634.076 424.8 632.924 422.022C631.772 419.244 631.471 416.187 632.058 413.238C632.645 410.288 634.095 407.579 636.223 405.453C638.351 403.327 641.063 401.879 644.015 401.292C646.967 400.706 650.027 401.007 652.808 402.157C655.588 403.308 657.965 405.257 659.637 407.757C661.309 410.257 662.202 413.197 662.202 416.204C662.197 420.234 660.593 424.099 657.74 426.949C654.887 429.799 651.019 431.403 646.984 431.407ZM646.984 402.04C644.18 402.04 641.439 402.871 639.107 404.427C636.776 405.983 634.959 408.195 633.886 410.783C632.813 413.371 632.532 416.219 633.079 418.967C633.626 421.714 634.976 424.238 636.959 426.219C638.942 428.2 641.468 429.548 644.218 430.095C646.968 430.642 649.819 430.361 652.409 429.289C655 428.217 657.214 426.402 658.772 424.072C660.33 421.743 661.161 419.005 661.161 416.204C661.157 412.448 659.662 408.848 657.004 406.193C654.346 403.538 650.743 402.044 646.984 402.04Z" fill="#262626"/>
<path fill-rule="evenodd" clip-rule="evenodd" d="M609.632 372.513C607.777 372.513 606.096 373.611 605.346 375.31L571.083 453.117C569.72 456.211 571.987 459.685 575.368 459.685H679.922C681.825 459.685 683.538 458.535 684.256 456.774L716.022 378.965C717.28 375.886 715.014 372.513 711.688 372.513H609.632ZM603.101 374.319C604.241 371.73 606.803 370.059 609.632 370.059H711.688C716.758 370.059 720.212 375.199 718.294 379.894L686.53 457.701C685.434 460.386 682.822 462.14 679.922 462.14H575.368C570.214 462.14 566.759 456.844 568.837 452.128L603.101 374.319Z" fill="#262626"/>
<path d="M678.281 468.315H496.827C493.875 468.315 491.482 465.922 491.482 462.97C491.482 460.019 493.875 457.625 496.827 457.625H678.281C682.111 457.625 684.698 461.535 683.2 465.06C682.362 467.034 680.426 468.315 678.281 468.315Z" fill="#262626"/>
<path d="M740.719 293.43L736.466 298.924C736.208 299.259 735.786 299.419 735.373 299.342L730.118 298.348C728.987 298.134 728.305 299.569 729.178 300.325L733.308 303.905C733.609 304.166 733.752 304.568 733.682 304.964L732.646 310.866C732.451 311.976 733.805 312.663 734.572 311.843L738.815 307.307C739.064 307.041 739.424 306.912 739.785 306.962L744.694 307.636C745.8 307.789 746.427 306.397 745.585 305.656L741.935 302.441C741.641 302.183 741.501 301.79 741.563 301.402L742.715 294.311C742.903 293.151 741.436 292.502 740.719 293.43Z" fill="#E97545"/>
<path d="M682.36 177.851L683.238 181.277C683.291 181.485 683.223 181.711 683.063 181.861L681.023 183.775C680.584 184.186 680.947 184.901 681.523 184.759L684.25 184.09C684.449 184.041 684.655 184.101 684.791 184.248L686.837 186.444C687.222 186.857 687.921 186.492 687.831 185.926L687.336 182.789C687.306 182.605 687.367 182.415 687.499 182.278L689.304 180.415C689.711 179.995 689.347 179.317 688.788 179.45L686.357 180.026C686.161 180.073 685.96 180.014 685.824 179.872L683.338 177.274C682.931 176.849 682.213 177.273 682.36 177.851Z" fill="#E97545"/>
<rect x="524.766" y="168" width="232" height="93" rx="12" fill="#2D2D2D"/>
<rect x="524.766" y="168" width="232" height="93" rx="12" stroke="#262626" stroke-width="2"/>
<path d="M568.014 200.804C572.122 202.252 575.373 205.507 576.824 209.615C577.23 210.759 578.285 211.54 579.501 211.54H583.436C582.802 207.05 580.717 203.033 577.658 199.971C574.596 196.909 570.579 194.824 566.089 194.193V198.131C566.089 199.344 566.87 200.402 568.014 200.804Z" fill="#E97545"/>
<path d="M560.04 186.94V183.047C560.04 182.283 559.364 181.694 558.609 181.799C543.622 183.894 531.87 196.067 530.419 211.254H534.628C535.243 211.254 535.772 210.813 535.867 210.205C536.779 204.254 539.583 198.917 543.645 194.858C547.942 190.554 553.671 187.665 560.04 186.94Z" fill="white"/>
<path d="M549.596 209.615C551.043 205.507 554.298 202.252 558.406 200.804C559.55 200.402 560.331 199.344 560.331 198.131V194.193C555.841 194.827 551.824 196.912 548.762 199.971C545.703 203.033 543.615 207.05 542.984 211.54H546.922C548.132 211.54 549.19 210.759 549.596 209.615Z" fill="#E97545"/>
<path d="M558.406 228.038C554.298 226.59 551.047 223.335 549.596 219.227C549.194 218.084 548.135 217.303 546.919 217.303H542.984C543.618 221.793 545.703 225.809 548.762 228.871C551.824 231.934 555.841 234.019 560.331 234.649V230.711C560.331 229.502 559.55 228.443 558.406 228.038Z" fill="#E97545"/>
<path d="M582.777 233.987C578.718 238.05 573.381 240.853 567.43 241.765C566.822 241.857 566.381 242.389 566.381 243.004V247.213C581.564 245.762 593.741 234.01 595.836 219.023C595.94 218.268 595.352 217.592 594.587 217.592H590.695C589.966 223.961 587.077 229.69 582.777 233.987Z" fill="white"/>
<path d="M579.501 217.303C578.288 217.303 577.23 218.084 576.824 219.227C575.377 223.335 572.122 226.59 568.014 228.038C566.87 228.44 566.089 229.499 566.089 230.715V234.649C570.579 234.019 574.596 231.93 577.658 228.871C580.717 225.809 582.805 221.793 583.436 217.303H579.501Z" fill="#E97545"/>
<path d="M563.211 220.122C566.36 220.122 568.913 217.569 568.913 214.419C568.913 211.27 566.36 208.717 563.211 208.717C560.061 208.717 557.508 211.27 557.508 214.419C557.508 217.569 560.061 220.122 563.211 220.122Z" fill="#E97545"/>
<path d="M546.661 242.166L543.246 237.751C543.076 237.532 542.984 237.26 542.984 236.983V217.303L-nan -nanL542.984 217.303C546.257 217.303 548.909 219.955 548.909 223.227V241.398C548.909 242.597 547.393 243.113 546.661 242.166Z" fill="#E97545"/>
<path d="M698.474 235.924H695.047V230.693H698.474V231.273H695.698V232.959H698.419V233.54H695.698V235.344H698.474V235.924Z" fill="white"/>
<path d="M690.107 236.018C689.197 236.018 688.53 235.673 688.099 235.187L688.483 234.693C688.828 235.077 689.393 235.438 690.13 235.438C691.063 235.438 691.361 234.936 691.361 234.536C691.361 233.187 688.263 233.932 688.263 232.065C688.263 231.203 689.032 230.614 690.059 230.614C690.859 230.614 691.479 230.881 691.918 231.344L691.526 231.822C691.134 231.391 690.585 231.195 690.012 231.195C689.385 231.195 688.938 231.532 688.938 232.026C688.938 233.203 692.036 232.528 692.036 234.481C692.036 235.242 691.518 236.018 690.107 236.018Z" fill="white"/>
<path d="M685.147 235.924H684.496V230.693H685.147V235.924Z" fill="white"/>
<path d="M678.844 236.018C677.291 236.018 676.248 234.858 676.248 233.312C676.248 231.767 677.291 230.607 678.844 230.607C680.389 230.607 681.44 231.767 681.44 233.312C681.44 234.858 680.389 236.018 678.844 236.018ZM678.844 235.438C680.013 235.438 680.766 234.528 680.766 233.312C680.766 232.089 680.013 231.187 678.844 231.187C677.668 231.187 676.923 232.089 676.923 233.312C676.923 234.528 677.668 235.438 678.844 235.438Z" fill="white"/>
<path d="M673.197 235.924H672.569L669.518 231.751V235.924H668.867V230.693H669.534L672.546 234.779V230.693H673.197V235.924Z" fill="white"/>
<path d="M661.728 235.924H658.301V230.693H661.728V231.273H658.952V232.959H661.673V233.54H658.952V235.344H661.728V235.924Z" fill="white"/>
<path d="M655.04 235.924H654.389V233.524H651.33V235.924H650.679V230.693H651.33V232.944H654.389V230.693H655.04V235.924Z" fill="white"/>
<path d="M646.111 235.924H645.46V231.273H643.805V230.693H647.773V231.273H646.111V235.924Z" fill="white"/>
<path d="M634.114 235.924H633.463V230.693H635.565C636.616 230.693 637.204 231.414 637.204 232.269C637.204 233.124 636.6 233.846 635.565 233.846H634.114V235.924ZM635.486 233.265C636.106 233.265 636.53 232.857 636.53 232.269C636.53 231.681 636.106 231.273 635.486 231.273H634.114V233.265H635.486Z" fill="white"/>
<path d="M630.197 235.924H629.546V230.693H630.197V235.924Z" fill="white"/>
<path d="M626.766 235.924H625.958L623.973 233.571L623.448 234.167V235.924H622.797V230.693H623.448V233.398L625.762 230.693H626.577L624.397 233.179L626.766 235.924Z" fill="white"/>
<path d="M617.856 236.018C616.946 236.018 616.279 235.673 615.848 235.187L616.232 234.693C616.577 235.077 617.142 235.438 617.879 235.438C618.812 235.438 619.11 234.936 619.11 234.536C619.11 233.187 616.012 233.932 616.012 232.065C616.012 231.203 616.781 230.614 617.808 230.614C618.608 230.614 619.228 230.881 619.667 231.344L619.275 231.822C618.883 231.391 618.334 231.195 617.761 231.195C617.134 231.195 616.687 231.532 616.687 232.026C616.687 233.203 619.785 232.528 619.785 234.481C619.785 235.242 619.267 236.018 617.856 236.018Z" fill="white"/>
<path d="M742.763 222.05C739.296 222.05 736.256 220.98 734.158 218.839L735.999 216.014C737.412 217.555 740.152 218.968 742.935 218.968C745.846 218.968 747.387 217.641 747.387 215.8C747.387 213.83 745.032 213.274 742.378 212.674C738.867 211.861 734.758 210.919 734.758 206.467C734.758 203.17 737.583 200.345 742.635 200.345C746.188 200.345 748.757 201.629 750.512 203.299L748.8 205.996C747.601 204.54 745.289 203.47 742.678 203.47C740.066 203.47 738.439 204.669 738.439 206.338C738.439 208.094 740.666 208.565 743.234 209.164C746.83 209.977 751.111 210.962 751.111 215.714C751.111 219.267 748.2 222.05 742.763 222.05Z" fill="white"/>
<path d="M725.709 198.116C724.381 198.116 723.226 197.003 723.226 195.633C723.226 194.263 724.381 193.193 725.709 193.193C727.079 193.193 728.192 194.263 728.192 195.633C728.192 197.003 727.079 198.116 725.709 198.116ZM727.678 221.534H723.825V200.856H727.678V221.534Z" fill="white"/>
<path d="M714.292 222.047C711.038 222.047 709.368 220.206 709.368 216.952V204.237H705.943V200.855H709.368V195.204H713.221V200.855H717.417V204.237H713.221V216.096C713.221 217.552 713.906 218.622 715.233 218.622C716.132 218.622 716.946 218.237 717.331 217.809L718.316 220.72C717.502 221.49 716.304 222.047 714.292 222.047Z" fill="white"/>
<path d="M700.352 221.536H696.499V208.308C696.499 204.883 694.744 203.77 692.09 203.77C689.692 203.77 687.509 205.225 686.396 206.767V221.536H682.543V200.859H686.396V203.77C687.766 202.1 690.506 200.345 693.717 200.345C698.083 200.345 700.352 202.657 700.352 207.023V221.536Z" fill="white"/>
<path d="M672.295 198.116C670.967 198.116 669.812 197.003 669.812 195.633C669.812 194.263 670.967 193.193 672.295 193.193C673.665 193.193 674.778 194.263 674.778 195.633C674.778 197.003 673.665 198.116 672.295 198.116ZM674.264 221.534H670.411V200.856H674.264V221.534Z" fill="white"/>
<path d="M652.932 222.05C646.511 222.05 642.486 217.17 642.486 211.176C642.486 205.225 646.511 200.345 652.932 200.345C659.397 200.345 663.378 205.225 663.378 211.176C663.378 217.17 659.397 222.05 652.932 222.05ZM652.932 218.625C657.085 218.625 659.354 215.115 659.354 211.176C659.354 207.28 657.085 203.77 652.932 203.77C648.822 203.77 646.511 207.28 646.511 211.176C646.511 215.115 648.822 218.625 652.932 218.625Z" fill="white"/>
<path d="M621.038 221.537H616.757V192.982H628.787C634.652 192.982 637.906 197.006 637.906 201.758C637.906 206.51 634.609 210.534 628.787 210.534H621.038V221.537ZM628.23 206.767C631.313 206.767 633.496 204.755 633.496 201.758C633.496 198.761 631.313 196.749 628.23 196.749H621.038V206.767H628.23Z" fill="white"/>
</g>
<rect x="253.219" y="103.5" width="529.297" height="437.853" rx="23.5" stroke="#2D2D2D"/>
</g>
<g filter="url(#filter1_d_87_2346)">
<g clip-path="url(#clip1_87_2346)">
<rect x="100.516" y="175.426" width="313.532" height="293.999" rx="24" fill="#262626"/>
<path d="M162.92 339.117H145.293C144.909 339.117 144.599 339.428 144.599 339.811V357.421C144.599 357.804 144.909 358.114 145.293 358.114H162.92C163.303 358.114 163.614 357.804 163.614 357.421V339.811C163.614 339.428 163.303 339.117 162.92 339.117Z" fill="#D9EBFF"/>
<path d="M343.289 241.941H290.805C290.422 241.941 290.111 242.252 290.111 242.635V250.759C290.111 251.142 290.422 251.453 290.805 251.453H343.289C343.672 251.453 343.983 251.142 343.983 250.759V242.635C343.983 242.252 343.672 241.941 343.289 241.941Z" fill="#D9EBFF"/>
<path d="M291.466 384.418H270.85C270.467 384.418 270.156 384.728 270.156 385.111V392.879C270.156 393.262 270.467 393.573 270.85 393.573H291.466C291.849 393.573 292.16 393.262 292.16 392.879V385.111C292.16 384.728 291.849 384.418 291.466 384.418Z" fill="#D9EBFF"/>
<path d="M364.276 258.188H300.823C300.44 258.188 300.129 258.498 300.129 258.881V385.289C300.129 385.672 300.44 385.983 300.823 385.983H364.276C364.659 385.983 364.97 385.672 364.97 385.289V258.881C364.97 258.498 364.659 258.188 364.276 258.188Z" fill="#D9EBFF"/>
<path d="M245.291 355.066H176.368C175.985 355.066 175.674 355.377 175.674 355.76V385.29C175.674 385.673 175.985 385.984 176.368 385.984H245.291C245.675 385.984 245.985 385.673 245.985 385.29V355.76C245.985 355.377 245.675 355.066 245.291 355.066Z" fill="#D9EBFF"/>
<path d="M276.967 240.086H137.786C137.403 240.086 137.092 240.396 137.092 240.779V330.261C137.092 330.643 137.403 330.954 137.786 330.954H276.967C277.35 330.954 277.661 330.643 277.661 330.261V240.779C277.661 240.396 277.35 240.086 276.967 240.086Z" fill="#D9EBFF"/>
<path d="M170.594 330.524C171.343 330.524 171.951 329.917 171.951 329.168C171.951 328.42 171.343 327.812 170.594 327.812C169.844 327.812 169.236 328.42 169.236 329.168C169.236 329.917 169.844 330.524 170.594 330.524Z" fill="#A9C0FF"/>
<path d="M170.594 327.126C171.343 327.126 171.951 326.519 171.951 325.77C171.951 325.021 171.343 324.414 170.594 324.414C169.844 324.414 169.236 325.021 169.236 325.77C169.236 326.519 169.844 327.126 170.594 327.126Z" fill="#A9C0FF"/>
<path d="M170.594 323.724C171.343 323.724 171.951 323.117 171.951 322.368C171.951 321.619 171.343 321.012 170.594 321.012C169.844 321.012 169.236 321.619 169.236 322.368C169.236 323.117 169.844 323.724 170.594 323.724Z" fill="#A9C0FF"/>
<path d="M286.707 272.794C287.456 272.794 288.064 272.187 288.064 271.438C288.064 270.689 287.456 270.082 286.707 270.082C285.957 270.082 285.35 270.689 285.35 271.438C285.35 272.187 285.957 272.794 286.707 272.794Z" fill="#A9C0FF"/>
<path d="M290.112 272.794C290.862 272.794 291.469 272.187 291.469 271.438C291.469 270.689 290.862 270.082 290.112 270.082C289.363 270.082 288.755 270.689 288.755 271.438C288.755 272.187 289.363 272.794 290.112 272.794Z" fill="#A9C0FF"/>
<path d="M293.517 272.794C294.267 272.794 294.875 272.187 294.875 271.438C294.875 270.689 294.267 270.082 293.517 270.082C292.768 270.082 292.16 270.689 292.16 271.438C292.16 272.187 292.768 272.794 293.517 272.794Z" fill="#A9C0FF"/>
<path d="M180.588 334.93H170.594C170.456 334.93 170.323 334.875 170.226 334.777C170.128 334.68 170.073 334.548 170.073 334.41V271.438C170.073 271.37 170.087 271.302 170.113 271.239C170.139 271.176 170.177 271.119 170.226 271.07C170.274 271.022 170.331 270.984 170.395 270.958C170.458 270.931 170.525 270.918 170.594 270.918H334.49C334.558 270.918 334.626 270.931 334.689 270.958C334.752 270.984 334.809 271.022 334.858 271.07C334.906 271.119 334.944 271.176 334.971 271.239C334.997 271.302 335.01 271.37 335.01 271.438V329.799C335.01 329.937 334.955 330.069 334.858 330.167C334.76 330.264 334.628 330.319 334.49 330.319C334.352 330.319 334.219 330.264 334.122 330.167C334.024 330.069 333.969 329.937 333.969 329.799V271.958H171.114V333.89H180.588C180.726 333.89 180.859 333.945 180.956 334.042C181.054 334.14 181.109 334.272 181.109 334.41C181.109 334.548 181.054 334.68 180.956 334.777C180.859 334.875 180.726 334.93 180.588 334.93Z" fill="#A9C0FF"/>
<path d="M378.621 343.754V399.481C378.621 399.72 378.574 399.956 378.482 400.176C378.391 400.396 378.257 400.596 378.089 400.765C377.92 400.933 377.72 401.067 377.499 401.158C377.279 401.25 377.042 401.296 376.804 401.296H320.759C320.278 401.295 319.817 401.103 319.476 400.763C319.136 400.423 318.944 399.962 318.942 399.481V336.03C318.942 335.792 318.989 335.556 319.081 335.335C319.172 335.115 319.306 334.915 319.474 334.746C319.643 334.578 319.843 334.444 320.064 334.353C320.284 334.262 320.521 334.215 320.759 334.215H369.063L378.621 343.754Z" fill="#A9C0FF"/>
<path d="M378.884 344.017H369.972C369.731 344.017 369.5 343.921 369.33 343.751C369.159 343.581 369.063 343.35 369.063 343.109V334.215L378.621 343.754L378.884 344.017Z" fill="#4D76B8"/>
<path d="M341.707 346.355H327.272C326.889 346.355 326.578 346.666 326.578 347.049V359.64C326.578 360.023 326.889 360.333 327.272 360.333H341.707C342.091 360.333 342.401 360.023 342.401 359.64V347.049C342.401 346.666 342.091 346.355 341.707 346.355Z" fill="white"/>
<path d="M369.064 388.77H326.939V389.81H369.064V388.77Z" fill="#456BA3"/>
<path d="M369.064 383.777H326.939V384.817H369.064V383.777Z" fill="#456BA3"/>
<path d="M369.064 378.785H326.939V379.825H369.064V378.785Z" fill="#456BA3"/>
<path d="M369.064 373.793H326.939V374.833H369.064V373.793Z" fill="#456BA3"/>
<path d="M369.064 368.801H326.939V369.841H369.064V368.801Z" fill="#456BA3"/>
<path d="M369.064 363.809H326.939V364.849H369.064V363.809Z" fill="#456BA3"/>
<path d="M369.063 358.816H347.064V359.856H369.063V358.816Z" fill="#456BA3"/>
<path d="M369.063 353.824H347.064V354.864H369.063V353.824Z" fill="#456BA3"/>
<path d="M369.064 348.832H347.065V349.872H369.064V348.832Z" fill="#456BA3"/>
<path d="M179.101 391.2H166.311C164.418 391.198 162.604 390.446 161.266 389.109C159.928 387.772 159.175 385.959 159.173 384.068V381.237C159.175 379.346 159.928 377.534 161.266 376.197C162.604 374.86 164.418 374.108 166.311 374.105H179.101C180.993 374.108 182.807 374.86 184.146 376.197C185.484 377.534 186.237 379.346 186.239 381.237V384.068C186.237 385.959 185.484 387.772 184.146 389.109C182.808 390.446 180.993 391.198 179.101 391.2ZM166.311 376.185C164.97 376.187 163.685 376.72 162.737 377.667C161.789 378.614 161.256 379.898 161.255 381.237V384.068C161.256 385.408 161.789 386.692 162.737 387.639C163.685 388.586 164.97 389.118 166.311 389.12H179.101C180.441 389.118 181.726 388.586 182.674 387.639C183.622 386.692 184.155 385.408 184.157 384.068V381.237C184.155 379.898 183.622 378.614 182.674 377.667C181.726 376.72 180.441 376.187 179.101 376.185H166.311Z" fill="#A9C0FF"/>
<path d="M177.078 366.601L175.829 379.324L175.176 385.983L173.813 399.895C173.787 400.152 173.666 400.39 173.475 400.564C173.283 400.737 173.034 400.834 172.775 400.834H147.653C147.394 400.834 147.145 400.737 146.953 400.564C146.761 400.39 146.641 400.152 146.615 399.895L145.251 385.983L144.599 379.324L143.35 366.601C143.336 366.456 143.352 366.31 143.398 366.172C143.443 366.034 143.517 365.908 143.615 365.8C143.713 365.692 143.832 365.606 143.965 365.547C144.098 365.488 144.242 365.457 144.387 365.457H176.04C176.186 365.457 176.33 365.488 176.463 365.547C176.596 365.606 176.715 365.692 176.813 365.8C176.91 365.907 176.984 366.034 177.03 366.172C177.076 366.31 177.092 366.456 177.078 366.601Z" fill="#A9C0FF"/>
<path d="M175.829 379.324L175.176 385.984H145.251L144.599 379.324H175.829Z" fill="#92B1EF"/>
<g opacity="0.19">
<path d="M149.846 343.652C149.885 343.963 149.853 344.277 149.753 344.574C149.637 344.867 149.478 345.141 149.281 345.388C149.101 345.607 148.953 345.852 148.844 346.115C148.664 346.619 148.69 347.174 148.915 347.66C149.045 347.901 149.209 348.121 149.402 348.316C149.634 348.557 149.827 348.832 149.975 349.132C150.119 349.454 150.193 349.802 150.193 350.154C150.193 350.506 150.118 350.854 149.974 351.176C149.826 351.475 149.633 351.75 149.402 351.992C149.209 352.186 149.045 352.407 148.915 352.648C148.805 352.886 148.742 353.143 148.729 353.405C148.715 353.673 148.755 353.941 148.846 354.193C148.955 354.455 149.102 354.7 149.282 354.92C149.479 355.166 149.638 355.441 149.754 355.734C149.854 356.031 149.885 356.346 149.846 356.656C149.812 356.36 149.721 356.074 149.579 355.814C149.425 355.565 149.238 355.339 149.023 355.141C148.789 354.918 148.589 354.662 148.431 354.381C148.281 354.076 148.198 353.744 148.188 353.405C148.17 353.061 148.229 352.717 148.361 352.398C148.5 352.096 148.682 351.816 148.902 351.566C149.084 351.365 149.237 351.139 149.357 350.896C149.546 350.419 149.547 349.888 149.358 349.411C149.238 349.168 149.085 348.942 148.904 348.741C148.684 348.491 148.502 348.211 148.362 347.91C148.231 347.591 148.171 347.248 148.189 346.903C148.199 346.564 148.282 346.232 148.432 345.928C148.589 345.646 148.789 345.39 149.023 345.168C149.238 344.97 149.425 344.744 149.579 344.495C149.722 344.234 149.813 343.948 149.846 343.652Z" fill="#AAAAAA"/>
</g>
<g opacity="0.19">
<path d="M160.101 337.145C160.14 337.455 160.108 337.77 160.008 338.066C159.892 338.359 159.733 338.634 159.536 338.88C159.355 339.099 159.208 339.344 159.099 339.607C158.919 340.111 158.944 340.666 159.17 341.152C159.3 341.393 159.464 341.614 159.657 341.808C159.889 342.049 160.082 342.325 160.23 342.625C160.374 342.946 160.448 343.294 160.448 343.646C160.448 343.998 160.373 344.346 160.229 344.668C160.081 344.967 159.888 345.243 159.656 345.484C159.464 345.679 159.3 345.9 159.17 346.14C158.945 346.626 158.921 347.181 159.101 347.685C159.21 347.948 159.357 348.192 159.537 348.412C159.734 348.659 159.893 348.933 160.009 349.226C160.109 349.523 160.14 349.838 160.101 350.148C160.067 349.853 159.976 349.567 159.833 349.306C159.68 349.057 159.493 348.831 159.278 348.633C159.043 348.411 158.844 348.154 158.686 347.873C158.536 347.569 158.453 347.236 158.442 346.897C158.425 346.553 158.484 346.209 158.616 345.89C158.755 345.588 158.937 345.308 159.156 345.058C159.339 344.857 159.492 344.631 159.612 344.388C159.801 343.911 159.802 343.38 159.613 342.904C159.493 342.66 159.34 342.435 159.158 342.233C158.939 341.983 158.757 341.704 158.617 341.402C158.486 341.084 158.426 340.74 158.443 340.395C158.454 340.057 158.537 339.724 158.687 339.42C158.844 339.138 159.044 338.882 159.278 338.66C159.493 338.462 159.68 338.236 159.834 337.987C159.977 337.726 160.067 337.44 160.101 337.145Z" fill="#AAAAAA"/>
</g>
<g opacity="0.19">
<path d="M169.417 347.836C169.46 348.176 169.425 348.522 169.315 348.847C169.188 349.169 169.013 349.47 168.797 349.74C168.599 349.981 168.438 350.25 168.318 350.538C168.12 351.092 168.148 351.7 168.395 352.234C168.538 352.498 168.718 352.74 168.93 352.954C169.184 353.218 169.396 353.521 169.559 353.85C169.717 354.203 169.798 354.585 169.798 354.971C169.798 355.357 169.716 355.739 169.558 356.092C169.395 356.421 169.183 356.723 168.929 356.988C168.718 357.201 168.538 357.444 168.395 357.708C168.149 358.241 168.122 358.85 168.319 359.403C168.439 359.691 168.6 359.96 168.798 360.201C169.014 360.471 169.189 360.773 169.316 361.095C169.426 361.42 169.46 361.766 169.417 362.106C169.38 361.782 169.28 361.468 169.124 361.182C168.955 360.909 168.75 360.66 168.514 360.443C168.257 360.199 168.038 359.918 167.865 359.609C167.7 359.275 167.609 358.91 167.597 358.538C167.578 358.16 167.643 357.783 167.787 357.433C167.94 357.102 168.14 356.795 168.38 356.521C168.58 356.3 168.749 356.052 168.88 355.785C169.088 355.262 169.089 354.679 168.881 354.156C168.75 353.889 168.582 353.641 168.383 353.42C168.142 353.146 167.942 352.839 167.789 352.508C167.644 352.159 167.579 351.781 167.598 351.403C167.609 351.032 167.701 350.667 167.865 350.333C168.038 350.024 168.257 349.743 168.514 349.499C168.75 349.282 168.955 349.033 169.124 348.76C169.281 348.474 169.38 348.16 169.417 347.836Z" fill="#AAAAAA"/>
</g>
<path d="M233.727 367.758V401.079H260.709V367.758H233.727ZM251.326 381.697C251.326 382.861 250.864 383.978 250.04 384.801C249.216 385.624 248.098 386.086 246.933 386.086C245.768 386.086 244.651 385.624 243.827 384.801C243.003 383.978 242.54 382.861 242.54 381.697V377.308H251.326V381.697Z" fill="#4D76B8"/>
<path d="M233.727 382.301H242.587C242.557 382.101 242.542 381.899 242.54 381.697V377.308H251.326V381.697C251.325 381.899 251.309 382.101 251.28 382.301H260.709V367.758H233.727V382.301Z" fill="#4469A0"/>
<path d="M303.773 298.254H190.663C187.597 298.254 185.111 300.737 185.111 303.801V371.76C185.111 374.823 187.597 377.306 190.663 377.306H303.773C306.839 377.306 309.325 374.823 309.325 371.76V303.801C309.325 300.737 306.839 298.254 303.773 298.254Z" fill="#4D76B8"/>
<path d="M301.426 303.465H193.009C191.668 303.465 190.58 304.551 190.58 305.892V369.673C190.58 371.013 191.668 372.1 193.009 372.1H301.426C302.767 372.1 303.855 371.013 303.855 369.673V305.892C303.855 304.551 302.767 303.465 301.426 303.465Z" fill="white"/>
<path d="M301.867 303.465H192.568C192.041 303.465 191.535 303.674 191.162 304.047C190.79 304.419 190.58 304.924 190.58 305.451V308.776H303.855V305.451C303.855 304.924 303.645 304.419 303.272 304.047C302.9 303.674 302.394 303.465 301.867 303.465Z" fill="#A9C0FF"/>
<path d="M230.597 318.469H205.003C204.619 318.469 204.309 318.779 204.309 319.162V336.121C204.309 336.504 204.619 336.814 205.003 336.814H230.597C230.981 336.814 231.291 336.504 231.291 336.121V319.162C231.291 318.779 230.981 318.469 230.597 318.469Z" fill="#92B1EF"/>
<path d="M267.456 320.696H239.974V321.736H267.456V320.696Z" fill="#456BA3"/>
<path d="M281.336 327.293H239.974V328.333H281.336V327.293Z" fill="#456BA3"/>
<path d="M274.396 333.891H239.974V334.931H274.396V333.891Z" fill="#456BA3"/>
<path d="M222.602 352.41H205.003C204.619 352.41 204.309 352.721 204.309 353.103V358.706C204.309 359.089 204.619 359.399 205.003 359.399H222.602C222.986 359.399 223.296 359.089 223.296 358.706V353.103C223.296 352.721 222.986 352.41 222.602 352.41Z" fill="#92B1EF"/>
<path d="M248.086 352.41H230.486C230.103 352.41 229.792 352.721 229.792 353.103V358.706C229.792 359.089 230.103 359.399 230.486 359.399H248.086C248.469 359.399 248.78 359.089 248.78 358.706V353.103C248.78 352.721 248.469 352.41 248.086 352.41Z" fill="#92B1EF"/>
<path d="M273.702 352.41H256.102C255.719 352.41 255.408 352.721 255.408 353.103V358.706C255.408 359.089 255.719 359.399 256.102 359.399H273.702C274.085 359.399 274.396 359.089 274.396 358.706V353.103C274.396 352.721 274.085 352.41 273.702 352.41Z" fill="#92B1EF"/>
<path d="M190.805 335.428L197.253 343.5C200.474 343.334 203.7 343.741 206.78 344.702L202.101 341.158L202.666 340.413L207.345 343.958C205.59 341.256 204.326 338.267 203.61 335.127L194.211 331.156L190.805 335.428ZM199.049 336.221C199.394 336.483 199.621 336.872 199.68 337.301C199.739 337.73 199.625 338.164 199.364 338.51C199.102 338.854 198.715 339.08 198.286 339.139C197.858 339.198 197.424 339.084 197.079 338.823C196.738 338.558 196.514 338.17 196.456 337.742C196.399 337.314 196.511 336.88 196.77 336.534C196.899 336.364 197.06 336.221 197.245 336.113C197.429 336.005 197.633 335.935 197.845 335.906C198.056 335.877 198.272 335.89 198.478 335.944C198.685 335.998 198.879 336.092 199.049 336.221Z" fill="#D9EBFF"/>
<path d="M183.799 333.031L189.111 337.057C189.298 337.198 189.532 337.259 189.763 337.227C189.994 337.195 190.204 337.073 190.345 336.888L195.08 330.648L195.269 330.403C195.409 330.217 195.47 329.982 195.439 329.751C195.407 329.52 195.285 329.311 195.099 329.17L189.787 325.145L183.799 333.031Z" fill="#4D76B8"/>
<path d="M206.779 344.701L202.101 341.156L202.666 340.412L207.344 343.957C205.589 341.255 204.325 338.266 203.609 335.126L195.363 331.641L193.516 334.073L191.669 336.508L197.252 343.499C200.473 343.333 203.699 343.74 206.779 344.701ZM196.769 336.533C196.965 336.278 197.232 336.086 197.537 335.982C197.842 335.878 198.171 335.867 198.482 335.95C198.794 336.032 199.073 336.205 199.286 336.447C199.499 336.688 199.636 336.987 199.679 337.306C199.722 337.625 199.67 337.95 199.528 338.239C199.387 338.528 199.163 338.769 198.885 338.931C198.607 339.093 198.286 339.17 197.965 339.15C197.643 339.131 197.335 339.017 197.078 338.822C196.737 338.557 196.513 338.169 196.455 337.741C196.398 337.313 196.51 336.879 196.769 336.533Z" fill="#4D76B8"/>
<path d="M189.753 325L183.766 332.887L189.078 336.912C189.264 337.053 189.499 337.114 189.73 337.082C189.961 337.051 190.171 336.929 190.312 336.743L195.047 330.504L195.235 330.258C195.376 330.072 195.437 329.838 195.405 329.607C195.374 329.376 195.252 329.167 195.066 329.025L189.753 325Z" fill="#92B1EF"/>
<path d="M324.298 378.592L321.476 381.57C321.288 381.767 321.061 381.924 320.81 382.031C320.559 382.137 320.289 382.192 320.016 382.19C319.744 382.188 319.474 382.13 319.225 382.02C318.975 381.91 318.751 381.751 318.565 381.551L309.313 371.733C309.154 371.562 309.065 371.337 309.066 371.103C309.067 370.87 309.158 370.645 309.319 370.476L312.508 367.101C312.668 366.931 312.887 366.829 313.12 366.814C313.352 366.8 313.582 366.875 313.761 367.023L324.116 375.683C324.328 375.856 324.501 376.072 324.626 376.315C324.75 376.559 324.823 376.825 324.84 377.098C324.857 377.371 324.818 377.644 324.725 377.901C324.631 378.158 324.486 378.394 324.298 378.592Z" fill="#618AC6"/>
<path d="M324.295 378.589L322.434 380.555C322.648 380.15 322.715 379.685 322.625 379.236C322.534 378.788 322.291 378.385 321.937 378.096L311.577 369.439C311.398 369.29 311.169 369.215 310.937 369.228C310.705 369.242 310.486 369.343 310.326 369.511L309.121 370.787C309.166 370.67 309.233 370.564 309.319 370.473L312.508 367.103C312.667 366.932 312.885 366.829 313.118 366.814C313.35 366.8 313.58 366.874 313.759 367.023L324.119 375.68C324.33 375.854 324.502 376.069 324.626 376.313C324.75 376.557 324.823 376.823 324.839 377.096C324.856 377.369 324.816 377.642 324.723 377.899C324.629 378.156 324.483 378.391 324.295 378.589Z" fill="#92B1EF"/>
<path d="M309.598 364.965L312.327 367.194L309.304 370.444L306.881 367.805L309.598 364.965Z" fill="#4469A0"/>
<path d="M312.395 355.958C312.314 353.068 311.378 350.266 309.703 347.908C308.029 345.549 305.692 343.74 302.988 342.708C300.285 341.677 297.335 341.469 294.514 342.112C291.692 342.755 289.124 344.219 287.136 346.32C285.147 348.421 283.826 351.064 283.341 353.914C282.856 356.765 283.227 359.695 284.409 362.334C285.591 364.974 287.529 367.204 289.98 368.743C292.43 370.281 295.282 371.06 298.175 370.979C302.054 370.871 305.732 369.228 308.399 366.411C311.066 363.594 312.503 359.834 312.395 355.958ZM298.095 367.187C295.95 367.247 293.836 366.671 292.019 365.53C290.202 364.39 288.765 362.737 287.888 360.78C287.012 358.824 286.736 356.651 287.095 354.538C287.455 352.425 288.433 350.465 289.907 348.908C291.382 347.35 293.285 346.264 295.377 345.787C297.469 345.311 299.655 345.464 301.66 346.229C303.664 346.994 305.397 348.335 306.638 350.084C307.879 351.832 308.574 353.909 308.634 356.052C308.714 358.924 307.649 361.711 305.672 363.799C303.696 365.888 300.971 367.106 298.095 367.187Z" fill="#618AC6"/>
<path d="M293.04 364.161C294.786 365.814 297.034 366.836 299.428 367.066C297.907 367.303 296.352 367.214 294.868 366.804C293.384 366.394 292.004 365.673 290.821 364.689C289.637 363.705 288.677 362.481 288.004 361.097C287.331 359.714 286.961 358.203 286.918 356.665C286.875 355.127 287.161 353.598 287.756 352.179C288.35 350.76 289.241 349.484 290.368 348.436C291.494 347.388 292.832 346.591 294.291 346.1C295.75 345.608 297.297 345.432 298.829 345.584C296.824 345.894 294.945 346.759 293.408 348.082C291.871 349.405 290.736 351.133 290.133 353.068C289.53 355.004 289.482 357.07 289.996 359.031C290.51 360.992 291.565 362.769 293.04 364.161Z" fill="#92B1EF"/>
<g opacity="0.28">
<path d="M348.017 283.984H289.868C287.946 283.984 286.389 285.54 286.389 287.46V322.974C286.389 324.894 287.946 326.45 289.868 326.45H348.017C349.938 326.45 351.496 324.894 351.496 322.974V287.46C351.496 285.54 349.938 283.984 348.017 283.984Z" fill="#6299E8"/>
</g>
<path d="M354.431 278.629H296.282C294.36 278.629 292.803 280.185 292.803 282.105V317.619C292.803 319.538 294.36 321.094 296.282 321.094H354.431C356.352 321.094 357.91 319.538 357.91 317.619V282.105C357.91 280.185 356.352 278.629 354.431 278.629Z" fill="white"/>
<path d="M354.431 321.611H296.282C295.221 321.61 294.205 321.188 293.455 320.439C292.705 319.69 292.283 318.675 292.282 317.615V282.101C292.283 281.042 292.705 280.026 293.455 279.277C294.205 278.528 295.221 278.107 296.282 278.105H354.431C355.491 278.107 356.508 278.528 357.257 279.277C358.007 280.026 358.429 281.042 358.43 282.101V317.615C358.429 318.675 358.007 319.69 357.257 320.439C356.508 321.188 355.491 321.61 354.431 321.611ZM296.282 279.145C295.497 279.146 294.745 279.458 294.191 280.012C293.636 280.566 293.324 281.318 293.323 282.101V317.615C293.324 318.399 293.636 319.15 294.191 319.704C294.745 320.258 295.497 320.57 296.282 320.571H354.431C355.215 320.57 355.967 320.258 356.522 319.704C357.076 319.15 357.388 318.399 357.389 317.615V282.101C357.388 281.318 357.076 280.566 356.522 280.012C355.967 279.458 355.215 279.146 354.431 279.145H296.282Z" fill="#4D76B8"/>
<path d="M351.605 294.461H330.524V295.501H351.605V294.461Z" fill="#4D76B8"/>
<path d="M351.605 299.641H330.524V300.681H351.605V299.641Z" fill="#4D76B8"/>
<path d="M351.605 304.82H330.524V305.86H351.605V304.82Z" fill="#4D76B8"/>
<path d="M351.605 310.16H299.295V311.2H351.605V310.16Z" fill="#4D76B8"/>
<path d="M351.605 314.902H299.295V315.942H351.605V314.902Z" fill="#4D76B8"/>
<g opacity="0.19">
<path d="M322.581 293.168H301.17C300.595 293.168 300.129 293.634 300.129 294.208V307.347C300.129 307.921 300.595 308.387 301.17 308.387H322.581C323.156 308.387 323.622 307.921 323.622 307.347V294.208C323.622 293.634 323.156 293.168 322.581 293.168Z" fill="#AAAAAA"/>
</g>
<path d="M357.91 286.953H292.803V287.993H357.91V286.953Z" fill="#4D76B8"/>
<path d="M324.316 291.516H302.904C302.329 291.516 301.863 291.981 301.863 292.556V305.694C301.863 306.269 302.329 306.734 302.904 306.734H324.316C324.891 306.734 325.357 306.269 325.357 305.694V292.556C325.357 291.981 324.891 291.516 324.316 291.516Z" fill="#92B1EF"/>
<path d="M310.824 295.168C310.82 295.168 310.815 295.168 310.811 295.168L310.793 296.591C310.797 296.591 310.802 296.591 310.804 296.591C311.778 296.591 312.534 297.33 314.179 299.991L314.28 300.153L314.287 300.164L315.207 298.838L315.201 298.827C314.985 298.489 314.775 298.177 314.577 297.894C314.346 297.564 314.125 297.27 313.909 297.007C312.822 295.675 311.911 295.168 310.824 295.168Z" fill="white"/>
<path d="M310.811 295.166C309.718 295.171 308.752 295.851 308.053 296.891C308.05 296.893 308.048 296.898 308.046 296.9L309.326 297.569C309.328 297.567 309.331 297.563 309.333 297.561C309.74 296.971 310.249 296.594 310.791 296.588C310.795 296.588 310.8 296.588 310.802 296.588L310.82 295.164C310.82 295.166 310.816 295.166 310.811 295.166Z" fill="white"/>
<path d="M308.055 296.891C308.053 296.893 308.051 296.897 308.048 296.899C307.589 297.586 307.247 298.427 307.063 299.337C307.063 299.341 307.061 299.345 307.061 299.348L308.501 299.675C308.501 299.67 308.503 299.666 308.503 299.664C308.656 298.864 308.951 298.126 309.331 297.571C309.333 297.569 309.335 297.564 309.338 297.562L308.055 296.891Z" fill="white"/>
<path d="M308.502 299.663L307.062 299.336C307.062 299.34 307.06 299.345 307.06 299.347C306.959 299.847 306.907 300.354 306.907 300.863C306.907 300.868 306.907 300.872 306.907 300.876L308.383 301.004C308.383 301 308.383 300.996 308.383 300.991C308.383 300.961 308.383 300.933 308.383 300.902C308.383 300.491 308.424 300.079 308.5 299.676C308.5 299.67 308.5 299.667 308.502 299.663Z" fill="white"/>
<path d="M308.428 301.446C308.401 301.299 308.388 301.151 308.383 301.004C308.383 301 308.383 300.995 308.383 300.991L306.907 300.863C306.907 300.868 306.907 300.872 306.907 300.876C306.905 301.173 306.932 301.47 306.988 301.765C306.988 301.769 306.991 301.773 306.991 301.775L308.431 301.457C308.428 301.455 308.428 301.45 308.428 301.446Z" fill="white"/>
<path d="M308.764 302.184C308.604 302.015 308.489 301.772 308.431 301.46C308.431 301.456 308.428 301.451 308.428 301.449L306.988 301.768C306.988 301.772 306.991 301.776 306.991 301.779C307.099 302.329 307.312 302.786 307.618 303.133C307.621 303.135 307.623 303.139 307.627 303.141L308.773 302.192C308.77 302.19 308.768 302.186 308.764 302.184Z" fill="white"/>
<path d="M313.03 298.242C312.162 299.523 311.637 300.324 311.637 300.324C310.481 302.066 310.083 302.456 309.439 302.456C309.171 302.456 308.946 302.365 308.775 302.188C308.773 302.186 308.769 302.181 308.766 302.179L307.621 303.128C307.623 303.13 307.626 303.135 307.63 303.137C308.053 303.609 308.647 303.871 309.385 303.871C310.501 303.871 311.302 303.366 312.729 300.97C312.729 300.97 313.323 299.96 313.732 299.265C313.473 298.877 313.244 298.537 313.03 298.242Z" fill="white"/>
<path d="M314.578 296.223C314.576 296.225 314.572 296.229 314.569 296.231C314.335 296.476 314.115 296.734 313.91 297.003C314.124 297.265 314.347 297.559 314.578 297.891C314.851 297.486 315.105 297.159 315.355 296.907C315.357 296.905 315.361 296.901 315.364 296.899L314.578 296.223Z" fill="white"/>
<path d="M318.789 296.1C318.184 295.512 317.462 295.168 316.692 295.168C315.88 295.168 315.194 295.597 314.577 296.225C314.575 296.227 314.571 296.232 314.568 296.234L315.354 296.908C315.356 296.906 315.36 296.901 315.363 296.899C315.77 296.492 316.164 296.29 316.598 296.29C317.068 296.29 317.507 296.503 317.887 296.875C317.889 296.877 317.894 296.882 317.896 296.884L318.798 296.108C318.796 296.106 318.792 296.104 318.789 296.1Z" fill="white"/>
<path d="M320.538 300.678C320.505 298.791 319.818 297.103 318.797 296.106C318.795 296.104 318.79 296.1 318.788 296.098L317.886 296.873C317.888 296.875 317.892 296.88 317.895 296.882C318.662 297.64 319.188 299.049 319.236 300.678C319.236 300.682 319.236 300.687 319.236 300.691H320.538C320.541 300.687 320.538 300.682 320.538 300.678Z" fill="white"/>
<path d="M320.54 300.693C320.54 300.688 320.54 300.684 320.54 300.68H319.237C319.237 300.684 319.237 300.688 319.237 300.693C319.239 300.769 319.239 300.847 319.239 300.922C319.239 301.367 319.17 301.726 319.03 301.984C319.028 301.988 319.026 301.993 319.023 301.995L319.993 302.966C319.995 302.961 319.998 302.959 320 302.955C320.353 302.433 320.538 301.707 320.538 300.825C320.54 300.782 320.54 300.736 320.54 300.693Z" fill="white"/>
<path d="M319.031 301.984C319.028 301.989 319.026 301.993 319.024 301.995C318.902 302.214 318.729 302.359 318.502 302.422L318.945 303.763C319.004 303.744 319.06 303.722 319.116 303.698C319.132 303.692 319.15 303.683 319.166 303.677C319.175 303.672 319.184 303.668 319.193 303.664C319.487 303.521 319.742 303.31 319.933 303.05C319.944 303.033 319.958 303.018 319.969 303.001C319.978 302.99 319.985 302.977 319.994 302.966C319.996 302.962 319.998 302.959 320 302.955L319.031 301.984Z" fill="white"/>
<path d="M318.223 302.459C318.083 302.461 317.944 302.435 317.816 302.383L317.363 303.756C317.618 303.841 317.89 303.878 318.194 303.878C318.455 303.88 318.713 303.841 318.961 303.761L318.518 302.42C318.421 302.446 318.322 302.459 318.223 302.459Z" fill="white"/>
<path d="M317.316 301.989C317.314 301.987 317.312 301.983 317.307 301.98L316.266 303.023C316.268 303.025 316.272 303.029 316.275 303.031C316.637 303.402 316.983 303.634 317.375 303.759L317.827 302.388C317.663 302.318 317.501 302.195 317.316 301.989Z" fill="white"/>
<path d="M317.307 301.981C316.994 301.632 316.607 301.049 316 300.109L315.205 298.835L315.199 298.824L314.278 300.15L314.285 300.161L314.848 301.069C315.392 301.944 315.835 302.579 316.265 303.021C316.267 303.023 316.272 303.027 316.274 303.03L317.316 301.987C317.314 301.987 317.309 301.983 317.307 301.981Z" fill="white"/>
<path d="M221.561 350.523H174.97C173.431 350.523 172.183 352.08 172.183 353.999V389.513C172.183 391.433 173.431 392.989 174.97 392.989H221.561C223.1 392.989 224.349 391.433 224.349 389.513V353.999C224.349 352.08 223.1 350.523 221.561 350.523Z" fill="white"/>
<path d="M221.561 393.505H174.97C174.121 393.504 173.306 393.083 172.705 392.334C172.105 391.585 171.767 390.569 171.766 389.51V353.996C171.767 352.936 172.105 351.921 172.705 351.172C173.306 350.423 174.121 350.001 174.97 350H221.561C222.411 350.001 223.225 350.423 223.826 351.172C224.427 351.921 224.765 352.936 224.766 353.996V389.51C224.765 390.569 224.427 391.585 223.826 392.334C223.225 393.083 222.411 393.504 221.561 393.505ZM174.97 351.04C174.342 351.041 173.739 351.353 173.295 351.907C172.85 352.461 172.6 353.212 172.6 353.996V389.51C172.6 390.293 172.85 391.045 173.295 391.599C173.739 392.153 174.342 392.465 174.97 392.465H221.561C222.189 392.465 222.792 392.153 223.236 391.599C223.681 391.045 223.931 390.293 223.932 389.51V353.996C223.931 353.212 223.681 352.461 223.236 351.907C222.792 351.353 222.189 351.041 221.561 351.04H174.97Z" fill="#4D76B8"/>
<path d="M219.296 366.355H202.406V367.395H219.296V366.355Z" fill="#4D76B8"/>
<path d="M219.296 371.535H202.406V372.575H219.296V371.535Z" fill="#4D76B8"/>
<path d="M219.296 376.715H202.406V377.755H219.296V376.715Z" fill="#4D76B8"/>
<path d="M219.296 382.055H177.384V383.095H219.296V382.055Z" fill="#4D76B8"/>
<path d="M219.296 386.797H177.384V387.837H219.296V386.797Z" fill="#4D76B8"/>
<path d="M224.349 358.848H172.183V359.888H224.349V358.848Z" fill="#4D76B8"/>
<path d="M393.22 400.789H123.312V403.909H393.22V400.789Z" fill="#456BA3"/>
<g opacity="0.28">
<path d="M196.141 260.242H155.279C154.512 260.242 153.891 260.863 153.891 261.629V318.427C153.891 319.193 154.512 319.813 155.279 319.813H196.141C196.908 319.813 197.529 319.193 197.529 318.427V261.629C197.529 260.863 196.908 260.242 196.141 260.242Z" fill="#6299E8"/>
</g>
<path d="M191.025 255.133H150.162C149.396 255.133 148.774 255.754 148.774 256.519V313.317C148.774 314.083 149.396 314.704 150.162 314.704H191.025C191.792 314.704 192.413 314.083 192.413 313.317V256.519C192.413 255.754 191.792 255.133 191.025 255.133Z" fill="white"/>
<path d="M175.673 306.738H157.852V307.778H175.673V306.738Z" fill="#4D76B8"/>
<path d="M186.083 302.367H157.852V303.407H186.083V302.367Z" fill="#4D76B8"/>
<path d="M175.673 296.879H157.852V297.919H175.673V296.879Z" fill="#4D76B8"/>
<path d="M186.083 292.508H157.852V293.548H186.083V292.508Z" fill="#4D76B8"/>
<path d="M186.083 288.141H157.852V289.181H186.083V288.141Z" fill="#4D76B8"/>
<path d="M170.594 279.926C175.286 279.926 179.089 276.126 179.089 271.44C179.089 266.753 175.286 262.953 170.594 262.953C165.903 262.953 162.1 266.753 162.1 271.44C162.1 276.126 165.903 279.926 170.594 279.926Z" fill="#92B1EF"/>
<path d="M170.13 265C168.799 265 167.617 265.916 167.205 267.267C166.35 267.456 165.611 268.028 165.178 268.839C164.511 270.071 164.664 271.621 165.558 272.678C165.282 273.563 165.376 274.531 165.817 275.332C166.48 276.569 167.815 277.203 169.12 276.908C169.699 277.606 170.53 278.004 171.402 278C172.733 278 173.915 277.084 174.327 275.733C175.184 275.543 175.921 274.971 176.349 274.161C177.021 272.929 176.868 271.379 175.975 270.322V270.318C176.251 269.433 176.156 268.464 175.715 267.659C175.052 266.426 173.717 265.792 172.416 266.087C171.835 265.391 171.002 264.996 170.13 265ZM170.13 265.845L170.126 265.85C170.661 265.85 171.176 266.048 171.588 266.413C171.571 266.422 171.538 266.444 171.514 266.457L169.092 267.95C168.968 268.025 168.894 268.165 168.894 268.32V271.824L167.852 271.181V268.284C167.851 266.939 168.871 265.847 170.13 265.845ZM173.047 266.866C173.864 266.864 174.619 267.33 175.027 268.086C175.291 268.579 175.39 269.156 175.299 269.715C175.282 269.702 175.25 269.684 175.229 269.671L172.807 268.174C172.683 268.099 172.531 268.099 172.407 268.174L169.569 269.926V268.641L171.913 267.192C172.258 266.979 172.649 266.866 173.047 266.866ZM167.057 268.196V271.273C167.057 271.427 167.131 271.564 167.255 271.643L170.088 273.391L169.042 274.038L166.703 272.594C165.614 271.92 165.242 270.431 165.871 269.266C166.137 268.772 166.557 268.394 167.057 268.196ZM172.486 268.958L174.829 270.402C175.921 271.075 176.292 272.563 175.661 273.73L175.665 273.734C175.398 274.227 174.978 274.606 174.479 274.8V271.722C174.479 271.568 174.405 271.427 174.281 271.353L171.443 269.6L172.486 268.958ZM170.764 270.019L171.959 270.758V272.233L170.764 272.973L169.569 272.233V270.758L170.764 270.019ZM172.642 271.181L173.684 271.824V274.716C173.684 276.063 172.663 277.155 171.407 277.155V277.151C170.875 277.151 170.356 276.952 169.948 276.587C169.965 276.578 170.002 276.556 170.022 276.543L172.444 275.051C172.568 274.976 172.646 274.835 172.642 274.681L172.642 271.181ZM171.962 273.074V274.359L169.619 275.803C168.527 276.473 167.135 276.076 166.505 274.914H166.509C166.241 274.425 166.146 273.844 166.237 273.285C166.253 273.298 166.286 273.316 166.307 273.329L168.729 274.826C168.853 274.901 169.004 274.901 169.128 274.826L171.962 273.074Z" fill="white"/>
<path d="M191.025 315.225H150.162C149.656 315.224 149.171 315.023 148.814 314.666C148.456 314.308 148.254 313.823 148.254 313.318V256.52C148.254 256.014 148.456 255.53 148.814 255.172C149.171 254.815 149.656 254.614 150.162 254.613H191.025C191.531 254.614 192.016 254.815 192.374 255.172C192.732 255.53 192.933 256.014 192.934 256.52V313.318C192.933 313.823 192.732 314.308 192.374 314.666C192.016 315.023 191.531 315.224 191.025 315.225ZM150.162 255.653C149.932 255.654 149.712 255.745 149.549 255.907C149.387 256.07 149.295 256.29 149.295 256.52V313.318C149.295 313.548 149.387 313.768 149.549 313.93C149.712 314.093 149.932 314.184 150.162 314.185H191.025C191.255 314.184 191.476 314.093 191.638 313.93C191.801 313.768 191.892 313.548 191.893 313.318V256.52C191.892 256.29 191.801 256.07 191.638 255.907C191.476 255.745 191.255 255.654 191.025 255.653H150.162Z" fill="#4D76B8"/>
<path d="M154.632 304.813H152.515C152.285 304.812 152.064 304.721 151.902 304.559C151.739 304.396 151.648 304.176 151.647 303.946V301.832C151.648 301.602 151.739 301.381 151.902 301.219C152.064 301.057 152.285 300.965 152.515 300.965H154.632C154.862 300.965 155.082 301.057 155.245 301.219C155.407 301.381 155.499 301.602 155.499 301.832V303.946C155.499 304.176 155.407 304.396 155.245 304.559C155.082 304.721 154.862 304.812 154.632 304.813ZM152.688 303.773H154.458V302.005H152.688V303.773Z" fill="#4D76B8"/>
<path d="M154.632 290.586H152.515C152.285 290.586 152.064 290.494 151.902 290.332C151.739 290.17 151.648 289.949 151.647 289.719V287.605C151.648 287.375 151.739 287.155 151.902 286.992C152.064 286.83 152.285 286.739 152.515 286.738H154.632C154.862 286.739 155.082 286.83 155.245 286.992C155.407 287.155 155.499 287.375 155.499 287.605V289.719C155.499 289.949 155.407 290.17 155.245 290.332C155.082 290.494 154.862 290.586 154.632 290.586ZM152.688 289.546H154.458V287.778H152.688V289.546Z" fill="#4D76B8"/>
<path d="M260.709 392.23H233.727V397.938H260.709V392.23Z" fill="#456BA3"/>
<path d="M266.955 400.79H227.48V396.815C227.48 396.356 227.663 395.915 227.989 395.59C228.314 395.265 228.755 395.082 229.215 395.082H265.22C265.68 395.082 266.122 395.265 266.447 395.59C266.772 395.915 266.955 396.356 266.955 396.815V400.79Z" fill="#4D76B8"/>
<path fill-rule="evenodd" clip-rule="evenodd" d="M336.175 349.023L330.394 349.431C329.928 349.47 329.766 349.762 329.766 350.111V356.177C329.766 356.45 329.867 356.683 330.11 356.994L331.469 358.685C331.693 358.958 331.895 359.016 332.322 358.997L339.035 358.608C339.603 358.569 339.766 358.316 339.766 357.888V351.064C339.766 350.843 339.674 350.779 339.406 350.591C339.39 350.58 339.375 350.57 339.36 350.559L337.514 349.314C337.068 349.004 336.885 348.964 336.175 349.023ZM332.474 350.952C331.926 350.988 331.801 350.996 331.49 350.753L330.698 350.151C330.618 350.073 330.658 349.975 330.861 349.956L336.419 349.567C336.885 349.528 337.128 349.684 337.311 349.82L338.265 350.481C338.305 350.501 338.406 350.617 338.285 350.617L332.545 350.948L332.474 350.952ZM331.835 357.83V352.037C331.835 351.784 331.916 351.667 332.159 351.647L338.751 351.278C338.975 351.259 339.076 351.395 339.076 351.647V357.402C339.076 357.655 339.035 357.869 338.67 357.888L332.362 358.238C331.997 358.258 331.835 358.141 331.835 357.83ZM338.062 352.347C338.102 352.522 338.062 352.697 337.879 352.717L337.575 352.775V357.052C337.311 357.188 337.068 357.266 336.865 357.266C336.541 357.266 336.459 357.169 336.216 356.877L334.228 353.883V356.78L334.857 356.916C334.857 356.916 334.857 357.266 334.349 357.266L332.95 357.344C332.91 357.266 332.95 357.072 333.092 357.033L333.457 356.936V353.106L332.95 353.067C332.91 352.892 333.011 352.639 333.295 352.62L334.796 352.522L336.865 355.556V352.872L336.338 352.814C336.297 352.6 336.459 352.445 336.662 352.425L338.062 352.347Z" fill="#A9C0FF"/>
<circle cx="186.766" cy="372" r="9" fill="#EFEFEF"/>
<circle cx="187.766" cy="370" r="9" fill="#92B1EF"/>
<path d="M184.923 371.315L187.088 370.101L187.124 369.996L187.088 369.937H186.982L186.621 369.915L185.384 369.882L184.311 369.837L183.272 369.781L183.011 369.726L182.766 369.403L182.791 369.242L183.011 369.094L183.326 369.121L184.022 369.169L185.066 369.241L185.824 369.285L186.946 369.402H187.124L187.15 369.33L187.089 369.285L187.041 369.241L185.96 368.509L184.79 367.735L184.178 367.29L183.846 367.064L183.679 366.853L183.607 366.391L183.908 366.06L184.312 366.087L184.415 366.115L184.825 366.43L185.699 367.106L186.841 367.946L187.008 368.085L187.075 368.038L187.083 368.004L187.008 367.879L186.387 366.757L185.724 365.616L185.429 365.143L185.351 364.86C185.324 364.743 185.304 364.645 185.304 364.526L185.646 364.061L185.836 364L186.292 364.061L186.485 364.228L186.769 364.877L187.228 365.898L187.941 367.287L188.15 367.699L188.262 368.081L188.303 368.197H188.375V368.13L188.434 367.348L188.542 366.387L188.648 365.151L188.684 364.803L188.857 364.386L189.199 364.16L189.466 364.288L189.686 364.603L189.656 364.806L189.525 365.655L189.269 366.986L189.102 367.877H189.199L189.31 367.765L189.761 367.167L190.519 366.22L190.853 365.845L191.243 365.43L191.493 365.232H191.967L192.315 365.75L192.159 366.284L191.672 366.902L191.268 367.425L190.688 368.205L190.327 368.828L190.36 368.878L190.446 368.87L191.755 368.591L192.462 368.464L193.306 368.319L193.688 368.497L193.729 368.678L193.579 369.049L192.677 369.271L191.618 369.483L190.042 369.856L190.023 369.87L190.045 369.897L190.755 369.964L191.059 369.98H191.802L193.187 370.083L193.549 370.323L193.766 370.615L193.729 370.838L193.172 371.121L192.42 370.943L190.666 370.526L190.064 370.376H189.981V370.426L190.482 370.916L191.401 371.745L192.552 372.814L192.611 373.078L192.463 373.287L192.307 373.264L191.296 372.504L190.906 372.162L190.023 371.419H189.964V371.497L190.168 371.795L191.242 373.409L191.298 373.904L191.22 374.065L190.942 374.163L190.636 374.107L190.006 373.224L189.357 372.23L188.833 371.34L188.77 371.376L188.461 374.702L188.316 374.872L187.982 375L187.703 374.788L187.555 374.446L187.703 373.77L187.881 372.887L188.026 372.186L188.157 371.314L188.235 371.025L188.23 371.005L188.166 371.014L187.508 371.916L186.509 373.266L185.717 374.112L185.528 374.187L185.2 374.017L185.23 373.714L185.414 373.443L186.509 372.051L187.169 371.189L187.595 370.691L187.592 370.619H187.567L184.659 372.506L184.141 372.573L183.918 372.364L183.946 372.022L184.051 371.91L184.926 371.309L184.923 371.312L184.923 371.315Z" fill="white"/>
</g>
<rect x="101.016" y="175.926" width="312.532" height="292.999" rx="23.5" stroke="#2D2D2D"/>
</g>
<defs>
<filter id="filter0_d_87_2346" x="152.719" y="0.58" width="730.298" height="638.853" filterUnits="userSpaceOnUse" color-interpolation-filters="sRGB">
<feFlood flood-opacity="0" result="BackgroundImageFix"/>
<feColorMatrix in="SourceAlpha" type="matrix" values="0 0 0 0 0 0 0 0 0 0 0 0 0 0 0 0 0 0 127 0" result="hardAlpha"/>
<feOffset dy="-2.42"/>
<feGaussianBlur stdDeviation="50"/>
<feColorMatrix type="matrix" values="0 0 0 0 0 0 0 0 0 0 0 0 0 0 0 0 0 0 0.04 0"/>
<feBlend mode="normal" in2="BackgroundImageFix" result="effect1_dropShadow_87_2346"/>
<feBlend mode="normal" in="SourceGraphic" in2="effect1_dropShadow_87_2346" result="shape"/>
</filter>
<filter id="filter1_d_87_2346" x="0.516113" y="99.0058" width="513.533" height="493.999" filterUnits="userSpaceOnUse" color-interpolation-filters="sRGB">
<feFlood flood-opacity="0" result="BackgroundImageFix"/>
<feColorMatrix in="SourceAlpha" type="matrix" values="0 0 0 0 0 0 0 0 0 0 0 0 0 0 0 0 0 0 127 0" result="hardAlpha"/>
<feOffset dy="23.58"/>
<feGaussianBlur stdDeviation="50"/>
<feColorMatrix type="matrix" values="0 0 0 0 0 0 0 0 0 0 0 0 0 0 0 0 0 0 0.06 0"/>
<feBlend mode="normal" in2="BackgroundImageFix" result="effect1_dropShadow_87_2346"/>
<feBlend mode="normal" in="SourceGraphic" in2="effect1_dropShadow_87_2346" result="shape"/>
</filter>
<clipPath id="clip0_87_2346">
<rect x="252.719" y="103" width="530.297" height="438.853" rx="24" fill="white"/>
</clipPath>
<clipPath id="clip1_87_2346">
<rect x="100.516" y="175.426" width="313.532" height="293.999" rx="24" fill="white"/>
</clipPath>
</defs>
</svg>
