<svg width="884" height="640" viewBox="0 0 884 640" fill="none" xmlns="http://www.w3.org/2000/svg">
<g filter="url(#filter0_d_3_254)">
<g clip-path="url(#clip0_3_254)">
<rect x="252.953" y="103" width="530.297" height="438.853" rx="24" fill="white"/>
<rect x="213.25" y="95" width="696" height="449" fill="white"/>
<path d="M693.6 266.26C699.123 315.84 707.1 322.572 739.617 360.523C762.018 386.665 745.994 430.717 730.795 457.432C726.852 464.36 719.304 468.253 711.323 468.253H501.591C483.824 468.253 418.483 417.053 405.84 404.594C355.528 355.014 384.365 255.241 419.952 235.654C455.538 216.067 496.034 253.405 559.844 195.868C623.654 138.331 688.488 220.352 693.6 266.26Z" fill="#F2F6F9"/>
<path d="M485.837 213.942C503.452 214.268 515.888 203.756 519.904 198.46C521.012 195.879 522.314 190.148 518.658 187.866C514.089 185.014 501.209 194.793 485.837 190.718C470.466 186.644 466.726 194.385 454.678 206.608C442.63 218.832 463.818 213.535 485.837 213.942Z" fill="#F2F6F9"/>
<path d="M494.125 468.252H557.147C574.69 461.811 598.079 454.082 592.233 439.269C586.385 424.456 557.147 444.422 549.351 430.252C541.555 416.082 604.577 414.151 598.079 396.118C591.583 378.084 551.95 401.269 557.147 383.88C562.345 366.49 606.526 372.931 604.577 354.897C602.627 336.864 569.492 366.49 565.594 345.881C561.695 325.271 597.431 288.559 569.492 282.12C541.555 275.679 549.351 342.66 539.605 345.881C529.859 349.101 520.763 314.322 507.12 329.78C493.475 345.237 516.866 380.015 507.12 396.118C497.374 412.219 483.73 352.322 468.137 380.015C455.662 402.171 480.265 448.071 494.125 468.252Z" fill="white"/>
<path d="M678.355 355.788C676.171 409.095 692.953 449.068 703.184 464.906C704.116 466.349 705.732 467.157 707.455 467.157H710.781C713.724 467.157 716.11 464.739 716.064 461.811C714.916 390.367 696.979 360.819 684.314 352.194C681.609 350.351 678.488 352.53 678.355 355.788Z" fill="white"/>
<path fill-rule="evenodd" clip-rule="evenodd" d="M680.965 353.004C680.154 353.519 679.511 354.538 679.458 355.832C677.282 408.906 693.999 448.658 704.113 464.314C704.825 465.416 706.076 466.059 707.455 466.059H710.781C713.107 466.059 714.997 464.145 714.959 461.829C714.388 426.191 709.628 401.067 703.467 383.813C697.301 366.542 689.761 357.235 683.69 353.1C682.718 352.436 681.741 352.51 680.965 353.004ZM679.776 351.153C681.269 350.203 683.205 350.108 684.937 351.289C691.531 355.778 699.292 365.558 705.547 383.079C711.81 400.617 716.591 425.991 717.167 461.794C717.224 465.333 714.343 468.255 710.781 468.255H707.455C705.388 468.255 703.407 467.283 702.257 465.501C691.907 449.479 675.058 409.284 677.253 355.744C677.334 353.78 678.317 352.081 679.776 351.153Z" fill="#262626"/>
<path d="M754.738 383.996C726.08 403.359 712.636 440.159 708.433 461.674C707.819 464.81 710.298 467.611 713.511 467.611H717.788C719.065 467.611 720.305 467.156 721.252 466.305C745.858 444.165 757.545 409.728 761.652 388.637C762.452 384.529 758.217 381.646 754.738 383.996Z" fill="#262626"/>
<path fill-rule="evenodd" clip-rule="evenodd" d="M687.502 363.75C690.478 372.77 693.168 381.615 695.589 390.126C697.548 397.018 699.33 403.692 700.942 410.059L704.144 402.268L706.187 403.099L701.843 413.665C704.675 425.106 706.938 435.474 708.673 444.242C710.683 454.391 711.988 462.406 712.648 467.468L710.46 467.751C709.818 462.833 708.555 455.05 706.609 445.175L696.885 439.973L697.929 438.039L706.052 442.384C704.37 434.059 702.235 424.407 699.616 413.843C697.835 406.665 695.831 399.066 693.594 391.176L683.656 385.948L684.688 384.007L692.757 388.253C690.531 380.532 688.083 372.553 685.405 364.434L687.502 363.75Z" fill="#262626"/>
<path fill-rule="evenodd" clip-rule="evenodd" d="M746.411 407.634C749.399 402.831 752.265 398.564 754.873 395.178L753.121 393.844C750.013 397.88 746.573 403.097 743.03 408.925C739.705 414.396 736.279 420.421 732.937 426.544L732.279 417.585L730.078 417.746L730.988 430.141C727.085 437.406 723.349 444.687 720.087 451.229C717.01 457.399 714.355 462.915 712.379 467.145L714.38 468.071C716.308 463.945 718.888 458.582 721.878 452.578L731.593 448.648L730.763 446.614L723.365 449.606C726.34 443.692 729.65 437.284 733.085 430.897C736.9 423.805 740.867 416.746 744.697 410.426L752.027 408.276L751.403 406.171L746.411 407.634Z" fill="white"/>
<path d="M459.702 310.165L457.158 323.523L459.702 337.517C466.275 338.366 479.676 340.062 480.694 340.062C481.711 340.062 489.175 333.701 492.78 330.52L488.963 310.165C499.65 306.603 503.169 290.869 503.593 283.447C506.138 252.914 485.783 249.098 481.966 249.098C478.149 249.098 453.977 249.098 450.796 274.542C448.252 294.897 455.673 306.771 459.702 310.165Z" fill="#EFCB96"/>
<path d="M397.998 467.921H497.868L624.454 467.284C632.288 462.176 634.48 453.935 634.5 446.944C634.518 441.216 630.389 436.608 625.231 434.121C604.731 424.239 573.619 408.946 567.84 404.946C559.571 399.22 551.937 368.051 536.671 343.879C524.457 324.541 501.473 320.131 492.143 320.343C491.295 324.159 487.69 331.793 474.968 331.793C462.246 331.793 456.945 324.159 455.249 320.343C448.675 320.343 430.44 323.905 415.173 338.154C396.103 355.953 387.832 396.62 380.203 434.129L380.187 434.206C374.08 464.231 389.517 468.769 397.998 467.921Z" fill="#E97545"/>
<path d="M440.617 418.94L450.159 380.137L448.251 418.94L491.7 429.537C497.279 430.899 502.496 434.367 503.551 440.012C505.435 450.08 501.678 460.787 497.232 464.74C501.048 459.279 501.048 438.66 496.595 435.479C493.033 432.935 448.887 424.664 427.259 420.848L440.617 418.94Z" fill="#262626"/>
<path d="M535.398 369.957L558.935 467.918H569.113L535.398 369.957Z" fill="#262626"/>
<path d="M466.697 297.442C464.152 312.201 460.548 313.769 459.063 312.709C441.252 301.26 441.682 264.677 452.702 252.278C462.88 240.828 470.514 245.281 491.505 240.192C512.497 235.103 519.495 244.009 515.677 255.459C510.183 271.942 492.777 263.093 488.325 265.001C483.872 266.909 478.147 271.998 475.602 282.176C473.058 292.353 471.786 290.445 469.877 284.721C467.969 278.995 462.88 270.726 459.063 280.903C456.01 289.045 462.88 295.322 466.697 297.442Z" fill="#262626"/>
<path d="M541.759 467.919C541.759 450.617 516.103 445.444 503.592 445.019C503.592 453.67 498.292 463.891 495.323 467.919H541.759Z" fill="#EFCB96"/>
<path d="M665.397 466.752C665.397 451.371 645.065 448.103 634.098 447.727C634.098 455.416 627.288 463.169 624.685 466.752H665.397Z" fill="#EFCB96"/>
<path fill-rule="evenodd" clip-rule="evenodd" d="M378.826 444.957C378.525 457.238 382.831 467.918 395.971 467.918H407.542C404.489 447.563 388.338 435.266 380.704 431.66C380.537 432.483 380.37 433.306 380.203 434.126L380.187 434.203C379.373 438.204 378.942 441.774 378.826 444.957Z" fill="#262626"/>
<path d="M476.754 309.969C482.678 311.943 486.783 310.792 488.84 309.969L490.748 318.874C482.849 317.887 478.399 312.23 476.754 309.969Z" fill="#262626"/>
<path d="M604.459 374.813L570.195 452.62C568.475 456.526 571.335 460.912 575.603 460.912H680.157C682.558 460.912 684.721 459.459 685.628 457.236L717.394 379.429C718.981 375.541 716.121 371.285 711.922 371.285H609.866C607.525 371.285 605.403 372.668 604.459 374.813Z" fill="white"/>
<path d="M647.218 430.887C655.335 430.887 661.916 424.313 661.916 416.203C661.916 408.094 655.335 401.52 647.218 401.52C639.101 401.52 632.521 408.094 632.521 416.203C632.521 424.313 639.101 430.887 647.218 430.887Z" fill="white"/>
<path d="M648.83 425.851C648.83 426.835 647.991 427.35 647.163 427.35C646.334 427.35 645.496 426.835 645.496 425.851C645.496 425.813 645.504 425.776 645.518 425.741C645.533 425.706 645.554 425.674 645.581 425.647C645.608 425.62 645.639 425.599 645.675 425.584C645.71 425.57 645.747 425.562 645.785 425.563H648.54C648.578 425.562 648.616 425.57 648.651 425.584C648.686 425.599 648.718 425.62 648.745 425.647C648.772 425.674 648.793 425.706 648.808 425.741C648.822 425.776 648.83 425.813 648.83 425.851Z" fill="#92B1EF"/>
<path d="M650.192 422.481V424.529C650.192 424.943 650.027 425.34 649.734 425.633C649.441 425.926 649.043 426.091 648.628 426.091H645.697C645.283 426.091 644.885 425.926 644.592 425.633C644.298 425.34 644.134 424.943 644.133 424.529V422.481C644.133 422.437 644.142 422.394 644.159 422.354C644.175 422.313 644.2 422.277 644.231 422.246C644.262 422.215 644.298 422.19 644.339 422.174C644.379 422.157 644.422 422.148 644.466 422.148H649.86C649.903 422.148 649.947 422.157 649.987 422.174C650.027 422.19 650.064 422.215 650.095 422.246C650.126 422.277 650.15 422.313 650.167 422.354C650.184 422.394 650.192 422.437 650.192 422.481Z" fill="#4D76B8"/>
<path d="M653.143 415.181C653.148 416.742 652.536 418.242 651.441 419.356C651.083 419.895 650.877 420.522 650.846 421.169C650.846 422.489 650 422.783 649.964 422.795C649.93 422.806 649.895 422.812 649.86 422.812H644.555C644.507 422.812 644.461 422.801 644.417 422.782C644.224 422.693 643.595 422.32 643.595 421.18V421.106C643.595 420.442 643.595 420.132 643.178 419.638C642.433 418.974 641.867 418.134 641.53 417.196C641.193 416.257 641.097 415.249 641.25 414.263C641.403 413.278 641.8 412.347 642.406 411.554C643.011 410.761 643.806 410.132 644.717 409.725C645.628 409.317 646.626 409.144 647.622 409.221C648.617 409.298 649.577 409.622 650.414 410.164C651.252 410.707 651.941 411.45 652.417 412.326C652.894 413.202 653.143 414.184 653.143 415.181Z" fill="#E97545"/>
<path d="M656.893 415.448H654.323C654.235 415.448 654.151 415.413 654.088 415.351C654.026 415.288 653.991 415.204 653.991 415.116C653.991 415.028 654.026 414.943 654.088 414.881C654.151 414.818 654.235 414.783 654.323 414.783H656.893C656.981 414.783 657.066 414.818 657.128 414.881C657.191 414.943 657.226 415.028 657.226 415.116C657.226 415.204 657.191 415.288 657.128 415.351C657.066 415.413 656.981 415.448 656.893 415.448ZM652.041 410.283C651.975 410.283 651.911 410.263 651.856 410.227C651.802 410.19 651.759 410.138 651.734 410.078C651.709 410.017 651.702 409.95 651.715 409.886C651.728 409.821 651.759 409.762 651.806 409.716L653.655 407.868C653.686 407.837 653.723 407.812 653.763 407.796C653.804 407.779 653.847 407.77 653.891 407.77C653.935 407.77 653.978 407.779 654.018 407.795C654.059 407.812 654.096 407.837 654.127 407.867C654.157 407.898 654.182 407.935 654.199 407.975C654.215 408.016 654.224 408.059 654.224 408.103C654.224 408.147 654.215 408.19 654.198 408.23C654.182 408.271 654.157 408.307 654.126 408.338L652.275 410.185C652.213 410.247 652.129 410.283 652.041 410.283ZM640.113 415.448H637.543C637.455 415.448 637.371 415.413 637.308 415.351C637.246 415.288 637.211 415.204 637.211 415.116C637.211 415.028 637.246 414.943 637.308 414.881C637.371 414.818 637.455 414.783 637.543 414.783H640.113C640.201 414.783 640.286 414.818 640.348 414.881C640.41 414.943 640.446 415.028 640.446 415.116C640.446 415.204 640.41 415.288 640.348 415.351C640.286 415.413 640.201 415.448 640.113 415.448ZM642.395 410.283C642.352 410.283 642.308 410.274 642.268 410.258C642.228 410.241 642.191 410.216 642.16 410.185L640.311 408.338C640.28 408.307 640.255 408.27 640.238 408.23C640.221 408.189 640.213 408.146 640.213 408.102C640.213 408.059 640.221 408.015 640.238 407.975C640.255 407.935 640.279 407.898 640.31 407.867C640.341 407.836 640.378 407.811 640.418 407.795C640.459 407.778 640.502 407.769 640.546 407.77C640.59 407.77 640.633 407.778 640.673 407.795C640.714 407.812 640.75 407.836 640.781 407.867L642.631 409.715C642.677 409.762 642.709 409.821 642.722 409.885C642.735 409.95 642.728 410.017 642.703 410.077C642.678 410.138 642.635 410.19 642.581 410.226C642.526 410.263 642.462 410.282 642.396 410.282L642.395 410.283Z" fill="#92B1EF"/>
<path d="M647.275 408.294C647.187 408.294 647.102 408.259 647.04 408.197C646.978 408.135 646.943 408.05 646.943 407.962V405.395C646.943 405.351 646.951 405.308 646.968 405.268C646.985 405.227 647.009 405.191 647.04 405.16C647.071 405.129 647.108 405.105 647.148 405.088C647.188 405.071 647.232 405.062 647.275 405.062C647.319 405.062 647.362 405.071 647.403 405.088C647.443 405.105 647.48 405.129 647.511 405.16C647.541 405.191 647.566 405.227 647.583 405.268C647.599 405.308 647.608 405.351 647.608 405.395V407.962C647.608 408.006 647.599 408.049 647.583 408.089C647.566 408.129 647.541 408.166 647.511 408.197C647.48 408.228 647.443 408.252 647.403 408.269C647.362 408.286 647.319 408.294 647.275 408.294Z" fill="#92B1EF"/>
<path d="M651.843 415.425C651.814 415.425 651.785 415.419 651.758 415.408C651.731 415.397 651.707 415.381 651.686 415.36C651.666 415.34 651.649 415.315 651.638 415.288C651.627 415.262 651.621 415.233 651.621 415.204C651.62 414.042 651.157 412.928 650.335 412.107C649.513 411.286 648.398 410.823 647.236 410.822C647.177 410.822 647.121 410.798 647.079 410.757C647.038 410.715 647.015 410.659 647.015 410.6C647.015 410.542 647.038 410.486 647.079 410.444C647.121 410.403 647.177 410.379 647.236 410.379C648.516 410.38 649.743 410.889 650.649 411.794C651.554 412.698 652.063 413.924 652.065 415.204C652.065 415.233 652.059 415.262 652.048 415.288C652.037 415.315 652.021 415.34 652 415.36C651.979 415.381 651.955 415.397 651.928 415.408C651.901 415.419 651.872 415.425 651.843 415.425Z" fill="#D9EBFF"/>
<path d="M647.218 431.407C644.208 431.407 641.266 430.515 638.763 428.845C636.261 427.174 634.31 424.8 633.158 422.022C632.007 419.244 631.705 416.187 632.292 413.238C632.88 410.288 634.329 407.579 636.457 405.453C638.586 403.327 641.297 401.879 644.249 401.292C647.201 400.706 650.261 401.007 653.042 402.157C655.823 403.308 658.199 405.257 659.872 407.757C661.544 410.257 662.436 413.197 662.436 416.204C662.432 420.234 660.827 424.099 657.974 426.949C655.121 429.799 651.253 431.403 647.218 431.407ZM647.218 402.04C644.414 402.04 641.673 402.871 639.342 404.427C637.01 405.983 635.193 408.195 634.12 410.783C633.047 413.371 632.766 416.219 633.313 418.967C633.86 421.714 635.211 424.238 637.193 426.219C639.176 428.2 641.702 429.548 644.452 430.095C647.202 430.642 650.053 430.361 652.644 429.289C655.234 428.217 657.448 426.402 659.006 424.072C660.564 421.743 661.395 419.005 661.395 416.204C661.391 412.448 659.896 408.848 657.238 406.193C654.58 403.538 650.977 402.044 647.218 402.04Z" fill="#262626"/>
<path fill-rule="evenodd" clip-rule="evenodd" d="M609.866 372.513C608.011 372.513 606.33 373.611 605.581 375.31L571.317 453.117C569.955 456.211 572.222 459.685 575.603 459.685H680.157C682.059 459.685 683.773 458.535 684.491 456.774L716.257 378.965C717.515 375.886 715.249 372.513 711.922 372.513H609.866ZM603.336 374.319C604.475 371.73 607.038 370.059 609.866 370.059H711.922C716.992 370.059 720.447 375.199 718.529 379.894L686.765 457.701C685.669 460.386 683.056 462.14 680.157 462.14H575.603C570.448 462.14 566.994 456.844 569.072 452.128L603.336 374.319Z" fill="#262626"/>
<path d="M678.515 468.315H497.061C494.109 468.315 491.717 465.922 491.717 462.97C491.717 460.019 494.109 457.625 497.061 457.625H678.515C682.345 457.625 684.932 461.535 683.434 465.06C682.597 467.034 680.66 468.315 678.515 468.315Z" fill="#262626"/>
<path d="M740.953 293.43L736.7 298.924C736.442 299.259 736.02 299.419 735.607 299.342L730.352 298.348C729.222 298.134 728.539 299.569 729.412 300.325L733.542 303.905C733.843 304.166 733.986 304.568 733.916 304.964L732.88 310.866C732.686 311.976 734.039 312.663 734.806 311.843L739.049 307.307C739.298 307.041 739.658 306.912 740.019 306.962L744.928 307.636C746.034 307.789 746.661 306.397 745.819 305.656L742.169 302.441C741.875 302.183 741.735 301.79 741.798 301.402L742.949 294.311C743.137 293.151 741.67 292.502 740.953 293.43Z" fill="#E97545"/>
<path d="M682.594 177.851L683.472 181.277C683.525 181.485 683.457 181.711 683.297 181.861L681.257 183.775C680.818 184.186 681.181 184.901 681.757 184.759L684.484 184.09C684.683 184.041 684.89 184.101 685.026 184.248L687.071 186.444C687.456 186.857 688.155 186.492 688.065 185.926L687.57 182.789C687.54 182.605 687.601 182.415 687.733 182.278L689.538 180.415C689.945 179.995 689.582 179.317 689.023 179.45L686.591 180.026C686.395 180.073 686.194 180.014 686.058 179.872L683.572 177.274C683.165 176.849 682.447 177.273 682.594 177.851Z" fill="#E97545"/>
<rect x="525" y="168" width="232" height="93" rx="12" fill="white"/>
<rect x="525" y="168" width="232" height="93" rx="12" stroke="#262626" stroke-width="2"/>
<path d="M568.248 200.804C572.356 202.252 575.608 205.507 577.059 209.615C577.464 210.759 578.52 211.54 579.735 211.54H583.67C583.036 207.05 580.951 203.033 577.892 199.971C574.83 196.909 570.814 194.824 566.323 194.193V198.131C566.323 199.344 567.105 200.403 568.248 200.804Z" fill="#E97545"/>
<path d="M560.275 186.94V183.047C560.275 182.283 559.599 181.694 558.844 181.799C543.856 183.894 532.105 196.067 530.654 211.254H534.863C535.477 211.254 536.007 210.813 536.101 210.205C537.013 204.254 539.817 198.917 543.879 194.858C548.177 190.554 553.906 187.665 560.275 186.94Z" fill="#334C5F"/>
<path d="M549.831 209.615C551.278 205.507 554.533 202.252 558.641 200.804C559.785 200.403 560.566 199.344 560.566 198.131V194.193C556.076 194.827 552.06 196.912 548.997 199.971C545.938 203.033 543.85 207.05 543.219 211.54H547.157C548.367 211.54 549.425 210.759 549.831 209.615Z" fill="#E97545"/>
<path d="M558.641 228.038C554.533 226.59 551.282 223.335 549.831 219.227C549.429 218.084 548.37 217.303 547.154 217.303H543.219C543.853 221.793 545.938 225.809 548.997 228.871C552.06 231.934 556.076 234.019 560.566 234.649V230.711C560.566 229.502 559.785 228.443 558.641 228.038Z" fill="#E97545"/>
<path d="M583.011 233.987C578.952 238.05 573.615 240.854 567.664 241.765C567.056 241.857 566.615 242.39 566.615 243.004V247.213C581.799 245.762 593.975 234.01 596.07 219.023C596.175 218.268 595.586 217.592 594.822 217.592H590.929C590.201 223.961 587.312 229.69 583.011 233.987Z" fill="#334C5F"/>
<path d="M579.735 217.303C578.523 217.303 577.464 218.084 577.059 219.227C575.611 223.335 572.356 226.59 568.248 228.038C567.105 228.44 566.323 229.499 566.323 230.715V234.649C570.814 234.019 574.83 231.93 577.892 228.871C580.951 225.809 583.039 221.793 583.67 217.303H579.735Z" fill="#E97545"/>
<path d="M563.445 220.122C566.594 220.122 569.148 217.569 569.148 214.419C569.148 211.27 566.594 208.717 563.445 208.717C560.295 208.717 557.742 211.27 557.742 214.419C557.742 217.569 560.295 220.122 563.445 220.122Z" fill="#E97545"/>
<path d="M546.896 242.166L543.481 237.751C543.311 237.532 543.219 237.26 543.219 236.983V217.303Lnan nanL543.219 217.303C546.492 217.303 549.144 219.955 549.144 223.228V241.398C549.144 242.597 547.628 243.114 546.896 242.166Z" fill="#E97545"/>
<path d="M698.709 235.924H695.281V230.693H698.709V231.273H695.932V232.959H698.654V233.54H695.932V235.344H698.709V235.924Z" fill="#334C5F"/>
<path d="M690.341 236.018C689.432 236.018 688.765 235.673 688.333 235.187L688.718 234.693C689.063 235.077 689.628 235.438 690.365 235.438C691.298 235.438 691.596 234.936 691.596 234.536C691.596 233.187 688.498 233.932 688.498 232.065C688.498 231.203 689.267 230.614 690.294 230.614C691.094 230.614 691.714 230.881 692.153 231.344L691.761 231.822C691.369 231.391 690.82 231.195 690.247 231.195C689.62 231.195 689.173 231.532 689.173 232.026C689.173 233.203 692.271 232.528 692.271 234.481C692.271 235.242 691.753 236.018 690.341 236.018Z" fill="#334C5F"/>
<path d="M685.382 235.924H684.731V230.693H685.382V235.924Z" fill="#334C5F"/>
<path d="M679.079 236.018C677.526 236.018 676.483 234.858 676.483 233.312C676.483 231.767 677.526 230.607 679.079 230.607C680.624 230.607 681.675 231.767 681.675 233.312C681.675 234.858 680.624 236.018 679.079 236.018ZM679.079 235.438C680.247 235.438 681 234.528 681 233.312C681 232.089 680.247 231.187 679.079 231.187C677.902 231.187 677.157 232.089 677.157 233.312C677.157 234.528 677.902 235.438 679.079 235.438Z" fill="#334C5F"/>
<path d="M673.431 235.924H672.804L669.753 231.751V235.924H669.102V230.693H669.768L672.78 234.779V230.693H673.431V235.924Z" fill="#334C5F"/>
<path d="M661.963 235.924H658.536V230.693H661.963V231.273H659.187V232.959H661.908V233.54H659.187V235.344H661.963V235.924Z" fill="#334C5F"/>
<path d="M655.274 235.924H654.623V233.524H651.564V235.924H650.913V230.693H651.564V232.944H654.623V230.693H655.274V235.924Z" fill="#334C5F"/>
<path d="M646.345 235.924H645.694V231.273H644.04V230.693H648.008V231.273H646.345V235.924Z" fill="#334C5F"/>
<path d="M634.348 235.924H633.697V230.693H635.799C636.85 230.693 637.438 231.414 637.438 232.269C637.438 233.124 636.834 233.846 635.799 233.846H634.348V235.924ZM635.721 233.265C636.34 233.265 636.764 232.857 636.764 232.269C636.764 231.681 636.34 231.273 635.721 231.273H634.348V233.265H635.721Z" fill="#334C5F"/>
<path d="M630.432 235.924H629.781V230.693H630.432V235.924Z" fill="#334C5F"/>
<path d="M627 235.924H626.192L624.208 233.571L623.682 234.167V235.924H623.031V230.693H623.682V233.398L625.996 230.693H626.812L624.631 233.179L627 235.924Z" fill="#334C5F"/>
<path d="M618.09 236.018C617.18 236.018 616.514 235.673 616.082 235.187L616.467 234.693C616.812 235.077 617.376 235.438 618.114 235.438C619.047 235.438 619.345 234.936 619.345 234.536C619.345 233.187 616.247 233.932 616.247 232.065C616.247 231.203 617.016 230.614 618.043 230.614C618.843 230.614 619.463 230.881 619.902 231.344L619.51 231.822C619.118 231.391 618.569 231.195 617.996 231.195C617.369 231.195 616.922 231.532 616.922 232.026C616.922 233.203 620.02 232.528 620.02 234.481C620.02 235.242 619.502 236.018 618.09 236.018Z" fill="#334C5F"/>
<path d="M742.998 222.05C739.53 222.05 736.491 220.98 734.393 218.839L736.234 216.014C737.647 217.555 740.387 218.968 743.169 218.968C746.081 218.968 747.622 217.641 747.622 215.8C747.622 213.83 745.267 213.274 742.613 212.674C739.102 211.861 734.992 210.919 734.992 206.467C734.992 203.17 737.818 200.345 742.87 200.345C746.423 200.345 748.992 201.629 750.747 203.299L749.035 205.996C747.836 204.54 745.524 203.47 742.913 203.47C740.301 203.47 738.674 204.669 738.674 206.338C738.674 208.094 740.9 208.565 743.469 209.164C747.065 209.977 751.346 210.962 751.346 215.714C751.346 219.267 748.435 222.05 742.998 222.05Z" fill="#334C5F"/>
<path d="M725.943 198.116C724.616 198.116 723.46 197.003 723.46 195.633C723.46 194.263 724.616 193.193 725.943 193.193C727.313 193.193 728.426 194.263 728.426 195.633C728.426 197.003 727.313 198.116 725.943 198.116ZM727.912 221.534H724.059V200.856H727.912V221.534Z" fill="#334C5F"/>
<path d="M714.526 222.047C711.273 222.047 709.603 220.206 709.603 216.952V204.237H706.178V200.855H709.603V195.204H713.456V200.855H717.652V204.237H713.456V216.096C713.456 217.552 714.141 218.622 715.468 218.622C716.367 218.622 717.181 218.237 717.566 217.809L718.551 220.72C717.737 221.49 716.539 222.047 714.526 222.047Z" fill="#334C5F"/>
<path d="M700.587 221.536H696.734V208.308C696.734 204.883 694.979 203.77 692.325 203.77C689.927 203.77 687.744 205.225 686.631 206.767V221.536H682.778V200.859H686.631V203.77C688.001 202.1 690.741 200.345 693.952 200.345C698.318 200.345 700.587 202.657 700.587 207.023V221.536Z" fill="#334C5F"/>
<path d="M672.529 198.116C671.202 198.116 670.046 197.003 670.046 195.633C670.046 194.263 671.202 193.193 672.529 193.193C673.899 193.193 675.012 194.263 675.012 195.633C675.012 197.003 673.899 198.116 672.529 198.116ZM674.498 221.534H670.645V200.856H674.498V221.534Z" fill="#334C5F"/>
<path d="M653.167 222.05C646.745 222.05 642.721 217.17 642.721 211.176C642.721 205.225 646.745 200.345 653.167 200.345C659.631 200.345 663.613 205.225 663.613 211.176C663.613 217.17 659.631 222.05 653.167 222.05ZM653.167 218.625C657.319 218.625 659.588 215.115 659.588 211.176C659.588 207.28 657.319 203.77 653.167 203.77C649.057 203.77 646.745 207.28 646.745 211.176C646.745 215.115 649.057 218.625 653.167 218.625Z" fill="#334C5F"/>
<path d="M621.272 221.537H616.991V192.982H629.021C634.886 192.982 638.14 197.006 638.14 201.758C638.14 206.51 634.843 210.534 629.021 210.534H621.272V221.537ZM628.465 206.767C631.547 206.767 633.73 204.755 633.73 201.758C633.73 198.761 631.547 196.749 628.465 196.749H621.272V206.767H628.465Z" fill="#334C5F"/>
</g>
</g>
<g filter="url(#filter1_d_3_254)">
<g clip-path="url(#clip1_3_254)">
<rect x="100.75" y="175.426" width="313.532" height="293.999" rx="24" fill="white"/>
<path d="M163.154 339.117H145.527C145.143 339.117 144.833 339.428 144.833 339.811V357.421C144.833 357.804 145.143 358.114 145.527 358.114H163.154C163.537 358.114 163.848 357.804 163.848 357.421V339.811C163.848 339.428 163.537 339.117 163.154 339.117Z" fill="#D9EBFF"/>
<path d="M343.523 241.941H291.04C290.656 241.941 290.346 242.252 290.346 242.635V250.759C290.346 251.142 290.656 251.453 291.04 251.453H343.523C343.907 251.453 344.217 251.142 344.217 250.759V242.635C344.217 242.252 343.907 241.941 343.523 241.941Z" fill="#D9EBFF"/>
<path d="M291.7 384.418H271.084C270.7 384.418 270.39 384.728 270.39 385.111V392.879C270.39 393.262 270.7 393.573 271.084 393.573H291.7C292.083 393.573 292.394 393.262 292.394 392.879V385.111C292.394 384.728 292.083 384.418 291.7 384.418Z" fill="#D9EBFF"/>
<path d="M364.51 258.188H301.057C300.674 258.188 300.363 258.498 300.363 258.881V385.289C300.363 385.672 300.674 385.983 301.057 385.983H364.51C364.893 385.983 365.204 385.672 365.204 385.289V258.881C365.204 258.498 364.893 258.188 364.51 258.188Z" fill="#D9EBFF"/>
<path d="M245.525 355.066H176.601C176.218 355.066 175.907 355.377 175.907 355.76V385.29C175.907 385.673 176.218 385.984 176.601 385.984H245.525C245.908 385.984 246.219 385.673 246.219 385.29V355.76C246.219 355.377 245.908 355.066 245.525 355.066Z" fill="#D9EBFF"/>
<path d="M277.201 240.086H138.02C137.637 240.086 137.326 240.396 137.326 240.779V330.261C137.326 330.643 137.637 330.954 138.02 330.954H277.201C277.584 330.954 277.895 330.643 277.895 330.261V240.779C277.895 240.396 277.584 240.086 277.201 240.086Z" fill="#D9EBFF"/>
<path d="M170.827 330.524C171.577 330.524 172.185 329.917 172.185 329.168C172.185 328.42 171.577 327.812 170.827 327.812C170.078 327.812 169.47 328.42 169.47 329.168C169.47 329.917 170.078 330.524 170.827 330.524Z" fill="#A9C0FF"/>
<path d="M170.827 327.126C171.577 327.126 172.185 326.519 172.185 325.77C172.185 325.021 171.577 324.414 170.827 324.414C170.078 324.414 169.47 325.021 169.47 325.77C169.47 326.519 170.078 327.126 170.827 327.126Z" fill="#A9C0FF"/>
<path d="M170.827 323.724C171.577 323.724 172.185 323.117 172.185 322.368C172.185 321.619 171.577 321.012 170.827 321.012C170.078 321.012 169.47 321.619 169.47 322.368C169.47 323.117 170.078 323.724 170.827 323.724Z" fill="#A9C0FF"/>
<path d="M286.94 272.794C287.69 272.794 288.298 272.187 288.298 271.438C288.298 270.689 287.69 270.082 286.94 270.082C286.191 270.082 285.583 270.689 285.583 271.438C285.583 272.187 286.191 272.794 286.94 272.794Z" fill="#A9C0FF"/>
<path d="M290.346 272.794C291.095 272.794 291.703 272.187 291.703 271.438C291.703 270.689 291.095 270.082 290.346 270.082C289.596 270.082 288.989 270.689 288.989 271.438C288.989 272.187 289.596 272.794 290.346 272.794Z" fill="#A9C0FF"/>
<path d="M293.751 272.794C294.5 272.794 295.108 272.187 295.108 271.438C295.108 270.689 294.5 270.082 293.751 270.082C293.001 270.082 292.394 270.689 292.394 271.438C292.394 272.187 293.001 272.794 293.751 272.794Z" fill="#A9C0FF"/>
<path d="M180.822 334.93H170.828C170.69 334.93 170.557 334.875 170.46 334.777C170.362 334.68 170.307 334.548 170.307 334.41V271.438C170.307 271.37 170.321 271.302 170.347 271.239C170.373 271.176 170.411 271.119 170.46 271.07C170.508 271.022 170.565 270.984 170.628 270.958C170.692 270.931 170.759 270.918 170.828 270.918H334.724C334.792 270.918 334.86 270.931 334.923 270.958C334.986 270.984 335.043 271.022 335.092 271.07C335.14 271.119 335.178 271.176 335.205 271.239C335.231 271.302 335.244 271.37 335.244 271.438V329.799C335.244 329.937 335.189 330.069 335.092 330.167C334.994 330.264 334.862 330.319 334.724 330.319C334.586 330.319 334.453 330.264 334.356 330.167C334.258 330.069 334.203 329.937 334.203 329.799V271.958H171.348V333.89H180.822C180.96 333.89 181.093 333.945 181.19 334.042C181.288 334.14 181.343 334.272 181.343 334.41C181.343 334.548 181.288 334.68 181.19 334.777C181.093 334.875 180.96 334.93 180.822 334.93Z" fill="#A9C0FF"/>
<path d="M378.854 343.754V399.481C378.855 399.72 378.808 399.956 378.716 400.176C378.625 400.396 378.491 400.596 378.322 400.765C378.154 400.933 377.953 401.067 377.733 401.158C377.512 401.25 377.276 401.296 377.038 401.296H320.993C320.512 401.295 320.05 401.103 319.71 400.763C319.37 400.423 319.178 399.962 319.176 399.481V336.03C319.176 335.792 319.223 335.556 319.314 335.335C319.406 335.115 319.54 334.915 319.708 334.746C319.877 334.578 320.077 334.444 320.298 334.353C320.518 334.262 320.755 334.215 320.993 334.215H369.297L378.854 343.754Z" fill="#A9C0FF"/>
<path d="M379.118 344.017H370.206C369.965 344.017 369.734 343.921 369.563 343.751C369.393 343.581 369.297 343.35 369.297 343.109V334.215L378.855 343.754L379.118 344.017Z" fill="#4D76B8"/>
<path d="M341.941 346.355H327.506C327.123 346.355 326.812 346.666 326.812 347.049V359.64C326.812 360.023 327.123 360.333 327.506 360.333H341.941C342.325 360.333 342.635 360.023 342.635 359.64V347.049C342.635 346.666 342.325 346.355 341.941 346.355Z" fill="white"/>
<path d="M369.297 388.77H327.173V389.81H369.297V388.77Z" fill="#456BA3"/>
<path d="M369.297 383.777H327.173V384.817H369.297V383.777Z" fill="#456BA3"/>
<path d="M369.297 378.785H327.173V379.825H369.297V378.785Z" fill="#456BA3"/>
<path d="M369.297 373.793H327.173V374.833H369.297V373.793Z" fill="#456BA3"/>
<path d="M369.297 368.801H327.173V369.841H369.297V368.801Z" fill="#456BA3"/>
<path d="M369.297 363.809H327.173V364.849H369.297V363.809Z" fill="#456BA3"/>
<path d="M369.297 358.816H347.299V359.856H369.297V358.816Z" fill="#456BA3"/>
<path d="M369.297 353.824H347.299V354.864H369.297V353.824Z" fill="#456BA3"/>
<path d="M369.297 348.832H347.299V349.872H369.297V348.832Z" fill="#456BA3"/>
<path d="M179.334 391.2H166.545C164.652 391.198 162.838 390.446 161.5 389.109C160.162 387.772 159.409 385.959 159.407 384.068V381.237C159.409 379.346 160.162 377.534 161.5 376.197C162.838 374.86 164.652 374.108 166.545 374.105H179.334C181.227 374.108 183.041 374.86 184.38 376.197C185.718 377.534 186.471 379.346 186.473 381.237V384.068C186.471 385.959 185.718 387.772 184.38 389.109C183.041 390.446 181.227 391.198 179.334 391.2ZM166.545 376.185C165.204 376.187 163.919 376.72 162.971 377.667C162.023 378.614 161.49 379.898 161.489 381.237V384.068C161.49 385.408 162.023 386.692 162.971 387.639C163.919 388.586 165.204 389.118 166.545 389.12H179.334C180.675 389.118 181.96 388.586 182.908 387.639C183.856 386.692 184.389 385.408 184.391 384.068V381.237C184.389 379.898 183.856 378.614 182.908 377.667C181.96 376.72 180.675 376.187 179.334 376.185H166.545Z" fill="#A9C0FF"/>
<path d="M177.312 366.601L176.063 379.324L175.41 385.983L174.047 399.895C174.021 400.152 173.9 400.39 173.709 400.564C173.517 400.737 173.268 400.834 173.009 400.834H147.886C147.628 400.834 147.379 400.737 147.187 400.564C146.995 400.39 146.875 400.152 146.849 399.895L145.485 385.983L144.833 379.324L143.583 366.601C143.569 366.456 143.586 366.31 143.632 366.172C143.677 366.034 143.751 365.908 143.849 365.8C143.947 365.692 144.066 365.606 144.199 365.547C144.332 365.488 144.476 365.457 144.621 365.457H176.274C176.42 365.457 176.564 365.488 176.697 365.547C176.83 365.606 176.949 365.692 177.046 365.8C177.144 365.907 177.218 366.034 177.264 366.172C177.31 366.31 177.326 366.456 177.312 366.601Z" fill="#A9C0FF"/>
<path d="M176.063 379.324L175.41 385.984H145.485L144.833 379.324H176.063Z" fill="#92B1EF"/>
<g opacity="0.19">
<path d="M150.08 343.652C150.119 343.963 150.087 344.277 149.987 344.574C149.871 344.867 149.712 345.141 149.515 345.388C149.334 345.607 149.187 345.852 149.078 346.115C148.898 346.619 148.923 347.174 149.148 347.66C149.279 347.901 149.443 348.121 149.636 348.316C149.868 348.557 150.061 348.832 150.209 349.132C150.353 349.454 150.427 349.802 150.427 350.154C150.426 350.506 150.352 350.854 150.208 351.176C150.06 351.475 149.866 351.75 149.635 351.992C149.443 352.186 149.279 352.407 149.149 352.648C149.039 352.886 148.976 353.143 148.963 353.405C148.949 353.673 148.989 353.941 149.079 354.193C149.188 354.455 149.335 354.7 149.516 354.92C149.713 355.166 149.872 355.441 149.988 355.734C150.088 356.031 150.119 356.346 150.08 356.656C150.046 356.36 149.955 356.074 149.812 355.814C149.659 355.565 149.472 355.339 149.256 355.141C149.022 354.918 148.823 354.662 148.665 354.381C148.515 354.076 148.432 353.744 148.421 353.405C148.404 353.061 148.463 352.717 148.594 352.398C148.734 352.096 148.916 351.816 149.135 351.566C149.317 351.365 149.471 351.139 149.59 350.896C149.78 350.419 149.78 349.888 149.592 349.411C149.472 349.168 149.319 348.942 149.137 348.741C148.918 348.491 148.736 348.211 148.596 347.91C148.464 347.591 148.405 347.248 148.422 346.903C148.433 346.564 148.516 346.232 148.666 345.928C148.823 345.646 149.022 345.39 149.257 345.168C149.472 344.97 149.659 344.744 149.813 344.495C149.955 344.234 150.046 343.948 150.08 343.652Z" fill="#AAAAAA"/>
</g>
<g opacity="0.19">
<path d="M160.335 337.145C160.374 337.455 160.342 337.77 160.242 338.066C160.126 338.359 159.967 338.634 159.77 338.88C159.59 339.099 159.442 339.344 159.333 339.607C159.153 340.111 159.179 340.666 159.404 341.152C159.534 341.393 159.698 341.614 159.891 341.808C160.123 342.049 160.316 342.325 160.464 342.625C160.608 342.946 160.682 343.294 160.682 343.646C160.682 343.998 160.607 344.346 160.463 344.668C160.315 344.967 160.122 345.243 159.891 345.484C159.698 345.679 159.534 345.9 159.404 346.14C159.179 346.626 159.155 347.181 159.335 347.685C159.444 347.948 159.591 348.192 159.771 348.412C159.968 348.659 160.127 348.933 160.243 349.226C160.343 349.523 160.374 349.838 160.335 350.148C160.301 349.853 160.21 349.567 160.068 349.306C159.914 349.057 159.727 348.831 159.512 348.633C159.278 348.411 159.078 348.154 158.92 347.873C158.77 347.569 158.687 347.236 158.677 346.897C158.659 346.553 158.718 346.209 158.85 345.89C158.989 345.588 159.171 345.308 159.391 345.058C159.573 344.857 159.726 344.631 159.846 344.388C160.035 343.911 160.036 343.38 159.847 342.904C159.727 342.66 159.574 342.435 159.393 342.233C159.173 341.983 158.991 341.704 158.851 341.402C158.72 341.084 158.66 340.74 158.678 340.395C158.688 340.057 158.771 339.724 158.921 339.42C159.078 339.138 159.278 338.882 159.512 338.66C159.727 338.462 159.914 338.236 160.068 337.987C160.211 337.726 160.302 337.44 160.335 337.145Z" fill="#AAAAAA"/>
</g>
<g opacity="0.19">
<path d="M169.651 347.836C169.694 348.176 169.659 348.522 169.549 348.847C169.422 349.169 169.247 349.47 169.031 349.74C168.833 349.981 168.671 350.25 168.552 350.538C168.354 351.092 168.382 351.7 168.629 352.234C168.772 352.498 168.952 352.74 169.163 352.954C169.418 353.218 169.63 353.521 169.792 353.85C169.95 354.203 170.032 354.585 170.031 354.971C170.031 355.357 169.95 355.739 169.792 356.092C169.629 356.421 169.417 356.723 169.163 356.988C168.951 357.201 168.772 357.444 168.629 357.708C168.383 358.241 168.355 358.85 168.553 359.403C168.672 359.691 168.834 359.96 169.032 360.201C169.248 360.471 169.422 360.773 169.549 361.095C169.659 361.42 169.694 361.766 169.651 362.106C169.614 361.782 169.514 361.468 169.357 361.182C169.189 360.909 168.983 360.66 168.747 360.443C168.49 360.199 168.271 359.918 168.098 359.609C167.934 359.275 167.842 358.91 167.831 358.538C167.812 358.16 167.876 357.783 168.021 357.433C168.174 357.102 168.374 356.795 168.614 356.521C168.814 356.3 168.982 356.052 169.114 355.785C169.322 355.262 169.322 354.679 169.115 354.156C168.984 353.889 168.816 353.641 168.616 353.42C168.376 353.146 168.176 352.839 168.023 352.508C167.878 352.159 167.813 351.781 167.832 351.403C167.843 351.032 167.934 350.667 168.099 350.333C168.272 350.024 168.491 349.743 168.748 349.499C168.984 349.282 169.189 349.033 169.358 348.76C169.514 348.474 169.614 348.16 169.651 347.836Z" fill="#AAAAAA"/>
</g>
<path d="M233.96 367.758V401.079H260.943V367.758H233.96ZM251.56 381.697C251.56 382.861 251.097 383.978 250.273 384.801C249.45 385.624 248.332 386.086 247.167 386.086C246.002 386.086 244.885 385.624 244.061 384.801C243.237 383.978 242.774 382.861 242.774 381.697V377.308H251.56V381.697Z" fill="#4D76B8"/>
<path d="M233.96 382.301H242.82C242.791 382.101 242.776 381.899 242.774 381.697V377.308H251.56V381.697C251.558 381.899 251.543 382.101 251.514 382.301H260.943V367.758H233.96V382.301Z" fill="#4469A0"/>
<path d="M304.006 298.254H190.897C187.83 298.254 185.345 300.737 185.345 303.801V371.76C185.345 374.823 187.83 377.306 190.897 377.306H304.006C307.073 377.306 309.558 374.823 309.558 371.76V303.801C309.558 300.737 307.073 298.254 304.006 298.254Z" fill="#4D76B8"/>
<path d="M301.66 303.465H193.243C191.902 303.465 190.814 304.551 190.814 305.892V369.673C190.814 371.013 191.902 372.1 193.243 372.1H301.66C303.001 372.1 304.089 371.013 304.089 369.673V305.892C304.089 304.551 303.001 303.465 301.66 303.465Z" fill="white"/>
<path d="M302.101 303.465H192.802C192.275 303.465 191.769 303.674 191.396 304.047C191.024 304.419 190.814 304.924 190.814 305.451V308.776H304.089V305.451C304.089 304.924 303.879 304.419 303.507 304.047C303.134 303.674 302.628 303.465 302.101 303.465Z" fill="#A9C0FF"/>
<path d="M230.831 318.469H205.236C204.853 318.469 204.542 318.779 204.542 319.162V336.121C204.542 336.504 204.853 336.814 205.236 336.814H230.831C231.214 336.814 231.525 336.504 231.525 336.121V319.162C231.525 318.779 231.214 318.469 230.831 318.469Z" fill="#92B1EF"/>
<path d="M267.69 320.696H240.208V321.736H267.69V320.696Z" fill="#456BA3"/>
<path d="M281.57 327.293H240.208V328.333H281.57V327.293Z" fill="#456BA3"/>
<path d="M274.63 333.891H240.208V334.931H274.63V333.891Z" fill="#456BA3"/>
<path d="M222.836 352.41H205.236C204.853 352.41 204.542 352.721 204.542 353.103V358.706C204.542 359.089 204.853 359.399 205.236 359.399H222.836C223.219 359.399 223.53 359.089 223.53 358.706V353.103C223.53 352.721 223.219 352.41 222.836 352.41Z" fill="#92B1EF"/>
<path d="M248.32 352.41H230.72C230.337 352.41 230.026 352.721 230.026 353.103V358.706C230.026 359.089 230.337 359.399 230.72 359.399H248.32C248.703 359.399 249.014 359.089 249.014 358.706V353.103C249.014 352.721 248.703 352.41 248.32 352.41Z" fill="#92B1EF"/>
<path d="M273.936 352.41H256.336C255.953 352.41 255.642 352.721 255.642 353.103V358.706C255.642 359.089 255.953 359.399 256.336 359.399H273.936C274.319 359.399 274.63 359.089 274.63 358.706V353.103C274.63 352.721 274.319 352.41 273.936 352.41Z" fill="#92B1EF"/>
<path d="M191.038 335.428L197.486 343.5C200.708 343.334 203.934 343.741 207.013 344.702L202.335 341.158L202.9 340.413L207.578 343.958C205.824 341.256 204.559 338.267 203.843 335.127L194.445 331.156L191.038 335.428ZM199.283 336.221C199.628 336.483 199.855 336.872 199.913 337.301C199.972 337.73 199.859 338.164 199.597 338.51C199.336 338.854 198.948 339.08 198.52 339.139C198.091 339.198 197.657 339.084 197.312 338.823C196.971 338.558 196.748 338.17 196.69 337.742C196.632 337.314 196.744 336.88 197.003 336.534C197.132 336.364 197.294 336.221 197.478 336.113C197.662 336.005 197.866 335.935 198.078 335.906C198.29 335.877 198.505 335.89 198.712 335.944C198.918 335.998 199.112 336.092 199.283 336.221Z" fill="#D9EBFF"/>
<path d="M184.033 333.031L189.345 337.057C189.531 337.198 189.766 337.259 189.997 337.227C190.228 337.195 190.438 337.073 190.579 336.888L195.314 330.648L195.502 330.403C195.643 330.217 195.704 329.982 195.673 329.751C195.641 329.52 195.519 329.311 195.333 329.17L190.02 325.145L184.033 333.031Z" fill="#4D76B8"/>
<path d="M207.013 344.701L202.335 341.156L202.9 340.412L207.578 343.957C205.823 341.255 204.559 338.266 203.843 335.126L195.597 331.641L193.75 334.073L191.903 336.508L197.486 343.499C200.708 343.333 203.933 343.74 207.013 344.701ZM197.003 336.533C197.199 336.278 197.466 336.086 197.771 335.982C198.076 335.878 198.405 335.867 198.716 335.95C199.028 336.032 199.308 336.205 199.521 336.447C199.734 336.688 199.87 336.987 199.913 337.306C199.956 337.625 199.904 337.95 199.763 338.239C199.621 338.528 199.397 338.769 199.119 338.931C198.841 339.093 198.521 339.17 198.199 339.15C197.877 339.131 197.569 339.017 197.312 338.822C196.971 338.557 196.747 338.169 196.69 337.741C196.632 337.313 196.744 336.879 197.003 336.533Z" fill="#4D76B8"/>
<path d="M189.988 325L184 332.887L189.312 336.912C189.499 337.053 189.733 337.114 189.964 337.082C190.196 337.051 190.405 336.929 190.546 336.743L195.281 330.504L195.47 330.258C195.61 330.072 195.672 329.838 195.64 329.607C195.608 329.376 195.486 329.167 195.3 329.025L189.988 325Z" fill="#92B1EF"/>
<path d="M324.531 378.592L321.709 381.57C321.521 381.767 321.295 381.924 321.044 382.031C320.793 382.137 320.522 382.192 320.25 382.19C319.977 382.188 319.708 382.13 319.458 382.02C319.208 381.91 318.984 381.751 318.799 381.551L309.547 371.733C309.387 371.562 309.299 371.337 309.3 371.103C309.301 370.87 309.391 370.645 309.552 370.476L312.742 367.101C312.902 366.931 313.12 366.829 313.353 366.814C313.586 366.8 313.815 366.875 313.995 367.023L324.35 375.683C324.561 375.856 324.735 376.072 324.859 376.315C324.984 376.559 325.057 376.825 325.074 377.098C325.091 377.371 325.051 377.644 324.958 377.901C324.865 378.158 324.719 378.394 324.531 378.592Z" fill="#618AC6"/>
<path d="M324.529 378.589L322.667 380.555C322.881 380.15 322.949 379.685 322.858 379.236C322.767 378.788 322.524 378.385 322.17 378.096L311.81 369.439C311.631 369.29 311.403 369.215 311.171 369.228C310.938 369.242 310.72 369.343 310.559 369.511L309.354 370.787C309.4 370.67 309.467 370.564 309.552 370.473L312.742 367.103C312.901 366.932 313.119 366.829 313.351 366.814C313.584 366.8 313.813 366.874 313.992 367.023L324.352 375.68C324.563 375.854 324.736 376.069 324.86 376.313C324.984 376.557 325.056 376.823 325.073 377.096C325.089 377.369 325.05 377.642 324.956 377.899C324.862 378.156 324.717 378.391 324.529 378.589Z" fill="#92B1EF"/>
<path d="M309.832 364.965L312.561 367.194L309.538 370.444L307.115 367.805L309.832 364.965Z" fill="#4469A0"/>
<path d="M312.629 355.958C312.548 353.068 311.611 350.266 309.937 347.908C308.263 345.549 305.926 343.74 303.222 342.708C300.518 341.677 297.569 341.469 294.747 342.112C291.926 342.755 289.358 344.219 287.369 346.32C285.38 348.421 284.06 351.064 283.575 353.914C283.089 356.765 283.461 359.695 284.643 362.334C285.824 364.974 287.763 367.204 290.213 368.743C292.663 370.281 295.516 371.06 298.409 370.979C302.288 370.871 305.966 369.228 308.632 366.411C311.299 363.594 312.737 359.834 312.629 355.958ZM298.329 367.187C296.184 367.247 294.069 366.671 292.253 365.53C290.436 364.39 288.998 362.737 288.122 360.78C287.245 358.824 286.969 356.651 287.329 354.538C287.688 352.425 288.667 350.465 290.141 348.908C291.615 347.35 293.519 346.264 295.611 345.787C297.702 345.311 299.889 345.464 301.893 346.229C303.898 346.994 305.63 348.335 306.872 350.084C308.113 351.832 308.807 353.909 308.867 356.052C308.947 358.924 307.882 361.711 305.906 363.799C303.93 365.888 301.204 367.106 298.329 367.187Z" fill="#618AC6"/>
<path d="M293.275 364.161C295.02 365.814 297.268 366.836 299.662 367.066C298.141 367.303 296.587 367.214 295.102 366.804C293.618 366.394 292.239 365.673 291.055 364.689C289.872 363.705 288.912 362.481 288.239 361.097C287.566 359.714 287.196 358.203 287.153 356.665C287.11 355.127 287.395 353.598 287.99 352.179C288.585 350.76 289.475 349.484 290.602 348.436C291.729 347.388 293.066 346.591 294.525 346.1C295.984 345.608 297.531 345.432 299.063 345.584C297.058 345.894 295.18 346.759 293.642 348.082C292.105 349.405 290.97 351.133 290.367 353.068C289.764 355.004 289.717 357.07 290.231 359.031C290.745 360.992 291.799 362.769 293.275 364.161Z" fill="#92B1EF"/>
<g opacity="0.28">
<path d="M348.251 283.984H290.102C288.18 283.984 286.623 285.54 286.623 287.46V322.974C286.623 324.893 288.18 326.45 290.102 326.45H348.251C350.172 326.45 351.73 324.893 351.73 322.974V287.46C351.73 285.54 350.172 283.984 348.251 283.984Z" fill="#6299E8"/>
</g>
<path d="M354.665 278.629H296.516C294.595 278.629 293.037 280.185 293.037 282.105V317.619C293.037 319.538 294.595 321.094 296.516 321.094H354.665C356.586 321.094 358.144 319.538 358.144 317.619V282.105C358.144 280.185 356.586 278.629 354.665 278.629Z" fill="white"/>
<path d="M354.665 321.611H296.516C295.456 321.61 294.439 321.188 293.689 320.439C292.939 319.69 292.518 318.675 292.516 317.615V282.101C292.518 281.042 292.939 280.026 293.689 279.277C294.439 278.528 295.456 278.107 296.516 278.105H354.665C355.725 278.107 356.742 278.528 357.492 279.277C358.241 280.026 358.663 281.042 358.664 282.101V317.615C358.663 318.675 358.241 319.69 357.492 320.439C356.742 321.188 355.725 321.61 354.665 321.611ZM296.516 279.145C295.732 279.146 294.98 279.458 294.425 280.012C293.87 280.566 293.558 281.318 293.557 282.101V317.615C293.558 318.399 293.87 319.15 294.425 319.704C294.98 320.258 295.732 320.57 296.516 320.571H354.665C355.449 320.57 356.201 320.258 356.756 319.704C357.311 319.15 357.623 318.399 357.623 317.615V282.101C357.623 281.318 357.311 280.566 356.756 280.012C356.201 279.458 355.449 279.146 354.665 279.145H296.516Z" fill="#4D76B8"/>
<path d="M351.839 294.461H330.759V295.501H351.839V294.461Z" fill="#4D76B8"/>
<path d="M351.839 299.641H330.759V300.681H351.839V299.641Z" fill="#4D76B8"/>
<path d="M351.839 304.82H330.759V305.86H351.839V304.82Z" fill="#4D76B8"/>
<path d="M351.839 310.16H299.529V311.2H351.839V310.16Z" fill="#4D76B8"/>
<path d="M351.839 314.902H299.529V315.942H351.839V314.902Z" fill="#4D76B8"/>
<g opacity="0.19">
<path d="M322.816 293.168H301.404C300.829 293.168 300.363 293.634 300.363 294.208V307.347C300.363 307.921 300.829 308.387 301.404 308.387H322.816C323.391 308.387 323.857 307.921 323.857 307.347V294.208C323.857 293.634 323.391 293.168 322.816 293.168Z" fill="#AAAAAA"/>
</g>
<path d="M358.144 286.953H293.037V287.993H358.144V286.953Z" fill="#4D76B8"/>
<path d="M324.55 291.516H303.138C302.563 291.516 302.097 291.981 302.097 292.556V305.694C302.097 306.269 302.563 306.734 303.138 306.734H324.55C325.125 306.734 325.591 306.269 325.591 305.694V292.556C325.591 291.981 325.125 291.516 324.55 291.516Z" fill="#92B1EF"/>
<path d="M311.059 295.168C311.055 295.168 311.05 295.168 311.046 295.168L311.028 296.591C311.032 296.591 311.037 296.591 311.039 296.591C312.013 296.591 312.769 297.33 314.414 299.991L314.515 300.153L314.522 300.164L315.442 298.838L315.436 298.827C315.22 298.489 315.01 298.177 314.812 297.894C314.581 297.564 314.36 297.27 314.144 297.007C313.057 295.675 312.146 295.168 311.059 295.168Z" fill="white"/>
<path d="M311.046 295.166C309.952 295.171 308.987 295.851 308.287 296.891C308.285 296.893 308.283 296.898 308.281 296.9L309.561 297.569C309.563 297.567 309.565 297.563 309.568 297.561C309.975 296.971 310.483 296.594 311.026 296.588C311.03 296.588 311.035 296.588 311.037 296.588L311.055 295.164C311.055 295.166 311.05 295.166 311.046 295.166Z" fill="white"/>
<path d="M308.289 296.891C308.287 296.893 308.285 296.897 308.283 296.899C307.824 297.586 307.482 298.427 307.297 299.337C307.297 299.341 307.295 299.345 307.295 299.348L308.735 299.675C308.735 299.67 308.737 299.666 308.737 299.664C308.89 298.864 309.185 298.126 309.565 297.571C309.567 297.569 309.57 297.564 309.572 297.562L308.289 296.891Z" fill="white"/>
<path d="M308.737 299.663L307.297 299.336C307.297 299.34 307.295 299.345 307.295 299.347C307.194 299.847 307.142 300.354 307.142 300.863C307.142 300.868 307.142 300.872 307.142 300.876L308.618 301.004C308.618 301 308.618 300.996 308.618 300.991C308.618 300.961 308.618 300.933 308.618 300.902C308.618 300.491 308.658 300.079 308.735 299.676C308.735 299.67 308.735 299.667 308.737 299.663Z" fill="white"/>
<path d="M308.663 301.446C308.636 301.299 308.622 301.151 308.618 301.004C308.618 301 308.618 300.995 308.618 300.991L307.142 300.863C307.142 300.868 307.142 300.872 307.142 300.876C307.14 301.173 307.167 301.47 307.223 301.765C307.223 301.769 307.225 301.773 307.225 301.775L308.665 301.457C308.663 301.455 308.663 301.45 308.663 301.446Z" fill="white"/>
<path d="M308.998 302.184C308.838 302.015 308.724 301.772 308.665 301.46C308.665 301.456 308.663 301.451 308.663 301.449L307.223 301.768C307.223 301.772 307.225 301.776 307.225 301.779C307.333 302.329 307.547 302.786 307.853 303.133C307.855 303.135 307.857 303.139 307.862 303.141L309.007 302.192C309.005 302.19 309.003 302.186 308.998 302.184Z" fill="white"/>
<path d="M313.264 298.242C312.396 299.523 311.871 300.324 311.871 300.324C310.715 302.066 310.317 302.456 309.673 302.456C309.405 302.456 309.18 302.365 309.009 302.188C309.007 302.186 309.003 302.181 309 302.179L307.855 303.128C307.857 303.13 307.86 303.135 307.864 303.137C308.287 303.609 308.881 303.871 309.619 303.871C310.735 303.871 311.536 303.366 312.963 300.97C312.963 300.97 313.557 299.96 313.966 299.265C313.707 298.877 313.478 298.537 313.264 298.242Z" fill="white"/>
<path d="M314.812 296.223C314.81 296.225 314.806 296.229 314.803 296.231C314.569 296.476 314.349 296.734 314.144 297.003C314.358 297.265 314.581 297.559 314.812 297.891C315.085 297.486 315.339 297.159 315.589 296.907C315.591 296.905 315.595 296.901 315.598 296.899L314.812 296.223Z" fill="white"/>
<path d="M319.024 296.1C318.419 295.512 317.697 295.168 316.927 295.168C316.115 295.168 315.429 295.597 314.812 296.225C314.81 296.227 314.805 296.232 314.803 296.234L315.588 296.908C315.591 296.906 315.595 296.901 315.597 296.899C316.005 296.492 316.398 296.29 316.833 296.29C317.303 296.29 317.742 296.503 318.122 296.875C318.124 296.877 318.129 296.882 318.131 296.884L319.033 296.108C319.031 296.106 319.026 296.104 319.024 296.1Z" fill="white"/>
<path d="M320.773 300.678C320.739 298.791 320.053 297.103 319.031 296.106C319.029 296.104 319.024 296.1 319.022 296.098L318.12 296.873C318.122 296.875 318.127 296.88 318.129 296.882C318.896 297.64 319.423 299.049 319.47 300.678C319.47 300.682 319.47 300.687 319.47 300.691H320.773C320.775 300.687 320.773 300.682 320.773 300.678Z" fill="white"/>
<path d="M320.775 300.693C320.775 300.688 320.775 300.684 320.775 300.68H319.472C319.472 300.684 319.472 300.688 319.472 300.693C319.474 300.769 319.474 300.847 319.474 300.922C319.474 301.367 319.405 301.726 319.265 301.984C319.263 301.988 319.261 301.993 319.258 301.995L320.228 302.966C320.23 302.961 320.233 302.959 320.235 302.955C320.588 302.433 320.773 301.707 320.773 300.825C320.775 300.782 320.775 300.736 320.775 300.693Z" fill="white"/>
<path d="M319.265 301.984C319.263 301.989 319.261 301.993 319.258 301.995C319.137 302.214 318.964 302.359 318.736 302.422L319.18 303.763C319.238 303.744 319.294 303.722 319.351 303.698C319.366 303.692 319.384 303.683 319.4 303.677C319.409 303.672 319.418 303.668 319.427 303.664C319.722 303.521 319.976 303.31 320.167 303.05C320.179 303.033 320.192 303.018 320.203 303.001C320.212 302.99 320.219 302.977 320.228 302.966C320.23 302.962 320.233 302.959 320.235 302.955L319.265 301.984Z" fill="white"/>
<path d="M318.457 302.459C318.318 302.461 318.178 302.435 318.05 302.383L317.598 303.756C317.852 303.841 318.124 303.878 318.428 303.878C318.689 303.88 318.948 303.841 319.195 303.761L318.752 302.42C318.655 302.446 318.556 302.459 318.457 302.459Z" fill="white"/>
<path d="M317.551 301.989C317.548 301.987 317.546 301.983 317.542 301.98L316.5 303.023C316.502 303.025 316.507 303.029 316.509 303.031C316.871 303.402 317.218 303.634 317.609 303.759L318.061 302.388C317.897 302.318 317.735 302.195 317.551 301.989Z" fill="white"/>
<path d="M317.541 301.981C317.229 301.632 316.842 301.049 316.234 300.109L315.44 298.835L315.433 298.824L314.513 300.15L314.52 300.161L315.082 301.069C315.627 301.944 316.07 302.579 316.5 303.021C316.502 303.023 316.506 303.027 316.509 303.03L317.55 301.987C317.548 301.987 317.544 301.983 317.541 301.981Z" fill="white"/>
<path d="M221.795 350.523H175.205C173.665 350.523 172.417 352.08 172.417 353.999V389.513C172.417 391.433 173.665 392.989 175.205 392.989H221.795C223.335 392.989 224.583 391.433 224.583 389.513V353.999C224.583 352.08 223.335 350.523 221.795 350.523Z" fill="white"/>
<path d="M221.795 393.505H175.205C174.355 393.504 173.54 393.083 172.94 392.334C172.339 391.585 172.001 390.569 172 389.51V353.996C172.001 352.936 172.339 351.921 172.94 351.172C173.54 350.423 174.355 350.001 175.205 350H221.795C222.645 350.001 223.46 350.423 224.06 351.172C224.661 351.921 224.999 352.936 225 353.996V389.51C224.999 390.569 224.661 391.585 224.06 392.334C223.46 393.083 222.645 393.504 221.795 393.505ZM175.205 351.04C174.576 351.041 173.974 351.353 173.529 351.907C173.085 352.461 172.835 353.212 172.834 353.996V389.51C172.835 390.293 173.085 391.045 173.529 391.599C173.974 392.153 174.576 392.465 175.205 392.465H221.795C222.424 392.465 223.026 392.153 223.471 391.599C223.915 391.045 224.165 390.293 224.166 389.51V353.996C224.165 353.212 223.915 352.461 223.471 351.907C223.026 351.353 222.424 351.041 221.795 351.04H175.205Z" fill="#4D76B8"/>
<path d="M219.531 366.355H202.641V367.395H219.531V366.355Z" fill="#4D76B8"/>
<path d="M219.531 371.535H202.641V372.575H219.531V371.535Z" fill="#4D76B8"/>
<path d="M219.531 376.715H202.641V377.755H219.531V376.715Z" fill="#4D76B8"/>
<path d="M219.531 382.055H177.618V383.095H219.531V382.055Z" fill="#4D76B8"/>
<path d="M219.531 386.797H177.618V387.837H219.531V386.797Z" fill="#4D76B8"/>
<path d="M224.583 358.848H172.417V359.888H224.583V358.848Z" fill="#4D76B8"/>
<path d="M393.454 400.789H123.546V403.909H393.454V400.789Z" fill="#456BA3"/>
<g opacity="0.28">
<path d="M196.375 260.242H155.513C154.746 260.242 154.125 260.863 154.125 261.629V318.427C154.125 319.193 154.746 319.813 155.513 319.813H196.375C197.142 319.813 197.763 319.193 197.763 318.427V261.629C197.763 260.863 197.142 260.242 196.375 260.242Z" fill="#6299E8"/>
</g>
<path d="M191.259 255.133H150.396C149.629 255.133 149.008 255.754 149.008 256.519V313.317C149.008 314.083 149.629 314.704 150.396 314.704H191.259C192.025 314.704 192.647 314.083 192.647 313.317V256.519C192.647 255.754 192.025 255.133 191.259 255.133Z" fill="white"/>
<path d="M175.908 306.738H158.086V307.778H175.908V306.738Z" fill="#4D76B8"/>
<path d="M186.318 302.367H158.086V303.407H186.318V302.367Z" fill="#4D76B8"/>
<path d="M175.908 296.879H158.086V297.919H175.908V296.879Z" fill="#4D76B8"/>
<path d="M186.318 292.508H158.086V293.548H186.318V292.508Z" fill="#4D76B8"/>
<path d="M186.318 288.141H158.086V289.181H186.318V288.141Z" fill="#4D76B8"/>
<path d="M170.828 279.926C175.519 279.926 179.322 276.126 179.322 271.44C179.322 266.753 175.519 262.953 170.828 262.953C166.136 262.953 162.333 266.753 162.333 271.44C162.333 276.126 166.136 279.926 170.828 279.926Z" fill="#92B1EF"/>
<path d="M170.364 265C169.033 265 167.851 265.916 167.439 267.267C166.584 267.456 165.846 268.028 165.413 268.839C164.746 270.071 164.898 271.621 165.792 272.678C165.516 273.563 165.611 274.531 166.051 275.332C166.715 276.569 168.049 277.203 169.355 276.908C169.933 277.606 170.765 278.004 171.637 278C172.967 278 174.149 277.084 174.561 275.733C175.418 275.543 176.155 274.971 176.584 274.161C177.255 272.929 177.103 271.379 176.209 270.322V270.318C176.485 269.433 176.39 268.464 175.95 267.659C175.286 266.426 173.952 265.792 172.65 266.087C172.069 265.391 171.237 264.996 170.364 265ZM170.364 265.845L170.36 265.85C170.895 265.85 171.41 266.048 171.822 266.413C171.806 266.422 171.773 266.444 171.748 266.457L169.326 267.95C169.202 268.025 169.128 268.165 169.128 268.32V271.824L168.086 271.181V268.284C168.086 266.939 169.105 265.847 170.364 265.845ZM173.282 266.866C174.098 266.864 174.854 267.33 175.262 268.086C175.525 268.579 175.624 269.156 175.533 269.715C175.517 269.702 175.484 269.684 175.463 269.671L173.041 268.174C172.917 268.099 172.766 268.099 172.642 268.174L169.804 269.926V268.641L172.148 267.192C172.492 266.979 172.883 266.866 173.282 266.866ZM167.291 268.196V271.273C167.291 271.427 167.365 271.564 167.489 271.643L170.323 273.391L169.276 274.038L166.937 272.594C165.848 271.92 165.476 270.431 166.105 269.266C166.371 268.772 166.791 268.394 167.291 268.196ZM172.72 268.958L175.064 270.402C176.155 271.075 176.526 272.563 175.896 273.73L175.9 273.734C175.632 274.227 175.212 274.606 174.713 274.8V271.722C174.713 271.568 174.639 271.427 174.516 271.353L171.678 269.6L172.72 268.958ZM170.998 270.019L172.193 270.758V272.233L170.998 272.973L169.804 272.233V270.758L170.998 270.019ZM172.877 271.181L173.919 271.824V274.716C173.919 276.063 172.897 277.155 171.641 277.155V277.151C171.109 277.151 170.59 276.952 170.183 276.587C170.199 276.578 170.236 276.556 170.257 276.543L172.679 275.051C172.802 274.976 172.881 274.835 172.876 274.681L172.877 271.181ZM172.197 273.074V274.359L169.853 275.803C168.762 276.473 167.369 276.076 166.739 274.914H166.743C166.476 274.425 166.381 273.844 166.471 273.285C166.488 273.298 166.521 273.316 166.541 273.329L168.963 274.826C169.087 274.901 169.239 274.901 169.363 274.826L172.197 273.074Z" fill="white"/>
<path d="M191.259 315.225H150.396C149.89 315.224 149.405 315.023 149.047 314.666C148.689 314.308 148.488 313.823 148.488 313.318V256.52C148.488 256.014 148.689 255.53 149.047 255.172C149.405 254.815 149.89 254.614 150.396 254.613H191.259C191.765 254.614 192.25 254.815 192.608 255.172C192.966 255.53 193.167 256.014 193.167 256.52V313.318C193.167 313.823 192.966 314.308 192.608 314.666C192.25 315.023 191.765 315.224 191.259 315.225ZM150.396 255.653C150.166 255.654 149.946 255.745 149.783 255.907C149.62 256.07 149.529 256.29 149.529 256.52V313.318C149.529 313.548 149.62 313.768 149.783 313.93C149.946 314.093 150.166 314.184 150.396 314.185H191.259C191.489 314.184 191.709 314.093 191.872 313.93C192.035 313.768 192.126 313.548 192.126 313.318V256.52C192.126 256.29 192.035 256.07 191.872 255.907C191.709 255.745 191.489 255.654 191.259 255.653H150.396Z" fill="#4D76B8"/>
<path d="M154.866 304.813H152.749C152.519 304.812 152.298 304.721 152.136 304.559C151.973 304.396 151.882 304.176 151.881 303.946V301.832C151.882 301.602 151.973 301.381 152.136 301.219C152.298 301.057 152.519 300.965 152.749 300.965H154.866C155.096 300.965 155.316 301.057 155.479 301.219C155.641 301.381 155.733 301.602 155.733 301.832V303.946C155.733 304.176 155.641 304.396 155.479 304.559C155.316 304.721 155.096 304.812 154.866 304.813ZM152.922 303.773H154.692V302.005H152.922V303.773Z" fill="#4D76B8"/>
<path d="M154.866 290.586H152.749C152.519 290.586 152.298 290.494 152.136 290.332C151.973 290.17 151.882 289.949 151.881 289.719V287.605C151.882 287.375 151.973 287.155 152.136 286.992C152.298 286.83 152.519 286.739 152.749 286.738H154.866C155.096 286.739 155.316 286.83 155.479 286.992C155.641 287.155 155.733 287.375 155.733 287.605V289.719C155.733 289.949 155.641 290.17 155.479 290.332C155.316 290.494 155.096 290.586 154.866 290.586ZM152.922 289.546H154.692V287.778H152.922V289.546Z" fill="#4D76B8"/>
<path d="M260.943 392.23H233.96V397.938H260.943V392.23Z" fill="#456BA3"/>
<path d="M267.189 400.79H227.714V396.815C227.714 396.356 227.897 395.915 228.222 395.59C228.548 395.265 228.989 395.082 229.449 395.082H265.454C265.914 395.082 266.355 395.265 266.681 395.59C267.006 395.915 267.189 396.356 267.189 396.815V400.79Z" fill="#4D76B8"/>
<path fill-rule="evenodd" clip-rule="evenodd" d="M336.41 349.023L330.628 349.431C330.163 349.47 330 349.762 330 350.111V356.177C330 356.45 330.101 356.683 330.345 356.994L331.704 358.685C331.927 358.958 332.13 359.016 332.556 358.997L339.27 358.608C339.837 358.569 340 358.316 340 357.888V351.064C340 350.843 339.909 350.779 339.64 350.591C339.625 350.58 339.609 350.57 339.594 350.559L337.749 349.314C337.302 349.004 337.12 348.964 336.41 349.023ZM332.708 350.952C332.16 350.988 332.036 350.996 331.724 350.753L330.933 350.151C330.852 350.073 330.893 349.975 331.095 349.956L336.653 349.567C337.119 349.528 337.363 349.684 337.545 349.82L338.499 350.481C338.54 350.501 338.641 350.617 338.519 350.617L332.779 350.948L332.708 350.952ZM332.069 357.83V352.037C332.069 351.784 332.15 351.667 332.393 351.647L338.985 351.278C339.209 351.259 339.31 351.395 339.31 351.647V357.402C339.31 357.655 339.27 357.869 338.904 357.888L332.596 358.238C332.231 358.258 332.069 358.141 332.069 357.83ZM338.297 352.347C338.337 352.522 338.297 352.697 338.114 352.717L337.809 352.775V357.052C337.545 357.188 337.302 357.266 337.1 357.266C336.775 357.266 336.693 357.169 336.45 356.877L334.462 353.883V356.78L335.091 356.916C335.091 356.916 335.091 357.266 334.584 357.266L333.184 357.344C333.144 357.266 333.184 357.072 333.327 357.033L333.691 356.936V353.106L333.184 353.067C333.144 352.892 333.245 352.639 333.53 352.62L335.031 352.522L337.1 355.556V352.872L336.572 352.814C336.532 352.6 336.693 352.445 336.897 352.425L338.297 352.347Z" fill="#A9C0FF"/>
<circle cx="187" cy="372" r="9" fill="#EFEFEF"/>
<circle cx="188" cy="370" r="9" fill="#92B1EF"/>
<path d="M185.158 371.315L187.322 370.101L187.359 369.996L187.322 369.937H187.217L186.855 369.915L185.618 369.882L184.546 369.837L183.507 369.781L183.245 369.726L183 369.403L183.025 369.242L183.245 369.094L183.56 369.121L184.256 369.169L185.3 369.241L186.058 369.285L187.18 369.402H187.359L187.384 369.33L187.323 369.285L187.276 369.241L186.195 368.509L185.025 367.735L184.412 367.29L184.081 367.064L183.914 366.853L183.842 366.391L184.142 366.06L184.546 366.087L184.65 366.115L185.059 366.43L185.933 367.106L187.075 367.946L187.242 368.085L187.309 368.038L187.317 368.004L187.242 367.879L186.621 366.757L185.959 365.616L185.664 365.143L185.586 364.86C185.558 364.743 185.538 364.645 185.538 364.526L185.881 364.061L186.07 364L186.527 364.061L186.719 364.228L187.003 364.877L187.463 365.898L188.176 367.287L188.384 367.699L188.496 368.081L188.538 368.197H188.61V368.13L188.668 367.348L188.777 366.387L188.882 365.151L188.919 364.803L189.091 364.386L189.433 364.16L189.701 364.288L189.921 364.603L189.89 364.806L189.759 365.655L189.503 366.986L189.336 367.877H189.433L189.545 367.765L189.996 367.167L190.753 366.22L191.088 365.845L191.477 365.43L191.728 365.232H192.201L192.549 365.75L192.393 366.284L191.906 366.902L191.502 367.425L190.923 368.205L190.561 368.828L190.594 368.878L190.68 368.87L191.989 368.591L192.696 368.464L193.54 368.319L193.922 368.497L193.964 368.678L193.814 369.049L192.911 369.271L191.853 369.483L190.276 369.856L190.257 369.87L190.279 369.897L190.989 369.964L191.293 369.98H192.037L193.421 370.083L193.783 370.323L194 370.615L193.964 370.838L193.407 371.121L192.655 370.943L190.9 370.526L190.299 370.376H190.215V370.426L190.717 370.916L191.636 371.745L192.786 372.814L192.845 373.078L192.697 373.287L192.541 373.264L191.53 372.504L191.14 372.162L190.257 371.419H190.198V371.497L190.402 371.795L191.477 373.409L191.532 373.904L191.454 374.065L191.176 374.163L190.87 374.107L190.241 373.224L189.592 372.23L189.068 371.34L189.004 371.376L188.695 374.702L188.55 374.872L188.216 375L187.937 374.788L187.79 374.446L187.937 373.77L188.116 372.887L188.26 372.186L188.391 371.314L188.469 371.025L188.464 371.005L188.4 371.014L187.743 371.916L186.743 373.266L185.952 374.112L185.762 374.187L185.434 374.017L185.465 373.714L185.648 373.443L186.743 372.051L187.403 371.189L187.83 370.691L187.827 370.619H187.801L184.893 372.506L184.376 372.573L184.153 372.364L184.18 372.022L184.286 371.91L185.16 371.309L185.157 371.312L185.158 371.315Z" fill="white"/>
</g>
</g>
<defs>
<filter id="filter0_d_3_254" x="152.953" y="0.58" width="730.297" height="638.853" filterUnits="userSpaceOnUse" color-interpolation-filters="sRGB">
<feFlood flood-opacity="0" result="BackgroundImageFix"/>
<feColorMatrix in="SourceAlpha" type="matrix" values="0 0 0 0 0 0 0 0 0 0 0 0 0 0 0 0 0 0 127 0" result="hardAlpha"/>
<feOffset dy="-2.42"/>
<feGaussianBlur stdDeviation="50"/>
<feColorMatrix type="matrix" values="0 0 0 0 0 0 0 0 0 0 0 0 0 0 0 0 0 0 0.04 0"/>
<feBlend mode="normal" in2="BackgroundImageFix" result="effect1_dropShadow_3_254"/>
<feBlend mode="normal" in="SourceGraphic" in2="effect1_dropShadow_3_254" result="shape"/>
</filter>
<filter id="filter1_d_3_254" x="0.75" y="99.0058" width="513.532" height="493.999" filterUnits="userSpaceOnUse" color-interpolation-filters="sRGB">
<feFlood flood-opacity="0" result="BackgroundImageFix"/>
<feColorMatrix in="SourceAlpha" type="matrix" values="0 0 0 0 0 0 0 0 0 0 0 0 0 0 0 0 0 0 127 0" result="hardAlpha"/>
<feOffset dy="23.58"/>
<feGaussianBlur stdDeviation="50"/>
<feColorMatrix type="matrix" values="0 0 0 0 0 0 0 0 0 0 0 0 0 0 0 0 0 0 0.06 0"/>
<feBlend mode="normal" in2="BackgroundImageFix" result="effect1_dropShadow_3_254"/>
<feBlend mode="normal" in="SourceGraphic" in2="effect1_dropShadow_3_254" result="shape"/>
</filter>
<clipPath id="clip0_3_254">
<rect x="252.953" y="103" width="530.297" height="438.853" rx="24" fill="white"/>
</clipPath>
<clipPath id="clip1_3_254">
<rect x="100.75" y="175.426" width="313.532" height="293.999" rx="24" fill="white"/>
</clipPath>
</defs>
</svg>
