<svg width="884" height="640" viewBox="0 0 884 640" fill="none" xmlns="http://www.w3.org/2000/svg">
<g filter="url(#filter0_d_84_730)">
<g clip-path="url(#clip0_84_730)">
<rect x="252.953" y="103" width="530.297" height="438.853" rx="24" fill="#262626"/>
<rect x="213.25" y="95" width="696" height="449" fill="#262626"/>
<path d="M396.126 449.899C396.126 449.899 328.104 394.496 404.533 321.853C480.962 249.21 589.398 231.081 652.206 259.079C715.013 287.077 760.108 400.402 685.193 446.06L396.126 449.899Z" fill="#F2F6F9"/>
<mask id="mask0_84_730" style="mask-type:luminance" maskUnits="userSpaceOnUse" x="368" y="246" width="357" height="204">
<path d="M396.126 449.895C396.126 449.895 328.104 394.493 404.533 321.849C480.962 249.206 589.398 231.077 652.206 259.075C715.013 287.073 760.108 400.399 685.193 446.056L396.126 449.895Z" fill="white"/>
</mask>
<g mask="url(#mask0_84_730)">
<path d="M285.683 328.655C253.375 398.865 314.525 458.681 377.642 455.695C440.758 452.71 430.713 575.475 351.737 585.167" fill="#2D2D2D"/>
<path d="M285.683 328.655C253.375 398.865 314.525 458.681 377.642 455.695C440.758 452.71 430.713 575.475 351.737 585.167" stroke="white" stroke-width="0.925471" stroke-miterlimit="10"/>
<path d="M296.757 324.541C264.45 394.751 325.599 454.567 388.716 451.581C451.833 448.596 441.788 571.361 362.811 581.053" fill="#2D2D2D"/>
<path d="M296.757 324.541C264.45 394.751 325.599 454.567 388.716 451.581C451.833 448.596 441.788 571.361 362.811 581.053" stroke="white" stroke-width="1.13111" stroke-miterlimit="10"/>
<path d="M307.832 320.431C275.524 390.641 336.673 450.456 399.79 447.471C462.907 444.485 452.862 567.25 373.885 576.942" fill="#2D2D2D"/>
<path d="M307.832 320.431C275.524 390.641 336.673 450.456 399.79 447.471C462.907 444.485 452.862 567.25 373.885 576.942" stroke="white" stroke-width="1.33675" stroke-miterlimit="10"/>
<path d="M318.906 316.317C286.598 386.527 347.748 446.342 410.865 443.357C473.982 440.371 463.936 563.136 384.96 572.828" fill="#2D2D2D"/>
<path d="M318.906 316.317C286.598 386.527 347.748 446.342 410.865 443.357C473.982 440.371 463.936 563.136 384.96 572.828" stroke="white" stroke-width="1.54248" stroke-miterlimit="10"/>
<path d="M329.98 312.206C297.673 382.416 358.822 442.232 421.939 439.246C485.056 436.261 475.01 559.026 396.034 568.718" fill="#2D2D2D"/>
<path d="M329.98 312.206C297.673 382.416 358.822 442.232 421.939 439.246C485.056 436.261 475.01 559.026 396.034 568.718" stroke="white" stroke-width="1.74812" stroke-miterlimit="10"/>
<path d="M341.054 308.089C308.747 378.299 369.896 438.114 433.013 435.129C496.13 432.143 486.085 554.908 407.108 564.6" fill="#2D2D2D"/>
<path d="M341.054 308.089C308.747 378.299 369.896 438.114 433.013 435.129C496.13 432.143 486.085 554.908 407.108 564.6" stroke="white" stroke-width="1.95376" stroke-miterlimit="10"/>
<path d="M352.129 303.974C319.821 374.184 380.97 434 444.087 431.015C507.204 428.029 497.159 550.794 418.182 560.486" fill="#2D2D2D"/>
<path d="M352.129 303.974C319.821 374.184 380.97 434 444.087 431.015C507.204 428.029 497.159 550.794 418.182 560.486" stroke="white" stroke-width="2.1594" stroke-miterlimit="10"/>
<path d="M363.203 299.86C330.895 370.07 392.045 429.886 455.161 426.901C518.278 423.915 508.233 546.68 429.256 556.372" fill="#2D2D2D"/>
<path d="M363.203 299.86C330.895 370.07 392.045 429.886 455.161 426.901C518.278 423.915 508.233 546.68 429.256 556.372" stroke="white" stroke-width="2.36504" stroke-miterlimit="10"/>
<path d="M374.278 295.746C341.97 365.957 403.12 425.772 466.237 422.787C529.354 419.801 519.308 542.566 440.332 552.258" fill="#2D2D2D"/>
<path d="M374.278 295.746C341.97 365.957 403.12 425.772 466.237 422.787C529.354 419.801 519.308 542.566 440.332 552.258" stroke="white" stroke-width="2.57077" stroke-miterlimit="10"/>
<path d="M385.352 291.636C353.045 361.846 414.194 421.662 477.311 418.676C540.428 415.691 530.382 538.456 451.406 548.148" fill="#2D2D2D"/>
<path d="M385.352 291.636C353.045 361.846 414.194 421.662 477.311 418.676C540.428 415.691 530.382 538.456 451.406 548.148" stroke="white" stroke-width="2.77641" stroke-miterlimit="10"/>
<path d="M396.426 287.522C364.119 357.732 425.268 417.548 488.385 414.562C551.502 411.577 541.457 534.342 462.48 544.034" fill="#2D2D2D"/>
<path d="M396.426 287.522C364.119 357.732 425.268 417.548 488.385 414.562C551.502 411.577 541.457 534.342 462.48 544.034" stroke="white" stroke-width="2.98205" stroke-miterlimit="10"/>
<path d="M407.501 283.408C375.193 353.618 436.342 413.434 499.459 410.448C562.576 407.463 552.531 530.228 473.554 539.92" fill="#2D2D2D"/>
<path d="M407.501 283.408C375.193 353.618 436.342 413.434 499.459 410.448C562.576 407.463 552.531 530.228 473.554 539.92" stroke="white" stroke-width="3.18769" stroke-miterlimit="10"/>
<path d="M418.575 279.298C386.267 349.508 447.416 409.324 510.533 406.338C573.65 403.352 563.605 526.118 484.628 535.809" fill="#2D2D2D"/>
<path d="M418.575 279.298C386.267 349.508 447.416 409.324 510.533 406.338C573.65 403.352 563.605 526.118 484.628 535.809" stroke="white" stroke-width="3.39342" stroke-miterlimit="10"/>
<path d="M429.649 275.184C397.342 345.394 458.491 405.209 521.608 402.224C584.725 399.238 574.679 522.003 495.703 531.696" fill="#2D2D2D"/>
<path d="M429.649 275.184C397.342 345.394 458.491 405.209 521.608 402.224C584.725 399.238 574.679 522.003 495.703 531.696" stroke="white" stroke-width="3.59906" stroke-miterlimit="10"/>
<path d="M440.723 271.07C408.416 341.28 469.565 401.095 532.682 398.11C595.799 395.124 585.753 517.89 506.777 527.582" fill="#2D2D2D"/>
<path d="M440.723 271.07C408.416 341.28 469.565 401.095 532.682 398.11C595.799 395.124 585.753 517.89 506.777 527.582" stroke="white" stroke-width="3.8047" stroke-miterlimit="10"/>
<path d="M451.798 266.956C419.49 337.166 480.639 396.982 543.756 393.996C606.873 391.01 596.828 513.776 517.851 523.467" fill="#2D2D2D"/>
<path d="M451.798 266.956C419.49 337.166 480.639 396.982 543.756 393.996C606.873 391.01 596.828 513.776 517.851 523.467" stroke="white" stroke-width="4.01034" stroke-miterlimit="10"/>
<path d="M462.873 262.842C430.565 333.052 491.714 392.867 554.831 389.882C617.948 386.896 607.903 509.661 528.926 519.353" fill="#2D2D2D"/>
<path d="M462.873 262.842C430.565 333.052 491.714 392.867 554.831 389.882C617.948 386.896 607.903 509.661 528.926 519.353" stroke="white" stroke-width="4.21607" stroke-miterlimit="10"/>
<path d="M473.947 258.731C441.639 328.941 502.789 388.757 565.906 385.771C629.023 382.786 618.977 505.551 540 515.243" fill="#2D2D2D"/>
<path d="M473.947 258.731C441.639 328.941 502.789 388.757 565.906 385.771C629.023 382.786 618.977 505.551 540 515.243" stroke="white" stroke-width="4.42171" stroke-miterlimit="10"/>
<path d="M485.021 254.617C452.714 324.827 513.863 384.643 576.98 381.657C640.097 378.672 630.051 501.437 551.075 511.129" fill="#2D2D2D"/>
<path d="M485.021 254.617C452.714 324.827 513.863 384.643 576.98 381.657C640.097 378.672 630.051 501.437 551.075 511.129" stroke="white" stroke-width="4.62735" stroke-miterlimit="10"/>
<path d="M496.095 250.5C463.788 320.71 524.937 380.525 588.054 377.54C651.171 374.554 641.126 497.319 562.149 507.011" fill="#2D2D2D"/>
<path d="M496.095 250.5C463.788 320.71 524.937 380.525 588.054 377.54C651.171 374.554 641.126 497.319 562.149 507.011" stroke="white" stroke-width="4.83299" stroke-miterlimit="10"/>
<path d="M507.17 246.389C474.862 316.599 536.011 376.415 599.128 373.429C662.245 370.444 652.2 493.209 573.223 502.901" fill="#2D2D2D"/>
<path d="M507.17 246.389C474.862 316.599 536.011 376.415 599.128 373.429C662.245 370.444 652.2 493.209 573.223 502.901" stroke="white" stroke-width="5.03863" stroke-miterlimit="10"/>
<path d="M518.245 242.275C485.937 312.485 547.086 372.301 610.204 369.315C673.32 366.33 663.275 489.095 584.298 498.787" fill="#2D2D2D"/>
<path d="M518.245 242.275C485.937 312.485 547.086 372.301 610.204 369.315C673.32 366.33 663.275 489.095 584.298 498.787" stroke="white" stroke-width="5.24437" stroke-miterlimit="10"/>
<path d="M529.318 238.165C497.011 308.375 558.16 368.191 621.277 365.205C684.394 362.22 674.348 484.985 595.372 494.677" fill="#2D2D2D"/>
<path d="M529.318 238.165C497.011 308.375 558.16 368.191 621.277 365.205C684.394 362.22 674.348 484.985 595.372 494.677" stroke="white" stroke-width="5.45" stroke-miterlimit="10"/>
<path d="M540.393 234.047C508.086 304.257 569.235 364.073 632.352 361.088C695.469 358.102 685.423 480.867 606.447 490.559" fill="#2D2D2D"/>
<path d="M540.393 234.047C508.086 304.257 569.235 364.073 632.352 361.088C695.469 358.102 685.423 480.867 606.447 490.559" stroke="white" stroke-width="5.65564" stroke-miterlimit="10"/>
<path d="M551.467 229.933C519.16 300.143 580.309 359.959 643.426 356.973C706.543 353.988 696.498 476.753 617.521 486.445" fill="#2D2D2D"/>
<path d="M551.467 229.933C519.16 300.143 580.309 359.959 643.426 356.973C706.543 353.988 696.498 476.753 617.521 486.445" stroke="white" stroke-width="5.86128" stroke-miterlimit="10"/>
<path d="M562.542 225.823C530.234 296.033 591.383 355.849 654.5 352.863C717.617 349.878 707.572 472.643 628.595 482.335" fill="#2D2D2D"/>
<path d="M562.542 225.823C530.234 296.033 591.383 355.849 654.5 352.863C717.617 349.878 707.572 472.643 628.595 482.335" stroke="white" stroke-width="6.06692" stroke-miterlimit="10"/>
<path d="M573.616 221.709C541.308 291.919 602.457 351.735 665.575 348.749C728.691 345.764 718.646 468.529 639.669 478.221" fill="#2D2D2D"/>
<path d="M573.616 221.709C541.308 291.919 602.457 351.735 665.575 348.749C728.691 345.764 718.646 468.529 639.669 478.221" stroke="white" stroke-width="6.27266" stroke-miterlimit="10"/>
<path d="M584.69 217.595C552.383 287.805 613.532 347.621 676.649 344.635C739.766 341.649 729.72 464.415 650.744 474.107" fill="#2D2D2D"/>
<path d="M584.69 217.595C552.383 287.805 613.532 347.621 676.649 344.635C739.766 341.649 729.72 464.415 650.744 474.107" stroke="white" stroke-width="6.4783" stroke-miterlimit="10"/>
<path d="M595.764 213.484C563.457 283.695 624.606 343.51 687.723 340.525C750.84 337.539 740.794 460.304 661.818 469.996" fill="#2D2D2D"/>
<path d="M595.764 213.484C563.457 283.695 624.606 343.51 687.723 340.525C750.84 337.539 740.794 460.304 661.818 469.996" stroke="white" stroke-width="6.68393" stroke-miterlimit="10"/>
<path d="M606.839 209.37C574.531 279.581 635.68 339.396 698.797 336.411C761.914 333.425 751.869 456.19 672.892 465.882" fill="#2D2D2D"/>
<path d="M606.839 209.37C574.531 279.581 635.68 339.396 698.797 336.411C761.914 333.425 751.869 456.19 672.892 465.882" stroke="white" stroke-width="6.88957" stroke-miterlimit="10"/>
<path d="M617.913 205.26C585.605 275.47 646.754 335.286 709.871 332.3C772.988 329.315 762.943 452.08 683.966 461.772" fill="#2D2D2D"/>
<path d="M617.913 205.26C585.605 275.47 646.754 335.286 709.871 332.3C772.988 329.315 762.943 452.08 683.966 461.772" stroke="white" stroke-width="7.09531" stroke-miterlimit="10"/>
<path d="M628.988 201.142C596.68 271.353 657.83 331.168 720.947 328.183C784.064 325.197 774.018 447.962 695.041 457.654" fill="#2D2D2D"/>
<path d="M628.988 201.142C596.68 271.353 657.83 331.168 720.947 328.183C784.064 325.197 774.018 447.962 695.041 457.654" stroke="white" stroke-width="7.30095" stroke-miterlimit="10"/>
<path d="M640.062 197.028C607.755 267.239 668.904 327.054 732.021 324.068C795.138 321.083 785.092 443.848 706.116 453.54" fill="#2D2D2D"/>
<path d="M640.062 197.028C607.755 267.239 668.904 327.054 732.021 324.068C795.138 321.083 785.092 443.848 706.116 453.54" stroke="white" stroke-width="7.50659" stroke-miterlimit="10"/>
<path d="M651.136 192.914C618.829 263.125 679.978 322.94 743.095 319.955C806.212 316.969 796.166 439.734 717.19 449.426" fill="#2D2D2D"/>
<path d="M651.136 192.914C618.829 263.125 679.978 322.94 743.095 319.955C806.212 316.969 796.166 439.734 717.19 449.426" stroke="white" stroke-width="7.71223" stroke-miterlimit="10"/>
<path d="M662.211 188.8C629.903 259.01 691.052 318.826 754.169 315.841C817.286 312.855 807.241 435.621 728.264 445.312" fill="#2D2D2D"/>
<path d="M662.211 188.8C629.903 259.01 691.052 318.826 754.169 315.841C817.286 312.855 807.241 435.621 728.264 445.312" stroke="white" stroke-width="7.91796" stroke-miterlimit="10"/>
<path d="M673.285 184.69C640.977 254.9 702.126 314.716 765.243 311.73C828.36 308.745 818.315 431.51 739.338 441.202" fill="#2D2D2D"/>
<path d="M673.285 184.69C640.977 254.9 702.126 314.716 765.243 311.73C828.36 308.745 818.315 431.51 739.338 441.202" stroke="white" stroke-width="8.1236" stroke-miterlimit="10"/>
<path d="M684.359 180.576C652.051 250.786 713.201 310.602 776.318 307.616C839.435 304.631 829.389 427.396 750.412 437.088" fill="#2D2D2D"/>
<path d="M684.359 180.576C652.051 250.786 713.201 310.602 776.318 307.616C839.435 304.631 829.389 427.396 750.412 437.088" stroke="white" stroke-width="8.32924" stroke-miterlimit="10"/>
</g>
<path d="M506.636 374.115C506.636 374.115 510.471 397.667 510.471 411.469C510.471 425.272 506.636 453.206 506.636 453.206C506.636 453.206 521.809 466.187 547.443 464.05C573.077 461.914 585.072 454.52 585.072 454.52C585.072 454.52 585.401 429.38 582.936 415.741C580.472 402.103 587.373 366.446 587.373 366.446L591.207 334.788L589.026 329.639L573.132 324.272H541.363L523.507 321.862L504.445 329.639L502.474 367.542L506.636 374.115Z" fill="#E97545"/>
<path d="M533.803 303.458C533.803 312.44 534.132 315.726 529.75 318.794C525.368 321.861 523.506 321.861 523.506 321.861C523.506 321.861 528.362 333.254 547.131 332.706C565.901 332.158 573.131 324.271 573.131 324.271C573.131 324.271 562.05 319.817 561.19 313.096C560.329 306.375 559.876 301.595 559.876 301.595L533.803 303.458Z" fill="#F7BF6D"/>
<path d="M514.66 275.664C514.205 280.861 515.482 285.276 518.768 288.316C522.055 291.356 524.191 291.274 524.191 291.274C524.191 291.274 527.888 299.955 532.708 304.995C537.528 310.033 544.758 315.839 552.536 311.677C560.314 307.514 564.696 302.475 567.325 298.203C569.954 293.931 570.831 290.097 570.831 290.097C570.831 290.097 572.419 291.685 575.103 288.07C577.787 284.455 580.032 282.593 579.649 275.253C579.265 267.914 578.444 266.106 578.444 266.106C578.444 266.106 570.447 250.934 549.086 252.742C527.724 254.549 518.686 261.286 518.686 261.286L515.728 273.199C515.728 273.199 514.792 274.162 514.66 275.664Z" fill="#FFCC7B"/>
<path d="M515.728 273.198C517.947 273.116 520.247 273.609 521.479 277.963C522.712 282.318 522.055 285.686 523.287 286.097C524.519 286.508 524.273 281.168 524.026 276.895C523.78 272.623 522.63 264.243 529.531 264.654C536.432 265.065 542.567 281.113 557.794 266.982C557.794 266.982 556.151 273.151 547.387 275.379C547.387 275.379 558.451 280.346 566.229 271.363C566.229 271.363 566.092 276.238 568.475 276.32C570.857 276.402 572.007 280.018 571.022 284.043C570.036 288.069 571.926 288.562 573.076 283.139C574.226 277.717 573.158 274.924 576.527 273.691C579.895 272.459 579.649 275.252 579.649 275.252C579.649 275.252 587.536 233.352 557.958 231.215C528.381 229.079 515.892 247.207 515.235 259.176C514.578 271.144 515.728 273.198 515.728 273.198Z" fill="#191919"/>
<path d="M504.445 329.641C489.108 334.68 484.946 340.815 482.755 359.218C480.564 377.621 477.058 405.227 476.62 413.771C476.182 422.316 478.92 433.599 486.698 437.214C494.476 440.829 514.633 439.843 514.633 439.843L515.509 424.178C515.509 424.178 498.748 417.167 496.886 415.195C495.024 413.224 506.526 385.18 508.662 371.706C510.799 358.232 504.445 329.641 504.445 329.641Z" fill="#E97545"/>
<path d="M589.026 329.641C604.362 334.68 608.524 340.815 610.716 359.218C612.907 377.621 616.412 405.227 616.85 413.771C617.289 422.316 614.55 433.599 606.772 437.214C598.994 440.829 578.838 439.843 578.838 439.843L577.961 424.178C577.961 424.178 594.722 417.167 596.584 415.195C598.447 413.224 586.944 385.18 584.808 371.706C582.672 358.232 589.026 329.641 589.026 329.641Z" fill="#E97545"/>
<path d="M600.692 430.893C600.692 435.191 597.208 438.675 592.91 438.675H500.769C496.471 438.675 492.987 435.191 492.987 430.893L485.205 387.805C485.205 383.507 488.689 380.023 492.987 380.023H597.428C601.726 380.023 605.209 383.507 605.209 387.805L600.692 430.893Z" fill="#BCBCBC"/>
<path d="M727.147 446.064H368.291V453.743H727.147V446.064Z" fill="#828282"/>
<path d="M716.888 453.739H378.551V467.477H716.888V453.739Z" fill="#262626"/>
<path d="M600.692 444.378C600.692 445.308 599.938 446.062 599.008 446.062H494.671C493.741 446.062 492.987 445.308 492.987 444.378V441.686C492.987 440.756 493.741 440.002 494.671 440.002H599.008C599.938 440.002 600.692 440.756 600.692 441.686V444.378Z" fill="#565656"/>
<path d="M600.692 432.223C600.692 436.521 597.208 440.005 592.91 440.005H500.769C496.471 440.005 492.987 436.521 492.987 432.223L485.205 389.135C485.205 384.838 488.689 381.354 492.987 381.354H597.428C601.726 381.354 605.209 384.838 605.209 389.135L600.692 432.223Z" fill="#AAAAAA"/>
<path d="M750 332.525H651.555V388.87H750V332.525Z" fill="#F2F6F9"/>
<path d="M674.241 340.486C674.187 340.314 674.114 340.159 674.02 340.023C673.928 339.885 673.818 339.766 673.688 339.668C673.56 339.57 673.413 339.497 673.247 339.448C673.08 339.397 672.899 339.371 672.703 339.371C672.352 339.371 672.038 339.459 671.764 339.636C671.489 339.813 671.272 340.073 671.115 340.416C670.959 340.757 670.881 341.173 670.881 341.663C670.881 342.157 670.959 342.576 671.115 342.919C671.27 343.262 671.487 343.523 671.764 343.702C672.041 343.879 672.362 343.967 672.729 343.967C673.061 343.967 673.349 343.903 673.592 343.775C673.837 343.647 674.025 343.466 674.157 343.232C674.29 342.995 674.356 342.718 674.356 342.401L674.624 342.442H672.847V341.516H675.503V342.302C675.503 342.862 675.384 343.347 675.145 343.756C674.906 344.165 674.578 344.48 674.161 344.702C673.743 344.921 673.264 345.031 672.722 345.031C672.119 345.031 671.59 344.896 671.134 344.625C670.68 344.353 670.325 343.966 670.07 343.465C669.816 342.962 669.689 342.366 669.689 341.675C669.689 341.147 669.764 340.675 669.913 340.26C670.064 339.844 670.275 339.491 670.546 339.202C670.816 338.91 671.134 338.688 671.498 338.537C671.863 338.383 672.259 338.307 672.687 338.307C673.049 338.307 673.387 338.36 673.7 338.467C674.014 338.571 674.292 338.72 674.535 338.914C674.78 339.108 674.981 339.338 675.139 339.604C675.296 339.871 675.4 340.165 675.449 340.486H674.241ZM676.65 344.942V338.396H679.104C679.607 338.396 680.029 338.49 680.37 338.678C680.713 338.865 680.972 339.123 681.146 339.451C681.323 339.777 681.412 340.148 681.412 340.563C681.412 340.983 681.323 341.356 681.146 341.682C680.969 342.008 680.708 342.265 680.363 342.452C680.018 342.637 679.593 342.73 679.088 342.73H677.461V341.755H678.928C679.222 341.755 679.463 341.704 679.651 341.602C679.838 341.5 679.977 341.359 680.066 341.18C680.158 341.001 680.203 340.795 680.203 340.563C680.203 340.331 680.158 340.126 680.066 339.95C679.977 339.773 679.837 339.635 679.647 339.537C679.46 339.437 679.218 339.387 678.922 339.387H677.835V344.942H676.65ZM682.154 339.39V338.396H687.376V339.39H685.353V344.942H684.177V339.39H682.154ZM690.433 343.727V342.784L693.21 338.396H693.997V339.739H693.517L691.648 342.701V342.752H695.524V343.727H690.433ZM693.556 344.942V343.44L693.568 343.018V338.396H694.687V344.942H693.556ZM698.7 345.038C698.22 345.038 697.805 344.932 697.453 344.721C697.102 344.51 696.829 344.215 696.635 343.836C696.443 343.457 696.347 343.013 696.347 342.506C696.347 341.999 696.443 341.555 696.635 341.174C696.829 340.792 697.102 340.496 697.453 340.285C697.805 340.074 698.22 339.969 698.7 339.969C699.179 339.969 699.595 340.074 699.946 340.285C700.298 340.496 700.569 340.792 700.761 341.174C700.955 341.555 701.052 341.999 701.052 342.506C701.052 343.013 700.955 343.457 700.761 343.836C700.569 344.215 700.298 344.51 699.946 344.721C699.595 344.932 699.179 345.038 698.7 345.038ZM698.706 344.111C698.966 344.111 699.183 344.039 699.358 343.897C699.533 343.752 699.663 343.558 699.748 343.315C699.835 343.072 699.879 342.801 699.879 342.503C699.879 342.203 699.835 341.931 699.748 341.688C699.663 341.443 699.533 341.248 699.358 341.103C699.183 340.958 698.966 340.886 698.706 340.886C698.44 340.886 698.218 340.958 698.041 341.103C697.867 341.248 697.736 341.443 697.648 341.688C697.563 341.931 697.52 342.203 697.52 342.503C697.52 342.801 697.563 343.072 697.648 343.315C697.736 343.558 697.867 343.752 698.041 343.897C698.218 344.039 698.44 344.111 698.706 344.111Z" fill="#262626"/>
<path d="M665.855 337.62H657.531V345.944H665.855V337.62Z" fill="white"/>
<path d="M665.855 350.475H657.531V358.799H665.855V350.475Z" fill="white"/>
<path d="M712.49 350.475H668.79V353.73H712.49V350.475Z" fill="white"/>
<path d="M690.934 355.544H668.79V358.798H690.934V355.544Z" fill="white"/>
<path d="M665.855 363.327H657.531V371.651H665.855V363.327Z" fill="white"/>
<path d="M712.49 363.327H668.79V366.582H712.49V363.327Z" fill="white"/>
<path d="M690.934 368.396H668.79V371.65H690.934V368.396Z" fill="white"/>
<path d="M665.855 376.179H657.531V384.503H665.855V376.179Z" fill="white"/>
<path d="M712.49 376.179H668.79V379.434H712.49V376.179Z" fill="white"/>
<path d="M690.934 381.248H668.79V384.503H690.934V381.248Z" fill="white"/>
<path d="M747.279 337.142H716.064V361.499H747.279V337.142Z" fill="white"/>
<path d="M747.279 364.476H716.064V385.269H747.279V364.476Z" fill="white"/>
<path d="M718.945 355.544C720.947 350.267 724.308 344.131 726.949 347.652C729.59 351.174 733.352 354.845 734.232 353.729C735.113 352.614 737.034 349.013 739.355 348.693C741.676 348.373 745.678 355.544 745.678 355.544H718.945Z" fill="#E97545"/>
<path d="M718.945 380.647C720.947 375.37 724.308 369.234 726.949 372.756C729.59 376.277 733.352 379.948 734.232 378.833C735.113 377.718 737.034 374.116 739.355 373.796C741.676 373.476 745.678 380.647 745.678 380.647H718.945Z" fill="#E97545"/>
<path d="M658.064 341.492L660.092 344.746L665.268 340.478L665.001 340.211L660.139 343.432L658.218 341.292L658.064 341.492Z" fill="#E97545"/>
<path d="M658.064 353.913L660.092 357.168L665.268 352.9L665.001 352.633L660.139 355.854L658.218 353.713L658.064 353.913Z" fill="#E97545"/>
<path d="M658.064 366.345L660.092 369.6L665.268 365.332L665.001 365.065L660.139 368.286L658.218 366.145L658.064 366.345Z" fill="#E97545"/>
<path d="M658.064 378.771L660.092 382.025L665.268 377.757L665.001 377.49L660.139 380.712L658.218 378.571L658.064 378.771Z" fill="#E97545"/>
<path d="M473.314 278.029H374.869V334.373H473.314V278.029Z" fill="#F2F6F9"/>
<path d="M422.001 284.345H382.623V286.692H422.001V284.345Z" fill="white"/>
<path d="M405.78 288.719H382.623V291.067H405.78V288.719Z" fill="white"/>
<path d="M422.001 297.041H382.623V299.389H422.001V297.041Z" fill="white"/>
<path d="M405.78 301.419H382.623V303.767H405.78V301.419Z" fill="white"/>
<path d="M422.001 309.741H382.623V312.089H422.001V309.741Z" fill="white"/>
<path d="M405.78 314.119H382.623V316.467H405.78V314.119Z" fill="white"/>
<path d="M422.001 322.441H382.623V324.788H422.001V322.441Z" fill="white"/>
<path d="M405.78 326.815H382.623V329.163H405.78V326.815Z" fill="white"/>
<path d="M465.54 307.341C465.54 316.978 457.729 324.789 448.092 324.789C438.456 324.789 430.645 316.978 430.645 307.341C430.645 297.705 438.456 289.894 448.092 289.894C448.71 289.894 449.322 289.926 449.924 289.99L448.092 307.341L465.337 304.671C465.472 305.542 465.54 306.434 465.54 307.341Z" fill="#E97545"/>
<path d="M466.884 303.133L449.64 305.803L451.471 288.451C459.362 289.274 465.69 295.357 466.884 303.133Z" fill="#8ECC36"/>
<path d="M655.399 233.31H600.692V304.013H655.399V233.31Z" fill="#F2F6F9"/>
<path d="M614.378 240.651H613.183C613.149 240.455 613.086 240.282 612.994 240.13C612.903 239.977 612.789 239.847 612.652 239.741C612.516 239.634 612.36 239.554 612.186 239.501C612.013 239.445 611.827 239.418 611.626 239.418C611.271 239.418 610.955 239.507 610.68 239.686C610.405 239.863 610.19 240.123 610.035 240.466C609.879 240.807 609.801 241.224 609.801 241.716C609.801 242.216 609.879 242.638 610.035 242.981C610.192 243.322 610.408 243.58 610.68 243.755C610.955 243.927 611.269 244.014 611.623 244.014C611.819 244.014 612.002 243.988 612.173 243.937C612.345 243.884 612.5 243.806 612.636 243.704C612.775 243.601 612.891 243.476 612.985 243.327C613.081 243.177 613.147 243.007 613.183 242.815L614.378 242.822C614.333 243.133 614.236 243.425 614.087 243.697C613.94 243.97 613.747 244.211 613.509 244.42C613.27 244.626 612.991 244.788 612.671 244.905C612.352 245.02 611.997 245.078 611.607 245.078C611.032 245.078 610.518 244.945 610.067 244.678C609.615 244.412 609.259 244.027 608.999 243.525C608.739 243.022 608.609 242.419 608.609 241.716C608.609 241.01 608.74 240.407 609.002 239.907C609.264 239.404 609.621 239.019 610.073 238.753C610.525 238.487 611.036 238.353 611.607 238.353C611.972 238.353 612.31 238.405 612.623 238.507C612.937 238.609 613.216 238.759 613.461 238.958C613.706 239.154 613.907 239.394 614.065 239.68C614.225 239.963 614.329 240.287 614.378 240.651ZM616.57 238.443V244.988H615.413V238.443H616.57ZM619.172 245.088C618.861 245.088 618.581 245.032 618.332 244.921C618.084 244.808 617.888 244.642 617.744 244.423C617.601 244.203 617.529 243.933 617.529 243.611C617.529 243.334 617.581 243.105 617.683 242.924C617.785 242.743 617.925 242.598 618.101 242.489C618.278 242.38 618.478 242.298 618.699 242.243C618.923 242.186 619.154 242.144 619.393 242.118C619.68 242.089 619.914 242.062 620.093 242.039C620.272 242.013 620.402 241.975 620.483 241.923C620.566 241.87 620.607 241.788 620.607 241.677V241.658C620.607 241.417 620.536 241.231 620.393 241.099C620.25 240.967 620.045 240.901 619.776 240.901C619.493 240.901 619.268 240.963 619.102 241.086C618.938 241.21 618.827 241.356 618.769 241.524L617.689 241.371C617.774 241.072 617.915 240.823 618.111 240.623C618.307 240.42 618.547 240.269 618.83 240.169C619.114 240.067 619.427 240.015 619.77 240.015C620.006 240.015 620.242 240.043 620.476 240.099C620.71 240.154 620.925 240.246 621.119 240.373C621.312 240.499 621.468 240.671 621.585 240.888C621.704 241.105 621.764 241.377 621.764 241.703V244.988H620.652V244.314H620.614C620.543 244.45 620.444 244.578 620.316 244.698C620.191 244.815 620.032 244.91 619.84 244.982C619.65 245.052 619.428 245.088 619.172 245.088ZM619.473 244.237C619.705 244.237 619.906 244.192 620.077 244.1C620.247 244.006 620.378 243.883 620.47 243.729C620.563 243.576 620.61 243.409 620.61 243.227V242.649C620.574 242.679 620.512 242.706 620.425 242.732C620.34 242.758 620.244 242.78 620.137 242.799C620.031 242.818 619.925 242.835 619.821 242.85C619.717 242.865 619.626 242.878 619.549 242.889C619.377 242.912 619.222 242.95 619.086 243.004C618.949 243.057 618.842 243.132 618.763 243.227C618.684 243.321 618.645 243.443 618.645 243.592C618.645 243.805 618.723 243.966 618.878 244.074C619.034 244.183 619.232 244.237 619.473 244.237ZM626.056 242.924V240.079H627.213V244.988H626.092V244.116H626.04C625.93 244.391 625.747 244.616 625.494 244.79C625.242 244.965 624.932 245.052 624.564 245.052C624.242 245.052 623.958 244.981 623.71 244.838C623.465 244.693 623.274 244.483 623.135 244.209C622.997 243.932 622.927 243.597 622.927 243.205V240.079H624.084V243.026C624.084 243.337 624.17 243.584 624.34 243.768C624.511 243.951 624.734 244.042 625.011 244.042C625.182 244.042 625.347 244.001 625.507 243.918C625.666 243.835 625.797 243.711 625.9 243.547C626.004 243.381 626.056 243.173 626.056 242.924ZM630.225 245.075C629.839 245.075 629.494 244.976 629.189 244.777C628.885 244.579 628.644 244.292 628.467 243.915C628.29 243.537 628.202 243.079 628.202 242.54C628.202 241.995 628.291 241.535 628.47 241.16C628.651 240.782 628.895 240.498 629.202 240.306C629.509 240.112 629.851 240.015 630.228 240.015C630.516 240.015 630.752 240.064 630.938 240.162C631.123 240.258 631.27 240.374 631.379 240.511C631.487 240.645 631.571 240.772 631.631 240.891H631.679V238.443H632.839V244.988H631.701V244.215H631.631C631.571 244.334 631.485 244.461 631.372 244.595C631.259 244.727 631.11 244.84 630.925 244.934C630.739 245.028 630.506 245.075 630.225 245.075ZM630.548 244.126C630.793 244.126 631.001 244.059 631.174 243.927C631.347 243.793 631.478 243.607 631.567 243.368C631.657 243.129 631.701 242.851 631.701 242.534C631.701 242.216 631.657 241.94 631.567 241.706C631.48 241.472 631.35 241.29 631.177 241.16C631.007 241.03 630.797 240.965 630.548 240.965C630.29 240.965 630.075 241.032 629.902 241.166C629.729 241.3 629.599 241.486 629.512 241.722C629.425 241.959 629.381 242.229 629.381 242.534C629.381 242.841 629.425 243.114 629.512 243.355C629.602 243.594 629.733 243.782 629.905 243.921C630.08 244.057 630.294 244.126 630.548 244.126ZM636.245 245.084C635.753 245.084 635.328 244.982 634.97 244.777C634.614 244.571 634.34 244.279 634.149 243.902C633.957 243.523 633.861 243.076 633.861 242.563C633.861 242.058 633.957 241.614 634.149 241.233C634.343 240.85 634.613 240.551 634.96 240.338C635.308 240.123 635.716 240.015 636.185 240.015C636.487 240.015 636.773 240.064 637.041 240.162C637.312 240.258 637.55 240.407 637.757 240.61C637.966 240.812 638.13 241.07 638.249 241.383C638.369 241.694 638.428 242.065 638.428 242.496V242.85H634.404V242.07H637.319C637.317 241.849 637.269 241.652 637.175 241.479C637.082 241.304 636.951 241.167 636.782 241.067C636.616 240.967 636.422 240.917 636.201 240.917C635.964 240.917 635.756 240.974 635.577 241.089C635.398 241.202 635.259 241.351 635.159 241.537C635.061 241.72 635.011 241.921 635.008 242.141V242.822C635.008 243.107 635.061 243.352 635.165 243.557C635.269 243.759 635.415 243.915 635.603 244.023C635.79 244.13 636.01 244.183 636.261 244.183C636.43 244.183 636.582 244.16 636.718 244.113C636.855 244.064 636.973 243.992 637.073 243.899C637.173 243.805 637.249 243.689 637.3 243.55L638.38 243.672C638.312 243.957 638.182 244.206 637.99 244.42C637.801 244.63 637.558 244.795 637.262 244.912C636.965 245.027 636.627 245.084 636.245 245.084Z" fill="#262626"/>
<path d="M647.998 251.353H608.093V254.459H647.998V251.353Z" fill="white"/>
<path d="M635.112 257.477H608.093V260.582H635.112V257.477Z" fill="white"/>
<path d="M647.998 263.601H608.093V266.707H647.998V263.601Z" fill="white"/>
<path d="M647.998 269.732H608.093V272.838H647.998V269.732Z" fill="white"/>
<path d="M647.999 282.182H628.046V299.282H647.999V282.182Z" fill="white"/>
<path d="M626.407 282.182H608.093V299.282H626.407V282.182Z" fill="white"/>
<path d="M628.045 275.856H608.093V278.962H628.045V275.856Z" fill="white"/>
<path d="M508.684 178.097H453.977V248.801H508.684V178.097Z" fill="#F2F6F9"/>
<path d="M461.626 219.076V212.531H462.812V218.082H465.695V219.076H461.626ZM468.085 219.175C467.774 219.175 467.494 219.12 467.245 219.009C466.998 218.896 466.801 218.73 466.657 218.511C466.514 218.291 466.442 218.021 466.442 217.699C466.442 217.422 466.494 217.193 466.596 217.012C466.698 216.831 466.838 216.686 467.015 216.577C467.191 216.468 467.391 216.386 467.612 216.331C467.836 216.273 468.067 216.232 468.306 216.206C468.593 216.176 468.827 216.15 469.006 216.126C469.185 216.101 469.315 216.063 469.396 216.011C469.479 215.958 469.52 215.876 469.52 215.765V215.746C469.52 215.505 469.449 215.319 469.306 215.187C469.163 215.055 468.958 214.989 468.689 214.989C468.406 214.989 468.181 215.05 468.015 215.174C467.851 215.298 467.74 215.444 467.683 215.612L466.602 215.458C466.688 215.16 466.828 214.911 467.024 214.711C467.22 214.508 467.46 214.357 467.743 214.257C468.027 214.154 468.34 214.103 468.683 214.103C468.919 214.103 469.155 214.131 469.389 214.186C469.624 214.242 469.838 214.333 470.032 214.461C470.225 214.587 470.381 214.759 470.498 214.976C470.618 215.193 470.677 215.465 470.677 215.791V219.076H469.565V218.402H469.527C469.456 218.538 469.357 218.666 469.229 218.786C469.104 218.903 468.945 218.998 468.753 219.07C468.564 219.14 468.341 219.175 468.085 219.175ZM468.386 218.325C468.618 218.325 468.819 218.279 468.99 218.188C469.16 218.094 469.291 217.971 469.383 217.817C469.477 217.664 469.523 217.496 469.523 217.315V216.737C469.487 216.767 469.425 216.794 469.338 216.82C469.253 216.846 469.157 216.868 469.05 216.887C468.944 216.906 468.838 216.923 468.734 216.938C468.63 216.953 468.539 216.966 468.462 216.977C468.29 217 468.135 217.038 467.999 217.092C467.863 217.145 467.755 217.219 467.676 217.315C467.597 217.409 467.558 217.531 467.558 217.68C467.558 217.893 467.636 218.054 467.791 218.162C467.947 218.271 468.145 218.325 468.386 218.325ZM471.841 219.076V214.167H472.946V215.001H473.004C473.106 214.72 473.276 214.501 473.512 214.343C473.749 214.183 474.031 214.103 474.359 214.103C474.691 214.103 474.972 214.184 475.2 214.346C475.43 214.506 475.592 214.724 475.685 215.001H475.737C475.845 214.729 476.028 214.511 476.286 214.349C476.546 214.185 476.854 214.103 477.21 214.103C477.662 214.103 478.03 214.246 478.316 214.532C478.601 214.817 478.744 215.234 478.744 215.781V219.076H477.584V215.96C477.584 215.656 477.503 215.433 477.341 215.292C477.179 215.15 476.981 215.078 476.746 215.078C476.467 215.078 476.249 215.165 476.091 215.34C475.936 215.513 475.858 215.738 475.858 216.015V219.076H474.723V215.912C474.723 215.659 474.647 215.456 474.493 215.305C474.342 215.154 474.144 215.078 473.899 215.078C473.733 215.078 473.581 215.121 473.445 215.206C473.309 215.289 473.2 215.407 473.119 215.561C473.038 215.712 472.998 215.889 472.998 216.091V219.076H471.841ZM481.739 219.163C481.354 219.163 481.009 219.064 480.704 218.865C480.399 218.667 480.158 218.38 479.982 218.002C479.805 217.625 479.716 217.167 479.716 216.628C479.716 216.083 479.806 215.623 479.985 215.248C480.166 214.87 480.41 214.586 480.717 214.394C481.024 214.2 481.366 214.103 481.743 214.103C482.03 214.103 482.267 214.152 482.452 214.25C482.638 214.346 482.785 214.462 482.893 214.599C483.002 214.733 483.086 214.86 483.146 214.979H483.194V212.531H484.354V219.076H483.216V218.303H483.146C483.086 218.422 483 218.549 482.887 218.683C482.774 218.815 482.625 218.928 482.439 219.022C482.254 219.116 482.021 219.163 481.739 219.163ZM482.062 218.213C482.307 218.213 482.516 218.147 482.689 218.015C482.861 217.881 482.992 217.695 483.082 217.456C483.171 217.217 483.216 216.939 483.216 216.622C483.216 216.304 483.171 216.028 483.082 215.794C482.994 215.56 482.864 215.377 482.692 215.248C482.521 215.118 482.312 215.053 482.062 215.053C481.804 215.053 481.589 215.12 481.417 215.254C481.244 215.388 481.114 215.574 481.027 215.81C480.939 216.047 480.896 216.317 480.896 216.622C480.896 216.929 480.939 217.202 481.027 217.443C481.116 217.682 481.247 217.87 481.42 218.009C481.595 218.145 481.809 218.213 482.062 218.213ZM486.999 219.175C486.688 219.175 486.408 219.12 486.159 219.009C485.912 218.896 485.716 218.73 485.571 218.511C485.428 218.291 485.357 218.021 485.357 217.699C485.357 217.422 485.408 217.193 485.51 217.012C485.612 216.831 485.752 216.686 485.929 216.577C486.105 216.468 486.305 216.386 486.526 216.331C486.75 216.273 486.981 216.232 487.22 216.206C487.507 216.176 487.741 216.15 487.92 216.126C488.099 216.101 488.229 216.063 488.31 216.011C488.393 215.958 488.434 215.876 488.434 215.765V215.746C488.434 215.505 488.363 215.319 488.22 215.187C488.077 215.055 487.872 214.989 487.603 214.989C487.32 214.989 487.095 215.05 486.929 215.174C486.765 215.298 486.654 215.444 486.597 215.612L485.516 215.458C485.602 215.16 485.742 214.911 485.938 214.711C486.134 214.508 486.374 214.357 486.657 214.257C486.941 214.154 487.254 214.103 487.597 214.103C487.833 214.103 488.069 214.131 488.303 214.186C488.538 214.242 488.752 214.333 488.946 214.461C489.14 214.587 489.295 214.759 489.412 214.976C489.532 215.193 489.591 215.465 489.591 215.791V219.076H488.479V218.402H488.441C488.37 218.538 488.271 218.666 488.143 218.786C488.018 218.903 487.859 218.998 487.667 219.07C487.478 219.14 487.255 219.175 486.999 219.175ZM487.3 218.325C487.532 218.325 487.733 218.279 487.904 218.188C488.074 218.094 488.205 217.971 488.297 217.817C488.391 217.664 488.438 217.496 488.438 217.315V216.737C488.401 216.767 488.339 216.794 488.252 216.82C488.167 216.846 488.071 216.868 487.964 216.887C487.858 216.906 487.752 216.923 487.648 216.938C487.544 216.953 487.453 216.966 487.376 216.977C487.204 217 487.049 217.038 486.913 217.092C486.777 217.145 486.669 217.219 486.59 217.315C486.511 217.409 486.472 217.531 486.472 217.68C486.472 217.893 486.55 218.054 486.705 218.162C486.861 218.271 487.059 218.325 487.3 218.325Z" fill="#262626"/>
<path d="M501.284 203.819H461.378V206.924H501.284V203.819Z" fill="white"/>
<path d="M501.282 187.102H480.893V190.208H501.282V187.102Z" fill="white"/>
<path d="M494.188 193.23H480.893V196.336H494.188V193.23Z" fill="white"/>
<path d="M501.282 227.118H480.893V230.224H501.282V227.118Z" fill="white"/>
<path d="M494.188 233.246H480.893V236.351H494.188V233.246Z" fill="white"/>
<path d="M479.049 224.497H462.021V240.395H479.049V224.497Z" fill="white"/>
<path d="M467.004 194.634C469.622 194.634 471.744 192.513 471.744 189.895C471.744 187.277 469.622 185.156 467.004 185.156C464.387 185.156 462.265 187.277 462.265 189.895C462.265 192.513 464.387 194.634 467.004 194.634Z" stroke="#E97545" stroke-width="7.40377" stroke-miterlimit="10"/>
<path d="M470.155 193.434L477.767 200.59" stroke="#E97545" stroke-width="7.40377" stroke-miterlimit="10"/>
<path d="M443.741 363.198H345.296V419.542H443.741V363.198Z" fill="#F2F6F9"/>
<path d="M367.587 399.535H361.456V410.317H367.587V399.535Z" fill="#E97545"/>
<path d="M378.389 393.165H372.259V410.319H378.389V393.165Z" fill="#8ECC36"/>
<path d="M389.192 388.751H383.062V410.315H389.192V388.751Z" fill="#E97545"/>
<path d="M399.995 397.717H393.864V410.32H399.995V397.717Z" fill="#8ECC36"/>
<path d="M410.798 386.911H404.668V410.318H410.798V386.911Z" fill="#E97545"/>
<path d="M421.601 378.166H415.471V410.319H421.601V378.166Z" fill="#8ECC36"/>
<path d="M354.793 394.242C354.473 394.629 387.128 376.274 387.128 376.274L394.495 386.911L421.064 369.872" stroke="#8ECC36" stroke-width="5.55282" stroke-miterlimit="10"/>
<path d="M370.908 369.872H352.553V372.219H370.908V369.872Z" fill="#E6F5FF"/>
<path d="M364.078 374.94H352.553V377.288H364.078V374.94Z" fill="#E6F5FF"/>
<path d="M468.516 379.795H434.221V382.594H468.516V379.795Z" fill="#E97545"/>
<path d="M457.799 384.834H434.221V387.633H457.799V384.834Z" fill="#E97545"/>
<path d="M462.43 389.874H434.221V392.673H462.43V389.874Z" fill="#E97545"/>
<path d="M450.627 394.913H434.221V397.712H450.627V394.913Z" fill="#E97545"/>
<path d="M440.389 242.807H407.2V246.847H440.389V242.807Z" fill="#E97545"/>
<path d="M440.389 250.081H390.901V254.121H440.389V250.081Z" fill="#E97545"/>
<path d="M424.942 257.355H392.534V261.394H424.942V257.355Z" fill="#E97545"/>
<path d="M414.575 264.628H390.901V268.668H414.575V264.628Z" fill="#E97545"/>
<path d="M712.891 299.588H671.134V302.997H712.891V299.588Z" fill="#BBE2EF"/>
<path d="M696.279 305.727H671.134V309.135H696.279V305.727Z" fill="#BBE2EF"/>
<path d="M712.891 311.862H671.134V315.27H712.891V311.862Z" fill="#BBE2EF"/>
<path d="M691.11 318H671.134V321.409H691.11V318Z" fill="#BBE2EF"/>
</g>
</g>
<g filter="url(#filter1_d_84_730)">
<rect x="100.75" y="175.426" width="313.532" height="293.999" rx="24" fill="#262626"/>
<rect width="278" height="156" transform="translate(116 244)" fill="#2D2D2D"/>
<path d="M394 306.572V297.65C394 295.948 393.325 294.317 392.124 293.114C390.923 291.91 389.295 291.235 387.596 291.235H364.993C364.152 291.235 363.32 291.069 362.543 290.746C361.766 290.424 361.06 289.951 360.465 289.356C359.871 288.76 359.399 288.053 359.077 287.274C358.755 286.496 358.59 285.662 358.59 284.819V275.897C358.59 275.054 358.755 274.22 359.077 273.442C359.399 272.663 359.871 271.956 360.465 271.361C361.06 270.765 361.766 270.292 362.543 269.97C363.32 269.647 364.152 269.482 364.993 269.482H365.707C367.405 269.482 369.034 268.806 370.235 267.603C371.436 266.399 372.111 264.768 372.111 263.066V254.144C372.111 252.442 371.436 250.811 370.235 249.607C369.034 248.404 367.405 247.728 365.707 247.728H159.14C157.442 247.728 155.813 248.404 154.612 249.607C153.411 250.811 152.737 252.442 152.737 254.144V263.066C152.737 264.768 153.411 266.399 154.612 267.603C155.813 268.806 157.442 269.482 159.14 269.482C160.839 269.482 162.468 270.157 163.669 271.361C164.869 272.564 165.544 274.195 165.544 275.897V284.819C165.544 286.521 164.869 288.153 163.669 289.356C162.468 290.559 160.839 291.235 159.14 291.235H134.377C132.678 291.235 131.05 291.91 129.849 293.114C128.648 294.317 127.973 295.948 127.973 297.65V306.572C127.973 308.274 128.648 309.906 129.849 311.109C131.05 312.312 132.678 312.988 134.377 312.988H144.094C144.935 312.988 145.767 313.154 146.544 313.476C147.321 313.798 148.027 314.271 148.622 314.867C149.216 315.462 149.688 316.17 150.01 316.948C150.332 317.726 150.497 318.56 150.497 319.403V328.326C150.497 329.168 150.332 330.002 150.01 330.781C149.688 331.559 149.216 332.266 148.622 332.862C148.027 333.458 147.321 333.93 146.544 334.252C145.767 334.575 144.935 334.741 144.094 334.741H144.07C142.372 334.741 140.743 335.417 139.542 336.62C138.341 337.823 137.666 339.455 137.666 341.156V350.079C137.666 350.921 137.832 351.755 138.154 352.534C138.476 353.312 138.947 354.019 139.542 354.615C140.137 355.211 140.843 355.683 141.62 356.005C142.396 356.328 143.229 356.494 144.07 356.494H145.476C147.174 356.494 148.803 357.17 150.004 358.373C151.205 359.576 151.88 361.208 151.88 362.909V371.832C151.88 373.533 151.205 375.165 150.004 376.368C148.803 377.571 147.174 378.247 145.476 378.247H122.404C120.705 378.247 119.077 378.923 117.876 380.126C116.675 381.329 116 382.961 116 384.662V393.585C116 394.427 116.166 395.261 116.487 396.04C116.809 396.818 117.281 397.525 117.876 398.121C118.47 398.717 119.176 399.189 119.953 399.512C120.73 399.834 121.563 400 122.404 400H369.145C369.986 400 370.819 399.834 371.596 399.512C372.372 399.189 373.078 398.717 373.673 398.121C374.268 397.525 374.739 396.818 375.061 396.04C375.383 395.261 375.549 394.427 375.549 393.585V384.662C375.549 383.82 375.383 382.986 375.061 382.207C374.739 381.429 374.268 380.722 373.673 380.126C373.078 379.53 372.372 379.058 371.596 378.735C370.819 378.413 369.986 378.247 369.145 378.247H363.593C361.894 378.247 360.265 377.571 359.064 376.368C357.864 375.165 357.189 373.533 357.189 371.832V362.909C357.189 361.208 357.864 359.576 359.064 358.373C360.265 357.17 361.894 356.494 363.593 356.494H376.684C377.525 356.494 378.358 356.328 379.135 356.005C379.912 355.683 380.618 355.211 381.213 354.615C381.807 354.019 382.279 353.312 382.601 352.534C382.923 351.755 383.088 350.921 383.088 350.079V341.156C383.088 339.455 382.414 337.823 381.213 336.62C380.012 335.417 378.383 334.741 376.684 334.741H372.713C371.872 334.741 371.039 334.575 370.262 334.252C369.485 333.93 368.78 333.458 368.185 332.862C367.59 332.266 367.119 331.559 366.797 330.781C366.475 330.002 366.309 329.168 366.309 328.326V319.403C366.309 318.56 366.475 317.726 366.797 316.948C367.119 316.17 367.59 315.462 368.185 314.867C368.78 314.271 369.485 313.798 370.262 313.476C371.039 313.154 371.872 312.988 372.713 312.988H387.596C389.295 312.988 390.923 312.312 392.124 311.109C393.325 309.906 394 308.274 394 306.572Z" fill="#D9EBFF"/>
<path d="M319.252 312.162H335.067" stroke="#4D76B8" stroke-width="3" stroke-miterlimit="10" stroke-linecap="round"/>
<path d="M319.252 316.73H335.067" stroke="#4D76B8" stroke-width="3" stroke-miterlimit="10" stroke-linecap="round"/>
<path d="M319.252 321.296H335.067" stroke="#4D76B8" stroke-width="3" stroke-miterlimit="10" stroke-linecap="round"/>
<path d="M292.946 273.397H166.609C163.094 273.397 160.245 276.251 160.245 279.773V375.084C160.245 378.606 163.094 381.46 166.609 381.46H292.946C296.462 381.46 299.311 378.606 299.311 375.084V279.773C299.311 276.251 296.462 273.397 292.946 273.397Z" fill="#4D76B8"/>
<path d="M284.681 283.549H174.875C172.442 283.549 170.47 285.525 170.47 287.962V366.894C170.47 369.331 172.442 371.307 174.875 371.307H284.681C287.114 371.307 289.086 369.331 289.086 366.894V287.962C289.086 285.525 287.114 283.549 284.681 283.549Z" fill="#A9C0FF"/>
<path d="M187.545 296.321H213.494C214.882 296.321 216.01 297.449 216.01 298.842V316.461C216.01 317.854 214.882 318.982 213.494 318.982H187.545C186.156 318.982 185.029 317.854 185.029 316.461V298.842C185.029 297.449 186.156 296.321 187.545 296.321Z" fill="white" stroke="white"/>
<path d="M247.912 336.934H273.861C275.25 336.934 276.377 338.062 276.377 339.455V357.073C276.377 358.467 275.25 359.595 273.861 359.595H247.912C246.524 359.595 245.396 358.467 245.396 357.073V339.455C245.396 338.062 246.524 336.934 247.912 336.934Z" fill="white" stroke="white"/>
<path d="M248.373 320.717V326.083C248.373 326.654 248.261 327.219 248.043 327.746C247.825 328.273 247.505 328.752 247.102 329.156C246.699 329.559 246.221 329.879 245.695 330.098C245.169 330.316 244.605 330.429 244.035 330.429H196.485C195.334 330.429 194.231 330.886 193.418 331.701C192.604 332.516 192.147 333.622 192.147 334.774C192.147 335.927 192.604 337.032 193.418 337.847C194.231 338.662 195.334 339.12 196.485 339.12H217.773C218.923 339.12 220.027 339.578 220.84 340.393C221.654 341.208 222.111 342.313 222.111 343.466V343.917C222.111 344.488 222.223 345.053 222.441 345.58C222.659 346.107 222.978 346.586 223.381 346.99C223.784 347.393 224.262 347.713 224.788 347.932C225.315 348.15 225.879 348.263 226.448 348.263H244.897" stroke="white" stroke-width="2" stroke-miterlimit="10"/>
<path d="M299.311 328.722H310.807C311.957 328.722 313.061 329.18 313.874 329.995C314.688 330.81 315.145 331.915 315.145 333.068V333.519C315.145 334.089 315.257 334.655 315.475 335.182C315.693 335.709 316.012 336.188 316.415 336.592C316.818 336.995 317.296 337.315 317.823 337.534C318.349 337.752 318.913 337.864 319.483 337.864H328.139" stroke="#4D76B8" stroke-width="2" stroke-miterlimit="10"/>
<path d="M216.51 306.238H244.035C245.186 306.238 246.289 306.696 247.102 307.511C247.916 308.326 248.373 309.431 248.373 310.584V314.537" stroke="white" stroke-width="2" stroke-miterlimit="10"/>
<path d="M244.896 314.538H251.722" stroke="white" stroke-width="2" stroke-miterlimit="10"/>
<path d="M244.896 320.717H251.722" stroke="white" stroke-width="2" stroke-miterlimit="10"/>
<path d="M334.732 339.886H339.615" stroke="#4D76B8" stroke-width="4" stroke-miterlimit="10"/>
<path d="M334.732 334.981H339.615" stroke="#4D76B8" stroke-width="4" stroke-miterlimit="10"/>
<path d="M371.4 318.128H344.217C343.677 318.128 343.238 318.568 343.238 319.109V354.935C343.238 355.476 343.677 355.915 344.217 355.915H371.4C371.941 355.915 372.379 355.476 372.379 354.935V319.109C372.379 318.568 371.941 318.128 371.4 318.128Z" fill="#A9C0FF"/>
<path d="M357.338 342.26C360.648 342.26 363.331 339.572 363.331 336.256C363.331 332.941 360.648 330.253 357.338 330.253C354.029 330.253 351.346 332.941 351.346 336.256C351.346 339.572 354.029 342.26 357.338 342.26Z" fill="#A9C0FF"/>
<path d="M360.115 330.939C361.066 331.98 361.619 333.324 361.679 334.734C361.738 336.143 361.3 337.529 360.44 338.647C359.58 339.765 358.355 340.544 356.979 340.846C355.603 341.148 354.165 340.954 352.917 340.299C353.506 340.946 354.23 341.457 355.038 341.794C355.845 342.131 356.716 342.287 357.59 342.251C358.464 342.215 359.32 341.987 360.097 341.584C360.874 341.181 361.553 340.612 362.087 339.918C362.621 339.224 362.996 338.421 363.187 337.565C363.378 336.71 363.379 335.823 363.191 334.968C363.003 334.112 362.631 333.307 362.099 332.611C361.568 331.915 360.89 331.344 360.115 330.939Z" fill="#4D76B8"/>
<path d="M254.019 399.999H205.537C205.341 399.999 205.149 399.94 204.987 399.83C204.825 399.72 204.699 399.563 204.627 399.381C204.555 399.198 204.538 398.998 204.581 398.806C204.623 398.615 204.722 398.44 204.864 398.305L206.141 397.096C208.266 395.085 209.958 392.661 211.114 389.972C212.271 387.283 212.867 384.386 212.867 381.459H246.689C246.689 384.386 247.285 387.283 248.442 389.972C249.598 392.661 251.29 395.085 253.414 397.096L254.691 398.305C254.834 398.44 254.933 398.615 254.975 398.806C255.017 398.998 255.001 399.198 254.929 399.381C254.856 399.563 254.731 399.72 254.569 399.83C254.406 399.94 254.215 399.999 254.019 399.999Z" fill="#4D76B8"/>
<path d="M332.682 331.9H334.732V342.966H332.682C331.218 342.966 329.813 342.383 328.777 341.345C327.742 340.308 327.16 338.9 327.16 337.433C327.16 335.966 327.742 334.558 328.777 333.521C329.813 332.483 331.218 331.9 332.682 331.9Z" fill="#4D76B8"/>
<path d="M359.823 337.559C360.54 337.559 361.123 336.976 361.123 336.257C361.123 335.537 360.54 334.954 359.823 334.954C359.105 334.954 358.522 335.537 358.522 336.257C358.522 336.976 359.105 337.559 359.823 337.559Z" fill="#DBE8EC"/>
<path d="M354.855 337.559C355.573 337.559 356.155 336.976 356.155 336.257C356.155 335.537 355.573 334.954 354.855 334.954C354.137 334.954 353.555 335.537 353.555 336.257C353.555 336.976 354.137 337.559 354.855 337.559Z" fill="#DBE8EC"/>
<path d="M124.478 374.624H140.293" stroke="#4D76B8" stroke-width="3" stroke-miterlimit="10" stroke-linecap="round"/>
<path d="M124.478 379.19H140.293" stroke="#4D76B8" stroke-width="3" stroke-miterlimit="10" stroke-linecap="round"/>
<path d="M124.478 383.758H140.293" stroke="#4D76B8" stroke-width="3" stroke-miterlimit="10" stroke-linecap="round"/>
<path d="M247.092 254.283H262.908" stroke="#4D76B8" stroke-width="3" stroke-miterlimit="10" stroke-linecap="round"/>
<path d="M247.092 258.851H262.908" stroke="#4D76B8" stroke-width="3" stroke-miterlimit="10" stroke-linecap="round"/>
<path d="M247.092 263.416H262.908" stroke="#4D76B8" stroke-width="3" stroke-miterlimit="10" stroke-linecap="round"/>
<path d="M148.338 272.684C152.78 272.684 156.381 269.077 156.381 264.626C156.381 260.176 152.78 256.569 148.338 256.569C143.896 256.569 140.295 260.176 140.295 264.626C140.295 269.077 143.896 272.684 148.338 272.684Z" fill="#4D76B8"/>
<path d="M148.665 252.394C150.978 252.394 152.854 250.515 152.854 248.197C152.854 245.879 150.978 244 148.665 244C146.351 244 144.475 245.879 144.475 248.197C144.475 250.515 146.351 252.394 148.665 252.394Z" fill="#4D76B8"/>
<path d="M176.569 254.283C178.572 254.283 180.195 252.656 180.195 250.65C180.195 248.644 178.572 247.018 176.569 247.018C174.567 247.018 172.943 248.644 172.943 250.65C172.943 252.656 174.567 254.283 176.569 254.283Z" fill="#4D76B8"/>
<path d="M163.378 249.541C164.712 249.541 165.794 248.457 165.794 247.12C165.794 245.783 164.712 244.699 163.378 244.699C162.043 244.699 160.961 245.783 160.961 247.12C160.961 248.457 162.043 249.541 163.378 249.541Z" fill="#4D76B8"/>
<path d="M166.186 266.138C169.385 266.138 171.979 263.539 171.979 260.334C171.979 257.129 169.385 254.53 166.186 254.53C162.986 254.53 160.393 257.129 160.393 260.334C160.393 263.539 162.986 266.138 166.186 266.138Z" fill="#4D76B8"/>
<path d="M348.989 295.499C353.432 295.499 357.033 291.892 357.033 287.442C357.033 282.991 353.432 279.384 348.989 279.384C344.547 279.384 340.946 282.991 340.946 287.442C340.946 291.892 344.547 295.499 348.989 295.499Z" fill="#4D76B8"/>
<path d="M331.965 295.611C334.279 295.611 336.155 293.732 336.155 291.414C336.155 289.096 334.279 287.216 331.965 287.216C329.652 287.216 327.776 289.096 327.776 291.414C327.776 293.732 329.652 295.611 331.965 295.611Z" fill="#4D76B8"/>
<path d="M331.965 280.226C335.165 280.226 337.758 277.627 337.758 274.422C337.758 271.217 335.165 268.618 331.965 268.618C328.766 268.618 326.172 271.217 326.172 274.422C326.172 277.627 328.766 280.226 331.965 280.226Z" fill="#4D76B8"/>
<path d="M351.346 395.438C355.788 395.438 359.389 391.83 359.389 387.38C359.389 382.93 355.788 379.322 351.346 379.322C346.904 379.322 343.303 382.93 343.303 387.38C343.303 391.83 346.904 395.438 351.346 395.438Z" fill="#4D76B8"/>
<path d="M335.391 399.07C337.394 399.07 339.017 397.444 339.017 395.437C339.017 393.431 337.394 391.805 335.391 391.805C333.389 391.805 331.765 393.431 331.765 395.437C331.765 397.444 333.389 399.07 335.391 399.07Z" fill="#4D76B8"/>
<path d="M330.946 387.379C334.146 387.379 336.739 384.781 336.739 381.576C336.739 378.37 334.146 375.772 330.946 375.772C327.747 375.772 325.153 378.37 325.153 381.576C325.153 384.781 327.747 387.379 330.946 387.379Z" fill="#4D76B8"/>
<path d="M299.311 293.475C308.965 293.475 316.791 285.635 316.791 275.963C316.791 266.292 308.965 258.452 299.311 258.452C289.658 258.452 281.832 266.292 281.832 275.963C281.832 285.635 289.658 293.475 299.311 293.475Z" fill="white"/>
<path d="M300.222 266.208C300.222 265.704 299.814 265.296 299.311 265.296C298.809 265.296 298.401 265.704 298.401 266.208V280.582C298.401 281.085 298.809 281.494 299.311 281.494C299.814 281.494 300.222 281.085 300.222 280.582V266.208Z" fill="#4D76B8"/>
<path d="M299.311 287.443C301.508 287.443 301.512 284.022 299.311 284.022C297.114 284.022 297.111 287.443 299.311 287.443Z" fill="#4D76B8"/>
</g>
<defs>
<filter id="filter0_d_84_730" x="152.953" y="0.58" width="730.297" height="638.853" filterUnits="userSpaceOnUse" color-interpolation-filters="sRGB">
<feFlood flood-opacity="0" result="BackgroundImageFix"/>
<feColorMatrix in="SourceAlpha" type="matrix" values="0 0 0 0 0 0 0 0 0 0 0 0 0 0 0 0 0 0 127 0" result="hardAlpha"/>
<feOffset dy="-2.42"/>
<feGaussianBlur stdDeviation="50"/>
<feColorMatrix type="matrix" values="0 0 0 0 0 0 0 0 0 0 0 0 0 0 0 0 0 0 0.04 0"/>
<feBlend mode="normal" in2="BackgroundImageFix" result="effect1_dropShadow_84_730"/>
<feBlend mode="normal" in="SourceGraphic" in2="effect1_dropShadow_84_730" result="shape"/>
</filter>
<filter id="filter1_d_84_730" x="0.75" y="99.0058" width="513.532" height="493.999" filterUnits="userSpaceOnUse" color-interpolation-filters="sRGB">
<feFlood flood-opacity="0" result="BackgroundImageFix"/>
<feColorMatrix in="SourceAlpha" type="matrix" values="0 0 0 0 0 0 0 0 0 0 0 0 0 0 0 0 0 0 127 0" result="hardAlpha"/>
<feOffset dy="23.58"/>
<feGaussianBlur stdDeviation="50"/>
<feColorMatrix type="matrix" values="0 0 0 0 0 0 0 0 0 0 0 0 0 0 0 0 0 0 0.06 0"/>
<feBlend mode="normal" in2="BackgroundImageFix" result="effect1_dropShadow_84_730"/>
<feBlend mode="normal" in="SourceGraphic" in2="effect1_dropShadow_84_730" result="shape"/>
</filter>
<clipPath id="clip0_84_730">
<rect x="252.953" y="103" width="530.297" height="438.853" rx="24" fill="white"/>
</clipPath>
</defs>
</svg>
