<svg width="884" height="640" viewBox="0 0 884 640" fill="none" xmlns="http://www.w3.org/2000/svg">
<g filter="url(#filter0_d_3_721)">
<g clip-path="url(#clip0_3_721)">
<rect x="252.953" y="103" width="530.297" height="438.853" rx="24" fill="white"/>
<rect x="213.25" y="95" width="696" height="449" fill="white"/>
<g clip-path="url(#clip1_3_721)">
<path opacity="0.1" d="M428.13 251.624C517.141 231.308 526.672 181.688 584.198 181.714C641.724 181.739 648.208 231.775 701.411 214.084C754.615 196.392 804.016 209.849 810.63 286.566C817.245 363.282 790.344 424.437 646.464 396.769C502.583 369.102 522.922 440.467 458.208 431.166C393.495 421.891 339.12 271.939 428.13 251.624Z" fill="#8E8E8E"/>
<path opacity="0.1" d="M591.516 460.522C653.259 460.522 703.313 454.113 703.313 446.207C703.313 438.302 653.259 431.893 591.516 431.893C529.772 431.893 479.719 438.302 479.719 446.207C479.719 454.113 529.772 460.522 591.516 460.522Z" fill="#34C3EA"/>
<path d="M575.552 345.228H607.479V441.975H575.552V345.228Z" fill="#0B4870"/>
<path d="M456.151 401.212H726.854C728.234 401.212 729.354 400.095 729.354 398.718V209.693C729.354 208.316 728.234 207.199 726.854 207.199H456.151C454.771 207.199 453.651 208.316 453.651 209.693V398.744C453.651 400.121 454.771 401.212 456.151 401.212Z" fill="#262626"/>
<path d="M582.609 384.74C582.609 389.65 586.594 393.625 591.516 393.625C596.438 393.625 600.422 389.65 600.422 384.74C600.422 379.83 596.438 375.881 591.516 375.881C586.594 375.855 582.609 379.83 582.609 384.74Z" fill="#163C47"/>
<path d="M519.693 430.463H663.339V446.206H519.693V430.463Z" fill="#262626"/>
<path d="M719.12 365.943L463.39 365.943V216.693L719.12 216.693V365.943Z" fill="#CCE9FF"/>
<path d="M474.536 227.802H707.557V242.09H474.536V227.802Z" fill="#2A94F4"/>
<path d="M474.536 242.088H707.557V330.21H474.536V242.088Z" fill="#F7F7F7"/>
<path d="M467.792 294.436H575.448V354.994H467.792V294.436Z" fill="#31A1F4"/>
<path d="M467.792 288.436H577.01V294.438H467.792V288.436Z" fill="#D3D3D3"/>
<path d="M517.167 302.333H559.25V303.061H517.167V302.333ZM472.662 299.632H568.365V300.359H472.662V299.632ZM472.662 302.333H514.745V303.061H472.662V302.333ZM561.281 302.333H568.365V303.061H561.281V302.333Z" fill="white"/>
<path d="M523.839 309.18H481.755V308.452H523.839V309.18Z" fill="white"/>
<path d="M568.345 311.898H472.642V311.171H568.345V311.898Z" fill="white"/>
<path d="M568.348 309.18H526.265V308.452H568.348V309.18Z" fill="white"/>
<path d="M479.716 309.18H472.633V308.452H479.716V309.18Z" fill="white"/>
<path d="M472.662 305.038H568.365V305.765H472.662V305.038ZM517.167 317.43H559.25V318.157H517.167V317.43ZM472.662 314.728H568.365V315.456H472.662V314.728ZM472.662 317.43H514.745V318.157H472.662V317.43ZM561.281 317.43H568.365V318.157H561.281V317.43Z" fill="white"/>
<path d="M523.839 324.295H481.755V323.568H523.839V324.295Z" fill="white"/>
<path d="M568.345 326.99H472.642V326.262H568.345V326.99Z" fill="white"/>
<path d="M568.348 324.295H526.265V323.568H568.348V324.295Z" fill="white"/>
<path d="M479.716 324.295H472.633V323.568H479.716V324.295Z" fill="white"/>
<path d="M472.662 320.132H568.365V320.86H472.662V320.132Z" fill="white"/>
<path d="M573.026 294.436H576.984V354.994H573.026V294.436Z" fill="#ADCFE0"/>
<path d="M585.005 267.549H707.557V281.838H585.005V267.549Z" fill="#31A1F4"/>
<path d="M585.005 281.836H707.557V354.967H585.005V281.836Z" fill="#F7F7F7"/>
<path d="M576.255 295.293H573.755C573.339 295.293 573.026 295.631 573.026 296.021V298.904C573.026 299.32 573.365 299.632 573.755 299.632H576.255C576.672 299.632 576.984 299.294 576.984 298.904V296.021C577.011 295.631 576.672 295.293 576.255 295.293Z" fill="#E9F8FF"/>
<path d="M620.368 374.079L630.345 361.054L664.094 386.781L654.116 399.806L620.368 374.079Z" fill="#E97545"/>
<path opacity="0.08" d="M620.368 374.079L630.345 361.054L664.094 386.781L654.116 399.806L620.368 374.079Z" fill="black"/>
<path d="M718.391 433.425L713.469 439.842C710.292 443.998 704.328 444.804 700.161 441.608L646.646 400.821L663.104 379.362L716.62 420.149C720.786 423.319 721.568 429.268 718.391 433.425Z" fill="#E97545"/>
<path d="M564.406 400.382C609.869 400.382 646.724 363.615 646.724 318.261C646.724 272.908 609.869 236.141 564.406 236.141C518.944 236.141 482.089 272.908 482.089 318.261C482.089 363.615 518.944 400.382 564.406 400.382Z" fill="#E97545"/>
<mask id="mask0_3_721" style="mask-type:luminance" maskUnits="userSpaceOnUse" x="496" y="250" width="137" height="137">
<path d="M564.406 386.641C601.988 386.641 632.453 356.249 632.453 318.758C632.453 281.267 601.988 250.874 564.406 250.874C526.825 250.874 496.359 281.267 496.359 318.758C496.359 356.249 526.825 386.641 564.406 386.641Z" fill="white"/>
</mask>
<g mask="url(#mask0_3_721)">
<path d="M685.953 413.365L408.687 413.365V236.238L685.953 236.238V413.365Z" fill="#CCE9FF"/>
<path d="M420.76 234.949H673.391V349.855H420.76V234.949Z" fill="#F7F7F7"/>
<path d="M416.463 286.257H607.765V393.837H416.463V286.257Z" fill="#2A94F4"/>
<path d="M416.463 275.631H610.526V286.282H416.463V275.631Z" fill="#D3D3D3"/>
<path d="M504.224 300.312H578.99V301.611H504.224V300.312ZM425.109 295.506H595.161V296.805H425.109V295.506ZM425.109 300.312H499.875V301.611H425.109V300.312ZM582.609 300.312H595.188V301.611H582.609V300.312Z" fill="white"/>
<path d="M516.073 312.491H441.308V311.192H516.073V312.491Z" fill="white"/>
<path d="M595.182 317.321H425.13V316.022H595.182V317.321Z" fill="white"/>
<path d="M595.182 312.491H520.417V311.192H595.182V312.491Z" fill="white"/>
<path d="M425.109 305.145H595.161V306.444H425.109V305.145ZM504.224 327.15H578.99V328.449H504.224V327.15ZM425.109 322.318H595.161V323.616H425.109V322.318ZM425.109 327.15H499.875V328.449H425.109V327.15ZM582.609 327.15H595.188V328.449H582.609V327.15Z" fill="white"/>
<path d="M516.073 339.318H441.308V338.019H516.073V339.318Z" fill="white"/>
<path d="M595.182 344.148H425.13V342.849H595.182V344.148Z" fill="white"/>
<path d="M595.182 339.318H520.417V338.019H595.182V339.318Z" fill="white"/>
<path d="M425.109 331.955H595.161V333.254H425.109V331.955Z" fill="white"/>
<path d="M603.495 286.257H610.552V393.837H603.495V286.257Z" fill="#CCE9FF"/>
<path d="M609.797 287.792H604.198C603.781 287.792 603.469 288.13 603.469 288.519V294.754C603.469 295.17 603.807 295.482 604.198 295.482H609.797C610.214 295.482 610.526 295.144 610.526 294.754V288.519C610.526 288.13 610.214 287.792 609.797 287.792Z" fill="#F7F7F7"/>
</g>
</g>
</g>
</g>
<g filter="url(#filter1_d_3_721)">
<rect x="100.75" y="175.426" width="313.532" height="293.999" rx="24" fill="white"/>
<path d="M230.042 415.986C283.058 415.986 326.035 373.008 326.035 319.993C326.035 266.978 283.058 224 230.042 224C177.027 224 134.049 266.978 134.049 319.993C134.049 373.008 177.027 415.986 230.042 415.986Z" fill="#D9EBFF"/>
<path d="M254.833 387.576H233.339V409.07H254.833V387.576Z" fill="#A9C0FF"/>
<path d="M414 415.752H118V419.928H414V415.752Z" fill="#456BA3"/>
<path d="M233.339 407.678V388.968C233.339 388.599 233.192 388.245 232.931 387.984C232.67 387.723 232.316 387.576 231.947 387.576H228.049C227.68 387.576 227.326 387.723 227.065 387.984C226.804 388.245 226.657 388.599 226.657 388.968V414.36C226.657 414.729 226.804 415.083 227.065 415.344C227.326 415.605 227.68 415.752 228.049 415.752H253.441C253.81 415.752 254.164 415.605 254.425 415.344C254.686 415.083 254.833 414.729 254.833 414.36V410.462C254.833 410.093 254.686 409.739 254.425 409.478C254.164 409.217 253.81 409.07 253.441 409.07H234.731C234.548 409.07 234.367 409.034 234.198 408.964C234.029 408.894 233.876 408.792 233.746 408.662C233.617 408.533 233.515 408.38 233.445 408.211C233.375 408.042 233.339 407.861 233.339 407.678Z" fill="#6299E8"/>
<path d="M247.427 409.071V415.753H267.529C267.898 415.753 268.252 415.607 268.513 415.345C268.774 415.084 268.921 414.73 268.921 414.361V410.463C268.921 410.094 268.774 409.74 268.513 409.479C268.252 409.218 267.898 409.071 267.529 409.071H247.427Z" fill="#C2D5FF"/>
<path d="M147.456 334.744H128.156V335.672H147.456V334.744Z" fill="#A9C0FF"/>
<path d="M146.754 329.052H127.454V329.98H146.754V329.052Z" fill="#A9C0FF"/>
<path d="M148.124 340.93H128.823V341.858H148.124V340.93Z" fill="#A9C0FF"/>
<path d="M294.655 259.903H275.354V260.831H294.655V259.903Z" fill="#A9C0FF"/>
<path d="M293.953 254.211H274.653V255.139H293.953V254.211Z" fill="#A9C0FF"/>
<path d="M295.323 266.088H276.022V267.016H295.323V266.088Z" fill="#A9C0FF"/>
<path d="M294.63 302.726H176.587C175.049 302.726 173.803 303.973 173.803 305.51V389.432C173.803 390.97 175.049 392.216 176.587 392.216H294.63C296.168 392.216 297.414 390.97 297.414 389.432V305.51C297.414 303.973 296.168 302.726 294.63 302.726Z" fill="#6299E8"/>
<path d="M294.631 392.914H176.587C175.664 392.913 174.78 392.546 174.127 391.893C173.475 391.241 173.108 390.356 173.107 389.434V305.512C173.108 304.589 173.475 303.704 174.127 303.052C174.78 302.4 175.664 302.033 176.587 302.032H294.631C295.553 302.033 296.438 302.4 297.09 303.052C297.743 303.704 298.11 304.589 298.111 305.512V389.434C298.11 390.356 297.743 391.241 297.09 391.893C296.438 392.546 295.553 392.913 294.631 392.914ZM176.587 303.424C176.033 303.424 175.503 303.644 175.111 304.036C174.72 304.427 174.5 304.958 174.499 305.512V389.434C174.5 389.987 174.72 390.518 175.111 390.909C175.503 391.301 176.033 391.521 176.587 391.522H294.631C295.184 391.521 295.715 391.301 296.106 390.909C296.498 390.518 296.718 389.987 296.719 389.434V305.512C296.718 304.958 296.498 304.427 296.106 304.036C295.715 303.644 295.184 303.424 294.631 303.424H176.587Z" fill="#4D76B8"/>
<path d="M302.383 302.726H184.339C182.802 302.726 181.555 303.973 181.555 305.51V389.432C181.555 390.97 182.802 392.216 184.339 392.216H302.383C303.921 392.216 305.167 390.97 305.167 389.432V305.51C305.167 303.973 303.921 302.726 302.383 302.726Z" fill="white"/>
<path d="M293.033 311.911H193.69C192.152 311.911 190.906 313.157 190.906 314.695V380.248C190.906 381.786 192.152 383.032 193.69 383.032H293.033C294.571 383.032 295.818 381.786 295.818 380.248V314.695C295.818 313.157 294.571 311.911 293.033 311.911Z" fill="#D9EBFF"/>
<path d="M302.383 392.914H184.34C183.417 392.913 182.532 392.546 181.88 391.893C181.228 391.241 180.861 390.356 180.86 389.434V305.512C180.861 304.589 181.228 303.704 181.88 303.052C182.532 302.4 183.417 302.033 184.34 302.032H302.383C303.306 302.033 304.191 302.4 304.843 303.052C305.495 303.704 305.862 304.589 305.863 305.512V389.434C305.862 390.356 305.495 391.241 304.843 391.893C304.191 392.546 303.306 392.913 302.383 392.914ZM184.34 303.424C183.786 303.424 183.255 303.644 182.864 304.036C182.472 304.427 182.252 304.958 182.252 305.512V389.434C182.252 389.987 182.472 390.518 182.864 390.909C183.255 391.301 183.786 391.521 184.34 391.522H302.383C302.937 391.521 303.468 391.301 303.859 390.909C304.251 390.518 304.471 389.987 304.471 389.434V305.512C304.471 304.958 304.251 304.427 303.859 304.036C303.468 303.644 302.937 303.424 302.383 303.424H184.34Z" fill="#4D76B8"/>
<path d="M293.033 311.911H193.69C192.951 311.911 192.243 312.204 191.721 312.726C191.199 313.248 190.906 313.956 190.906 314.695V322.361H295.818V314.695C295.818 314.329 295.746 313.967 295.606 313.629C295.466 313.291 295.261 312.985 295.002 312.726C294.744 312.467 294.437 312.262 294.099 312.122C293.761 311.983 293.399 311.911 293.033 311.911Z" fill="#A9C0FF"/>
<path d="M190.906 374.148V380.248C190.906 380.986 191.199 381.694 191.721 382.217C192.243 382.739 192.951 383.032 193.69 383.032H293.034C293.772 383.032 294.48 382.739 295.002 382.217C295.524 381.694 295.818 380.986 295.818 380.248V374.148H190.906Z" fill="#A9C0FF"/>
<path d="M235.38 328.432H198.631V329.36H235.38V328.432Z" fill="#456BA3"/>
<path d="M235.38 336.359H198.631V337.287H235.38V336.359Z" fill="#456BA3"/>
<path d="M288.24 344.286H198.631V345.214H288.24V344.286Z" fill="#456BA3"/>
<path d="M288.24 352.213H198.631V353.141H288.24V352.213Z" fill="#456BA3"/>
<path d="M288.24 360.14H198.631V361.068H288.24V360.14Z" fill="#456BA3"/>
<path d="M288.24 368.067H198.631V368.995H288.24V368.067Z" fill="#456BA3"/>
<g opacity="0.28">
<path d="M318.469 285.311H250.995C249.458 285.311 248.211 286.557 248.211 288.095V335.407C248.211 336.944 249.458 338.191 250.995 338.191H318.469C320.007 338.191 321.253 336.944 321.253 335.407V288.095C321.253 286.557 320.007 285.311 318.469 285.311Z" fill="#6299E8"/>
</g>
<path d="M325.485 278.442H258.011C256.474 278.442 255.227 279.688 255.227 281.226V328.537C255.227 330.075 256.474 331.321 258.011 331.321H325.485C327.023 331.321 328.269 330.075 328.269 328.537V281.226C328.269 279.688 327.023 278.442 325.485 278.442Z" fill="white"/>
<path d="M328.269 290.101H255.227V291.493H328.269V290.101Z" fill="#A9C0FF"/>
<path d="M325.485 332.017H258.011C257.089 332.016 256.204 331.649 255.552 330.996C254.899 330.344 254.532 329.459 254.531 328.537V281.225C254.532 280.303 254.899 279.418 255.552 278.766C256.204 278.113 257.089 277.746 258.011 277.745H325.485C326.408 277.746 327.293 278.113 327.945 278.766C328.597 279.418 328.964 280.303 328.965 281.225V328.537C328.964 329.459 328.597 330.344 327.945 330.996C327.293 331.649 326.408 332.016 325.485 332.017ZM258.011 279.137C257.458 279.138 256.927 279.358 256.536 279.749C256.144 280.141 255.924 280.672 255.923 281.225V328.537C255.924 329.09 256.144 329.621 256.536 330.013C256.927 330.404 257.458 330.624 258.011 330.625H325.485C326.039 330.624 326.57 330.404 326.961 330.013C327.353 329.621 327.573 329.09 327.573 328.537V281.225C327.573 280.672 327.353 280.141 326.961 279.749C326.57 279.358 326.039 279.138 325.485 279.137H258.011Z" fill="#4D76B8"/>
<path d="M285.839 294.659H264.446C263.933 294.659 263.518 295.074 263.518 295.587V316.98C263.518 317.493 263.933 317.908 264.446 317.908H285.839C286.352 317.908 286.767 317.493 286.767 316.98V295.587C286.767 295.074 286.352 294.659 285.839 294.659Z" fill="#D9EBFF"/>
<path d="M317.213 294.659H291.006C290.493 294.659 290.078 295.074 290.078 295.587V299.889C290.078 300.402 290.493 300.817 291.006 300.817H317.213C317.725 300.817 318.141 300.402 318.141 299.889V295.587C318.141 295.074 317.725 294.659 317.213 294.659Z" fill="#A9C0FF"/>
<path d="M297.193 322.869H282.963C282.45 322.869 282.035 323.284 282.035 323.797V325.471C282.035 325.983 282.45 326.399 282.963 326.399H297.193C297.705 326.399 298.121 325.983 298.121 325.471V323.797C298.121 323.284 297.705 322.869 297.193 322.869Z" fill="#A9C0FF"/>
<path d="M317.213 303.206H291.006C290.493 303.206 290.078 303.622 290.078 304.134V308.437C290.078 308.949 290.493 309.365 291.006 309.365H317.213C317.725 309.365 318.141 308.949 318.141 308.437V304.134C318.141 303.622 317.725 303.206 317.213 303.206Z" fill="#A9C0FF"/>
<path d="M317.213 311.751H291.006C290.493 311.751 290.078 312.167 290.078 312.679V316.982C290.078 317.494 290.493 317.91 291.006 317.91H317.213C317.725 317.91 318.141 317.494 318.141 316.982V312.679C318.141 312.167 317.725 311.751 317.213 311.751Z" fill="#A9C0FF"/>
<g opacity="0.28">
<path d="M215.293 261.861H147.819C146.281 261.861 145.035 263.107 145.035 264.645V311.956C145.035 313.494 146.281 314.74 147.819 314.74H215.293C216.83 314.74 218.077 313.494 218.077 311.956V264.645C218.077 263.107 216.83 261.861 215.293 261.861Z" fill="#6299E8"/>
</g>
<path d="M204.749 254.99H137.275C135.737 254.99 134.491 256.237 134.491 257.774V305.086C134.491 306.623 135.737 307.87 137.275 307.87H204.749C206.286 307.87 207.533 306.623 207.533 305.086V257.774C207.533 256.237 206.286 254.99 204.749 254.99Z" fill="white"/>
<path d="M207.533 266.649H134.491V268.041H207.533V266.649Z" fill="#A9C0FF"/>
<path d="M204.749 308.565H137.275C136.352 308.564 135.468 308.197 134.815 307.544C134.163 306.892 133.796 306.007 133.795 305.085V257.773C133.796 256.851 134.163 255.966 134.815 255.314C135.468 254.661 136.352 254.294 137.275 254.293H204.749C205.672 254.294 206.556 254.661 207.209 255.314C207.861 255.966 208.228 256.851 208.229 257.773V305.085C208.228 306.007 207.861 306.892 207.209 307.544C206.556 308.197 205.672 308.564 204.749 308.565ZM137.275 255.685C136.721 255.686 136.191 255.906 135.799 256.298C135.408 256.689 135.188 257.22 135.187 257.773V305.085C135.188 305.638 135.408 306.169 135.799 306.56C136.191 306.952 136.721 307.172 137.275 307.173H204.749C205.303 307.172 205.833 306.952 206.225 306.56C206.616 306.169 206.836 305.638 206.837 305.085V257.773C206.836 257.22 206.616 256.689 206.225 256.298C205.833 255.906 205.303 255.686 204.749 255.685H137.275Z" fill="#4D76B8"/>
<path d="M196.606 272.601H145.418C144.905 272.601 144.49 273.016 144.49 273.529V277.831C144.49 278.344 144.905 278.759 145.418 278.759H196.606C197.118 278.759 197.534 278.344 197.534 277.831V273.529C197.534 273.016 197.118 272.601 196.606 272.601Z" fill="#A9C0FF"/>
<path d="M196.606 281.146H145.418C144.905 281.146 144.49 281.561 144.49 282.074V286.376C144.49 286.889 144.905 287.304 145.418 287.304H196.606C197.118 287.304 197.534 286.889 197.534 286.376V282.074C197.534 281.561 197.118 281.146 196.606 281.146Z" fill="#A9C0FF"/>
<path d="M197.534 291.492H144.49V292.884H197.534V291.492Z" fill="#4D76B8"/>
<path d="M197.534 295.356H144.49V296.748H197.534V295.356Z" fill="#4D76B8"/>
<path d="M197.534 299.219H144.49V300.611H197.534V299.219Z" fill="#4D76B8"/>
<path d="M315.241 415.21H339.782C338.412 415.21 337.081 414.749 336.005 413.902C334.929 413.054 334.169 411.869 333.848 410.537L325.911 377.608C325.59 376.276 324.83 375.091 323.754 374.243C322.678 373.396 321.348 372.935 319.977 372.935H317.986C317.064 372.935 316.155 373.144 315.325 373.545C314.496 373.947 313.768 374.532 313.196 375.255C312.625 375.978 312.225 376.821 312.026 377.721C311.827 378.621 311.835 379.555 312.048 380.451L318.66 408.236C318.873 409.132 318.881 410.066 318.682 410.966C318.483 411.866 318.083 412.709 317.512 413.432C316.94 414.155 316.213 414.74 315.383 415.142C314.554 415.544 313.644 415.752 312.722 415.752L315.241 415.21Z" fill="#6299E8"/>
<path d="M317.029 372.882H341.57H341.627L349.628 407.742C349.833 408.637 349.834 409.566 349.631 410.461C349.428 411.355 349.025 412.193 348.454 412.91C347.882 413.628 347.156 414.208 346.329 414.606C345.503 415.005 344.597 415.211 343.679 415.211H339.781C338.411 415.211 337.081 414.75 336.005 413.903C334.929 413.055 334.169 411.87 333.848 410.538L325.911 377.609C325.59 376.277 324.83 375.092 323.754 374.245C322.678 373.397 321.347 372.936 319.977 372.936L317.029 372.882Z" fill="#4D76B8"/>
<path d="M304.406 403.774L306.883 411.426C307.264 412.677 308.037 413.774 309.088 414.553C310.14 415.332 311.414 415.752 312.722 415.752C313.644 415.752 314.554 415.543 315.383 415.142C316.213 414.74 316.94 414.155 317.512 413.432C318.083 412.709 318.483 411.865 318.682 410.965C318.881 410.065 318.873 409.132 318.66 408.235L317.598 403.774H304.406Z" fill="#4D76B8"/>
<path d="M343.679 415.211C344.597 415.211 345.503 415.004 346.329 414.606C347.156 414.208 347.882 413.628 348.454 412.91C349.025 412.193 349.428 411.355 349.631 410.461C349.834 409.566 349.833 408.637 349.628 407.742L336.363 349.945C336.158 349.05 336.157 348.121 336.36 347.227C336.564 346.332 336.966 345.495 337.538 344.777C338.11 344.059 338.836 343.479 339.662 343.081C340.489 342.683 341.395 342.476 342.312 342.476H344.69L377.834 349.945L391.099 407.742C391.304 408.637 391.305 409.566 391.102 410.461C390.899 411.355 390.496 412.193 389.925 412.91C389.353 413.628 388.627 414.208 387.8 414.606C386.974 415.004 386.068 415.211 385.15 415.211H343.679Z" fill="#6299E8"/>
<path d="M383.783 342.476H386.161C387.485 342.476 388.773 342.906 389.831 343.702C390.889 344.498 391.659 345.617 392.026 346.889L394.793 356.49C395.16 357.763 395.93 358.881 396.988 359.677C398.046 360.473 399.334 360.904 400.658 360.904H359.187C357.863 360.904 356.575 360.473 355.517 359.677C354.459 358.881 353.689 357.763 353.322 356.49L350.555 346.889C350.188 345.617 349.418 344.498 348.36 343.702C347.302 342.906 346.014 342.476 344.69 342.476H383.783Z" fill="#4D76B8"/>
<path d="M359.187 360.903H359.855C360.778 360.903 361.689 360.694 362.519 360.291C363.35 359.888 364.078 359.302 364.649 358.577C365.221 357.852 365.62 357.007 365.817 356.105C366.015 355.203 366.005 354.269 365.789 353.371L364.784 349.196H406.255L407.26 353.371C407.476 354.269 407.486 355.203 407.288 356.105C407.091 357.007 406.692 357.852 406.12 358.577C405.549 359.302 404.821 359.888 403.99 360.291C403.16 360.694 402.249 360.903 401.326 360.903H359.187Z" fill="#92B1EF"/>
<path d="M375.249 370.288H346.172V371.68H375.249V370.288Z" fill="#4D76B8"/>
<path d="M377.245 377.242H348.168V378.634H377.245V377.242Z" fill="#4D76B8"/>
<path d="M379.286 384.26H350.209V385.652H379.286V384.26Z" fill="#4D76B8"/>
<path d="M381.326 391.278H352.249V392.67H381.326V391.278Z" fill="#4D76B8"/>
<path d="M383.367 398.296H354.29V399.688H383.367V398.296Z" fill="#4D76B8"/>
<path d="M385.408 405.314H356.331V406.706H385.408V405.314Z" fill="#4D76B8"/>
<path d="M333.206 383.211H318.854V384.603H333.206V383.211Z" fill="#4D76B8"/>
<path d="M334.191 390.165H319.839V391.557H334.191V390.165Z" fill="#4D76B8"/>
<path d="M335.199 397.183H320.847V398.575H335.199V397.183Z" fill="#4D76B8"/>
<path d="M336.206 404.201H321.854V405.593H336.206V404.201Z" fill="#4D76B8"/>
<path d="M138.512 367.49C138.82 369.474 139 371.457 139.136 373.439C139.216 374.43 139.25 375.421 139.306 376.412L139.404 379.384C139.446 381.365 139.417 383.345 139.317 385.324C139.206 387.303 139.107 389.282 139.021 391.261L138.521 403.138C138.314 407.096 138.141 411.054 137.905 415.012L137.673 415.009C137.538 411.047 137.466 407.085 137.361 403.123L137.165 391.238C137.126 389.257 137.078 387.276 137.02 385.294C136.972 383.313 136.993 381.333 137.085 379.354L137.259 376.385C137.34 375.396 137.399 374.407 137.505 373.418C137.691 371.44 137.923 369.463 138.28 367.487L138.512 367.49Z" fill="#A9C0FF"/>
<path d="M149.291 367.89C149.472 368.375 149.624 368.861 149.792 369.346L150.245 370.806C150.543 371.779 150.815 372.753 151.074 373.729C151.173 375.707 151.32 377.682 151.44 379.659L152.199 391.516L152.959 403.373L153.339 409.302C153.043 411.305 152.76 413.308 152.329 415.32C151.645 413.379 151.109 411.429 150.56 409.48L150.18 403.551L149.421 391.694L148.662 379.836C148.529 377.861 148.422 375.883 148.268 373.909C148.4 372.908 148.546 371.907 148.718 370.903L148.981 369.398C149.085 368.896 149.174 368.394 149.291 367.89Z" fill="#4D76B8"/>
<path d="M154.07 361.448L148.543 393.685L156.184 394.995L161.711 362.758L154.07 361.448Z" fill="#A9C0FF"/>
<path d="M139.529 362.119C139.727 362.597 139.895 363.078 140.08 363.557L140.583 365C140.915 365.962 141.221 366.927 141.513 367.893C141.68 369.866 141.895 371.835 142.084 373.806L143.253 385.63L144.422 397.454L145.007 403.366C144.781 405.378 144.567 407.389 144.206 409.415C143.456 407.499 142.853 405.569 142.237 403.64L141.652 397.728L140.483 385.904L139.313 374.08C139.112 372.11 138.937 370.137 138.715 368.169C138.812 367.165 138.923 366.159 139.06 365.15L139.271 363.637C139.358 363.131 139.429 362.627 139.529 362.119Z" fill="#6299E8"/>
<path d="M146.873 356.17C147.016 356.666 147.13 357.163 147.26 357.66L147.6 359.15C147.823 360.143 148.02 361.135 148.203 362.128C148.15 364.108 148.145 366.088 148.113 368.068L147.961 379.949L147.809 391.829L147.733 397.77C147.285 399.744 146.849 401.719 146.265 403.692C145.732 401.705 145.347 399.72 144.949 397.734L145.025 391.794L145.177 379.913L145.329 368.032C145.348 366.052 145.394 364.072 145.391 362.092C145.6 361.104 145.822 360.117 146.07 359.13L146.448 357.649C146.591 357.156 146.717 356.663 146.873 356.17Z" fill="#6299E8"/>
<path d="M143.414 367.893C143.721 369.878 143.902 371.86 144.038 373.842C144.118 374.834 144.151 375.824 144.207 376.815L144.306 379.787C144.348 381.768 144.318 383.748 144.218 385.727C144.107 387.706 144.008 389.686 143.922 391.665L143.422 403.541C143.215 407.499 143.042 411.458 142.806 415.416L142.574 415.413C142.439 411.45 142.368 407.488 142.262 403.526L142.066 391.641C142.028 389.66 141.979 387.679 141.922 385.698C141.873 383.717 141.894 381.737 141.986 379.758L142.16 376.789C142.242 375.8 142.3 374.81 142.406 373.822C142.593 371.844 142.824 369.866 143.182 367.89L143.414 367.893Z" fill="#A9C0FF"/>
<path d="M162.693 367.489C162.728 368.005 162.735 368.514 162.757 369.027L162.775 370.555C162.783 371.573 162.765 372.585 162.735 373.594C162.265 375.517 161.842 377.452 161.393 379.381L158.737 390.962L156.08 402.543L154.752 408.333C153.896 410.168 153.054 412.007 152.067 413.812C151.965 411.757 152.008 409.735 152.038 407.711L153.367 401.92L156.023 390.339L158.68 378.758C159.116 376.827 159.579 374.901 159.994 372.965C160.407 372.044 160.832 371.125 161.283 370.213L161.965 368.846C162.209 368.393 162.437 367.938 162.693 367.489Z" fill="#6299E8"/>
<path d="M160.906 415.753H138.209C137.975 415.753 137.749 415.664 137.577 415.504C137.405 415.344 137.3 415.125 137.284 414.891L134.631 382.104C134.622 381.977 134.639 381.849 134.682 381.729C134.724 381.609 134.791 381.499 134.878 381.406C134.965 381.313 135.07 381.238 135.187 381.187C135.304 381.137 135.43 381.11 135.557 381.11H163.558C163.686 381.11 163.812 381.137 163.928 381.187C164.045 381.238 164.15 381.313 164.237 381.406C164.324 381.499 164.391 381.609 164.433 381.729C164.476 381.849 164.493 381.977 164.484 382.104L161.831 414.891C161.815 415.125 161.71 415.344 161.538 415.504C161.366 415.664 161.14 415.753 160.906 415.753Z" fill="#92B1EF"/>
<path d="M163.878 390.651L164.312 384.526H134.803L135.237 390.651H163.878Z" fill="#A9C0FF"/>
<path d="M377.186 289.878H350.57C350.387 289.878 350.206 289.914 350.038 289.984C349.869 290.054 349.715 290.156 349.586 290.285C349.457 290.415 349.354 290.568 349.284 290.737C349.214 290.906 349.178 291.087 349.178 291.27V317.885C349.178 318.068 349.214 318.249 349.284 318.418C349.354 318.587 349.457 318.74 349.586 318.87C349.715 318.999 349.869 319.101 350.038 319.171C350.206 319.241 350.387 319.277 350.57 319.277H367.713L369.868 322.486C369.911 322.549 369.968 322.6 370.035 322.636C370.102 322.672 370.177 322.691 370.253 322.691C370.33 322.691 370.404 322.672 370.472 322.636C370.539 322.6 370.596 322.549 370.639 322.486L372.794 319.277H377.186C377.555 319.277 377.909 319.131 378.17 318.87C378.431 318.608 378.578 318.254 378.578 317.885V291.27C378.578 290.901 378.431 290.547 378.17 290.285C377.909 290.024 377.555 289.878 377.186 289.878Z" fill="white"/>
<path d="M368.641 299.147L356.303 302.971C356.075 303.031 355.872 303.164 355.725 303.349C355.578 303.534 355.495 303.762 355.487 303.998C355.48 304.234 355.549 304.466 355.685 304.66C355.82 304.854 356.014 304.999 356.239 305.073L361.835 306.948C361.856 306.956 361.874 306.968 361.89 306.983C361.906 306.998 361.919 307.017 361.928 307.037L363.986 312.381C364.07 312.595 364.218 312.779 364.409 312.907C364.6 313.035 364.826 313.101 365.057 313.098H365.085C365.319 313.097 365.548 313.023 365.737 312.885C365.927 312.748 366.068 312.554 366.14 312.331L370.064 300.546C370.126 300.357 370.135 300.155 370.09 299.962C370.046 299.769 369.95 299.591 369.812 299.449C369.664 299.294 369.477 299.183 369.27 299.13C369.063 299.077 368.845 299.083 368.641 299.147Z" fill="#A9C0FF"/>
<path d="M370.253 323.386C370.063 323.386 369.876 323.34 369.708 323.25C369.54 323.161 369.397 323.031 369.29 322.873L367.342 319.973H350.57C350.017 319.972 349.486 319.752 349.094 319.361C348.703 318.969 348.483 318.438 348.482 317.885V291.269C348.483 290.715 348.703 290.185 349.094 289.793C349.486 289.402 350.017 289.182 350.57 289.181H377.186C377.739 289.182 378.27 289.402 378.661 289.793C379.053 290.185 379.273 290.715 379.274 291.269V317.885C379.273 318.438 379.053 318.969 378.661 319.361C378.27 319.752 377.739 319.972 377.186 319.973H373.165L371.216 322.873C371.11 323.031 370.967 323.161 370.799 323.25C370.631 323.34 370.444 323.386 370.254 323.386L370.253 323.386ZM350.57 290.573C350.386 290.573 350.209 290.647 350.078 290.777C349.948 290.908 349.874 291.085 349.874 291.269V317.885C349.874 318.069 349.948 318.246 350.078 318.377C350.209 318.507 350.386 318.581 350.57 318.581H368.084L370.253 321.81L372.423 318.581H377.186C377.37 318.581 377.547 318.507 377.678 318.377C377.808 318.246 377.881 318.069 377.882 317.885V291.269C377.881 291.085 377.808 290.908 377.678 290.777C377.547 290.647 377.37 290.573 377.186 290.573H350.57Z" fill="#4D76B8"/>
</g>
<defs>
<filter id="filter0_d_3_721" x="152.953" y="0.58" width="730.297" height="638.853" filterUnits="userSpaceOnUse" color-interpolation-filters="sRGB">
<feFlood flood-opacity="0" result="BackgroundImageFix"/>
<feColorMatrix in="SourceAlpha" type="matrix" values="0 0 0 0 0 0 0 0 0 0 0 0 0 0 0 0 0 0 127 0" result="hardAlpha"/>
<feOffset dy="-2.42"/>
<feGaussianBlur stdDeviation="50"/>
<feColorMatrix type="matrix" values="0 0 0 0 0 0 0 0 0 0 0 0 0 0 0 0 0 0 0.04 0"/>
<feBlend mode="normal" in2="BackgroundImageFix" result="effect1_dropShadow_3_721"/>
<feBlend mode="normal" in="SourceGraphic" in2="effect1_dropShadow_3_721" result="shape"/>
</filter>
<filter id="filter1_d_3_721" x="0.75" y="99.0058" width="513.532" height="493.999" filterUnits="userSpaceOnUse" color-interpolation-filters="sRGB">
<feFlood flood-opacity="0" result="BackgroundImageFix"/>
<feColorMatrix in="SourceAlpha" type="matrix" values="0 0 0 0 0 0 0 0 0 0 0 0 0 0 0 0 0 0 127 0" result="hardAlpha"/>
<feOffset dy="23.58"/>
<feGaussianBlur stdDeviation="50"/>
<feColorMatrix type="matrix" values="0 0 0 0 0 0 0 0 0 0 0 0 0 0 0 0 0 0 0.06 0"/>
<feBlend mode="normal" in2="BackgroundImageFix" result="effect1_dropShadow_3_721"/>
<feBlend mode="normal" in="SourceGraphic" in2="effect1_dropShadow_3_721" result="shape"/>
</filter>
<clipPath id="clip0_3_721">
<rect x="252.953" y="103" width="530.297" height="438.853" rx="24" fill="white"/>
</clipPath>
<clipPath id="clip1_3_721">
<rect width="500" height="280.576" fill="white" transform="translate(343 181.712)"/>
</clipPath>
</defs>
</svg>
