<svg width="394" height="550" viewBox="0 0 394 550" fill="none" xmlns="http://www.w3.org/2000/svg">
<rect width="394" height="550" rx="11" fill="white"/>
<circle cx="158.5" cy="74.5" r="35.5" fill="#8B73C4"/>
<g clip-path="url(#clip0_1_1085)">
<path d="M182 74.547C175.902 74.9212 170.152 77.5123 165.832 81.8321C161.512 86.1519 158.921 91.9023 158.547 98H158.453C158.079 91.9021 155.489 86.1514 151.169 81.8314C146.849 77.5114 141.098 74.9206 135 74.547V74.453C141.098 74.0794 146.849 71.4886 151.169 67.1686C155.489 62.8486 158.079 57.0979 158.453 51H158.547C158.921 57.0977 161.512 62.8481 165.832 67.1679C170.152 71.4877 175.902 74.0788 182 74.453V74.547Z" fill="white"/>
</g>
<circle cx="70.5" cy="74.5" r="35.5" fill="#70A597"/>
<path d="M67.0092 47.4572C61.166 47.4572 55.9748 51.2149 54.1653 56.7613C50.4088 57.5346 47.1667 59.8841 45.2653 63.2108C42.3348 68.2694 43.0039 74.6287 46.9299 78.9645C45.7178 82.5962 46.1338 86.5703 48.0696 89.8588C50.9822 94.9351 56.8426 97.5369 62.5775 96.3261C65.1176 99.1895 68.7689 100.822 72.5992 100.807C78.4423 100.807 83.6337 97.0491 85.4432 91.5025C89.2058 90.7255 92.4439 88.3769 94.3251 85.0532C97.2737 79.9947 96.6044 73.6352 92.6791 69.2994V69.2815C93.8905 65.6499 93.4751 61.6731 91.5394 58.3693C88.626 53.3108 82.765 50.7086 77.0488 51.9191C74.4971 49.0636 70.8413 47.4389 67.0092 47.4572ZM67.0092 50.9262L66.9913 50.9441C69.343 50.9441 71.6044 51.7571 73.4133 53.257C73.3409 53.2929 73.1958 53.3831 73.0877 53.4375L62.4512 59.562C61.9083 59.8692 61.5827 60.4473 61.5827 61.0797V75.4603L57.0061 72.8228V60.9351C57.004 55.4136 61.4807 50.9347 67.0092 50.9262ZM79.8224 55.1128C83.4101 55.106 86.7273 57.0169 88.5179 60.1221C89.6756 62.1456 90.1093 64.5123 89.7113 66.8066C89.6389 66.7522 89.4947 66.6805 89.4037 66.6261L78.7673 60.4831C78.223 60.1757 77.5573 60.1757 77.0131 60.4831L64.5491 67.6734V62.3979L74.8419 56.454C76.3553 55.5777 78.0729 55.1155 79.8224 55.1128ZM53.5147 60.5734V73.2018C53.5147 73.8343 53.8403 74.3944 54.3832 74.7196L66.8285 81.8918L62.2333 84.5474L51.9584 78.6213C47.1773 75.8541 45.5426 69.743 48.3048 64.963C49.4751 62.9371 51.3182 61.3846 53.5147 60.5734ZM77.3564 63.6986L87.6492 69.6246C92.4433 72.3888 94.0707 78.4953 91.303 83.2829L91.3208 83.3009C90.1454 85.3244 88.2998 86.8781 86.111 87.6734V75.0442C86.111 74.4117 85.7854 73.8336 85.2426 73.527L72.7793 66.3361L77.3564 63.6986ZM69.7949 68.053L75.0414 71.088V77.1399L69.7949 80.175L64.5491 77.1399V71.088L69.7949 68.053ZM78.0437 72.8228L82.6203 75.4603V87.3302C82.6203 92.8585 78.1341 97.3389 72.6171 97.3389V97.3212C70.2833 97.3212 68.004 96.5079 66.2131 95.0088C66.2855 94.9728 66.4484 94.882 66.5387 94.8277L77.175 88.7032C77.7181 88.396 78.0617 87.818 78.0431 87.1856L78.0437 72.8228ZM75.0585 80.5911V85.8662L64.7658 91.792C59.9719 94.5382 53.8576 92.9122 51.0899 88.1426H51.1078C49.9323 86.1368 49.5156 83.7521 49.9137 81.458C49.9861 81.5123 50.131 81.5841 50.2213 81.6384L60.8577 87.7814C61.402 88.0888 62.0678 88.0888 62.6121 87.7814L75.0585 80.5911Z" fill="white"/>
<circle cx="246.5" cy="74.5" r="35.5" fill="#4285F4"/>
<path d="M237.514 59.8326C237.501 59.8326 237.487 59.8326 237.473 59.8326L237.418 64.3221C237.432 64.3221 237.446 64.3221 237.453 64.3221C240.429 64.3221 242.739 66.6523 247.765 75.0436L248.074 75.5561L248.095 75.5903L250.907 71.4083L250.886 71.3741C250.226 70.3081 249.587 69.3241 248.982 68.429C248.274 67.3903 247.6 66.461 246.94 65.6341C243.619 61.4316 240.835 59.8326 237.514 59.8326Z" fill="white"/>
<path d="M237.473 59.8326C234.132 59.8463 231.182 61.992 229.044 65.272C229.037 65.2788 229.031 65.2925 229.024 65.2993L232.936 67.4108C232.942 67.404 232.949 67.3903 232.956 67.3835C234.201 65.5248 235.754 64.3358 237.411 64.3153C237.425 64.3153 237.439 64.3153 237.446 64.3153L237.501 59.8258C237.501 59.8326 237.487 59.8326 237.473 59.8326Z" fill="white"/>
<path d="M229.051 65.2734C229.044 65.2803 229.037 65.2939 229.031 65.3008C227.628 67.4669 226.583 70.1183 226.019 72.9883C226.019 73.0019 226.012 73.0156 226.012 73.0224L230.412 74.0543C230.412 74.0406 230.419 74.0269 230.419 74.0201C230.887 71.4986 231.787 69.1684 232.949 67.4191C232.956 67.4123 232.963 67.3986 232.97 67.3918L229.051 65.2734Z" fill="white"/>
<path d="M230.419 74.0197L226.019 72.9879C226.019 73.0016 226.012 73.0152 226.012 73.0221C225.703 74.6006 225.545 76.1996 225.545 77.8054C225.545 77.8191 225.545 77.8327 225.545 77.8464L230.055 78.2496C230.055 78.2359 230.055 78.2222 230.055 78.2086C230.055 78.1129 230.055 78.0241 230.055 77.9284C230.055 76.6301 230.179 75.3317 230.412 74.0607C230.412 74.0402 230.412 74.0334 230.419 74.0197Z" fill="white"/>
<path d="M230.192 79.6421C230.11 79.1775 230.069 78.7128 230.055 78.2481C230.055 78.2345 230.055 78.2208 230.055 78.2071L225.545 77.804C225.545 77.8176 225.545 77.8313 225.545 77.845C225.538 78.7811 225.621 79.7173 225.792 80.6466C225.792 80.6603 225.799 80.674 225.799 80.6808L230.199 79.6763C230.192 79.6695 230.192 79.6558 230.192 79.6421Z" fill="white"/>
<path d="M231.217 81.9588C230.729 81.4258 230.378 80.6605 230.199 79.6765C230.199 79.6628 230.193 79.6492 230.193 79.6423L225.793 80.6468C225.793 80.6605 225.799 80.6742 225.799 80.681C226.129 82.4167 226.783 83.8585 227.718 84.9518C227.724 84.9587 227.731 84.9723 227.745 84.9792L231.244 81.9862C231.238 81.9793 231.231 81.9657 231.217 81.9588Z" fill="white"/>
<path d="M244.252 69.5366C241.598 73.5751 239.996 76.1035 239.996 76.1035C236.462 81.5975 235.246 82.8275 233.279 82.8275C232.461 82.8275 231.774 82.5405 231.251 81.9801C231.244 81.9733 231.231 81.9596 231.224 81.9528L227.724 84.9458C227.731 84.9526 227.738 84.9663 227.752 84.9731C229.044 86.4628 230.859 87.2896 233.114 87.2896C236.524 87.2896 238.972 85.6975 243.331 78.1398C243.331 78.1398 245.146 74.9555 246.397 72.762C245.606 71.5388 244.905 70.466 244.252 69.5366Z" fill="white"/>
<path d="M248.982 63.1688C248.975 63.1757 248.961 63.1893 248.954 63.1962C248.239 63.9683 247.566 64.7815 246.94 65.6288C247.593 66.4557 248.274 67.385 248.982 68.4305C249.814 67.1527 250.591 66.1208 251.354 65.3282C251.361 65.3213 251.374 65.3077 251.381 65.3008L248.982 63.1688Z" fill="white"/>
<path d="M261.852 62.771C260.002 60.9191 257.795 59.8326 255.444 59.8326C252.962 59.8326 250.865 61.1856 248.982 63.1673C248.975 63.1741 248.961 63.1878 248.954 63.1946L251.354 65.3198C251.36 65.313 251.374 65.2993 251.381 65.2925C252.625 64.0078 253.829 63.3723 255.155 63.3723C256.592 63.3723 257.933 64.042 259.095 65.2173C259.102 65.2241 259.115 65.2378 259.122 65.2446L261.879 62.7983C261.872 62.7915 261.859 62.7846 261.852 62.771Z" fill="white"/>
<path d="M267.194 77.2174C267.091 71.2656 264.994 65.9424 261.873 62.7991C261.866 62.7922 261.852 62.7786 261.845 62.7717L259.088 65.2181C259.095 65.2249 259.109 65.2386 259.116 65.2454C261.46 67.6371 263.069 72.0787 263.213 77.2174C263.213 77.2311 263.213 77.2447 263.213 77.2584H267.194C267.201 77.2447 267.194 77.2311 267.194 77.2174Z" fill="white"/>
<path d="M267.201 77.2583C267.201 77.2446 267.201 77.231 267.201 77.2173H263.22C263.22 77.231 263.22 77.2446 263.22 77.2583C263.227 77.4975 263.227 77.7435 263.227 77.9826C263.227 79.3835 263.014 80.5178 262.587 81.331C262.581 81.3446 262.574 81.3583 262.567 81.3651L265.53 84.4265C265.537 84.4128 265.544 84.406 265.551 84.3923C266.63 82.7455 267.194 80.4563 267.194 77.6751C267.201 77.5385 267.201 77.395 267.201 77.2583Z" fill="white"/>
<path d="M262.588 81.3319C262.581 81.3456 262.574 81.3592 262.567 81.3661C262.196 82.0562 261.666 82.5141 260.972 82.7122L262.326 86.9421C262.505 86.8806 262.677 86.8122 262.849 86.7371C262.897 86.7166 262.952 86.6892 263 86.6687C263.028 86.6551 263.055 86.6414 263.083 86.6277C263.983 86.1767 264.76 85.5139 265.344 84.6939C265.379 84.6392 265.42 84.5914 265.454 84.5367C265.482 84.5026 265.503 84.4616 265.53 84.4274C265.537 84.4137 265.544 84.4069 265.551 84.3932L262.588 81.3319Z" fill="white"/>
<path d="M260.119 82.8344C259.693 82.8412 259.267 82.7592 258.875 82.5952L257.493 86.9275C258.27 87.194 259.102 87.3102 260.03 87.3102C260.828 87.317 261.618 87.194 262.374 86.9412L261.02 82.7114C260.724 82.7934 260.422 82.8344 260.119 82.8344Z" fill="white"/>
<path d="M257.349 81.3524C257.342 81.3456 257.335 81.3319 257.321 81.3251L254.138 84.6119C254.145 84.6187 254.159 84.6324 254.166 84.6392C255.272 85.8077 256.331 86.5389 257.527 86.9352L258.909 82.6097C258.407 82.3911 257.912 82.0016 257.349 81.3524Z" fill="white"/>
<path d="M257.321 81.3245C256.366 80.2243 255.183 78.3861 253.327 75.4205L250.9 71.4025L250.879 71.3683L248.067 75.5503L248.088 75.5845L249.807 78.4476C251.471 81.2083 252.825 83.2105 254.138 84.6045C254.145 84.6113 254.159 84.625 254.166 84.6318L257.349 81.345C257.342 81.345 257.328 81.3313 257.321 81.3245Z" fill="white"/>
<circle cx="334.5" cy="74.5" r="35.5" fill="black"/>
<path fill-rule="evenodd" clip-rule="evenodd" d="M338.93 58.8592L320.762 60.1911C319.298 60.3171 318.787 61.2676 318.787 62.4072V82.1762C318.787 83.0637 319.105 83.823 319.87 84.8377L324.141 90.3497C324.843 91.2372 325.48 91.4273 326.82 91.3643L347.918 90.0966C349.702 89.9705 350.213 89.146 350.213 87.7523V65.513C350.213 64.7917 349.926 64.5842 349.082 63.9704C349.033 63.9354 348.985 63.9002 348.937 63.865L343.138 59.8098C341.736 58.7973 341.162 58.6691 338.93 58.8592ZM327.298 65.148C325.575 65.2631 325.185 65.2892 324.206 64.4995L321.718 62.5354C321.465 62.2812 321.592 61.964 322.228 61.901L339.695 60.6343C341.161 60.5072 341.926 61.0145 342.499 61.4577L345.496 63.6119C345.624 63.676 345.941 64.0551 345.559 64.0551L327.521 65.1328L327.298 65.148ZM325.289 87.5622V68.6818C325.289 67.8573 325.544 67.4771 326.308 67.413L347.025 66.2093C347.727 66.1463 348.046 66.5895 348.046 67.413V86.1673C348.046 86.9918 347.918 87.6893 346.769 87.7523L326.946 88.8929C325.799 88.9559 325.289 88.5768 325.289 87.5622ZM344.86 69.6943C344.986 70.2646 344.86 70.8349 344.285 70.9001L343.329 71.088V85.0278C342.499 85.471 341.736 85.7241 341.098 85.7241C340.078 85.7241 339.822 85.4069 339.058 84.4574L332.81 74.7001V84.1402L334.787 84.5845C334.787 84.5845 334.787 85.7252 333.192 85.7252L328.794 85.9783C328.668 85.7241 328.794 85.0919 329.242 84.9648L330.387 84.6486V72.1667L328.794 72.0386C328.668 71.4682 328.985 70.6448 329.879 70.5818L334.596 70.2646L341.098 80.1502V71.4052L339.44 71.2162C339.313 70.5177 339.822 70.0115 340.46 69.9485L344.86 69.6943Z" fill="white"/>
<path d="M51.0994 162H48.8864L53.859 148.182H56.2678L61.2404 162H59.0273L55.1207 150.692H55.0128L51.0994 162ZM51.4705 156.589H58.6495V158.343H51.4705V156.589ZM65.0914 148.182V162H63.074V148.182H65.0914ZM69.8228 148.182V162H67.8054V148.182H69.8228ZM78.8404 165.886C78.539 165.886 78.2646 165.862 78.0172 165.812C77.7698 165.767 77.5854 165.718 77.464 165.664L77.9498 164.011C78.3186 164.11 78.647 164.152 78.9348 164.139C79.2227 164.125 79.4769 164.017 79.6973 163.815C79.9222 163.613 80.1201 163.282 80.291 162.823L80.5407 162.135L76.7488 151.636H78.9078L81.5325 159.679H81.6404L84.2651 151.636H86.4309L82.16 163.383C81.9621 163.923 81.7102 164.379 81.4043 164.753C81.0984 165.131 80.7341 165.414 80.3113 165.603C79.8884 165.792 79.3981 165.886 78.8404 165.886ZM92.3398 162.209C91.3682 162.209 90.5203 161.987 89.7961 161.541C89.0719 161.096 88.5096 160.473 88.1093 159.672C87.709 158.872 87.5088 157.936 87.5088 156.865C87.5088 155.79 87.709 154.85 88.1093 154.045C88.5096 153.24 89.0719 152.615 89.7961 152.169C90.5203 151.724 91.3682 151.501 92.3398 151.501C93.3113 151.501 94.1592 151.724 94.8834 152.169C95.6076 152.615 96.1699 153.24 96.5702 154.045C96.9706 154.85 97.1707 155.79 97.1707 156.865C97.1707 157.936 96.9706 158.872 96.5702 159.672C96.1699 160.473 95.6076 161.096 94.8834 161.541C94.1592 161.987 93.3113 162.209 92.3398 162.209ZM92.3465 160.516C92.9762 160.516 93.498 160.349 93.9118 160.016C94.3257 159.683 94.6315 159.24 94.8295 158.687C95.0319 158.134 95.1331 157.524 95.1331 156.859C95.1331 156.197 95.0319 155.59 94.8295 155.037C94.6315 154.479 94.3257 154.032 93.9118 153.694C93.498 153.357 92.9762 153.188 92.3465 153.188C91.7123 153.188 91.186 153.357 90.7677 153.694C90.3538 154.032 90.0457 154.479 89.8433 155.037C89.6454 155.59 89.5464 156.197 89.5464 156.859C89.5464 157.524 89.6454 158.134 89.8433 158.687C90.0457 159.24 90.3538 159.683 90.7677 160.016C91.186 160.349 91.7123 160.516 92.3465 160.516ZM105.988 157.702V151.636H108.012V162H106.028V160.205H105.92C105.682 160.759 105.299 161.22 104.773 161.588C104.251 161.953 103.601 162.135 102.823 162.135C102.157 162.135 101.568 161.989 101.055 161.696C100.547 161.4 100.147 160.961 99.8544 160.381C99.5665 159.8 99.4226 159.083 99.4226 158.228V151.636H101.44V157.985C101.44 158.692 101.636 159.254 102.027 159.672C102.418 160.091 102.927 160.3 103.552 160.3C103.93 160.3 104.305 160.205 104.679 160.016C105.056 159.827 105.369 159.542 105.616 159.159C105.868 158.777 105.992 158.291 105.988 157.702ZM117.768 155.847V162H115.751V151.636H117.687V153.323H117.815C118.054 152.774 118.427 152.334 118.935 152.001C119.448 151.668 120.094 151.501 120.872 151.501C121.578 151.501 122.196 151.65 122.727 151.947C123.258 152.239 123.67 152.675 123.962 153.256C124.254 153.836 124.401 154.553 124.401 155.408V162H122.383V155.651C122.383 154.9 122.188 154.313 121.796 153.89C121.405 153.463 120.867 153.249 120.184 153.249C119.716 153.249 119.3 153.35 118.935 153.553C118.576 153.755 118.29 154.052 118.078 154.443C117.872 154.83 117.768 155.298 117.768 155.847ZM131.573 162.209C130.552 162.209 129.672 161.991 128.935 161.555C128.201 161.114 127.635 160.495 127.234 159.699C126.839 158.899 126.641 157.961 126.641 156.886C126.641 155.824 126.839 154.888 127.234 154.079C127.635 153.269 128.192 152.637 128.908 152.183C129.627 151.729 130.469 151.501 131.431 151.501C132.016 151.501 132.583 151.598 133.131 151.792C133.68 151.985 134.173 152.289 134.609 152.702C135.045 153.116 135.389 153.654 135.641 154.315C135.893 154.972 136.019 155.77 136.019 156.71V157.425H127.781V155.914H134.042C134.042 155.383 133.934 154.913 133.718 154.504C133.502 154.09 133.199 153.764 132.808 153.526C132.421 153.287 131.966 153.168 131.445 153.168C130.878 153.168 130.383 153.307 129.96 153.586C129.542 153.861 129.218 154.221 128.989 154.666C128.764 155.107 128.651 155.586 128.651 156.103V157.284C128.651 157.976 128.773 158.566 129.016 159.051C129.263 159.537 129.607 159.908 130.048 160.165C130.489 160.417 131.004 160.543 131.593 160.543C131.975 160.543 132.324 160.489 132.639 160.381C132.954 160.268 133.226 160.102 133.455 159.881C133.685 159.661 133.86 159.389 133.982 159.065L135.891 159.409C135.738 159.971 135.464 160.464 135.068 160.887C134.676 161.305 134.184 161.631 133.59 161.865C133.001 162.094 132.328 162.209 131.573 162.209ZM142.724 162.209C141.703 162.209 140.824 161.991 140.086 161.555C139.353 161.114 138.786 160.495 138.386 159.699C137.99 158.899 137.792 157.961 137.792 156.886C137.792 155.824 137.99 154.888 138.386 154.079C138.786 153.269 139.344 152.637 140.059 152.183C140.779 151.729 141.62 151.501 142.582 151.501C143.167 151.501 143.734 151.598 144.283 151.792C144.832 151.985 145.324 152.289 145.76 152.702C146.197 153.116 146.541 153.654 146.793 154.315C147.045 154.972 147.171 155.77 147.171 156.71V157.425H138.932V155.914H145.194C145.194 155.383 145.086 154.913 144.87 154.504C144.654 154.09 144.35 153.764 143.959 153.526C143.572 153.287 143.118 153.168 142.596 153.168C142.029 153.168 141.534 153.307 141.112 153.586C140.693 153.861 140.369 154.221 140.14 154.666C139.915 155.107 139.803 155.586 139.803 156.103V157.284C139.803 157.976 139.924 158.566 140.167 159.051C140.414 159.537 140.758 159.908 141.199 160.165C141.64 160.417 142.155 160.543 142.744 160.543C143.127 160.543 143.475 160.489 143.79 160.381C144.105 160.268 144.377 160.102 144.607 159.881C144.836 159.661 145.011 159.389 145.133 159.065L147.042 159.409C146.889 159.971 146.615 160.464 146.219 160.887C145.828 161.305 145.335 161.631 144.742 161.865C144.152 162.094 143.48 162.209 142.724 162.209ZM153.289 162.202C152.452 162.202 151.705 161.989 151.048 161.561C150.396 161.13 149.883 160.516 149.51 159.719C149.141 158.919 148.957 157.958 148.957 156.838C148.957 155.718 149.144 154.76 149.517 153.964C149.895 153.168 150.412 152.558 151.069 152.136C151.725 151.713 152.47 151.501 153.302 151.501C153.945 151.501 154.463 151.609 154.854 151.825C155.25 152.037 155.556 152.284 155.771 152.567C155.992 152.851 156.163 153.1 156.284 153.316H156.406V148.182H158.423V162H156.453V160.387H156.284C156.163 160.608 155.987 160.86 155.758 161.143C155.533 161.426 155.223 161.674 154.827 161.885C154.431 162.097 153.918 162.202 153.289 162.202ZM153.734 160.482C154.314 160.482 154.804 160.329 155.205 160.023C155.61 159.713 155.915 159.283 156.122 158.734C156.334 158.186 156.439 157.547 156.439 156.818C156.439 156.098 156.336 155.469 156.129 154.929C155.922 154.389 155.619 153.969 155.218 153.667C154.818 153.366 154.323 153.215 153.734 153.215C153.127 153.215 152.621 153.373 152.216 153.688C151.811 154.002 151.505 154.432 151.298 154.976C151.096 155.52 150.994 156.134 150.994 156.818C150.994 157.511 151.098 158.134 151.305 158.687C151.512 159.24 151.818 159.679 152.222 160.003C152.632 160.322 153.136 160.482 153.734 160.482ZM166.331 162V151.636H168.348V162H166.331ZM167.35 150.037C166.999 150.037 166.697 149.92 166.445 149.686C166.198 149.448 166.074 149.165 166.074 148.836C166.074 148.503 166.198 148.22 166.445 147.986C166.697 147.748 166.999 147.629 167.35 147.629C167.7 147.629 168 147.748 168.247 147.986C168.499 148.22 168.625 148.503 168.625 148.836C168.625 149.165 168.499 149.448 168.247 149.686C168 149.92 167.7 150.037 167.35 150.037ZM178.828 154.167L177 154.49C176.923 154.257 176.802 154.034 176.635 153.822C176.473 153.611 176.253 153.438 175.974 153.303C175.695 153.168 175.347 153.1 174.928 153.1C174.357 153.1 173.88 153.229 173.498 153.485C173.116 153.737 172.924 154.063 172.924 154.463C172.924 154.81 173.053 155.089 173.309 155.3C173.565 155.511 173.979 155.685 174.551 155.82L176.197 156.197C177.15 156.418 177.861 156.757 178.329 157.216C178.797 157.675 179.031 158.271 179.031 159.004C179.031 159.625 178.851 160.178 178.491 160.664C178.136 161.145 177.638 161.523 177 161.798C176.366 162.072 175.63 162.209 174.793 162.209C173.633 162.209 172.686 161.962 171.953 161.467C171.22 160.968 170.77 160.259 170.603 159.342L172.553 159.045C172.675 159.553 172.924 159.938 173.302 160.199C173.68 160.455 174.173 160.583 174.78 160.583C175.441 160.583 175.97 160.446 176.366 160.172C176.761 159.893 176.959 159.553 176.959 159.153C176.959 158.829 176.838 158.557 176.595 158.336C176.357 158.116 175.99 157.949 175.495 157.837L173.741 157.452C172.774 157.232 172.059 156.881 171.595 156.4C171.136 155.919 170.907 155.309 170.907 154.571C170.907 153.96 171.078 153.424 171.42 152.966C171.762 152.507 172.234 152.149 172.837 151.893C173.439 151.632 174.13 151.501 174.908 151.501C176.028 151.501 176.91 151.744 177.553 152.23C178.196 152.711 178.621 153.357 178.828 154.167ZM186.277 151.636H188.294V162.675C188.294 163.367 188.169 163.952 187.917 164.429C187.669 164.906 187.3 165.268 186.81 165.515C186.324 165.763 185.724 165.886 185.009 165.886C184.937 165.886 184.869 165.886 184.806 165.886C184.739 165.886 184.669 165.884 184.597 165.88V164.146C184.66 164.146 184.716 164.146 184.766 164.146C184.811 164.146 184.862 164.146 184.921 164.146C185.398 164.146 185.742 164.017 185.953 163.761C186.169 163.509 186.277 163.143 186.277 162.661V151.636ZM187.276 150.037C186.925 150.037 186.623 149.92 186.372 149.686C186.124 149.448 186 149.165 186 148.836C186 148.503 186.124 148.22 186.372 147.986C186.623 147.748 186.925 147.629 187.276 147.629C187.627 147.629 187.926 147.748 188.173 147.986C188.425 148.22 188.551 148.503 188.551 148.836C188.551 149.165 188.425 149.448 188.173 149.686C187.926 149.92 187.627 150.037 187.276 150.037ZM197.574 157.702V151.636H199.598V162H197.614V160.205H197.506C197.268 160.759 196.885 161.22 196.359 161.588C195.837 161.953 195.187 162.135 194.409 162.135C193.743 162.135 193.154 161.989 192.641 161.696C192.133 161.4 191.733 160.961 191.44 160.381C191.152 159.8 191.009 159.083 191.009 158.228V151.636H193.026V157.985C193.026 158.692 193.222 159.254 193.613 159.672C194.004 160.091 194.513 160.3 195.138 160.3C195.516 160.3 195.891 160.205 196.265 160.016C196.642 159.827 196.955 159.542 197.202 159.159C197.454 158.777 197.578 158.291 197.574 157.702ZM210.074 154.167L208.246 154.49C208.169 154.257 208.048 154.034 207.881 153.822C207.72 153.611 207.499 153.438 207.22 153.303C206.941 153.168 206.593 153.1 206.174 153.1C205.603 153.1 205.126 153.229 204.744 153.485C204.362 153.737 204.171 154.063 204.171 154.463C204.171 154.81 204.299 155.089 204.555 155.3C204.812 155.511 205.225 155.685 205.797 155.82L207.443 156.197C208.397 156.418 209.107 156.757 209.575 157.216C210.043 157.675 210.277 158.271 210.277 159.004C210.277 159.625 210.097 160.178 209.737 160.664C209.382 161.145 208.885 161.523 208.246 161.798C207.612 162.072 206.876 162.209 206.04 162.209C204.879 162.209 203.932 161.962 203.199 161.467C202.466 160.968 202.016 160.259 201.85 159.342L203.799 159.045C203.921 159.553 204.171 159.938 204.548 160.199C204.926 160.455 205.419 160.583 206.026 160.583C206.687 160.583 207.216 160.446 207.612 160.172C208.007 159.893 208.205 159.553 208.205 159.153C208.205 158.829 208.084 158.557 207.841 158.336C207.603 158.116 207.236 157.949 206.741 157.837L204.987 157.452C204.02 157.232 203.305 156.881 202.841 156.4C202.383 155.919 202.153 155.309 202.153 154.571C202.153 153.96 202.324 153.424 202.666 152.966C203.008 152.507 203.48 152.149 204.083 151.893C204.686 151.632 205.376 151.501 206.154 151.501C207.274 151.501 208.156 151.744 208.799 152.23C209.442 152.711 209.867 153.357 210.074 154.167ZM217.333 151.636V153.256H211.672V151.636H217.333ZM213.19 149.153H215.207V158.957C215.207 159.348 215.266 159.643 215.383 159.841C215.5 160.034 215.65 160.167 215.835 160.239C216.024 160.306 216.228 160.34 216.449 160.34C216.611 160.34 216.752 160.329 216.874 160.306C216.995 160.284 217.09 160.266 217.157 160.252L217.521 161.919C217.405 161.964 217.238 162.009 217.022 162.054C216.806 162.103 216.536 162.13 216.213 162.135C215.682 162.144 215.187 162.049 214.728 161.852C214.269 161.654 213.898 161.348 213.615 160.934C213.331 160.52 213.19 160.001 213.19 159.375V149.153ZM228.958 162.209C227.986 162.209 227.138 161.987 226.414 161.541C225.69 161.096 225.128 160.473 224.727 159.672C224.327 158.872 224.127 157.936 224.127 156.865C224.127 155.79 224.327 154.85 224.727 154.045C225.128 153.24 225.69 152.615 226.414 152.169C227.138 151.724 227.986 151.501 228.958 151.501C229.93 151.501 230.777 151.724 231.502 152.169C232.226 152.615 232.788 153.24 233.188 154.045C233.589 154.85 233.789 155.79 233.789 156.865C233.789 157.936 233.589 158.872 233.188 159.672C232.788 160.473 232.226 161.096 231.502 161.541C230.777 161.987 229.93 162.209 228.958 162.209ZM228.965 160.516C229.594 160.516 230.116 160.349 230.53 160.016C230.944 159.683 231.25 159.24 231.448 158.687C231.65 158.134 231.751 157.524 231.751 156.859C231.751 156.197 231.65 155.59 231.448 155.037C231.25 154.479 230.944 154.032 230.53 153.694C230.116 153.357 229.594 153.188 228.965 153.188C228.33 153.188 227.804 153.357 227.386 153.694C226.972 154.032 226.664 154.479 226.461 155.037C226.264 155.59 226.165 156.197 226.165 156.859C226.165 157.524 226.264 158.134 226.461 158.687C226.664 159.24 226.972 159.683 227.386 160.016C227.804 160.349 228.33 160.516 228.965 160.516ZM238.058 155.847V162H236.041V151.636H237.977V153.323H238.105C238.344 152.774 238.717 152.334 239.225 152.001C239.738 151.668 240.384 151.501 241.162 151.501C241.868 151.501 242.487 151.65 243.017 151.947C243.548 152.239 243.96 152.675 244.252 153.256C244.544 153.836 244.691 154.553 244.691 155.408V162H242.673V155.651C242.673 154.9 242.478 154.313 242.086 153.89C241.695 153.463 241.157 153.249 240.474 153.249C240.006 153.249 239.59 153.35 239.225 153.553C238.866 153.755 238.58 154.052 238.369 154.443C238.162 154.83 238.058 155.298 238.058 155.847ZM251.863 162.209C250.842 162.209 249.962 161.991 249.225 161.555C248.492 161.114 247.925 160.495 247.524 159.699C247.129 158.899 246.931 157.961 246.931 156.886C246.931 155.824 247.129 154.888 247.524 154.079C247.925 153.269 248.483 152.637 249.198 152.183C249.917 151.729 250.759 151.501 251.721 151.501C252.306 151.501 252.873 151.598 253.421 151.792C253.97 151.985 254.463 152.289 254.899 152.702C255.335 153.116 255.679 153.654 255.931 154.315C256.183 154.972 256.309 155.77 256.309 156.71V157.425H248.071V155.914H254.332C254.332 155.383 254.224 154.913 254.008 154.504C253.793 154.09 253.489 153.764 253.098 153.526C252.711 153.287 252.256 153.168 251.735 153.168C251.168 153.168 250.673 153.307 250.25 153.586C249.832 153.861 249.508 154.221 249.279 154.666C249.054 155.107 248.941 155.586 248.941 156.103V157.284C248.941 157.976 249.063 158.566 249.306 159.051C249.553 159.537 249.897 159.908 250.338 160.165C250.779 160.417 251.294 160.543 251.883 160.543C252.265 160.543 252.614 160.489 252.929 160.381C253.244 160.268 253.516 160.102 253.745 159.881C253.975 159.661 254.15 159.389 254.272 159.065L256.181 159.409C256.028 159.971 255.754 160.464 255.358 160.887C254.967 161.305 254.474 161.631 253.88 161.865C253.291 162.094 252.619 162.209 251.863 162.209ZM268.414 151.636V153.256H262.753V151.636H268.414ZM264.271 149.153H266.288V158.957C266.288 159.348 266.347 159.643 266.464 159.841C266.581 160.034 266.731 160.167 266.916 160.239C267.105 160.306 267.309 160.34 267.53 160.34C267.692 160.34 267.833 160.329 267.955 160.306C268.076 160.284 268.171 160.266 268.238 160.252L268.603 161.919C268.486 161.964 268.319 162.009 268.103 162.054C267.887 162.103 267.617 162.13 267.294 162.135C266.763 162.144 266.268 162.049 265.809 161.852C265.35 161.654 264.979 161.348 264.696 160.934C264.413 160.52 264.271 160.001 264.271 159.375V149.153ZM274.899 162.209C273.928 162.209 273.08 161.987 272.356 161.541C271.631 161.096 271.069 160.473 270.669 159.672C270.269 158.872 270.068 157.936 270.068 156.865C270.068 155.79 270.269 154.85 270.669 154.045C271.069 153.24 271.631 152.615 272.356 152.169C273.08 151.724 273.928 151.501 274.899 151.501C275.871 151.501 276.719 151.724 277.443 152.169C278.167 152.615 278.729 153.24 279.13 154.045C279.53 154.85 279.73 155.79 279.73 156.865C279.73 157.936 279.53 158.872 279.13 159.672C278.729 160.473 278.167 161.096 277.443 161.541C276.719 161.987 275.871 162.209 274.899 162.209ZM274.906 160.516C275.536 160.516 276.058 160.349 276.471 160.016C276.885 159.683 277.191 159.24 277.389 158.687C277.591 158.134 277.693 157.524 277.693 156.859C277.693 156.197 277.591 155.59 277.389 155.037C277.191 154.479 276.885 154.032 276.471 153.694C276.058 153.357 275.536 153.188 274.906 153.188C274.272 153.188 273.746 153.357 273.327 153.694C272.913 154.032 272.605 154.479 272.403 155.037C272.205 155.59 272.106 156.197 272.106 156.859C272.106 157.524 272.205 158.134 272.403 158.687C272.605 159.24 272.913 159.683 273.327 160.016C273.746 160.349 274.272 160.516 274.906 160.516ZM286.348 162.209C285.376 162.209 284.528 161.987 283.804 161.541C283.08 161.096 282.517 160.473 282.117 159.672C281.717 158.872 281.517 157.936 281.517 156.865C281.517 155.79 281.717 154.85 282.117 154.045C282.517 153.24 283.08 152.615 283.804 152.169C284.528 151.724 285.376 151.501 286.348 151.501C287.319 151.501 288.167 151.724 288.891 152.169C289.615 152.615 290.178 153.24 290.578 154.045C290.978 154.85 291.179 155.79 291.179 156.865C291.179 157.936 290.978 158.872 290.578 159.672C290.178 160.473 289.615 161.096 288.891 161.541C288.167 161.987 287.319 162.209 286.348 162.209ZM286.354 160.516C286.984 160.516 287.506 160.349 287.92 160.016C288.333 159.683 288.639 159.24 288.837 158.687C289.04 158.134 289.141 157.524 289.141 156.859C289.141 156.197 289.04 155.59 288.837 155.037C288.639 154.479 288.333 154.032 287.92 153.694C287.506 153.357 286.984 153.188 286.354 153.188C285.72 153.188 285.194 153.357 284.775 153.694C284.362 154.032 284.054 154.479 283.851 155.037C283.653 155.59 283.554 156.197 283.554 156.859C283.554 157.524 283.653 158.134 283.851 158.687C284.054 159.24 284.362 159.683 284.775 160.016C285.194 160.349 285.72 160.516 286.354 160.516ZM295.448 148.182V162H293.43V148.182H295.448ZM305.208 155.847V162H303.19V151.636H305.127V153.323H305.255C305.493 152.774 305.867 152.334 306.375 152.001C306.888 151.668 307.533 151.501 308.311 151.501C309.017 151.501 309.636 151.65 310.167 151.947C310.698 152.239 311.109 152.675 311.401 153.256C311.694 153.836 311.84 154.553 311.84 155.408V162H309.823V155.651C309.823 154.9 309.627 154.313 309.236 153.89C308.844 153.463 308.307 153.249 307.623 153.249C307.155 153.249 306.739 153.35 306.375 153.553C306.015 153.755 305.729 154.052 305.518 154.443C305.311 154.83 305.208 155.298 305.208 155.847ZM318.911 162.209C317.939 162.209 317.092 161.987 316.367 161.541C315.643 161.096 315.081 160.473 314.681 159.672C314.28 158.872 314.08 157.936 314.08 156.865C314.08 155.79 314.28 154.85 314.681 154.045C315.081 153.24 315.643 152.615 316.367 152.169C317.092 151.724 317.939 151.501 318.911 151.501C319.883 151.501 320.731 151.724 321.455 152.169C322.179 152.615 322.741 153.24 323.142 154.045C323.542 154.85 323.742 155.79 323.742 156.865C323.742 157.936 323.542 158.872 323.142 159.672C322.741 160.473 322.179 161.096 321.455 161.541C320.731 161.987 319.883 162.209 318.911 162.209ZM318.918 160.516C319.548 160.516 320.069 160.349 320.483 160.016C320.897 159.683 321.203 159.24 321.401 158.687C321.603 158.134 321.704 157.524 321.704 156.859C321.704 156.197 321.603 155.59 321.401 155.037C321.203 154.479 320.897 154.032 320.483 153.694C320.069 153.357 319.548 153.188 318.918 153.188C318.284 153.188 317.757 153.357 317.339 153.694C316.925 154.032 316.617 154.479 316.415 155.037C316.217 155.59 316.118 156.197 316.118 156.859C316.118 157.524 316.217 158.134 316.415 158.687C316.617 159.24 316.925 159.683 317.339 160.016C317.757 160.349 318.284 160.516 318.918 160.516ZM327.925 162L324.876 151.636H326.96L328.991 159.247H329.093L331.13 151.636H333.215L335.239 159.213H335.34L337.358 151.636H339.443L336.4 162H334.342L332.237 154.517H332.081L329.976 162H327.925ZM343.901 148.182L343.725 158.026H341.856L341.681 148.182H343.901ZM342.794 162.128C342.421 162.128 342.102 161.998 341.836 161.737C341.571 161.471 341.44 161.152 341.445 160.779C341.44 160.41 341.571 160.095 341.836 159.834C342.102 159.569 342.421 159.436 342.794 159.436C343.159 159.436 343.474 159.569 343.739 159.834C344.004 160.095 344.139 160.41 344.144 160.779C344.139 161.026 344.074 161.253 343.948 161.46C343.827 161.663 343.665 161.825 343.462 161.946C343.26 162.067 343.037 162.128 342.794 162.128Z" fill="#334C5F"/>
<line x1="24" y1="198.5" x2="370" y2="198.5" stroke="#D1D1D1"/>
<rect x="78" y="458" width="84" height="44" rx="22" fill="#F1F1F1"/>
<path d="M102.313 477.232H100.15C100.14 476.761 100.053 476.346 99.8883 475.988C99.7234 475.625 99.4972 475.321 99.2098 475.076C98.9271 474.827 98.5949 474.638 98.2132 474.511C97.8315 474.384 97.4192 474.32 96.9763 474.32C96.1235 474.32 95.3224 474.537 94.5732 474.97C93.824 475.404 93.1855 476.035 92.6578 476.865C92.1301 477.694 91.7672 478.705 91.5693 479.897C91.3761 481.056 91.3997 482.029 91.64 482.816C91.8803 483.603 92.2855 484.199 92.8557 484.604C93.4306 485.004 94.1209 485.205 94.9266 485.205C95.3978 485.205 95.8572 485.143 96.3049 485.021C96.7572 484.894 97.1766 484.708 97.563 484.463C97.9493 484.218 98.291 483.918 98.5878 483.565C98.8894 483.207 99.125 482.797 99.2946 482.335H101.486C101.25 483.051 100.918 483.706 100.489 484.3C100.06 484.894 99.5538 485.407 98.9695 485.841C98.3852 486.274 97.7444 486.609 97.047 486.845C96.3496 487.08 95.6122 487.198 94.8347 487.198C93.5578 487.198 92.4693 486.894 91.5693 486.286C90.674 485.674 90.0309 484.802 89.6398 483.671C89.2534 482.54 89.1874 481.192 89.4419 479.628C89.701 478.106 90.1958 476.801 90.9261 475.712C91.6612 474.619 92.5565 473.783 93.612 473.203C94.6722 472.619 95.8172 472.327 97.047 472.327C97.8245 472.327 98.536 472.438 99.1815 472.659C99.8271 472.876 100.383 473.196 100.85 473.62C101.321 474.04 101.684 474.553 101.938 475.161C102.192 475.764 102.317 476.455 102.313 477.232ZM103.152 487L104.961 476.144H107.004L106.714 477.868H106.827C107.119 477.284 107.546 476.824 108.107 476.49C108.667 476.151 109.266 475.981 109.902 475.981C110.039 475.981 110.194 475.986 110.368 475.995C110.543 476 110.684 476.012 110.792 476.031L110.453 478.052C110.373 478.028 110.227 478.002 110.015 477.974C109.803 477.941 109.584 477.925 109.358 477.925C108.863 477.925 108.403 478.031 107.979 478.243C107.555 478.45 107.2 478.74 106.912 479.112C106.625 479.48 106.439 479.899 106.354 480.37L105.265 487H103.152ZM115.092 487.219C114.027 487.219 113.145 486.991 112.448 486.534C111.755 486.072 111.27 485.424 110.992 484.59C110.714 483.751 110.669 482.769 110.858 481.642C111.042 480.53 111.411 479.55 111.967 478.702C112.523 477.854 113.216 477.192 114.045 476.716C114.879 476.24 115.801 476.002 116.809 476.002C117.422 476.002 117.999 476.104 118.541 476.306C119.087 476.509 119.551 476.827 119.933 477.26C120.315 477.694 120.579 478.257 120.725 478.95C120.875 479.638 120.871 480.474 120.711 481.459L120.59 482.208H111.953L112.201 480.625H118.76C118.859 480.069 118.833 479.576 118.682 479.147C118.531 478.714 118.272 478.372 117.905 478.123C117.542 477.873 117.085 477.748 116.533 477.748C115.968 477.748 115.44 477.896 114.95 478.193C114.46 478.49 114.05 478.869 113.72 479.331C113.395 479.788 113.19 480.26 113.105 480.745L112.858 482.194C112.736 482.985 112.757 483.622 112.922 484.102C113.091 484.583 113.388 484.931 113.812 485.148C114.236 485.365 114.766 485.473 115.403 485.473C115.812 485.473 116.192 485.417 116.54 485.304C116.894 485.186 117.207 485.014 117.481 484.788C117.754 484.557 117.982 484.269 118.166 483.925L120.103 484.286C119.844 484.875 119.471 485.391 118.986 485.834C118.501 486.272 117.928 486.614 117.268 486.859C116.613 487.099 115.888 487.219 115.092 487.219ZM125.292 487.24C124.604 487.24 124.004 487.113 123.49 486.859C122.976 486.599 122.597 486.225 122.352 485.735C122.107 485.245 122.043 484.644 122.161 483.933C122.265 483.32 122.468 482.816 122.769 482.42C123.075 482.024 123.448 481.711 123.886 481.48C124.324 481.244 124.8 481.068 125.314 480.95C125.827 480.832 126.346 480.745 126.869 480.688C127.528 480.613 128.063 480.549 128.473 480.497C128.888 480.446 129.199 480.366 129.406 480.257C129.613 480.144 129.738 479.96 129.781 479.706V479.656C129.879 479.044 129.79 478.568 129.512 478.229C129.239 477.885 128.763 477.713 128.084 477.713C127.377 477.713 126.784 477.868 126.303 478.179C125.827 478.49 125.476 478.839 125.25 479.225L123.356 478.773C123.695 478.113 124.126 477.581 124.649 477.176C125.177 476.766 125.754 476.469 126.381 476.285C127.008 476.096 127.648 476.002 128.303 476.002C128.737 476.002 129.187 476.054 129.653 476.158C130.12 476.257 130.544 476.44 130.926 476.709C131.312 476.978 131.599 477.362 131.788 477.861C131.976 478.356 132.005 478.999 131.873 479.791L130.678 487H128.614L128.869 485.516H128.784C128.605 485.789 128.355 486.058 128.035 486.321C127.719 486.585 127.333 486.804 126.876 486.979C126.419 487.153 125.891 487.24 125.292 487.24ZM126.013 485.544C126.602 485.544 127.123 485.429 127.575 485.198C128.032 484.967 128.402 484.665 128.685 484.293C128.968 483.916 129.144 483.513 129.215 483.084L129.448 481.685C129.359 481.76 129.201 481.829 128.975 481.89C128.753 481.951 128.504 482.005 128.226 482.052C127.948 482.1 127.674 482.14 127.406 482.173C127.142 482.206 126.923 482.236 126.748 482.264C126.334 482.316 125.945 482.403 125.582 482.526C125.224 482.648 124.925 482.825 124.685 483.056C124.444 483.282 124.293 483.584 124.232 483.961C124.147 484.484 124.272 484.88 124.607 485.148C124.946 485.412 125.415 485.544 126.013 485.544ZM140.37 476.144L140.094 477.84H134.164L134.44 476.144H140.37ZM136.454 473.543H138.568L136.857 483.812C136.791 484.222 136.803 484.531 136.893 484.738C136.982 484.941 137.119 485.08 137.303 485.155C137.491 485.226 137.701 485.261 137.932 485.261C138.101 485.261 138.25 485.249 138.377 485.226C138.504 485.202 138.605 485.184 138.681 485.169L138.794 486.915C138.653 486.962 138.462 487.009 138.221 487.057C137.986 487.108 137.698 487.137 137.359 487.141C136.803 487.151 136.301 487.052 135.854 486.845C135.406 486.632 135.071 486.312 134.85 485.883C134.629 485.45 134.574 484.906 134.687 484.251L136.454 473.543ZM145.433 487.219C144.368 487.219 143.487 486.991 142.789 486.534C142.096 486.072 141.611 485.424 141.333 484.59C141.055 483.751 141.01 482.769 141.199 481.642C141.383 480.53 141.752 479.55 142.309 478.702C142.865 477.854 143.557 477.192 144.386 476.716C145.221 476.24 146.142 476.002 147.15 476.002C147.763 476.002 148.34 476.104 148.882 476.306C149.428 476.509 149.892 476.827 150.274 477.26C150.656 477.694 150.92 478.257 151.066 478.95C151.217 479.638 151.212 480.474 151.052 481.459L150.931 482.208H142.294L142.542 480.625H149.101C149.2 480.069 149.174 479.576 149.023 479.147C148.872 478.714 148.613 478.372 148.246 478.123C147.883 477.873 147.426 477.748 146.874 477.748C146.309 477.748 145.781 477.896 145.291 478.193C144.801 478.49 144.391 478.869 144.061 479.331C143.736 479.788 143.531 480.26 143.446 480.745L143.199 482.194C143.077 482.985 143.098 483.622 143.263 484.102C143.432 484.583 143.729 484.931 144.153 485.148C144.577 485.365 145.107 485.473 145.744 485.473C146.153 485.473 146.533 485.417 146.881 485.304C147.235 485.186 147.548 485.014 147.822 484.788C148.095 484.557 148.323 484.269 148.507 483.925L150.444 484.286C150.185 484.875 149.812 485.391 149.327 485.834C148.842 486.272 148.269 486.614 147.609 486.859C146.955 487.099 146.229 487.219 145.433 487.219Z" fill="#334C5F"/>
<rect width="103" height="44" rx="22" transform="matrix(-1 0 0 1 336 458)" fill="#F1F1F1"/>
<path d="M248.273 472.525L245.87 487H243.686L246.089 472.525H248.273ZM252.061 480.554L251.001 487H248.888L250.697 476.144H252.726L252.429 477.911H252.563C252.907 477.331 253.376 476.869 253.969 476.525C254.568 476.177 255.275 476.002 256.09 476.002C256.825 476.002 257.442 476.158 257.942 476.469C258.446 476.775 258.802 477.232 259.009 477.84C259.221 478.448 259.254 479.199 259.108 480.095L257.949 487H255.835L256.945 480.349C257.072 479.562 256.969 478.947 256.634 478.504C256.304 478.057 255.779 477.833 255.058 477.833C254.568 477.833 254.113 477.939 253.694 478.151C253.279 478.363 252.928 478.674 252.641 479.084C252.358 479.489 252.165 479.979 252.061 480.554ZM263.957 480.554L262.896 487H260.783L262.592 476.144H264.621L264.324 477.911H264.458C264.802 477.331 265.271 476.869 265.865 476.525C266.463 476.177 267.17 476.002 267.985 476.002C268.72 476.002 269.338 476.158 269.837 476.469C270.341 476.775 270.697 477.232 270.904 477.84C271.116 478.448 271.149 479.199 271.003 480.095L269.844 487H267.731L268.84 480.349C268.968 479.562 268.864 478.947 268.53 478.504C268.2 478.057 267.674 477.833 266.953 477.833C266.463 477.833 266.009 477.939 265.589 478.151C265.175 478.363 264.824 478.674 264.536 479.084C264.253 479.489 264.06 479.979 263.957 480.554ZM277.294 487.219C276.262 487.219 275.4 486.984 274.707 486.512C274.014 486.036 273.527 485.372 273.244 484.519C272.966 483.662 272.919 482.665 273.102 481.529C273.282 480.417 273.642 479.447 274.184 478.617C274.73 477.788 275.414 477.145 276.234 476.688C277.058 476.231 277.975 476.002 278.983 476.002C280.015 476.002 280.875 476.24 281.563 476.716C282.256 477.192 282.743 477.859 283.026 478.716C283.309 479.574 283.358 480.573 283.174 481.713C282.995 482.816 282.63 483.782 282.079 484.611C281.532 485.436 280.849 486.076 280.029 486.534C279.209 486.991 278.297 487.219 277.294 487.219ZM277.414 485.445C278.092 485.445 278.684 485.266 279.188 484.908C279.697 484.55 280.112 484.074 280.432 483.48C280.752 482.886 280.971 482.236 281.089 481.529C281.198 480.846 281.195 480.222 281.082 479.656C280.974 479.086 280.738 478.629 280.375 478.285C280.013 477.941 279.508 477.769 278.863 477.769C278.184 477.769 277.588 477.951 277.075 478.313C276.566 478.672 276.151 479.15 275.831 479.748C275.515 480.347 275.301 480.999 275.188 481.706C275.079 482.385 275.079 483.009 275.188 483.579C275.296 484.145 275.532 484.597 275.894 484.936C276.257 485.275 276.764 485.445 277.414 485.445ZM295.391 476.144L289.645 487H287.383L285.249 476.144H287.433L288.79 484.498H288.903L293.038 476.144H295.391ZM298.388 487.24C297.7 487.24 297.099 487.113 296.586 486.859C296.072 486.599 295.693 486.225 295.448 485.735C295.203 485.245 295.139 484.644 295.257 483.933C295.361 483.32 295.563 482.816 295.865 482.42C296.171 482.024 296.543 481.711 296.982 481.48C297.42 481.244 297.896 481.068 298.409 480.95C298.923 480.832 299.441 480.745 299.964 480.688C300.624 480.613 301.159 480.549 301.569 480.497C301.983 480.446 302.294 480.366 302.502 480.257C302.709 480.144 302.834 479.96 302.876 479.706V479.656C302.975 479.044 302.886 478.568 302.608 478.229C302.334 477.885 301.859 477.713 301.18 477.713C300.473 477.713 299.879 477.868 299.399 478.179C298.923 478.49 298.572 478.839 298.346 479.225L296.452 478.773C296.791 478.113 297.222 477.581 297.745 477.176C298.273 476.766 298.85 476.469 299.477 476.285C300.103 476.096 300.744 476.002 301.399 476.002C301.833 476.002 302.283 476.054 302.749 476.158C303.216 476.257 303.64 476.44 304.021 476.709C304.408 476.978 304.695 477.362 304.884 477.861C305.072 478.356 305.1 478.999 304.968 479.791L303.774 487H301.71L301.965 485.516H301.88C301.701 485.789 301.451 486.058 301.131 486.321C300.815 486.585 300.428 486.804 299.971 486.979C299.514 487.153 298.987 487.24 298.388 487.24ZM299.109 485.544C299.698 485.544 300.219 485.429 300.671 485.198C301.128 484.967 301.498 484.665 301.781 484.293C302.063 483.916 302.24 483.513 302.311 483.084L302.544 481.685C302.455 481.76 302.297 481.829 302.071 481.89C301.849 481.951 301.599 482.005 301.321 482.052C301.043 482.1 300.77 482.14 300.501 482.173C300.238 482.206 300.018 482.236 299.844 482.264C299.429 482.316 299.041 482.403 298.678 482.526C298.32 482.648 298.021 482.825 297.78 483.056C297.54 483.282 297.389 483.584 297.328 483.961C297.243 484.484 297.368 484.88 297.703 485.148C298.042 485.412 298.511 485.544 299.109 485.544ZM313.466 476.144L313.19 477.84H307.26L307.536 476.144H313.466ZM309.55 473.543H311.664L309.953 483.812C309.887 484.222 309.899 484.531 309.988 484.738C310.078 484.941 310.215 485.08 310.398 485.155C310.587 485.226 310.797 485.261 311.027 485.261C311.197 485.261 311.345 485.249 311.473 485.226C311.6 485.202 311.701 485.184 311.777 485.169L311.89 486.915C311.748 486.962 311.558 487.009 311.317 487.057C311.082 487.108 310.794 487.137 310.455 487.141C309.899 487.151 309.397 487.052 308.949 486.845C308.502 486.632 308.167 486.312 307.946 485.883C307.724 485.45 307.67 484.906 307.783 484.251L309.55 473.543ZM318.528 487.219C317.463 487.219 316.582 486.991 315.885 486.534C315.192 486.072 314.707 485.424 314.429 484.59C314.151 483.751 314.106 482.769 314.295 481.642C314.478 480.53 314.848 479.55 315.404 478.702C315.96 477.854 316.653 477.192 317.482 476.716C318.316 476.24 319.237 476.002 320.246 476.002C320.858 476.002 321.436 476.104 321.977 476.306C322.524 476.509 322.988 476.827 323.37 477.26C323.752 477.694 324.015 478.257 324.161 478.95C324.312 479.638 324.308 480.474 324.147 481.459L324.027 482.208H315.39L315.638 480.625H322.197C322.296 480.069 322.27 479.576 322.119 479.147C321.968 478.714 321.709 478.372 321.341 478.123C320.979 477.873 320.521 477.748 319.97 477.748C319.405 477.748 318.877 477.896 318.387 478.193C317.897 478.49 317.487 478.869 317.157 479.331C316.832 479.788 316.627 480.26 316.542 480.745L316.295 482.194C316.172 482.985 316.194 483.622 316.358 484.102C316.528 484.583 316.825 484.931 317.249 485.148C317.673 485.365 318.203 485.473 318.839 485.473C319.249 485.473 319.629 485.417 319.977 485.304C320.331 485.186 320.644 485.014 320.917 484.788C321.191 484.557 321.419 484.269 321.603 483.925L323.54 484.286C323.28 484.875 322.908 485.391 322.423 485.834C321.937 486.272 321.365 486.614 320.705 486.859C320.05 487.099 319.325 487.219 318.528 487.219Z" fill="#334C5F"/>
<rect x="89" y="346" width="69" height="44" rx="22" fill="#F1F1F1"/>
<path d="M99.6856 375L102.089 360.525H107.248C108.37 360.525 109.267 360.718 109.941 361.104C110.62 361.486 111.086 362.018 111.341 362.702C111.6 363.38 111.656 364.167 111.51 365.062C111.36 365.948 111.041 366.726 110.556 367.395C110.076 368.064 109.432 368.587 108.627 368.964C107.826 369.336 106.864 369.522 105.743 369.522H101.834L102.159 367.642H105.87C106.582 367.642 107.175 367.541 107.651 367.338C108.127 367.136 108.499 366.841 108.768 366.455C109.041 366.068 109.22 365.604 109.305 365.062C109.395 364.511 109.369 364.038 109.227 363.642C109.086 363.241 108.81 362.935 108.4 362.723C107.99 362.506 107.427 362.398 106.711 362.398H103.969L101.87 375H99.6856ZM107.913 368.469L110.408 375H107.92L105.488 368.469H107.913ZM116.917 375.219C115.852 375.219 114.971 374.991 114.274 374.534C113.581 374.072 113.096 373.424 112.818 372.59C112.54 371.751 112.495 370.769 112.684 369.642C112.867 368.53 113.237 367.55 113.793 366.702C114.349 365.854 115.042 365.192 115.871 364.716C116.705 364.24 117.626 364.002 118.635 364.002C119.247 364.002 119.825 364.104 120.366 364.306C120.913 364.509 121.377 364.827 121.759 365.26C122.141 365.694 122.404 366.257 122.55 366.95C122.701 367.638 122.697 368.474 122.536 369.459L122.416 370.208H113.779L114.027 368.625H120.586C120.685 368.069 120.659 367.576 120.508 367.147C120.357 366.714 120.098 366.372 119.73 366.123C119.368 365.873 118.91 365.748 118.359 365.748C117.794 365.748 117.266 365.896 116.776 366.193C116.286 366.49 115.876 366.869 115.546 367.331C115.221 367.788 115.016 368.26 114.931 368.745L114.684 370.194C114.561 370.985 114.583 371.622 114.747 372.102C114.917 372.583 115.214 372.931 115.638 373.148C116.062 373.365 116.592 373.473 117.228 373.473C117.638 373.473 118.018 373.417 118.366 373.304C118.72 373.186 119.033 373.014 119.306 372.788C119.58 372.557 119.808 372.269 119.992 371.925L121.928 372.286C121.669 372.875 121.297 373.391 120.812 373.834C120.326 374.272 119.754 374.614 119.094 374.859C118.439 375.099 117.714 375.219 116.917 375.219ZM127.118 375.24C126.43 375.24 125.829 375.113 125.316 374.859C124.802 374.599 124.423 374.225 124.178 373.735C123.933 373.245 123.869 372.644 123.987 371.933C124.091 371.32 124.293 370.816 124.595 370.42C124.901 370.024 125.273 369.711 125.712 369.48C126.15 369.244 126.626 369.068 127.139 368.95C127.653 368.832 128.171 368.745 128.694 368.688C129.354 368.613 129.889 368.549 130.299 368.497C130.713 368.446 131.024 368.366 131.232 368.257C131.439 368.144 131.564 367.96 131.606 367.706V367.656C131.705 367.044 131.616 366.568 131.338 366.229C131.064 365.885 130.589 365.713 129.91 365.713C129.203 365.713 128.609 365.868 128.129 366.179C127.653 366.49 127.302 366.839 127.076 367.225L125.182 366.773C125.521 366.113 125.952 365.581 126.475 365.176C127.003 364.766 127.58 364.469 128.207 364.285C128.833 364.096 129.474 364.002 130.129 364.002C130.563 364.002 131.013 364.054 131.479 364.158C131.946 364.257 132.37 364.44 132.751 364.709C133.138 364.978 133.425 365.362 133.614 365.861C133.802 366.356 133.83 366.999 133.698 367.791L132.504 375H130.44L130.695 373.516H130.61C130.431 373.789 130.181 374.058 129.861 374.321C129.545 374.585 129.158 374.804 128.701 374.979C128.244 375.153 127.717 375.24 127.118 375.24ZM127.839 373.544C128.428 373.544 128.949 373.429 129.401 373.198C129.858 372.967 130.228 372.665 130.511 372.293C130.793 371.916 130.97 371.513 131.041 371.084L131.274 369.685C131.185 369.76 131.027 369.829 130.801 369.89C130.579 369.951 130.329 370.005 130.051 370.052C129.773 370.1 129.5 370.14 129.231 370.173C128.968 370.206 128.748 370.236 128.574 370.264C128.159 370.316 127.771 370.403 127.408 370.526C127.05 370.648 126.751 370.825 126.51 371.056C126.27 371.282 126.119 371.584 126.058 371.961C125.973 372.484 126.098 372.88 126.433 373.148C126.772 373.412 127.241 373.544 127.839 373.544ZM139.369 375.212C138.488 375.212 137.741 374.988 137.128 374.541C136.52 374.088 136.089 373.445 135.835 372.611C135.585 371.772 135.557 370.766 135.75 369.593C135.948 368.42 136.313 367.416 136.845 366.582C137.378 365.748 138.023 365.11 138.782 364.667C139.541 364.224 140.358 364.002 141.235 364.002C141.908 364.002 142.431 364.115 142.804 364.342C143.181 364.563 143.459 364.822 143.638 365.119C143.817 365.416 143.951 365.677 144.041 365.904H144.161L145.058 360.525H147.172L144.769 375H142.705L142.995 373.311H142.818C142.653 373.542 142.424 373.806 142.132 374.102C141.845 374.399 141.477 374.658 141.03 374.88C140.582 375.101 140.028 375.212 139.369 375.212ZM140.083 373.41C140.69 373.41 141.235 373.249 141.715 372.929C142.201 372.604 142.603 372.154 142.924 371.579C143.249 371.004 143.475 370.335 143.602 369.572C143.73 368.818 143.727 368.158 143.595 367.593C143.463 367.027 143.209 366.587 142.832 366.271C142.455 365.955 141.958 365.798 141.341 365.798C140.705 365.798 140.151 365.962 139.68 366.292C139.209 366.622 138.822 367.072 138.521 367.642C138.224 368.212 138.016 368.856 137.899 369.572C137.776 370.297 137.771 370.95 137.884 371.53C137.998 372.109 138.235 372.569 138.598 372.908C138.961 373.242 139.456 373.41 140.083 373.41Z" fill="#334C5F"/>
<rect width="133" height="44" rx="22" transform="matrix(-1 0 0 1 384 402)" fill="#F1F1F1"/>
<path d="M273.397 416.525H275.588L274.012 426.045C273.847 427.058 273.461 427.956 272.853 428.738C272.245 429.516 271.472 430.128 270.535 430.576C269.597 431.019 268.551 431.24 267.397 431.24C266.237 431.24 265.264 431.019 264.477 430.576C263.691 430.128 263.123 429.516 262.774 428.738C262.43 427.956 262.343 427.058 262.513 426.045L264.089 416.525H266.273L264.725 425.869C264.621 426.524 264.671 427.106 264.873 427.614C265.081 428.123 265.425 428.524 265.905 428.816C266.391 429.103 267.001 429.247 267.736 429.247C268.471 429.247 269.128 429.103 269.708 428.816C270.292 428.524 270.768 428.123 271.135 427.614C271.508 427.106 271.746 426.524 271.849 425.869L273.397 416.525ZM279.371 424.554L278.311 431H276.198L278.007 420.144H280.036L279.739 421.911H279.873C280.217 421.331 280.686 420.869 281.28 420.525C281.878 420.177 282.585 420.002 283.4 420.002C284.135 420.002 284.753 420.158 285.252 420.469C285.756 420.775 286.112 421.232 286.319 421.84C286.531 422.448 286.564 423.199 286.418 424.095L285.259 431H283.146L284.255 424.349C284.383 423.562 284.279 422.947 283.944 422.504C283.615 422.057 283.089 421.833 282.368 421.833C281.878 421.833 281.423 421.939 281.004 422.151C280.589 422.363 280.238 422.674 279.951 423.084C279.668 423.489 279.475 423.979 279.371 424.554ZM292.136 431.212C291.255 431.212 290.508 430.988 289.896 430.541C289.288 430.088 288.857 429.445 288.602 428.611C288.352 427.772 288.324 426.766 288.517 425.593C288.715 424.42 289.08 423.416 289.613 422.582C290.145 421.748 290.791 421.11 291.55 420.667C292.308 420.224 293.126 420.002 294.002 420.002C294.676 420.002 295.199 420.115 295.571 420.342C295.948 420.563 296.226 420.822 296.405 421.119C296.584 421.416 296.719 421.677 296.808 421.904H296.928L297.826 416.525H299.939L297.536 431H295.472L295.762 429.311H295.585C295.42 429.542 295.192 429.806 294.9 430.102C294.612 430.399 294.245 430.658 293.797 430.88C293.35 431.101 292.796 431.212 292.136 431.212ZM292.85 429.41C293.458 429.41 294.002 429.249 294.483 428.929C294.968 428.604 295.371 428.154 295.691 427.579C296.016 427.004 296.243 426.335 296.37 425.572C296.497 424.818 296.495 424.158 296.363 423.593C296.231 423.027 295.976 422.587 295.599 422.271C295.223 421.955 294.725 421.798 294.108 421.798C293.472 421.798 292.918 421.962 292.447 422.292C291.976 422.622 291.59 423.072 291.288 423.642C290.991 424.212 290.784 424.856 290.666 425.572C290.544 426.297 290.539 426.95 290.652 427.53C290.765 428.109 291.003 428.569 291.366 428.908C291.729 429.242 292.223 429.41 292.85 429.41ZM305.196 431.219C304.131 431.219 303.25 430.991 302.553 430.534C301.86 430.072 301.375 429.424 301.097 428.59C300.819 427.751 300.774 426.769 300.962 425.642C301.146 424.53 301.516 423.55 302.072 422.702C302.628 421.854 303.321 421.192 304.15 420.716C304.984 420.24 305.905 420.002 306.914 420.002C307.526 420.002 308.103 420.104 308.645 420.306C309.192 420.509 309.656 420.827 310.038 421.26C310.419 421.694 310.683 422.257 310.829 422.95C310.98 423.638 310.975 424.474 310.815 425.459L310.695 426.208H302.058L302.305 424.625H308.864C308.963 424.069 308.937 423.576 308.787 423.147C308.636 422.714 308.377 422.372 308.009 422.123C307.646 421.873 307.189 421.748 306.638 421.748C306.072 421.748 305.545 421.896 305.055 422.193C304.565 422.49 304.155 422.869 303.825 423.331C303.5 423.788 303.295 424.26 303.21 424.745L302.963 426.194C302.84 426.985 302.861 427.622 303.026 428.102C303.196 428.583 303.493 428.931 303.917 429.148C304.341 429.365 304.871 429.473 305.507 429.473C305.917 429.473 306.296 429.417 306.645 429.304C306.998 429.186 307.312 429.014 307.585 428.788C307.858 428.557 308.087 428.269 308.271 427.925L310.207 428.286C309.948 428.875 309.576 429.391 309.09 429.834C308.605 430.272 308.033 430.614 307.373 430.859C306.718 431.099 305.992 431.219 305.196 431.219ZM312.266 431L314.075 420.144H316.118L315.828 421.868H315.941C316.233 421.284 316.66 420.824 317.22 420.49C317.781 420.151 318.38 419.981 319.016 419.981C319.152 419.981 319.308 419.986 319.482 419.995C319.656 420 319.798 420.012 319.906 420.031L319.567 422.052C319.487 422.028 319.341 422.002 319.129 421.974C318.917 421.941 318.698 421.925 318.471 421.925C317.977 421.925 317.517 422.031 317.093 422.243C316.669 422.45 316.313 422.74 316.026 423.112C315.738 423.48 315.552 423.899 315.468 424.37L314.379 431H312.266ZM329.45 422.794L327.478 423.133C327.435 422.884 327.348 422.648 327.216 422.427C327.089 422.205 326.894 422.026 326.63 421.889C326.366 421.748 326.015 421.677 325.577 421.677C324.969 421.677 324.436 421.816 323.979 422.094C323.527 422.372 323.268 422.726 323.202 423.155C323.14 423.503 323.223 423.786 323.449 424.003C323.675 424.215 324.073 424.391 324.644 424.533L326.312 424.929C327.273 425.16 327.961 425.52 328.375 426.01C328.795 426.495 328.941 427.127 328.814 427.904C328.705 428.55 328.423 429.122 327.965 429.622C327.513 430.121 326.934 430.512 326.227 430.795C325.52 431.078 324.733 431.219 323.866 431.219C322.632 431.219 321.67 430.958 320.982 430.435C320.294 429.912 319.941 429.172 319.922 428.215L322.014 427.904C322.052 428.437 322.243 428.84 322.587 429.113C322.935 429.381 323.418 429.516 324.036 429.516C324.742 429.52 325.334 429.372 325.81 429.07C326.286 428.769 326.557 428.404 326.623 427.975C326.679 427.64 326.604 427.362 326.396 427.141C326.194 426.919 325.836 426.75 325.322 426.632L323.569 426.229C322.589 425.998 321.896 425.626 321.491 425.112C321.086 424.599 320.949 423.953 321.081 423.176C321.185 422.54 321.454 421.986 321.887 421.515C322.325 421.039 322.879 420.669 323.548 420.405C324.217 420.137 324.957 420.002 325.767 420.002C326.95 420.002 327.838 420.257 328.432 420.766C329.026 421.27 329.365 421.946 329.45 422.794ZM337.491 420.144L337.216 421.84H331.286L331.561 420.144H337.491ZM333.576 417.543H335.689L333.979 427.812C333.913 428.222 333.924 428.531 334.014 428.738C334.103 428.941 334.24 429.08 334.424 429.155C334.612 429.226 334.822 429.261 335.053 429.261C335.223 429.261 335.371 429.249 335.498 429.226C335.625 429.202 335.727 429.184 335.802 429.169L335.915 430.915C335.774 430.962 335.583 431.009 335.343 431.057C335.107 431.108 334.82 431.137 334.48 431.141C333.924 431.151 333.423 431.052 332.975 430.845C332.527 430.632 332.193 430.312 331.971 429.883C331.75 429.45 331.696 428.906 331.809 428.251L333.576 417.543ZM341.151 431.24C340.463 431.24 339.862 431.113 339.348 430.859C338.835 430.599 338.456 430.225 338.21 429.735C337.965 429.245 337.902 428.644 338.02 427.933C338.123 427.32 338.326 426.816 338.628 426.42C338.934 426.024 339.306 425.711 339.744 425.48C340.182 425.244 340.658 425.068 341.172 424.95C341.686 424.832 342.204 424.745 342.727 424.688C343.387 424.613 343.921 424.549 344.331 424.497C344.746 424.446 345.057 424.366 345.264 424.257C345.472 424.144 345.597 423.96 345.639 423.706V423.656C345.738 423.044 345.648 422.568 345.37 422.229C345.097 421.885 344.621 421.713 343.943 421.713C343.236 421.713 342.642 421.868 342.161 422.179C341.686 422.49 341.335 422.839 341.108 423.225L339.214 422.773C339.553 422.113 339.985 421.581 340.508 421.176C341.035 420.766 341.613 420.469 342.239 420.285C342.866 420.096 343.507 420.002 344.162 420.002C344.595 420.002 345.045 420.054 345.512 420.158C345.978 420.257 346.402 420.44 346.784 420.709C347.17 420.978 347.458 421.362 347.646 421.861C347.835 422.356 347.863 422.999 347.731 423.791L346.537 431H344.473L344.727 429.516H344.642C344.463 429.789 344.214 430.058 343.893 430.321C343.577 430.585 343.191 430.804 342.734 430.979C342.277 431.153 341.749 431.24 341.151 431.24ZM341.872 429.544C342.461 429.544 342.981 429.429 343.434 429.198C343.891 428.967 344.261 428.665 344.543 428.293C344.826 427.916 345.003 427.513 345.073 427.084L345.307 425.685C345.217 425.76 345.059 425.829 344.833 425.89C344.612 425.951 344.362 426.005 344.084 426.052C343.806 426.1 343.533 426.14 343.264 426.173C343 426.206 342.781 426.236 342.607 426.264C342.192 426.316 341.803 426.403 341.441 426.526C341.082 426.648 340.783 426.825 340.543 427.056C340.303 427.282 340.152 427.584 340.091 427.961C340.006 428.484 340.131 428.88 340.465 429.148C340.804 429.412 341.273 429.544 341.872 429.544ZM352.532 424.554L351.472 431H349.358L351.168 420.144H353.196L352.9 421.911H353.034C353.378 421.331 353.847 420.869 354.44 420.525C355.039 420.177 355.746 420.002 356.561 420.002C357.296 420.002 357.913 420.158 358.413 420.469C358.917 420.775 359.272 421.232 359.48 421.84C359.692 422.448 359.725 423.199 359.579 424.095L358.42 431H356.306L357.416 424.349C357.543 423.562 357.44 422.947 357.105 422.504C356.775 422.057 356.25 421.833 355.529 421.833C355.039 421.833 354.584 421.939 354.165 422.151C353.75 422.363 353.399 422.674 353.112 423.084C352.829 423.489 352.636 423.979 352.532 424.554ZM365.297 431.212C364.416 431.212 363.669 430.988 363.056 430.541C362.448 430.088 362.017 429.445 361.763 428.611C361.513 427.772 361.485 426.766 361.678 425.593C361.876 424.42 362.241 423.416 362.773 422.582C363.306 421.748 363.951 421.11 364.71 420.667C365.469 420.224 366.286 420.002 367.163 420.002C367.836 420.002 368.36 420.115 368.732 420.342C369.109 420.563 369.387 420.822 369.566 421.119C369.745 421.416 369.879 421.677 369.969 421.904H370.089L370.986 416.525H373.1L370.697 431H368.633L368.923 429.311H368.746C368.581 429.542 368.352 429.806 368.06 430.102C367.773 430.399 367.405 430.658 366.958 430.88C366.51 431.101 365.956 431.212 365.297 431.212ZM366.011 429.41C366.618 429.41 367.163 429.249 367.643 428.929C368.129 428.604 368.532 428.154 368.852 427.579C369.177 427.004 369.403 426.335 369.53 425.572C369.658 424.818 369.655 424.158 369.523 423.593C369.391 423.027 369.137 422.587 368.76 422.271C368.383 421.955 367.886 421.798 367.269 421.798C366.633 421.798 366.079 421.962 365.608 422.292C365.137 422.622 364.75 423.072 364.449 423.642C364.152 424.212 363.944 424.856 363.827 425.572C363.704 426.297 363.699 426.95 363.812 427.53C363.926 428.109 364.163 428.569 364.526 428.908C364.889 429.242 365.384 429.41 366.011 429.41Z" fill="#334C5F"/>
<rect x="27" y="402" width="99" height="44" rx="22" fill="#F1F1F1"/>
<path d="M40.0887 416.525H42.7392L45.4957 427.777H45.6653L52.1255 416.525H54.7759L52.3728 431H50.2949L52.0406 420.525H51.9063L45.8986 430.979H44.1669L41.6507 420.518H41.5164L39.7636 431H37.6856L40.0887 416.525ZM60.0292 431.219C58.9643 431.219 58.0832 430.991 57.3858 430.534C56.6931 430.072 56.2078 429.424 55.9298 428.59C55.6518 427.751 55.607 426.769 55.7955 425.642C55.9793 424.53 56.3492 423.55 56.9052 422.702C57.4612 421.854 58.1538 421.192 58.9832 420.716C59.8172 420.24 60.7384 420.002 61.7467 420.002C62.3593 420.002 62.9365 420.104 63.4784 420.306C64.025 420.509 64.4891 420.827 64.8708 421.26C65.2524 421.694 65.5163 422.257 65.6624 422.95C65.8132 423.638 65.8085 424.474 65.6482 425.459L65.5281 426.208H56.891L57.1384 424.625H63.6975C63.7964 424.069 63.7705 423.576 63.6197 423.147C63.469 422.714 63.2098 422.372 62.8423 422.123C62.4794 421.873 62.0224 421.748 61.4711 421.748C60.9056 421.748 60.3779 421.896 59.8879 422.193C59.3978 422.49 58.9879 422.869 58.658 423.331C58.3329 423.788 58.1279 424.26 58.0431 424.745L57.7957 426.194C57.6732 426.985 57.6944 427.622 57.8593 428.102C58.029 428.583 58.3258 428.931 58.7499 429.148C59.174 429.365 59.7041 429.473 60.3402 429.473C60.7501 429.473 61.1295 429.417 61.4781 429.304C61.8315 429.186 62.1449 429.014 62.4182 428.788C62.6915 428.557 62.92 428.269 63.1038 427.925L65.0404 428.286C64.7812 428.875 64.409 429.391 63.9237 429.834C63.4383 430.272 62.8658 430.614 62.2061 430.859C61.5512 431.099 60.8255 431.219 60.0292 431.219ZM67.106 431L68.9154 420.144H70.9439L70.6471 421.911H70.7814C71.1112 421.312 71.5588 420.846 72.1243 420.511C72.6944 420.172 73.34 420.002 74.0609 420.002C74.7771 420.002 75.3543 420.172 75.7926 420.511C76.2355 420.85 76.5253 421.317 76.6619 421.911H76.775C77.1237 421.326 77.6114 420.862 78.2381 420.518C78.8648 420.174 79.5692 420.002 80.3514 420.002C81.3268 420.002 82.076 420.313 82.599 420.935C83.1267 421.552 83.287 422.481 83.0796 423.72L81.8639 431H79.7435L80.931 423.918C81.0488 423.178 80.9357 422.646 80.5917 422.321C80.2477 421.991 79.7977 421.826 79.2417 421.826C78.5538 421.826 77.9836 422.038 77.5313 422.462C77.0789 422.881 76.8009 423.421 76.6973 424.08L75.531 431H73.4318L74.6405 423.784C74.7347 423.19 74.6263 422.716 74.3153 422.363C74.0091 422.005 73.5614 421.826 72.9724 421.826C72.5719 421.826 72.1832 421.932 71.8062 422.144C71.434 422.356 71.1159 422.648 70.852 423.02C70.5882 423.393 70.4162 423.821 70.3361 424.307L69.2193 431H67.106ZM89.3118 431.219C88.2799 431.219 87.4176 430.984 86.7249 430.512C86.0323 430.036 85.5446 429.372 85.2619 428.519C84.9839 427.662 84.9367 426.665 85.1205 425.529C85.2996 424.417 85.66 423.447 86.2019 422.617C86.7485 421.788 87.4317 421.145 88.2516 420.688C89.0762 420.231 89.9927 420.002 91.0011 420.002C92.033 420.002 92.8929 420.24 93.5809 420.716C94.2735 421.192 94.7612 421.859 95.0439 422.716C95.3267 423.574 95.3761 424.573 95.1924 425.713C95.0133 426.816 94.6481 427.782 94.0968 428.611C93.5502 429.436 92.867 430.076 92.0471 430.534C91.2272 430.991 90.3155 431.219 89.3118 431.219ZM89.432 429.445C90.1105 429.445 90.7018 429.266 91.206 428.908C91.7149 428.55 92.1296 428.074 92.45 427.48C92.7704 426.886 92.9895 426.236 93.1073 425.529C93.2157 424.846 93.2133 424.222 93.1002 423.656C92.9919 423.086 92.7563 422.629 92.3934 422.285C92.0306 421.941 91.5264 421.769 90.8809 421.769C90.2024 421.769 89.6063 421.951 89.0927 422.313C88.5838 422.672 88.1692 423.15 87.8487 423.748C87.533 424.347 87.3186 424.999 87.2056 425.706C87.0972 426.385 87.0972 427.009 87.2056 427.579C87.3139 428.145 87.5495 428.597 87.9124 428.936C88.2752 429.275 88.7817 429.445 89.432 429.445ZM96.6819 431L98.4913 420.144H100.534L100.244 421.868H100.357C100.649 421.284 101.076 420.824 101.637 420.49C102.197 420.151 102.796 419.981 103.432 419.981C103.568 419.981 103.724 419.986 103.898 419.995C104.073 420 104.214 420.012 104.322 420.031L103.983 422.052C103.903 422.028 103.757 422.002 103.545 421.974C103.333 421.941 103.114 421.925 102.888 421.925C102.393 421.925 101.933 422.031 101.509 422.243C101.085 422.45 100.73 422.74 100.442 423.112C100.155 423.48 99.9685 423.899 99.8837 424.37L98.7953 431H96.6819ZM105.361 435.071C105.041 435.071 104.756 435.045 104.506 434.993C104.256 434.946 104.07 434.894 103.948 434.838L104.754 433.106C105.126 433.21 105.458 433.25 105.75 433.226C106.047 433.203 106.325 433.08 106.584 432.859C106.843 432.637 107.107 432.289 107.376 431.813L107.772 431.099L105.644 420.144H107.821L109.164 428.59H109.277L113.433 420.144H115.787L109.277 432.435C108.971 433.019 108.622 433.504 108.231 433.891C107.845 434.282 107.411 434.576 106.93 434.774C106.455 434.972 105.932 435.071 105.361 435.071Z" fill="#334C5F"/>
<rect width="73" height="44" rx="22" transform="matrix(-1 0 0 1 306 346)" fill="#F1F1F1"/>
<path d="M245.064 362.405L245.375 360.525H256.578L256.267 362.405H251.75L249.658 375H247.481L249.573 362.405H245.064ZM259.661 368.554L258.601 375H256.487L258.891 360.525H260.976L260.085 365.911H260.219C260.563 365.322 261.025 364.857 261.605 364.518C262.189 364.174 262.905 364.002 263.753 364.002C264.498 364.002 265.122 364.155 265.626 364.462C266.135 364.768 266.493 365.225 266.701 365.833C266.913 366.436 266.946 367.19 266.8 368.095L265.64 375H263.527L264.63 368.349C264.762 367.553 264.658 366.935 264.319 366.497C263.98 366.054 263.449 365.833 262.728 365.833C262.224 365.833 261.758 365.939 261.329 366.151C260.905 366.363 260.547 366.674 260.255 367.084C259.963 367.489 259.765 367.979 259.661 368.554ZM268.454 375L270.263 364.144H272.376L270.567 375H268.454ZM271.761 362.447C271.394 362.447 271.083 362.325 270.828 362.08C270.579 361.83 270.463 361.533 270.482 361.189C270.501 360.841 270.647 360.544 270.92 360.299C271.194 360.049 271.512 359.924 271.874 359.924C272.242 359.924 272.551 360.049 272.8 360.299C273.05 360.544 273.168 360.841 273.154 361.189C273.135 361.533 272.989 361.83 272.716 362.08C272.447 362.325 272.129 362.447 271.761 362.447ZM276.591 368.554L275.53 375H273.417L275.226 364.144H277.255L276.958 365.911H277.092C277.436 365.331 277.905 364.869 278.499 364.525C279.097 364.177 279.804 364.002 280.619 364.002C281.354 364.002 281.972 364.158 282.471 364.469C282.975 364.775 283.331 365.232 283.538 365.84C283.75 366.448 283.783 367.199 283.637 368.095L282.478 375H280.365L281.474 368.349C281.602 367.562 281.498 366.947 281.164 366.504C280.834 366.057 280.308 365.833 279.587 365.833C279.097 365.833 278.643 365.939 278.223 366.151C277.809 366.363 277.458 366.674 277.17 367.084C276.887 367.489 276.694 367.979 276.591 368.554ZM287.857 371.318L288.26 368.738H288.634L293.737 364.144H296.268L290.472 369.374H290.14L287.857 371.318ZM285.305 375L287.708 360.525H289.822L287.419 375H285.305ZM292.161 375L289.136 369.84L290.825 368.363L294.755 375H292.161Z" fill="#334C5F"/>
<path d="M177.084 406.091L171.288 441H163.908L168.544 413.097H168.339L159.51 418.108L160.601 411.562L170.146 406.091H177.084ZM193.153 441.767C190.222 441.767 187.818 441.051 185.943 439.619C184.068 438.176 182.79 436.097 182.108 433.381C181.438 430.665 181.42 427.398 182.057 423.58C182.705 419.773 183.812 416.528 185.381 413.847C186.96 411.165 188.915 409.125 191.244 407.727C193.585 406.318 196.216 405.614 199.136 405.614C202.045 405.614 204.438 406.318 206.312 407.727C208.188 409.136 209.472 411.176 210.165 413.847C210.869 416.517 210.903 419.761 210.267 423.58C209.631 427.409 208.523 430.682 206.943 433.398C205.364 436.102 203.403 438.176 201.062 439.619C198.722 441.051 196.085 441.767 193.153 441.767ZM194.176 435.648C196.188 435.648 197.949 434.642 199.46 432.631C200.972 430.619 202.063 427.602 202.733 423.58C203.176 420.943 203.273 418.744 203.023 416.983C202.784 415.21 202.244 413.881 201.403 412.994C200.563 412.108 199.477 411.665 198.148 411.665C196.159 411.665 194.398 412.665 192.864 414.665C191.341 416.653 190.25 419.625 189.591 423.58C189.148 426.261 189.051 428.5 189.301 430.295C189.551 432.08 190.097 433.42 190.938 434.318C191.778 435.205 192.858 435.648 194.176 435.648ZM223.132 414.818L226.405 423.972L232.865 414.818H240.314L230.547 427.909L236.155 441H228.74L225.075 431.949L218.496 441H210.996L220.95 427.909L215.632 414.818H223.132Z" fill="#E97545"/>
<path d="M123.595 261.017C127.703 262.465 130.954 265.72 132.405 269.828C132.811 270.972 133.866 271.753 135.082 271.753H139.017C138.383 267.263 136.298 263.246 133.239 260.184C130.177 257.122 126.16 255.037 121.67 254.406V258.344C121.67 259.557 122.451 260.616 123.595 261.017Z" fill="#E97545"/>
<path d="M115.621 247.153V243.26C115.621 242.496 114.945 241.907 114.19 242.012C99.2029 244.107 87.451 256.28 86 271.467H90.2092C90.8236 271.467 91.353 271.026 91.4478 270.418C92.3596 264.467 95.1636 259.13 99.2257 255.071C103.523 250.767 109.252 247.878 115.621 247.153Z" fill="#262626"/>
<path d="M105.177 269.828C106.625 265.72 109.88 262.465 113.988 261.017C115.132 260.616 115.913 259.557 115.913 258.344V254.406C111.422 255.04 107.406 257.125 104.344 260.184C101.285 263.246 99.1966 267.263 98.5659 271.753H102.504C103.713 271.753 104.772 270.972 105.177 269.828Z" fill="#E97545"/>
<path d="M113.988 288.251C109.88 286.803 106.628 283.548 105.177 279.44C104.775 278.297 103.716 277.516 102.501 277.516H98.5659C99.1999 282.006 101.285 286.022 104.344 289.084C107.406 292.147 111.422 294.232 115.913 294.862V290.924C115.913 289.715 115.132 288.656 113.988 288.251Z" fill="#E97545"/>
<path d="M138.357 294.2C134.298 298.263 128.962 301.067 123.011 301.978C122.403 302.07 121.962 302.603 121.962 303.217V307.426C137.145 305.975 149.322 294.223 151.416 279.236C151.521 278.481 150.933 277.805 150.168 277.805H146.276C145.547 284.174 142.658 289.903 138.357 294.2Z" fill="#262626"/>
<path d="M135.082 277.516C133.869 277.516 132.811 278.297 132.405 279.44C130.958 283.548 127.703 286.803 123.595 288.251C122.451 288.653 121.67 289.712 121.67 290.928V294.862C126.16 294.232 130.177 292.143 133.239 289.084C136.298 286.022 138.386 282.006 139.017 277.516H135.082Z" fill="#E97545"/>
<path d="M118.791 280.335C121.941 280.335 124.494 277.782 124.494 274.632C124.494 271.483 121.941 268.93 118.791 268.93C115.642 268.93 113.089 271.483 113.089 274.632C113.089 277.782 115.642 280.335 118.791 280.335Z" fill="#E97545"/>
<path d="M102.242 302.379L98.8274 297.964C98.6574 297.745 98.5659 297.474 98.5659 297.196V277.516Lnan nanL98.5659 277.516C101.838 277.516 104.491 280.168 104.491 283.441V301.611C104.491 302.81 102.974 303.327 102.242 302.379Z" fill="#E97545"/>
<path d="M254.548 298.536H251.12V293.305H254.548V293.885H251.771V295.571H254.493V296.152H251.771V297.956H254.548V298.536Z" fill="#262626"/>
<path d="M246.18 298.631C245.27 298.631 244.604 298.285 244.172 297.799L244.557 297.305C244.902 297.689 245.467 298.05 246.204 298.05C247.137 298.05 247.435 297.548 247.435 297.148C247.435 295.799 244.337 296.544 244.337 294.678C244.337 293.815 245.106 293.227 246.133 293.227C246.933 293.227 247.553 293.493 247.992 293.956L247.6 294.434C247.208 294.003 246.659 293.807 246.086 293.807C245.459 293.807 245.012 294.144 245.012 294.638C245.012 295.815 248.11 295.14 248.11 297.093C248.11 297.854 247.592 298.631 246.18 298.631Z" fill="#262626"/>
<path d="M241.221 298.536H240.57V293.305H241.221V298.536Z" fill="#262626"/>
<path d="M234.918 298.631C233.365 298.631 232.322 297.47 232.322 295.925C232.322 294.38 233.365 293.219 234.918 293.219C236.463 293.219 237.514 294.38 237.514 295.925C237.514 297.47 236.463 298.631 234.918 298.631ZM234.918 298.05C236.086 298.05 236.839 297.14 236.839 295.925C236.839 294.701 236.086 293.799 234.918 293.799C233.741 293.799 232.996 294.701 232.996 295.925C232.996 297.14 233.741 298.05 234.918 298.05Z" fill="#262626"/>
<path d="M229.27 298.536H228.643L225.592 294.364V298.536H224.941V293.305H225.607L228.619 297.391V293.305H229.27V298.536Z" fill="#262626"/>
<path d="M217.802 298.536H214.375V293.305H217.802V293.885H215.026V295.571H217.747V296.152H215.026V297.956H217.802V298.536Z" fill="#262626"/>
<path d="M211.113 298.536H210.462V296.136H207.403V298.536H206.752V293.305H207.403V295.556H210.462V293.305H211.113V298.536Z" fill="#262626"/>
<path d="M202.184 298.536H201.533V293.885H199.878V293.305H203.847V293.885H202.184V298.536Z" fill="#262626"/>
<path d="M190.187 298.536H189.536V293.305H191.638C192.689 293.305 193.277 294.026 193.277 294.881C193.277 295.736 192.673 296.458 191.638 296.458H190.187V298.536ZM191.559 295.877C192.179 295.877 192.603 295.469 192.603 294.881C192.603 294.293 192.179 293.885 191.559 293.885H190.187V295.877H191.559Z" fill="#262626"/>
<path d="M186.271 298.536H185.62V293.305H186.271V298.536Z" fill="#262626"/>
<path d="M182.839 298.536H182.031L180.047 296.183L179.521 296.779V298.536H178.87V293.305H179.521V296.011L181.835 293.305H182.651L180.47 295.791L182.839 298.536Z" fill="#262626"/>
<path d="M173.929 298.631C173.019 298.631 172.353 298.285 171.921 297.799L172.305 297.305C172.651 297.689 173.215 298.05 173.953 298.05C174.886 298.05 175.184 297.548 175.184 297.148C175.184 295.799 172.086 296.544 172.086 294.678C172.086 293.815 172.854 293.227 173.882 293.227C174.682 293.227 175.302 293.493 175.741 293.956L175.349 294.434C174.956 294.003 174.407 293.807 173.835 293.807C173.207 293.807 172.76 294.144 172.76 294.638C172.76 295.815 175.858 295.14 175.858 297.093C175.858 297.854 175.341 298.631 173.929 298.631Z" fill="#262626"/>
<path d="M298.837 284.662C295.369 284.662 292.33 283.592 290.232 281.451L292.073 278.626C293.486 280.167 296.226 281.58 299.008 281.58C301.92 281.58 303.461 280.253 303.461 278.412C303.461 276.443 301.106 275.886 298.452 275.287C294.941 274.473 290.831 273.531 290.831 269.079C290.831 265.783 293.657 262.957 298.709 262.957C302.262 262.957 304.831 264.241 306.586 265.911L304.873 268.608C303.675 267.153 301.363 266.082 298.751 266.082C296.14 266.082 294.513 267.281 294.513 268.951C294.513 270.706 296.739 271.177 299.308 271.776C302.904 272.59 307.185 273.574 307.185 278.326C307.185 281.88 304.274 284.662 298.837 284.662Z" fill="#262626"/>
<path d="M281.782 260.728C280.455 260.728 279.299 259.615 279.299 258.245C279.299 256.875 280.455 255.805 281.782 255.805C283.152 255.805 284.265 256.875 284.265 258.245C284.265 259.615 283.152 260.728 281.782 260.728ZM283.751 284.146H279.898V263.468H283.751V284.146Z" fill="#262626"/>
<path d="M270.365 284.659C267.112 284.659 265.442 282.818 265.442 279.565V266.85H262.017V263.467H265.442V257.816H269.295V263.467H273.491V266.85H269.295V278.708C269.295 280.164 269.98 281.234 271.307 281.234C272.206 281.234 273.02 280.849 273.405 280.421L274.39 283.332C273.576 284.102 272.378 284.659 270.365 284.659Z" fill="#262626"/>
<path d="M256.426 284.149H252.573V270.92C252.573 267.495 250.818 266.382 248.164 266.382C245.766 266.382 243.583 267.838 242.47 269.379V284.149H238.617V263.471H242.47V266.382C243.84 264.712 246.58 262.957 249.791 262.957C254.157 262.957 256.426 265.269 256.426 269.636V284.149Z" fill="#262626"/>
<path d="M228.368 260.728C227.041 260.728 225.885 259.615 225.885 258.245C225.885 256.875 227.041 255.805 228.368 255.805C229.738 255.805 230.851 256.875 230.851 258.245C230.851 259.615 229.738 260.728 228.368 260.728ZM230.337 284.146H226.484V263.468H230.337V284.146Z" fill="#262626"/>
<path d="M209.006 284.662C202.584 284.662 198.56 279.782 198.56 273.788C198.56 267.838 202.584 262.957 209.006 262.957C215.47 262.957 219.452 267.838 219.452 273.788C219.452 279.782 215.47 284.662 209.006 284.662ZM209.006 281.237C213.158 281.237 215.427 277.727 215.427 273.788C215.427 269.892 213.158 266.382 209.006 266.382C204.896 266.382 202.584 269.892 202.584 273.788C202.584 277.727 204.896 281.237 209.006 281.237Z" fill="#262626"/>
<path d="M177.111 284.149H172.83V255.594H184.86C190.725 255.594 193.979 259.618 193.979 264.37C193.979 269.122 190.682 273.146 184.86 273.146H177.111V284.149ZM184.304 269.379C187.386 269.379 189.569 267.367 189.569 264.37C189.569 261.373 187.386 259.361 184.304 259.361H177.111V269.379H184.304Z" fill="#262626"/>
<defs>
<clipPath id="clip0_1_1085">
<rect width="47" height="47" fill="white" transform="translate(135 51)"/>
</clipPath>
</defs>
</svg>
